<svg class="svgOrigin" xmlns="http://www.w3.org/2000/svg" width="600" height="400" x="0px" y="0px" viewBox="0 0 600 400" enable-background="new 0 0 600 400">
<g>
	<rect fill="#D60029" width="600" height="400"/>
	<polygon fill="#0084B5" points="0,0 0,326.289093 483.984375,0 	"/>
	<polygon fill="#FFFFFF" points="503.334015,0 483.984375,0 0,326.289093 0,339.334015 	"/>
	<polygon fill="#00844A" points="600,400 600,73.710907 116.015594,400 	"/>
	<polygon fill="#FFFFFF" points="96.666,400 116.015594,400 600,73.710907 600,60.666 	"/>
	<polygon fill="#FFD600" points="82.140602,52.616207 103.574196,65.654312 115.621094,43.646507 127.667999,65.655312 
		149.107391,52.61911 148.537094,77.704109 173.621094,77.133812 160.585892,98.571304 182.593796,110.621109 
		160.585892,122.667999 173.619095,144.107407 148.535202,143.538101 149.1035,168.620102 127.669899,155.584 
		115.617195,177.590805 103.570297,155.582001 82.128899,168.616211 82.703102,143.53421 57.617199,144.100601 70.656303,122.65921 
		48.648399,110.613304 70.658203,98.570305 57.625,77.127907 82.707001,77.70121 	"/>
	<circle fill="#0084B5" cx="115.621094" cy="110.62011" r="41.353497"/>
	<circle fill="#FFD600" cx="115.621101" cy="110.62011" r="35.701199"/>
</g>
</svg>
