<svg class="svgOrigin" xmlns="http://www.w3.org/2000/svg" width="600" height="400" x="0px" y="0px" viewBox="0 0 600 400" enable-background="new 0 0 600 400">
<g>
	<rect x="0.000488" y="-0.00049" fill="#FFFFFF" width="599.999512" height="400.000488"/>
	<path fill="#005284" d="M123.306595,195.327606c-10.375,0-38.807098-21.516098-44.568794-49.948196
		c-5.764198-28.432106-8.069801-69.927299-8.069801-69.927299s11.142502-10.758705,52.638596-10.758705
		c41.494202,0,52.636307,10.758705,52.636307,10.758705s-2.30571,41.495193-8.067413,69.927299
		C162.111801,173.811508,133.679703,195.327606,123.306595,195.327606"/>
	<rect x="0.000488" y="266.665985" fill="#D60029" width="599.999512" height="133.334"/>
	<rect x="0.000488" y="133.332993" fill="#005284" width="599.999512" height="133.332993"/>
	<polygon fill="#FFFF00" points="139.022003,69.395508 140.704102,72.311508 144.0728,72.311508 142.3862,75.227509 
		144.0728,78.143105 140.704102,78.143105 139.022003,81.059105 137.337891,78.143105 133.971191,78.143105 135.65329,75.227509 
		133.971191,72.311508 137.337891,72.311508 	"/>
	<path fill="#DE0021" d="M123.306595,195.327606c-10.375,0-38.807098-21.516098-44.568794-49.948196
		c-5.764198-28.432106-8.069801-69.927299-8.069801-69.927299s0.609299-0.580505,2.040001-1.466301l0.064003,1.223701
		c0.407196,6.6548,2.814896,44.315895,7.971695,69.760201c5.551704,27.40239,33.060997,48.314987,42.562897,48.314987
		c9.501999,0,37.008804-20.912598,42.561096-48.314987c5.156708-25.444305,7.563904-63.1054,7.969711-69.760201l0.065887-1.223701
		c1.432098,0.885796,2.039612,1.466301,2.039612,1.466301s-2.30571,41.495193-8.067413,69.927299
		C162.111801,173.811508,133.679703,195.327606,123.306595,195.327606z"/>
	<path fill="#FFFFFF" d="M123.306595,168.149399c-6.225494,0.126007-8.247498-4.125992-13.026299-3.991699
		c-4.747101-0.143097-6.828598,4.016602-13.533699,4.134308c-1.042999-0.022003-2.221695-0.325699-3.476601-0.800797
		c10.375504,13.457489,23.926804,22.107391,30.036598,22.107391c6.109406,0,19.659195-8.649902,30.034195-22.107391
		c-1.254898,0.475098-2.435501,0.778793-3.474091,0.800797c-6.709-0.117706-8.791-4.277405-13.538101-4.134308
		C131.553696,164.023407,129.5298,168.023407,123.306595,168.149399z"/>
	<path fill="#FFFFFF" d="M123.306595,103.067909L111.1353,127.430206l-8.407303-10.115295l-20.721695,28.942398
		c0.626999,2.063995,1.412201,4.063995,2.2593,6.031799c4.6651,3.487305,10.059601,6.533203,12.482895,6.455002
		c5.546402,0.117203,7.454102-3.985809,13.533699-4.128403c6.049805,0.133804,8.017601,4.111404,13.024399,3.985901
		c5.002502-0.126007,6.972702-3.852097,13.022003-3.985901c6.079605,0.142593,7.987793,4.245605,13.533691,4.128403
		c2.421906,0.078201,7.817902-2.967697,12.48291-6.455002c0.847198-1.967804,1.630402-3.967804,2.261703-6.031799
		l-20.726013-28.942398l-8.405289,10.115295L123.306595,103.067909z"/>
	<path fill="#FFFFFF" d="M123.306595,160.648407c-6.227501,0.125504-8.247498-4.124008-13.024399-3.990204
		c-4.749001-0.142593-6.830498,4.020004-13.533699,4.132797c-2.9067-0.059998-6.822701-2.158691-10.7724-4.811005
		c1.426201,2.808105,3.034599,5.497513,4.780701,8.040512c2.475601,1.369598,4.675301,2.263702,5.989799,2.223602
		c5.548302,0.117203,7.452103-3.987808,13.533699-4.13031c6.049797,0.134705,8.019501,4.113708,13.026299,3.987808
		c5.006897-0.126007,6.974701-3.853104,13.022003-3.987808c6.081604,0.142502,7.987793,4.247513,13.538101,4.13031
		c1.3125,0.0401,3.512192-0.854004,5.987305-2.223602c1.748489-2.542999,3.354492-5.232407,4.781296-8.040512
		c-3.9478,2.652313-7.8638,4.751007-10.77301,4.811005c-6.70459-0.112793-8.784698-4.275391-13.533691-4.132797
		C131.549789,156.524399,129.531693,160.522507,123.306595,160.648407z"/>
	<polygon fill="#FFFF00" points="107.591301,69.395508 105.9067,72.311508 102.540497,72.311508 104.222694,75.227509 
		102.540497,78.143105 105.9067,78.143105 107.591301,81.059105 109.273399,78.143105 112.641594,78.143105 110.955597,75.227509 
		112.641594,72.311508 109.273399,72.311508 	"/>
	<polygon fill="#FFFF00" points="123.306595,87.572311 121.622093,90.488304 118.255898,90.488304 119.938004,93.404305 
		118.255898,96.320305 121.622093,96.320305 123.306595,99.235809 124.9888,96.320305 128.357391,96.320305 126.670898,93.404305 
		128.357391,90.488304 124.9888,90.488304 	"/>
</g>
</svg>
