<svg class="svgOrigin" xmlns="http://www.w3.org/2000/svg" width="600" height="400" x="0px" y="0px" viewBox="0 0 600 400" enable-background="new 0 0 600 400">
<g>
	<rect fill="#D60029" width="600" height="400"/>
	<polygon fill="#00844A" stroke="#000000" points="300,115.885704 317.539093,169.863312 374.292999,169.863312 
		328.377014,203.222702 345.915985,257.199219 300,223.839798 254.085892,257.199219 271.622986,203.222702 225.707001,169.863312 
		282.460907,169.863312 	"/>
	<line fill="none" stroke="#000000" x1="317.539093" y1="169.863312" x2="307.720703" y2="169.863312"/>
	<line fill="none" stroke="#000000" x1="320.572296" y1="179.201202" x2="310.753906" y2="179.201202"/>
	<line fill="none" stroke="#000000" x1="292.281281" y1="169.863312" x2="289.246094" y2="179.201202"/>
	<line fill="none" stroke="#000000" x1="279.427704" y1="179.201202" x2="282.460907" y2="169.863312"/>
	<line fill="none" stroke="#000000" x1="274.656281" y1="193.884811" x2="282.601593" y2="199.656204"/>
	<line fill="none" stroke="#000000" x1="279.566406" y1="208.99411" x2="271.622986" y2="203.222702"/>
	<line fill="none" stroke="#000000" x1="292.054688" y1="218.068405" x2="300" y2="212.296906"/>
	<line fill="none" stroke="#000000" x1="307.94339" y1="218.068405" x2="300" y2="223.839798"/>
	<line fill="none" stroke="#000000" x1="317.400391" y1="199.655304" x2="320.433594" y2="208.99411"/>
	<line fill="none" stroke="#000000" x1="328.377014" y1="203.222702" x2="325.343781" y2="193.883804"/>
	<polygon fill="#D60021" stroke="#000000" points="279.566406,208.99411 271.847687,232.75 292.054688,218.068405 	"/>
	<polygon fill="#D60021" stroke="#000000" points="345.552704,179.201202 320.572296,179.201202 325.343781,193.883804 	"/>
	<polygon fill="#D60021" stroke="#000000" points="254.445297,179.201202 274.656281,193.884811 279.427704,179.201202 	"/>
	<polygon fill="#D60021" stroke="#000000" points="300,146.1035 292.281281,169.863312 307.720703,169.863312 	"/>
	<polygon fill="#D60021" stroke="#000000" points="307.94339,218.068405 328.154297,232.751999 320.433594,208.99411 	"/>
	<polygon fill="#D60021" stroke="#000000" points="300,212.296906 317.400391,199.655304 310.753906,179.201202 
		289.246094,179.201202 282.601593,199.656204 	"/>
</g>
</svg>
