<svg class="svgOrigin" xmlns="http://www.w3.org/2000/svg" width="600" height="400" x="0px" y="0px" viewBox="0 0 600 400" enable-background="new 0 0 600 400">
<g>
	<rect x="0.000488" y="-0.00049" fill="#D60021" width="599.999512" height="400.000488"/>
	<rect x="0.000488" y="-0.00049" fill="#004A84" width="272.916504" height="199.665497"/>
	<path fill="#FFFFFF" d="M195.374496,99.832504c0-1.692398-0.087906-3.362793-0.227493-5.018997l8.08049-1.809097
		l-3.465302-15.471703l-8.056595,1.8032c-1.240799-3.343201-2.780304-6.540001-4.579102-9.56591l6.477997-5.137688
		l-9.851593-12.422802l-6.490204,5.146492c-2.548294-2.448292-5.310593-4.673889-8.265106-6.635792l3.598114-7.446297
		l-14.275909-6.898403l-3.596191,7.441902c-3.325699-1.084-6.781204-1.875999-10.337402-2.3545v-8.278301h-15.854904v8.278301
		c-3.365799,0.452599-6.643097,1.1777-9.803802,2.173798l-3.520493-7.467297l-14.340805,6.763199l3.528305,7.483898
		c-2.974106,1.934101-5.760704,4.127399-8.332001,6.5513l-6.439499-5.2085l-9.969704,12.328598l6.420403,5.192902
		c-1.829102,3.008804-3.382301,6.200195-4.655197,9.530701l-8.047401-1.883797l-3.611298,15.438499l8.053696,1.8853
		c-0.172897,1.837898-0.2705,3.697701-0.2705,5.580994c0,1.691902,0.087898,3.362305,0.227501,5.0186l-8.080597,1.809105
		l3.465393,15.471596l8.056602-1.8032c1.2407,3.343803,2.780304,6.5401,4.579102,9.565895l-6.477997,5.137711l9.851593,12.422897
		l6.490204-5.1465c2.548302,2.448196,5.310493,4.673798,8.265099,6.635696l-3.598099,7.446304l14.275894,6.899002l3.5961-7.442398
		c3.325706,1.084,6.7808,1.875885,10.337502,2.354492v8.27829H144.3862v-8.27829
		c3.365799-0.452713,6.643097-1.177795,9.803696-2.173401l3.520508,7.466797l14.340897-6.762695l-3.528412-7.484406
		c2.973709-1.933502,5.760803-4.127396,8.332108-6.55069l6.439392,5.208496l9.969315-12.329102l-6.419907-5.192398
		c1.829102-3.008804,3.382294-6.200699,4.654694-9.531311l8.047913,1.884308l3.610794-15.438995l-8.053192-1.884705
		C195.276901,103.575211,195.374496,101.715309,195.374496,99.832504z M174.660599,99.832504
		c0,21.097702-17.104004,38.201706-38.202103,38.201706c-21.097702,0-38.201698-17.104004-38.201698-38.201706
		c0-21.097595,17.103996-38.201595,38.201698-38.201595C157.556595,61.630909,174.660599,78.734909,174.660599,99.832504z"/>
	<polygon fill="#FFFFFF" points="136.458496,8.89011 138.718292,15.844709 146.030792,15.844709 140.1147,20.14361 
		142.374496,27.09811 136.458496,22.79981 130.542999,27.09811 132.802704,20.14361 126.886696,15.844709 134.199203,15.844709 	"/>
	<polygon fill="#FFFFFF" points="136.458496,171.740707 138.718292,178.695313 146.030792,178.695313 140.1147,182.993698 
		142.374496,189.948212 136.458496,185.649902 130.542999,189.948212 132.802704,182.993698 126.886696,178.695313 
		134.199203,178.695313 	"/>
	<polygon fill="#FFFFFF" points="175.781296,16.25631 178.041,23.211409 185.352997,23.211409 179.4375,27.509809 
		181.697296,34.464409 175.781296,30.166 169.865692,34.464409 172.125,27.509809 166.209503,23.211409 173.5215,23.211409 	"/>
	<polygon fill="#FFFFFF" points="200.970688,41.445808 203.230499,48.40041 210.542496,48.40041 204.626999,52.699207 
		206.886688,59.653809 200.970688,55.355507 195.055191,59.653809 197.314499,52.699207 191.398895,48.40041 198.710892,48.40041 	
		"/>
	<polygon fill="#FFFFFF" points="216.186493,72.005905 218.446289,78.960411 225.758789,78.960411 219.842789,83.258804 
		222.102493,90.213409 216.186493,85.915001 210.270996,90.213409 212.530792,83.258804 206.6147,78.960411 213.9272,78.960411 	"/>
	<polygon fill="#FFFFFF" points="216.186493,108.831108 218.446289,115.785606 225.758789,115.785606 219.842789,120.084 
		222.102493,127.038605 216.186493,122.740204 210.270996,127.038605 212.530792,120.084 206.6147,115.785606 213.9272,115.785606 	
		"/>
	<polygon fill="#FFFFFF" points="200.587402,141.820313 202.846695,148.774902 210.159195,148.774902 204.243195,153.073212 
		206.502899,160.027802 200.587402,155.729507 194.671402,160.027802 196.931198,153.073212 191.015091,148.774902 
		198.327591,148.774902 	"/>
	<polygon fill="#FFFFFF" points="173.479492,163.3013 175.739288,170.255905 183.051788,170.255905 177.135696,174.554703 
		179.395493,181.509308 173.479492,177.210907 167.563995,181.509308 169.8237,174.554703 163.9077,170.255905 171.2202,170.255905 
			"/>
	<polygon fill="#FFFFFF" points="97.1362,16.25631 94.876503,23.211409 87.564499,23.211409 93.480003,27.509809 91.2202,34.464409 
		97.1362,30.166 103.051796,34.464409 100.792496,27.509809 106.708,23.211409 99.396004,23.211409 	"/>
	<polygon fill="#FFFFFF" points="71.9468,41.445808 69.686996,48.40041 62.3745,48.40041 68.290497,52.699207 66.0308,59.653809 
		71.9468,55.355507 77.862297,59.653809 75.602997,52.699207 81.5186,48.40041 74.2061,48.40041 	"/>
	<polygon fill="#FFFFFF" points="56.730499,72.005905 54.471199,78.960411 47.158699,78.960411 53.074699,83.258804 
		50.814899,90.213409 56.730499,85.915001 62.6465,90.213409 60.3867,83.258804 66.302696,78.960411 58.9902,78.960411 	"/>
	<polygon fill="#FFFFFF" points="56.730499,108.831108 54.471199,115.785606 47.158699,115.785606 53.074699,120.084 
		50.814899,127.038605 56.730499,122.740204 62.6465,127.038605 60.3867,120.084 66.302696,115.785606 58.9902,115.785606 	"/>
	<polygon fill="#FFFFFF" points="72.330101,141.820313 70.070801,148.774902 62.758301,148.774902 68.674301,153.073212 
		66.414597,160.027802 72.330101,155.729507 78.246101,160.027802 75.986298,153.073212 81.902298,148.774902 74.589798,148.774902 
			"/>
	<polygon fill="#FFFFFF" points="99.4375,163.3013 97.1782,170.255905 89.8657,170.255905 95.7817,174.554703 93.522003,181.509308 
		99.4375,177.210907 105.3535,181.509308 103.093796,174.554703 109.009796,170.255905 101.697296,170.255905 	"/>
	<path fill="#FFFFFF" stroke="#004A84" stroke-width="1.87126" d="M151.634796,119.74321
		c0,0,11.383804-34.893105,23.561996-46.556702c9.515106,8.9356,10.559097,20.728996,10.559097,20.728996
		s1.021912-23.183594-9.916489-28.747505c-11.257401,8.08831-30.361404,32.842308-38.397507,43.585907l-0.385696-0.063995
		c-4.621109-11.753403-16.706604-40.262199-28.147499-48.48291c-10.938499,9.329109-19.4356,21.822304-19.4356,21.822304
		s9.920502-4.703094,19.4356-13.638695c12.1782,11.663597,12.170395,51.3526,12.170395,51.3526H151.634796z"/>
	<path fill="#FFFFFF" stroke="#004A84" stroke-width="1.87126" d="M165.197296,75.333
		c0.067795,4.673309-1.9048,8.490211-4.404297,8.526405c-2.500504,0.035591-4.5811-3.723198-4.647995-8.3965
		c-0.067902-4.670906,1.904785-8.487801,4.405289-8.523903C163.049789,66.903305,165.130402,70.66111,165.197296,75.333z"/>
	<line fill="#FFFFFF" stroke="#004A84" stroke-width="1.87126" x1="160.550293" y1="66.939003" x2="160.792999" y2="83.859406"/>
	<path fill="#FFFFFF" stroke="#004A84" stroke-width="1.87126" d="M158.2827,82.768608
		c1.202698,4.515099,0.218796,8.697701-2.196808,9.340797c-2.416489,0.643501-5.349091-2.495094-6.551697-7.011299
		c-1.203094-4.514595-0.219299-8.697197,2.197205-9.340302C154.147003,75.114311,157.080093,78.252907,158.2827,82.768608z"/>
	<line fill="#FFFFFF" stroke="#004A84" stroke-width="1.87126" x1="151.7314" y1="75.757805" x2="156.085892" y2="92.109406"/>
	<path fill="#FFFFFF" stroke="#004A84" stroke-width="1.87126" d="M136.356903,149.417999
		c0,0-8.920906-31.644592-21.993103-43.861794c-13.979004,0-21.226601,22.932106-21.226601,22.932106
		s6.778801-7.332504,17.360802-14.974106c10.582092,13.128899,15.719299,47.46579,15.719299,47.46579l10.139603-2.155792
		l10.139191,2.155792c0,0,7.446304-36.644592,18.027802-49.773491c10.582108,7.641602,13.130402,19.203697,13.130402,19.203697
		s-1.960007-23.123596-13.522003-27.238297C151.060501,115.389206,136.356903,149.417999,136.356903,149.417999z"/>
	<path fill="#FFFFFF" stroke="#004A84" stroke-width="1.87126" d="M163.196793,92.316406
		c-3.256897,3.352501-7.350601,4.6558-9.1436,2.913597c-1.792892-1.741699-0.6064-5.871597,2.650406-9.223198
		c3.255402-3.350601,7.349091-4.653809,9.143097-2.911598C167.638702,84.83741,166.453094,88.965805,163.196793,92.316406z"/>
	<line fill="#FFFFFF" stroke="#004A84" stroke-width="1.87126" x1="165.846695" y1="83.095207" x2="154.053192" y2="95.230003"/>
	<path fill="#FFFFFF" stroke="#004A84" stroke-width="1.87126" d="M159.299789,102.326706
		c-3.25679,3.352501-7.350586,4.656204-9.143494,2.914001c-1.792999-1.742203-0.606506-5.872002,2.650299-9.223099
		c3.255402-3.350609,7.349197-4.654305,9.143097-2.912102C163.742203,94.84771,162.556198,98.976105,159.299789,102.326706z"/>
	<line fill="#FFFFFF" stroke="#004A84" stroke-width="1.87126" x1="161.949692" y1="93.105507" x2="150.156296" y2="105.240707"/>
	<path fill="#FFFFFF" stroke="#004A84" stroke-width="1.87126" d="M154.107895,98.223106
		c0,4.672897-2.026794,8.460999-4.525894,8.460999c-2.500504,0-4.527298-3.788101-4.527298-8.460999
		c0-4.672302,2.026794-8.4599,4.527298-8.4599C152.0811,89.763206,154.107895,93.550804,154.107895,98.223106z"/>
	<line fill="#FFFFFF" stroke="#004A84" stroke-width="1.87126" x1="149.582001" y1="89.763206" x2="149.582001" y2="106.684105"/>
	<path fill="#FFFFFF" stroke="#004A84" stroke-width="1.87126" d="M154.444794,112.790504
		c-3.25679,3.3526-7.350098,4.656303-9.143494,2.914101c-1.792999-1.742195-0.606506-5.871605,2.650391-9.223198
		c3.25531-3.350502,7.349106-4.654297,9.143509-2.912102C158.887192,105.311508,157.701202,109.440407,154.444794,112.790504z"/>
	<line fill="#FFFFFF" stroke="#004A84" stroke-width="1.87126" x1="157.0952" y1="103.569305" x2="145.3013" y2="115.704605"/>
	<path fill="#FFFFFF" stroke="#004A84" stroke-width="2.04584" d="M141.276901,150.715805
		c0.9897,4.841797-0.450699,9.227097-3.217804,9.792496c-2.768097,0.566406-5.813995-2.901901-6.803696-7.744598
		c-0.990311-4.841797,0.450195-9.2276,3.2173-9.793991C137.240692,142.404312,140.286591,145.872604,141.276901,150.715805z"/>
	<line fill="#FFFFFF" stroke="#004A84" stroke-width="2.04584" x1="134.472702" y1="142.969711" x2="138.059097" y2="160.508301"/>
	<path fill="#FFFFFF" stroke="#004A84" stroke-width="2.04584" d="M147.199203,109.290504
		c0,4.942902-2.289505,8.950203-5.114197,8.950203c-2.825211,0-5.114807-4.007301-5.114807-8.950203
		c0-4.942795,2.289597-8.950699,5.114807-8.950699C144.909698,100.339806,147.199203,104.34771,147.199203,109.290504z"/>
	<path fill="#FFFFFF" stroke="#004A84" stroke-width="1.87126" d="M147.9785,125.332504
		c-3.256302,3.3526-7.350098,4.656296-9.143097,2.914108c-1.793396-1.742203-0.6064-5.872108,2.649994-9.223709
		c3.255798-3.349998,7.349106-4.653793,9.143494-2.911598C152.420898,117.853508,151.235397,121.981911,147.9785,125.332504z"/>
	<line fill="#FFFFFF" stroke="#004A84" stroke-width="1.87126" x1="150.628891" y1="116.111305" x2="138.835403" y2="128.246613"/>
	<path fill="#FFFFFF" stroke="#004A84" stroke-width="1.87126" d="M144.842804,137.4814
		c-3.256409,3.3526-7.350113,4.656311-9.143112,2.914108c-1.793396-1.742203-0.6064-5.871597,2.649902-9.223099
		c3.255905-3.350601,7.349609-4.654305,9.1436-2.912109C149.285202,130.002411,148.099594,134.131302,144.842804,137.4814z"/>
	<line fill="#FFFFFF" stroke="#004A84" stroke-width="1.87126" x1="147.493195" y1="128.2603" x2="135.699692" y2="140.395508"/>
	<line fill="#FFFFFF" stroke="#004A84" stroke-width="2.04584" x1="142.085007" y1="100.339806" x2="142.085007" y2="118.240707"/>
	<path fill="#FFFFFF" stroke="#004A84" stroke-width="1.85417" d="M137.307602,96.383804
		c0,4.6875-1.98291,8.487305-4.430206,8.487305c-2.446198,0-4.430099-3.799805-4.430099-8.487305
		c0-4.687996,1.983902-8.487801,4.430099-8.487801C135.324692,87.896004,137.307602,91.695808,137.307602,96.383804z"/>
	<line fill="#FFFFFF" stroke="#004A84" stroke-width="1.85417" x1="132.877396" y1="87.896004" x2="132.877396" y2="104.871109"/>
	<path fill="#FFFFFF" stroke="#004A84" stroke-width="1.74687" d="M129.857895,52.09771
		c0.691895,4.1987-0.660599,7.9174-3.021996,8.306099c-2.360802,0.389702-4.835899-2.6982-5.528305-6.8955
		c-0.692398-4.1987,0.661201-7.9165,3.022003-8.306198C126.690895,44.812508,129.165497,47.90041,129.857895,52.09771z"/>
	<line fill="#FFFFFF" stroke="#004A84" stroke-width="1.74687" x1="124.329597" y1="45.20211" x2="126.835899" y2="60.403809"/>
	<path fill="#FFFFFF" stroke="#004A84" stroke-width="1.74687" d="M126.376495,61.260307
		c1.417404,4.011696,0.737305,7.910599-1.5196,8.706505c-2.256798,0.797394-5.234299-1.809105-6.650795-5.820808
		c-1.417503-4.011696-0.736404-7.909695,1.518997-8.707005C121.981895,54.642109,124.959,57.248508,126.376495,61.260307z"/>
	<line fill="#FFFFFF" stroke="#004A84" stroke-width="1.74687" x1="119.725098" y1="55.438999" x2="124.856895" y2="69.966812"/>
	<path fill="#FFFFFF" stroke="#004A84" stroke-width="1.74687" d="M133.160202,73.206505
		c-1.835007,3.838905-5.0728,6.114304-7.231506,5.081604c-2.159698-1.031799-2.422401-4.981003-0.586395-8.818901
		c1.834-3.838799,5.071793-6.113209,7.230499-5.081497C134.732391,65.419411,134.994095,69.367706,133.160202,73.206505z"/>
	<path fill="#FFFFFF" stroke="#004A84" stroke-width="2.00717" d="M127.325195,108.173309
		c2.8423,3.652397,3.289505,8.059601,0.997101,9.842796c-2.291496,1.783203-6.454102,0.265602-9.296402-3.387199
		c-2.841797-3.652298-3.287094-8.060501-0.996597-9.842796C120.3228,103.001999,124.483398,104.520508,127.325195,108.173309z"/>
	<line fill="#FFFFFF" stroke="#004A84" stroke-width="2.00717" x1="118.029297" y1="104.78611" x2="128.322296" y2="118.016106"/>
	<path fill="#FFFFFF" stroke="#004A84" stroke-width="2.00717" d="M131.636703,118.559608
		c2.8423,3.652298,3.289597,8.059502,0.997086,9.842705c-2.291489,1.783188-6.454094,0.265686-9.296394-3.387703
		c-2.841797-3.651802-3.287598-8.060501-0.996597-9.842201C124.6343,113.388206,128.794891,114.906204,131.636703,118.559608z"/>
	<line fill="#FFFFFF" stroke="#004A84" stroke-width="2.00717" x1="122.340797" y1="115.172409" x2="132.633789" y2="128.402313"/>
	<line fill="#FFFFFF" stroke="#004A84" stroke-width="1.74687" x1="132.5728" y1="64.387711" x2="125.928696" y2="78.288109"/>
	<path fill="#FFFFFF" stroke="#004A84" stroke-width="1.74687" d="M136.024399,84.246605
		c-1.835403,3.839302-5.072708,6.1147-7.2314,5.082001c-2.159706-1.032196-2.422905-4.980896-0.586502-8.818794
		c1.834-3.838905,5.071304-6.113808,7.230499-5.081604C137.596695,76.459999,137.858398,80.407707,136.024399,84.246605z"/>
	<path fill="#FFFFFF" stroke="#004A84" stroke-width="2.00717" d="M128.10939,97.591805
		c2.8423,3.651901,3.289505,8.059601,0.997009,9.842804c-2.291504,1.7827-6.454102,0.265602-9.296303-3.387703
		c-2.841797-3.652397-3.287201-8.0606-0.996597-9.842796C121.106895,92.42041,125.267593,93.938507,128.10939,97.591805z"/>
	<line fill="#FFFFFF" stroke="#004A84" stroke-width="2.00717" x1="118.813499" y1="94.204109" x2="129.1064" y2="107.434608"/>
	<line fill="#FFFFFF" stroke="#004A84" stroke-width="1.74687" x1="135.436996" y1="75.428207" x2="128.792999" y2="89.328606"/>
	<path fill="#FFFFFF" stroke="#004A84" stroke-width="2.00717" d="M138.961899,111.310997
		c0,4.62851-2.352509,8.381409-5.257309,8.381409c-2.902786,0-5.257294-3.752899-5.257294-8.381409
		c0-4.627892,2.354507-8.380791,5.257294-8.380791C136.60939,102.930206,138.961899,106.683105,138.961899,111.310997z"/>
	<line fill="#FFFFFF" stroke="#004A84" stroke-width="2.00717" x1="133.70459" y1="102.930206" x2="133.70459" y2="119.692406"/>
	<path fill="#FFFFFF" stroke="#004A84" stroke-width="2.00717" d="M126.737801,72.116707
		c2.842293,3.651901,3.289497,8.059601,0.997093,9.842293c-2.291496,1.783211-6.454094,0.266106-9.296394-3.387192
		c-2.841805-3.652397-3.287102-8.0606-0.996605-9.842812C119.735397,66.944809,123.896004,68.463409,126.737801,72.116707z"/>
	<line fill="#FFFFFF" stroke="#004A84" stroke-width="2.00717" x1="117.441895" y1="68.728996" x2="127.734894" y2="81.959"/>
	<path fill="#FFFFFF" stroke="#004A84" stroke-width="2.00717" d="M133.791504,130.120605
		c2.841797,3.651901,3.289597,8.059097,0.997086,9.8423c-2.291489,1.783203-6.454086,0.265594-9.296394-3.387192
		c-2.841797-3.652405-3.287598-8.060608-0.997101-9.842804C126.789093,124.948708,130.949692,126.467308,133.791504,130.120605z"/>
	<line fill="#FFFFFF" stroke="#004A84" stroke-width="2.00717" x1="124.495094" y1="126.73291" x2="134.788589" y2="139.962906"/>
	<path fill="#FFFFFF" stroke="#004A84" stroke-width="2.00717" d="M126.737801,85.049805
		c2.842293,3.652306,3.289497,8.059601,0.997093,9.842804c-2.291496,1.783195-6.454094,0.265602-9.296394-3.387199
		c-2.841805-3.652412-3.287102-8.0606-0.996605-9.842804C119.735397,79.87841,123.896004,81.397003,126.737801,85.049805z"/>
	<path fill="#FFFFFF" stroke="#004A84" stroke-width="2.04584" d="M146.238297,144.304703
		c-1.870102,4.574707-5.505905,7.4189-8.119202,6.350098c-2.616196-1.068893-3.218704-5.644989-1.348602-10.2202
		c1.86911-4.575195,5.504898-7.419495,8.11911-6.351608C147.504898,135.153305,148.108398,139.729507,146.238297,144.304703z"/>
	<line fill="#FFFFFF" stroke="#004A84" stroke-width="2.04584" x1="144.889603" y1="134.082993" x2="138.119095" y2="150.6548"/>
	<line fill="#FFFFFF" stroke="#004A84" stroke-width="2.00717" x1="117.441895" y1="81.662605" x2="127.734894" y2="94.892609"/>
	<path fill="#FFFFFF" stroke="#004A84" stroke-width="2.04584" d="M141.471191,126.270508
		c0,4.942902-2.289597,8.950699-5.114288,8.950699c-2.825211,0-5.1147-4.007797-5.1147-8.950699s2.28949-8.950699,5.1147-8.950699
		C139.181595,117.319809,141.471191,121.327606,141.471191,126.270508z"/>
	<line fill="#FFFFFF" stroke="#004A84" stroke-width="2.04584" x1="136.356903" y1="117.319809" x2="136.356903" y2="135.221207"/>
	<path fill="#FFFFFF" stroke="#004A84" stroke-width="2.04584" d="M138.351593,141.039108
		c1.657196,4.656693,0.843201,9.200195-1.817902,10.146896c-2.661102,0.947296-6.162598-2.060501-7.819794-6.716797
		c-1.657303-4.657211-0.844299-9.200211,1.817795-10.1474C133.19339,133.373993,136.69429,136.382813,138.351593,141.039108z"/>
	<line fill="#FFFFFF" stroke="#004A84" stroke-width="2.04584" x1="130.531693" y1="134.321808" x2="136.533691" y2="151.186005"/>
</g>
</svg>
