<svg class="svgOrigin" xmlns="http://www.w3.org/2000/svg" width="600" height="400" x="0px" y="0px" viewBox="0 0 600 400" enable-background="new 0 0 600 400">
<g>
	<rect fill="#FFFFFF" width="600" height="400"/>
	<path fill="#FFFFFF" d="M600,0"/>
	<path fill="#00844A" d="M206.404297,173.303711L0,35.70121v329.400391l206.595688-137.730484
		c-2.541-8.685608-3.927689-17.863312-3.927689-27.371109C202.667999,190.738312,203.988297,181.791,206.404297,173.303711z"/>
	<path fill="#D60029" d="M546.449158,400L360.625,276.117218c-16.632813,13.265594-37.695313,21.214783-60.625,21.214783
		c-22.929718,0-43.992218-7.949188-60.625-21.212891L53.5527,400H546.449158z"/>
	<path fill="#FFFFFF" d="M0,400"/>
	<path fill="#00844A" d="M393.595703,226.695297L600,364.298798V34.898411L393.404297,172.628906
		c2.540985,8.685593,3.929718,17.863297,3.929718,27.371094C397.334015,209.261703,396.011688,218.209,393.595703,226.695297z"/>
	<path fill="#D60029" d="M53.5508,0L239.375,123.882805c16.632782-13.265594,37.695282-21.214806,60.625-21.214806
		c22.929688,0,43.992188,7.949211,60.625,21.212906L546.447266,0H53.5508z"/>
	<polygon fill="#00844A" points="300,117.171906 311.027283,136.273407 333.084015,136.273407 322.05658,155.375 
		333.084015,174.476608 311.027283,174.476608 300,193.57811 288.972687,174.476608 266.914093,174.476608 277.94339,155.375 
		266.914093,136.273407 288.972687,136.273407 	"/>
	<polygon fill="#E70021" points="299.997986,185.577103 291.281281,170.476608 273.839783,170.476608 282.5625,155.375 
		273.839783,140.274414 291.281281,140.274414 299.997986,125.172905 308.718781,140.274414 326.154297,140.274414 
		317.4375,155.375 326.154297,170.476608 308.718781,170.476608 299.997986,185.577103 	"/>
	<polygon fill="#00844A" points="341.947296,189.82811 352.974579,208.929703 375.031281,208.929703 364.003876,228.031204 
		375.031281,247.132797 352.974579,247.132797 341.947296,266.234406 330.919891,247.132797 308.863281,247.132797 
		319.890594,228.031204 308.863281,208.929703 330.919891,208.929703 	"/>
	<polygon fill="#E70021" points="341.945282,258.234406 333.226593,243.132797 315.789093,243.132797 324.509796,228.031204 
		315.789093,212.929703 333.226593,212.929703 341.945282,197.829102 350.665985,212.929703 368.101593,212.929703 
		359.384796,228.031204 368.101593,243.132797 350.665985,243.132797 341.945282,258.234406 	"/>
	<polygon fill="#00844A" points="258.052704,189.82811 269.080078,208.929703 291.136688,208.929703 280.109406,228.031204 
		291.136688,247.132797 269.080078,247.132797 258.052704,266.234406 247.025391,247.132797 224.968796,247.132797 
		235.996094,228.031204 224.968796,208.929703 247.025391,208.929703 	"/>
	<polygon fill="#E70021" points="258.050781,258.234406 249.332001,243.132797 231.894501,243.132797 240.615189,228.031204 
		231.894501,212.929703 249.332001,212.929703 258.050781,197.830109 266.771484,212.929703 284.207001,212.929703 
		275.490204,228.031204 284.207001,243.132797 266.771484,243.132797 258.050781,258.234406 	"/>
</g>
</svg>
