<svg class="svgOrigin" xmlns="http://www.w3.org/2000/svg" width="600" height="400" x="0px" y="0px" viewBox="0 0 600 400" enable-background="new 0 0 600 400">
<g>
	<rect fill="#D60027" width="600" height="400"/>
	<line fill="#D60027" x1="600" y1="400" x2="0" y2="400"/>
	<polygon fill="#FFFFFF" points="300,400 417.951202,242.732407 182.050797,242.732407 	"/>
	<polygon fill="#005588" points="117.951195,157.268112 182.050797,242.732407 417.951202,242.732407 482.048798,157.268112 	"/>
	<polygon points="600,0 0,0 117.951195,157.268112 482.048798,157.268112 	"/>
	<polygon fill="#FFD700" points="383.695282,140.598114 420.912079,107.175308 370.962891,109.877411 392.525391,64.74511 
		347.390594,86.30571 350.091797,36.356411 316.675781,73.573212 300,26.419909 283.324188,73.573212 249.908188,36.35841 
		252.615189,86.303711 207.476593,64.74411 229.035187,109.87941 179.087891,107.176308 216.304688,140.596207 
		169.152298,157.268112 430.847687,157.268112 	"/>
</g>
</svg>
