<svg class="svgOrigin" xmlns="http://www.w3.org/2000/svg" x="0px"
	 y="0px" width="600" height="400"  viewBox="0 0 600 400" enable-background="new 0 0 600 400">
<g>
	<rect x="0.000488" y="-0.00049" fill="#FFD600" width="599.999512" height="400.000488"/>
	<rect x="26.3799" y="24.76561" fill="#00844A" width="81.8647" height="350.467804"/>
	<rect x="108.244598" y="24.76561" fill="#FFB500" width="81.864799" height="350.467804"/>
	<rect x="217.084" y="24.76561" fill="#6B0010" width="350.468689" height="350.467804"/>
	<g>
		<path fill="#FFD600" d="M255.986801,61.916508c0.925797-0.9263-1.059113-3.6572-1.059113-6.158699s0-6.971699,0-9.722599
			c0-7.282299-6.987289-14.856501-13.289993-14.856501c-6.302307,0-10.0923,2.735399-11.439896,2.735399
			c-1.347198,0-3.753006-4.2349-5.00351-2.982899c-1.2509,1.2514,2.693909,3.849598,2.693909,6.0625
			c0,2.212799-1.924805,4.713799-1.924805,8.755798c0,4.041492,3.368607,14.050301,12.221207,14.050301
			c8.852493,0,11.354996-0.096199,12.605896-0.096199C253.195801,59.703609,254.88089,63.021999,255.986801,61.916508z"/>
		<path fill="none" stroke="#000000" stroke-width="1.02292" d="M255.986801,61.916508
			c0.925797-0.9263-1.059113-3.6572-1.059113-6.158699s0-6.971699,0-9.722599c0-7.282299-6.987289-14.856501-13.289993-14.856501
			c-6.302307,0-10.0923,2.735399-11.439896,2.735399c-1.347198,0-3.753006-4.2349-5.00351-2.982899
			c-1.2509,1.2514,2.693909,3.849598,2.693909,6.0625c0,2.212799-1.924805,4.713799-1.924805,8.755798
			c0,4.041492,3.368607,14.050301,12.221207,14.050301c8.852493,0,11.354996-0.096199,12.605896-0.096199
			C253.195801,59.703609,254.88089,63.021999,255.986801,61.916508z"/>
	</g>
	<g>
		<path fill="#FFD600" d="M254.235794,336.333008c-0.926193-0.926819-3.657196,1.058594-6.158707,1.058594
			c-2.501389,0-6.971588,0-9.722595,0c-7.282196,0-14.856491,6.989288-14.856491,13.290009
			c0,6.301788,2.734894,10.093781,2.734894,11.440491c0,1.345703-4.234406,3.751892-2.982407,5.001892
			c1.251511,1.251007,3.849609-2.692383,6.062515-2.692383c2.212387,0,4.713898,1.925781,8.755783,1.925781
			c4.041611,0,14.049911-3.36908,14.049911-12.223602c0-8.850586-0.09581-11.353485-0.09581-12.604492
			C252.022888,339.123993,255.341293,337.439514,254.235794,336.333008z"/>
		<path fill="none" stroke="#000000" stroke-width="1.02292" d="M254.235794,336.333008
			c-0.926193-0.926819-3.657196,1.058594-6.158707,1.058594c-2.501389,0-6.971588,0-9.722595,0
			c-7.282196,0-14.856491,6.989288-14.856491,13.290009c0,6.301788,2.734894,10.093781,2.734894,11.440491
			c0,1.345703-4.234406,3.751892-2.982407,5.001892c1.251511,1.251007,3.849609-2.692383,6.062515-2.692383
			c2.212387,0,4.713898,1.925781,8.755783,1.925781c4.041611,0,14.049911-3.36908,14.049911-12.223602
			c0-8.850586-0.09581-11.353485-0.09581-12.604492C252.022888,339.123993,255.341293,337.439514,254.235794,336.333008z"/>
	</g>
	<g>
		<path fill="#FFD600" d="M528.651367,338.083008c-0.926758,0.926788,1.059509,3.658203,1.059509,6.15918
			c0,2.501923,0,6.970703,0,9.723602c0,7.280304,6.988281,14.856506,13.289124,14.856506
			c6.301758,0,10.093811-2.736389,11.440369-2.736389c1.346741,0,3.752014,4.235382,5.002991,2.984406
			c1.250916-1.252899-2.693359-3.851624-2.693359-6.063507c0-2.211914,1.925781-4.712891,1.925781-8.756805
			c0-4.040009-3.368225-14.048798-12.222717-14.048798c-8.850586,0-11.352478,0.095703-12.602478,0.095703
			C531.444275,340.296906,529.758789,336.978485,528.651367,338.083008z"/>
		<path fill="none" stroke="#000000" stroke-width="1.02292" d="M528.651367,338.083008
			c-0.926758,0.926788,1.059509,3.658203,1.059509,6.15918c0,2.501923,0,6.970703,0,9.723602
			c0,7.280304,6.988281,14.856506,13.289124,14.856506c6.301758,0,10.093811-2.736389,11.440369-2.736389
			c1.346741,0,3.752014,4.235382,5.002991,2.984406c1.250916-1.252899-2.693359-3.851624-2.693359-6.063507
			c0-2.211914,1.925781-4.712891,1.925781-8.756805c0-4.040009-3.368225-14.048798-12.222717-14.048798
			c-8.850586,0-11.352478,0.095703-12.602478,0.095703C531.444275,340.296906,529.758789,336.978485,528.651367,338.083008z"/>
	</g>
	<g>
		<path fill="#FFD600" d="M530.401367,63.668507c0.927734,0.927204,3.660095-1.058598,6.162109-1.058598
			c2.501038,0,6.968689,0,9.72168,0c7.280212,0,14.856445-6.9888,14.856445-13.2901c0-6.301701-2.737305-10.0937-2.737305-11.439899
			c0-1.346699,4.235291-3.752499,2.984375-5.002911c-1.25-1.25049-3.851563,2.69331-6.061584,2.69331
			c-2.21283,0-4.714783-1.926308-8.758728-1.926308c-4.039063,0-14.048889,3.36871-14.048889,12.223209
			c0,8.850597,0.095703,11.351997,0.095703,12.602997C532.615173,60.875507,529.298767,62.561508,530.401367,63.668507z"/>
		<path fill="none" stroke="#000000" stroke-width="1.02292" d="M530.401367,63.668507
			c0.927734,0.927204,3.660095-1.058598,6.162109-1.058598c2.501038,0,6.968689,0,9.72168,0
			c7.280212,0,14.856445-6.9888,14.856445-13.2901c0-6.301701-2.737305-10.0937-2.737305-11.439899
			c0-1.346699,4.235291-3.752499,2.984375-5.002911c-1.25-1.25049-3.851563,2.69331-6.061584,2.69331
			c-2.21283,0-4.714783-1.926308-8.758728-1.926308c-4.039063,0-14.048889,3.36871-14.048889,12.223209
			c0,8.850597,0.095703,11.351997,0.095703,12.602997C532.615173,60.875507,529.298767,62.561508,530.401367,63.668507z"/>
	</g>
	<path fill="#FFD600" stroke="#000000" stroke-width="1.02292" stroke-linecap="round" stroke-linejoin="round" d="
		M325.085907,223.192398c0,0-4.770508-9.2061,9.889679-26.254395c14.660095-17.049301,20.455994-15.002502,20.797791-20.458496
		c0.341827-5.4561-3.747986-4.091797-4.430573-1.705109c-0.683624,2.3862-5.797913,1.363312-5.797913,1.363312
		s-0.679688,4.091797-2.385712,1.705597c-1.706085-2.386795-4.433594-5.796906-4.433594-5.796906
		s-7.162109,5.796906-7.501984,3.751007c-0.339813-2.045898,2.387695-4.774002,2.387695-4.774002
		s-7.161102,1.364304-7.161102-0.340805c0-1.705093,4.781189-10.384293,4.872986-11.294891
		c0.091827-0.911102-3.096588-3.733398-3.27829-6.557098c0,0,4.007813,2.459381,5.738312,2.276291
		c1.729492-0.182602,2.732391-2.368103,2.732391-2.368103s-0.18158,3.460907,3.915985,3.916504
		c4.097717,0.455505,4.553802-2.823792,4.553802-2.823792s3.553711,5.009796,9.108398,2.27739
		c0,0-4.191498-7.469299-6.741302-8.106491c0,0-1.002899,4.644089-2.185486,4.736389
		c-1.182587,0.091812-4.1875-5.464401-5.372101-6.010803c-1.185486-0.546387-1.185486,4.554214-1.185486,4.554214
		s-6.191406-1.002899-9.106506-8.652802c-2.914001-7.649902-1.639618-12.477997-1.639618-13.934601
		c0-1.456505,2.367218-4.73481,5.463806-4.5532c3.09671,0.182098,5.008789,4.189903,9.835999,4.2808
		c4.827118,0.090805,7.373993-2.276901,10.470703-2.276901s3.828094-7.104507,9.200226-7.195297
		c5.372986-0.090805,6.829071,2.824196,9.562469,2.824196c2.732391,0,0.913116-6.193802,3.825195-6.102501
		c2.913116,0.090805,9.291016,5.100601,13.114197,5.100601c3.82431,0-0.453094-8.106506,4.007904-8.288597
		c4.461914-0.181702,8.741211,9.653801,12.930603,9.744598c4.189514,0.091301,6.466797-5.647003,9.47171-2.641098
		c3.004913,3.005898-1.547913,7.831993-1.547913,9.198204c0,1.366699-4.097595,5.282791-4.097595,5.738297
		c0,0.455597,6.739197,6.55809,6.739197,8.925293c0,2.367706-0.2724,4.735397-3.004791,4.735397
		c-2.733398,0-3.462891,1.549301-2.278412,2.73291c1.184601,1.183594,2.551819,8.105392,1.184601,10.200195
		c-1.36618,2.094696-1.637695,3.460403-1.455994,4.553192c0.18161,1.092804,1.000916,4.370605,0.36319,6.010712
		c-0.636688,1.640198-0.912994,10.565002-0.546783,12.113297c0.365204,1.548401,5.919891,4.917496,12.568298,4.826706
		c6.649384-0.090805,20.578094-2.916,38.519592-4.736801c17.941406-1.821304,31.604401-2.732513,32.969696-2.732513
		c1.364197,0,5.919922-6.739685,5.919922-11.839294c0-5.099594-2.917023-10.928192-7.197327-10.928192
		c-4.279297,0-35.24408,3.094696-41.983398,3.277298c-6.739197,0.182602-12.661102-3.005905-17.577087-3.09671
		c-4.916992-0.09079-7.452209,4.158707-8.833008,1.184601c-1.472687-3.173294-1.368195-7.375,0-8.743698
		c0.901306-0.900803,1.364197-1.547302,1.364197-2.458389c0-0.911209-4.007782-5.009811-4.007782-8.925308
		c0-3.916092,0-8.561096,0-10.747101c0-2.1856,8.924805-15.117699,18.670898-15.117699c9.745087,0,14.296906,0,17.393585,0
		c3.09671,0,14.751923,6.010803,28.050812,18.396507c13.297791,12.385681,21.221588,18.762192,25.500885,18.762192
		c0,0,0-4.645004,0-6.284195c0-1.639603,1.456116-4.553207,4.552795-4.553207c3.096741,0,5.554688,3.642105,5.554688,7.831497
		c0,4.189514-2.370178,6.7388-6.375977,6.7388c-4.00592,0-11.565369-0.908691-15.299805-4.188492
		c-3.733398-3.279297-8.105499-7.650803-8.105499-7.650803l-0.636688,6.102509c0,0-11.478516-11.292999-12.842804-13.934113
		c0,0-9.198212,3.278305-9.198212,1.274399s-1.274384-7.286087-3.915985-9.472092c0,0-1.822296,7.1035-8.378906,7.012695
		c0,0,3.551697-2.913101,1.914001-7.102592c-1.638702-4.1894-4.825195-6.102501-5.828094-6.102501
		s-3.462891,8.380295-4.281311,8.1064c-0.819305-0.273407-4.099579-6.7407-7.104492-7.013603
		c-3.004791-0.272499-9.196198,0.3657-10.199188,6.467201C431.3125,134.25,431.3125,138.256805,431.3125,138.256805
		s3.188507-6.7397,11.930695-5.919891c0,0-3.823303,4.097687-3.9151,8.560989c-0.092712,4.463409,2.367188,9.6539,3.9151,9.6539
		c1.548798,0,2.186493-6.101593,4.190399-6.192398s0.634796,6.648895,6.738281,8.014587
		c6.103516,1.365311,14.025421,1.549316,18.033203,0.911209c4.007813-0.638702,21.313507-2.36969,25.867218-0.365799
		c4.552704,2.003906,11.109283,5.647003,11.109283,16.758301c0,11.111404-8.558594,15.390701-8.558594,15.390701
		s12.205078,7.468201,12.205078,26.593704c0,19.125992-8.378876,29.049789-8.378876,40.162094
		c0,11.112289,9.563507,11.293991,9.563507,11.293991s-11.475616,11.385712-11.475616,19.580994
		c0,8.195313,8.197296,11.110413,8.197296,14.115326c0,3.004791-9.655273,6.101471-17.487274,6.101471
		c-7.832092,0-11.385803-0.998993-11.476624-3.368073c0,0-3.09668,3.549774-6.738281,3.549774
		c-3.642609,0-2.277313-3.368195-2.277313-3.368195s-6.009796,3.186493-7.285187-1.002899c0,0-7.192413,0-8.650421,0
		c-1.458893,0-2.185486,2.275421-4.827087,2.275421c-2.640594,0-4.281311-1.822327-5.555695-1.822327
		c-1.275391,0-1.730408,2.186523-5.100616,2.186523c-3.371094,0-2.27829-2.276398-4.827087-2.276398
		c-2.549774,0-3.338898-2.948212-0.729492-5.555603c2.551788-2.549805,5.470703-4.827209,9.383789-4.827209
		c3.914001,0,4.4599-0.453094,4.551697-3.004883c0.091797-2.55072,2.825226-7.194305,1.822296-11.383728
		c-1.002899-4.189484-1.730499-8.289093-2.641602-9.654297c-0.911102-1.364288-7.649384-8.105499-7.649384-19.489288
		c0,0-54.1875,7.742203-60.38089,11.476593c0,0-6.920898,6.375-6.739197,10.109314
		c0.182587,3.733398,4.551697,2.728577,6.191376,2.457092c1.640625-0.271515,0.004913,7.555603-1.998993,10.289001
		s-4.916992,6.013702-3.1875,7.377991c1.730408,1.365204,6.011688,3.281189,4.645508,5.282196
		c-1.366211,2.001923-8.013702,3.460907-12.751007,3.460907c-4.736298,0-8.832001,3.734406-13.569305,3.916016
		c-4.737305,0.181702-3.917999-4.189423-3.917999-4.189423s-6.648499,3.004913-7.74118-0.456085
		c0,0-5.00882,0.637695-5.828125-0.729492c-0.819397-1.366211,3.002899-9.106415,11.110321-9.106415
		c8.107391,0,9.200195-4.917999,9.200195-9.108398c0-4.189484-6.831116-12.018585-6.831116-21.216797
		c0,0-8.742096-1.640594-10.746094-5.283203c0,0-3.732391,8.013702-10.291901,8.013702
		c-6.558594,0-12.476593-5.917007-13.206085-8.923904c-0.728516-3.00679-2.275421-4.827103-3.916016-4.645493
		c-1.639679,0.181702-3.459991,3.642593-4.644501,2.548904c-1.18457-1.092804-2.913086-4.003006-2.913086-7.282318
		c0-3.27829,3.27829-4.371094,3.27829-7.012695c0-2.640594-1.454102-2.778305-2.776398-2.778305
		c-1.323212,0-3.690399,0.682617-3.690399,1.958008c0,1.274399,0,1.274399,0,1.274399s2.1875-0.179596,2.1875,3.736404
		c0,3.914993-1.458008,3.551697-3.917999,3.551697c-2.459412,0-2.913605,0.181702-2.913605,1.638702
		c0,1.4561,2.931702,4.007797,2.931702,6.011703c0,2.003891-2.931702,3.27829-2.931702,4.826202c0,1.548798,0,3.778305,0,3.778305
		s8.925293,0,10.474213,0c1.547791,0,2.640594,1.232391,2.640594,4.145477c0,2.913116-0.638702,4.189514-2.732391,4.189514
		c-2.093811,0-8.199707,0-8.199707,0s6.650787,7.604492,4.465302,7.604492c-2.186005,0-6.64801,0-6.64801,0s0,4.871094,0,5.873993
		s-0.637604,2.459015-2.095184,2.459015c-1.457001,0-2.049805-0.729492-2.049805-2.277405c0-1.548798,0-6.055603,0-6.055603
		s-6.329102,0-7.421814,0c-1.092804,0,5.919403-7.604492,5.919403-7.604492s-9.199188,0-10.018097,0
		c-0.819305,0-1.365692-2.459015-1.365692-4.281311c0-1.822205,0.272888-4.05368,1.912079-4.05368
		c1.639221,0,10.974121,0,10.974121,0s0-2.779312,0-3.505814c0-0.7276-3.323212-2.366302-3.323212-4.916992
		c0-2.551804,2.458496-5.100601,2.458496-5.919998c0-0.819305-2.368683-2.003906-3.734406-2.003906
		c-1.365173,0-8.196289,1.003006-8.196289-4.645493c0-5.6474,3.095703-5.190414,4.097717-5.190414
		c1.001892,0,2.824188,1.365204,4.463379,1.365204c1.639099,0,2.276794-0.455994,2.276794-1.730392
		c0-1.274506,0-1.730499,0-1.730499s-5.099579,0.998993-5.099579-5.010712c0,0-3.552216,0.091705-3.552216-3.824295
		c0-3.278305,1.001404-3.643494,1.001404-3.643494s-1.274384-3.824203,0.546906-5.554703v-4.554703
		c0,0-3.368713-1.454102-3.368713-5.280304c0-3.825195,3.277405-5.191895,6.82962-5.191895
		c0,0,1.822296-50.817291,3.097198-61.563904c1.274384-10.746597,15.299805-31.511696,15.299805-31.511696v91.894005
		c0,0,6.19339,0.546402,6.19339,5.008789c0,4.463409-4.189514,6.647003-4.189514,6.647003
		S319.939484,221.0625,325.085907,223.192398z"/>
	<path fill="none" stroke="#000000" stroke-width="1.02292" d="M338.702087,249.454102c0,0-13.61618-3.717804-13.61618-26.261703"/>
	<path fill="none" stroke="#000000" stroke-width="1.02292" d="M290.250488,264.484406c0,0,1.361816-2.552795,1.361816-4.498993
		c0-1.94632-1.361816-3.835999-1.361816-3.835999"/>
	<path fill="none" stroke="#000000" stroke-width="1.02292" d="M298.080597,264.484406c0,0-1.764191-2.065491-1.764191-4.498993
		c0-2.433594,1.764191-3.835999,1.764191-3.835999"/>
	<path fill="none" stroke="#000000" stroke-width="1.02292" d="M282.691895,205.283203c0,0,9.121094,1.25679,23.861786,0.001999"/>
	<path fill="none" stroke="#000000" stroke-width="1.02292" d="M282.691895,209.837906c0,0,6.326202,1.814392,15.083984,1.814392
		c12.16452,0,6.783722-6.210892,6.783722-6.210892"/>
	<path fill="none" stroke="#000000" stroke-width="1.02292" d="M282.144989,215.392609c0,0,3.303711,1.776291,10.440399,1.776291
		c7.135315,0,10.947815-3.029297,10.947815-6.299789"/>
	<path fill="none" stroke="#000000" stroke-width="1.02292" d="M284.695801,222.860397c0,0,19.6763,3.700104,15.810089-7.483398"/>
	<path fill="none" stroke="#000000" stroke-width="1.02292" d="M289.79538,227.871109c0,0,17.171417,0.179703,10.125-6.866211"/>
	<path fill="none" stroke="#000000" stroke-width="1.02292" d="M300.541992,231.332001c0,0-5.025909-1.8564-5.025909-3.874008"/>
	<path fill="none" stroke="#000000" stroke-width="1.02292" d="M304.549805,193.62941c0,0-9.370117,13.306091-17.86911,1.707993"/>
	<path fill="none" stroke="#000000" stroke-width="1.02292" d="M349.448181,254.737305c0,0-3.304596-14.375,0-21.836899"/>
	<path fill="none" stroke="#000000" stroke-width="1.02292" d="M390.707001,232.900406c0,0,0.124084,13.785095-9.841797,23.750992"
		/>
	<path fill="none" stroke="#000000" stroke-width="1.02292" d="M349.538086,295.354492c0,0,1.289001-1.289093,2.585907-2.585876"/>
	<path fill="none" stroke="#000000" stroke-width="1.02292" d="M341.796906,294.898407c0,0,1.0625-3.93161,3.981384-4.580994"/>
	<path fill="none" stroke="#000000" stroke-width="1.02292" d="M472.754883,299.729492c0,0,0.992218-2.603485,4.075195-2.603485"/>
	<path fill="none" stroke="#000000" stroke-width="1.02292" d="M481.770477,299.547913c0,0,2.360413-2.90921,5.928711-2.90921"/>
	<path fill="none" stroke="#000000" stroke-width="1.02292" d="M472.478485,292.307617
		c-3.446289,1.110382-6.371094,3.106476-7.008789,6.418976"/>
	<path fill="none" stroke="#000000" stroke-width="1.02292" d="M441.246094,245.174805c0,0,15.794891-4.816406,33.3125,9.2939
		c0.479492,0.385803,0.941406,0.767593,1.386688,1.145599"/>
	<path fill="#6B0010" stroke="#000000" stroke-width="1.02292" d="M475.953094,255.623993c0,0-5.610321,6.470703-5.610321,10.524414
		s7.298828,1.946289,7.298828,1.946289s-1.134827,6.651398-4.217804,9.731506
		c-3.083008,3.080994-3.083008,3.080994-3.083008,3.080994s-5.781189,9.016602,2.137695,11.402405
		c0,0,5.614288-1.182587,8.082001-1.182587c5.675812,0,5.839905-8.273499,5.839905-10.869202
		c0-2.523407,5.368195-11.185516-10.455109-24.643509L475.953094,255.623993z"/>
	<path fill="none" stroke="#000000" stroke-width="1.02292" d="M351.622101,189.265106c0,0-4.053711,7.946304-0.972717,8.109406
		c3.080109,0.162598,6.8125-3.730011,6.8125-3.730011s0,5.676804,0.972717,5.676804c0.973602,0,6.974579-5.190399,6.974579-5.190399
		s2.110321,6.325195,3.407196,6.325195c1.295929,0,4.864319-5.189499,4.864319-5.189499s7.4599,7.459,9.731384,6.001007
		c2.272522-1.459503,1.460907-8.272507,1.460907-8.272507s6.295013,7.682602,7.446289,7.00441
		c1.150421-0.678207,0.663116-6.679703,0.663116-6.679703s6.65329,7.460999,7.300812,6.649902
		c0.646484-0.811005,0.323181-7.460907,0.323181-7.460907s4.217804,5.028305,5.028412,4.2173
		c0.811493-0.811111,0.6474-4.704102,0.6474-4.704102s10.383789-0.162598,10.869202-0.811096
		c0.485291-0.648407-2.655304-4.645004-2.655304-4.645004"/>
	<path fill="none" stroke="#000000" stroke-width="1.02292" d="M356.974579,180.506302c0,0,2.75882,6.325211,4.055725,6.325211
		c1.296783,0,4.540985-3.892014,4.540985-3.892014s1.296906,4.216705,2.756805,4.216705
		c1.460999,0,4.217804-4.216705,4.217804-4.216705s3.245087,5.027802,5.029297,4.70311
		c1.783203-0.324707,4.864288-4.37941,4.864288-4.37941s5.839813,6.975601,7.461914,5.515106
		c1.622986-1.460403,1.134705-7.299301,1.134705-7.299301s3.243195,1.622604,3.892578,1.297897
		c0.649414-0.324799,3.406311-4.2164,3.406311-4.2164s5.702087,4.376007,12.676697,4.539108"/>
	<path fill="none" stroke="#000000" stroke-width="1.02292" d="M411.149384,175.142105c0,0-10.707001-5.502502-12.652283-12.801804
		c0,0-0.647522,4.053696-2.431702,4.216797c-1.784119,0.162613-5.352509-5.027786-5.352509-5.027786
		s-0.323303,4.379395-2.433594,4.379395c-2.109406,0-7.623993-6.326202-7.623993-6.326202"/>
	<path fill="none" stroke="#000000" stroke-width="1.02292" d="M388.764587,171.2612c0,0,0.326202,8.109406-2.918884,8.109406
		c-3.24411,0-6.325226-9.082504-6.325226-9.082504s-0.647491,7.137207-3.729492,6.974609
		c-3.082977-0.163101-3.568298-10.05661-3.568298-10.05661"/>
	<line fill="none" stroke="#000000" stroke-width="1.02292" x1="345.544891" y1="176.137711" x2="345.622101" y2="171.748505"/>
	<line fill="none" stroke="#000000" stroke-width="1.02292" x1="338.725586" y1="172.046402" x2="340.106384" y2="170.289108"/>
	<path fill="none" stroke="#000000" stroke-width="1.02292" d="M331.323181,159.387711c0,0,5.214905,1.169403,12.027405,1.169403
		c6.813507,0,13.949219-0.648911,13.949219-0.648911l-3.206024-3.799301"/>
	<path fill="none" stroke="#000000" stroke-width="1.02292" d="M411.245087,164.785599c0,0-5.288086-3.579086-7.234406-6.498993
		c-1.946198-2.919907-3.24408-6.164505-4.055603-6.326202c-0.811493-0.162094-2.592773,6.488297-4.05368,6.488297
		c-1.460022,0-6.974609-6.488297-6.974609-6.488297s1.132813,5.0289-1.13678,5.0289
		c-2.269531,0-6.487305-4.542496-6.487305-4.542496s0.649384,4.704102-1.784119,4.704102
		c-2.433594,0-7.462006-5.515198-7.462006-5.515198"/>
	<path fill="none" stroke="#000000" stroke-width="1.02292" d="M371.894501,160.880905c0,0-5.67572-2.919998-7.297821-6.649902"/>
	<path fill="none" stroke="#000000" stroke-width="1.02292" d="M358.109406,138.660614c0,0,1.134674-2.757309,4.05368-2.757309
		c2.918915,0,10.705109,6.000504,14.111298,6.000504c3.406311,0,0.808624-4.216309,2.756897-4.216309
		c1.948212,0,2.597595,2.756805,6.489197,2.756805s3.729523-2.271393,5.513702-1.621994
		c1.78421,0.649399,5.190399,1.621994,5.190399,1.621994"/>
	<path fill="none" stroke="#000000" stroke-width="1.02292" d="M388.439484,135.903305c0,0,12.650299,0.485397,15.895508-4.055603"
		/>
	<path fill="none" stroke="#000000" stroke-width="1.02292" d="M411.227478,149.107407c0,0-2.836884-2.499496-2.836884-4.283707"/>
	<line fill="none" stroke="#000000" stroke-width="1.02292" x1="410.100586" y1="134.523911" x2="408.551788" y2="134.523911"/>
</g>
</svg>
