<svg class="svgOrigin" xmlns="http://www.w3.org/2000/svg" width="600" height="400" x="0px" y="0px" viewBox="0 0 600 400" enable-background="new 0 0 600 400">
<g>
	<rect fill="#00844A" width="600" height="400"/>
	<path fill="#FFD600" d="M300,225.197311c-66.51561,0-122.410202-45.44931-138.335907-106.985405
		c-0.353592,4.035202-0.56839,8.109398-0.56839,12.235405c0,76.714798,62.189484,138.904282,138.904297,138.904282
		c76.716797,0,138.904297-62.189484,138.904297-138.904282c0-4.126007-0.214813-8.200203-0.56842-12.234406
		C422.410187,179.748001,366.515594,225.197311,300,225.197311z"/>
	<polygon fill="#FFD600" points="300,76.107407 311.302704,110.891609 347.877014,110.891609 318.287079,132.388702 
		329.589783,167.173813 300,145.675812 270.410187,167.173813 281.712891,132.388702 252.125,110.891609 288.699188,110.891609 	"/>
</g>
</svg>
