<svg class="svgOrigin" xmlns="http://www.w3.org/2000/svg" width="600" height="400" x="0px" y="0px" viewBox="0 0 600 400" enable-background="new 0 0 600 400">
<g>
	<rect x="0.000488" y="-0.00049" fill="#FFFFFF" width="599.999512" height="400.000488"/>
	<rect x="0.000488" y="298.006805" fill="#00844A" width="599.999512" height="101.993195"/>
	<rect x="0.000488" y="-0.00049" fill="#D60021" width="599.999512" height="101.992699"/>
	<polygon fill="#FFDE00" stroke="#000000" stroke-width="1.02292" points="342.887695,246.038101 347.589783,255.585907 
		339.748993,261.723602 334.291992,251.834 	"/>
	<polygon fill="#FFDE00" stroke="#000000" stroke-width="1.02292" points="344.863281,131.109406 348.084015,141.018997 
		358.502899,141.018997 350.071289,147.142609 353.291992,157.051804 344.863281,150.9272 336.433594,157.051804 
		339.654297,147.142609 331.223602,141.018997 341.642578,141.018997 	"/>
	<polygon fill="#FFDE00" stroke="#000000" stroke-width="1.02292" points="300.000488,114.382805 303.220703,124.292503 
		313.639587,124.292503 305.209015,130.416 308.429688,140.325714 300.000488,134.201202 291.571289,140.325714 294.791992,130.416 
		286.360779,124.292503 296.779785,124.292503 	"/>
	<polygon fill="#FFDE00" stroke="#000000" stroke-width="1.02292" points="376.421906,159.75 379.642578,169.659698 
		390.061493,169.659698 381.63089,175.783203 384.850586,185.692902 376.421906,179.568405 367.993195,185.692902 
		371.213898,175.783203 362.782196,169.659698 373.201202,169.659698 	"/>
	<polygon fill="#FFDE00" stroke="#000000" stroke-width="1.02292" points="390.061493,207.145508 393.282196,217.054703 
		403.701202,217.054703 395.270477,223.178711 398.490204,233.087906 390.061493,226.963898 381.632782,233.087906 
		384.853485,223.178711 376.421906,217.054703 386.84079,217.054703 	"/>
	<path fill="#FFDE00" stroke="#000000" stroke-width="1.02292" d="M300.000488,227.22171
		c-16.854492,27.960892-46.566895,12.678696-46.566895,12.678696s-11.935593,15.001892-21.141586,15.001892
		c-9.206619,0-17.390106-8.5224-17.390106-8.5224c21.140106,8.524399,38.189896-12.617188,38.189896-12.617188
		c22.162598,13.298798,42.281708-7.841812,42.621094-16.366211c0.135712-3.408188,0-1.704102,0-16.367188
		c0-14.662109-13.297882-12.9561-13.297882-12.9561s3.562073-15.344711,17.58548-15.344711
		c14.022919,0,17.585419,15.344711,17.585419,15.344711s-13.297821-1.706009-13.297821,12.9561
		c0,14.663086-0.135803,12.959,0,16.367188c0.339813,8.524399,20.458008,29.665009,42.621094,16.366211
		c0,0,17.049835,21.141586,38.189423,12.617188c0,0-8.183594,8.5224-17.389587,8.5224
		c-9.206116,0-21.141632-15.001892-21.141632-15.001892S316.854492,255.182602,300.000488,227.22171z"/>
	<polygon fill="#FFDE00" stroke="#000000" stroke-width="1.02292" points="300.000488,252.712906 292.644012,245.3564 
		300.000488,236.490204 307.356384,245.3564 	"/>
	<polygon fill="#FFDE00" stroke="#000000" stroke-width="1.02292" points="257.1138,246.038101 252.410599,255.585907 
		260.25238,261.723602 265.708496,251.834 	"/>
	<path fill="#FFDE00" stroke="#000000" stroke-width="1.02292" d="M300.000488,266.837891
		c-36.2901,0-66.617691,16.575226-66.617691,16.575226l-3.136703-8.391602c0,0,31.888214-16.708008,69.754395-16.708008
		c37.865692,0,69.754395,16.708008,69.754395,16.708008l-3.136688,8.391602
		C366.618195,283.413116,336.290009,266.837891,300.000488,266.837891z"/>
	<polygon fill="#FFDE00" stroke="#000000" stroke-width="1.02292" points="255.137695,131.109406 251.917007,141.018997 
		241.498001,141.018997 249.929199,147.142609 246.708496,157.051804 255.137695,150.9272 263.566895,157.051804 
		260.346191,147.142609 268.777283,141.018997 258.358398,141.018997 	"/>
	<polygon fill="#FFDE00" stroke="#000000" stroke-width="1.02292" points="223.579102,159.75 220.358398,169.659698 
		209.939499,169.659698 218.37059,175.783203 215.149887,185.692902 223.579102,179.568405 232.008301,185.692902 
		228.787598,175.783203 237.218796,169.659698 226.799301,169.659698 	"/>
	<polygon fill="#FFDE00" stroke="#000000" stroke-width="1.02292" points="209.939499,207.145508 206.718796,217.054703 
		196.299789,217.054703 204.731003,223.178711 201.5103,233.087906 209.939499,226.963898 218.368698,233.087906 
		215.147888,223.178711 223.579102,217.054703 213.160202,217.054703 	"/>
</g>
</svg>
