<svg class="svgOrigin" xmlns="http://www.w3.org/2000/svg" width="600" height="400" x="0px" y="0px" viewBox="0 0 600 400" enable-background="new 0 0 600 400">
<g>
	<rect x="0.000488" y="-0.00049" fill="#D60029" width="599.999512" height="400.000488"/>
	<rect x="200.285599" y="-0.00049" fill="#0084B5" width="199.430191" height="400.000488"/>
	<path fill="#FFD600" d="M122.860794,144.835007c0,12.546799-10.170898,22.717697-22.717697,22.717697
		c-12.546898,0-22.7183-10.170898-22.7183-22.717697c0-12.546906,10.171402-22.7183,22.7183-22.7183
		C112.689896,122.116707,122.860794,132.288101,122.860794,144.835007z"/>
	<rect x="134.846191" y="185.647003" fill="#FFD600" width="21.935099" height="150.768005"/>
	<rect x="40.462898" y="185.647003" fill="#FFD600" width="21.934999" height="150.768005"/>
	<rect x="74.643997" y="212.525406" fill="#FFD600" width="50.998096" height="16.684595"/>
	<rect x="74.643997" y="294.707001" fill="#FFD600" width="50.998096" height="16.684601"/>
	<polygon fill="#FFD600" points="74.643997,319.422913 125.642097,319.422913 100.143097,336.415009 	"/>
	<polygon fill="#FFD600" points="74.643997,186.952606 125.642097,186.952606 100.143097,203.944305 	"/>
	<path fill="#FFD600" d="M100.143097,181.012711c-11.531799,0-23.891098-8.96051-23.891098-26.878403
		c0,0,4.527298,17.610291,23.891098,17.610291c19.363197,0,23.890602-17.610291,23.890602-17.610291
		C124.033699,172.0522,111.674797,181.012711,100.143097,181.012711z"/>
	<path fill="#FFD600" d="M100.143097,119.031204c-5.674294,0-10.274399-4.599998-10.274399-10.274399
		c0-1.3862,0.2827-2.706001,0.780205-3.912598c0,0,0.083-0.175697,0.1157-0.25c2.5616-5.137703,4.1241-12.128899,4.1241-24.091301
		c0,0,1.607895,8.0513,2.927696,8.0513s2.326698-8.930702,2.326698-8.930702s1.006798,8.930702,2.326599,8.930702
		c1.319405,0,2.927803-8.0513,2.927803-8.0513c0,11.962402,1.5625,18.953598,4.123505,24.091301
		c0.033195,0.074303,0.116196,0.25,0.116196,0.25c0.497101,1.206596,0.7798,2.526398,0.7798,3.912598
		C110.417,114.431206,105.816895,119.031204,100.143097,119.031204z"/>
	<path fill="#D60029" d="M91.088402,253.650406c0,1.767593-1.433601,3.200211-3.201698,3.200211
		c-1.768005,0-3.201607-1.432617-3.201607-3.200211c0-1.7686,1.433601-3.201202,3.201607-3.201202
		C89.6548,250.449203,91.088402,251.881805,91.088402,253.650406z"/>
	<path fill="#FFD600" d="M94.433098,270.618195c0-3.608398,1.098602-6.762695,3.166504-9.394592l-0.007805-0.005798
		c1.631302-2.089905,2.612297-4.710999,2.612297-7.567398c0-6.802704-5.514191-12.317413-12.31739-12.317413
		c-3.897903,0-7.368103,1.810608-9.624504,4.636719c0,0-0.098099,0.125992-0.262703,0.358398
		c-0.234894,0.315491-0.454597,0.642593-0.658699,0.982391c-2.600098,4.082108-9.215294,16.910202,0.607399,29.585007
		c11.891602,15.343781,29.0308,8.92868,29.0308,8.92868C99.8311,284.451202,94.433098,278.165985,94.433098,270.618195z"/>
	<path fill="#D60029" d="M91.088402,253.650406c0,1.767593-1.433601,3.200211-3.201698,3.200211
		c-1.768005,0-3.201607-1.432617-3.201607-3.200211c0-1.7686,1.433601-3.201202,3.201607-3.201202
		C89.6548,250.449203,91.088402,251.881805,91.088402,253.650406z"/>
	<path fill="#D60029" d="M105.515099,271.093689c0-1.768494,1.433601-3.200073,3.201698-3.200073
		s3.201698,1.43158,3.201698,3.200073c0,1.768616-1.433601,3.200226-3.201698,3.200226S105.515099,272.862305,105.515099,271.093689
		z"/>
	<path fill="#FFD600" d="M102.170898,254.126007c0,3.607391-1.099098,6.762695-3.166496,9.393494l0.007797,0.00589
		c-1.631302,2.089813-2.612297,4.710907-2.612297,7.568298c0,6.802826,5.514198,12.317413,12.316895,12.317413
		c3.897903,0,7.368202-1.810486,9.625-4.637695c0,0,0.097702-0.125916,0.262703-0.357422
		c0.234894-0.315369,0.454597-0.643494,0.658195-0.983368c2.600601-4.081024,9.215302-16.910126-0.607399-29.584015
		C106.764198,232.504898,89.625,238.919907,89.625,238.919907C96.772499,240.292007,102.170898,246.577103,102.170898,254.126007z"
		/>
	<path fill="#D60029" d="M105.515099,271.093689c0-1.768494,1.433601-3.200073,3.201698-3.200073
		s3.201698,1.43158,3.201698,3.200073c0,1.768616-1.433601,3.200226-3.201698,3.200226S105.515099,272.862305,105.515099,271.093689
		z"/>
</g>
</svg>
