<svg class="svgOrigin" xmlns="http://www.w3.org/2000/svg" width="600" height="400" x="0px" y="0px" viewBox="0 0 600 400" enable-background="new 0 0 600 400">
<g>
	<rect width="600" height="400"/>
	<rect fill="#D60029" width="600" height="200"/>
	<path fill="#FFD600" stroke="#000000" stroke-width="2" d="M364.61908,195.344711V178.4561H356.875
		c-0.410217-4.700195-1.238312-9.279297-2.445313-13.704102l8.470703-3.209l-6.167999-15.722687l-8.361298,3.485397
		c-2.066406-3.9561-4.453094-7.713898-7.140594-11.235397l6.601501-6.20311l-11.61911-12.255898l-6.445313,6.367203
		c-3.181671-2.712898-6.570282-5.187508-10.162079-7.367203l4.085907-8.088799l-15.294922-7.161201l-3.708984,8.265694
		c-3.69342-1.27639-7.514618-2.273491-11.433594-2.991295l-3.518524,7.9356
		c33.418915,5.070305,59.02832,33.919907,59.02832,68.753906c0,38.409195-31.136688,69.545898-69.545898,69.545898
		c-18.895508,0-36.019608-7.546906-48.553711-19.775406l-4.005905,7.820297c1.007813,0.919907,2.037109,1.816406,3.092819,2.683609
		l-5.075211,7.503891l14.121094,9.263718l4.795898-7.687515c4.804703,2.47261,9.894501,4.464798,15.214798,5.904312
		l-1.413086,8.939392l16.682587,2.634796l1.379913-8.953094c1.247101,0.060486,2.5,0.095703,3.760803,0.095703
		c5.343689,0,10.561493-0.541016,15.603485-1.564514l2.508789,8.707092l16.093719-5.121094l-2.875-8.591797
		c5.306702-2.332092,10.304688-5.230499,14.914093-8.63089l5.722595,7.041l12.472717-11.386703l-6.191406-6.613297
		c3.372986-3.787109,6.376984-7.906204,8.964783-12.300812l8.158203,3.941406l6.978607-15.380798l-8.322296-3.582001
		c1.537109-4.6465,2.644501-9.486404,3.285187-14.473694H364.61908z"/>
	<polygon fill="#FFD600" stroke="#000000" stroke-width="2" points="289.735382,126.45121 295.06839,142.864304 
		312.326202,142.864304 298.364288,153.008804 303.697296,169.422913 289.735382,159.278305 275.773407,169.422913 
		281.106384,153.008804 267.143585,142.864304 284.402283,142.864304 	"/>
	<path fill="#FFD600" stroke="#000000" stroke-width="2" d="M274.271484,197.211899
		c-10.985382-11.716797-15.625-29.782196-19.286087-29.782196c-3.661209,0-8.057709,7.8125-8.057709,18.797806
		c0,10.985397,3.662109,19.772491,39.547897,46.625992c18.497101,13.841797,37.692413,27.4785,52.135712,37.621109
		l8.300781-9.507813C320.044891,237.804703,281.722687,205.160202,274.271484,197.211899z"/>
	<path fill="#FFD600" stroke="#000000" stroke-width="2" d="M372.894501,283.875
		c-2.529297-2.529297-9.92572-9.025391-19.595703-17.394501l-7.738312,8.86319
		c9.73642,6.810608,16.11142,11.222717,16.593811,11.705109c1.218689,1.218811-2.199219,6.834015,3.415985,10.496094
		C371.185486,301.207001,382.415985,293.396515,372.894501,283.875z"/>
	<polygon points="277.523407,207.976608 278.828094,206.460907 347.425781,265.785217 346.117188,267.298798 277.523407,207.976608 
			"/>
	<circle cx="355.5625" cy="274.109406" r="1.709"/>
	<path d="M363.61908,279.966797c0,0.94342-0.765594,1.709015-1.708893,1.709015c-0.94339,0-1.708984-0.765594-1.708984-1.709015
		c0-0.94339,0.765594-1.708984,1.708984-1.708984C362.853485,278.257813,363.61908,279.023407,363.61908,279.966797z"/>
	<circle cx="368.011688" cy="286.558594" r="1.709"/>
</g>
</svg>
