<svg class="svgOrigin" xmlns="http://www.w3.org/2000/svg" width="600" height="400" x="0px" y="0px" viewBox="0 0 600 400" enable-background="new 0 0 600 400">
<g>
	<polygon fill="#004A7B" points="440.415985,197.042511 239.491196,197.042511 440.415985,400 159.583496,400 159.583496,0 	"/>
	<polygon fill="#D60021" points="417.161102,390.298828 169.284698,390.298828 169.284698,18.65531 409.699188,187.341812 
		216.240189,187.341812 417.161102,390.298828 	"/>
	<polygon fill="#FFFFFF" points="238.204102,248.86911 248.664093,270.473602 268.523895,256.992218 266.780792,280.932617 
		290.720184,279.1875 277.240204,299.049805 298.844177,309.508789 277.240204,319.968689 290.720703,339.828094 
		266.780792,338.085907 268.524902,362.023407 248.664093,348.544891 238.20459,370.147491 227.745087,348.544891 
		207.8853,362.022491 209.628387,338.084991 185.690399,339.827087 199.1689,319.967804 177.567398,309.506805 
		199.169891,299.048798 185.692398,279.1875 209.630402,280.93161 207.888687,256.995117 227.747589,270.472717 	"/>
	<path fill="#FFFFFF" d="M289.41748,128.300308c-3.353485,10.495102-9.629395,19.681091-17.861786,26.616699l-8.207611-2.752396
		l6.571808-9.574799l-10.900879,0.222687l3.55957-11.341293l-10.304688,3.918396l0.201202-11.997498l-8.701706,7.232895
		l-3.175705-11.481003l-6.243683,9.839417l-6.246613-9.839417L224.93309,130.625l-8.703094-7.232895l0.203094,11.998505
		l-10.307083-3.919403L209.6875,142.8125l-10.901901-0.222687l6.5728,9.577194l-8.206497,2.748993
		c-8.232513-6.935501-14.507904-16.12059-17.861404-26.615692c-0.002899,0.229004-0.017609,0.454605-0.017609,0.683105
		c0,30.420395,24.661209,55.081497,55.081116,55.081497s55.080597-24.661102,55.080597-55.081497
		C289.434601,128.754913,289.420898,128.529312,289.41748,128.300308z"/>
</g>
</svg>
