<svg class="svgOrigin" xmlns="http://www.w3.org/2000/svg" width="600" height="400" x="0px" y="0px" viewBox="0 0 600 400" enable-background="new 0 0 600 400">
<g>
	<rect fill="#FF0000" width="600" height="400"/>
	<circle fill="#FFFFFF" cx="300" cy="200" r="146.304703"/>
	<path fill="#FF0000" d="M225.777298,199.082993c0-58.29689,47.259781-105.555687,105.556717-105.555687
		c20.685486,0,39.962891,5.972694,56.251862,16.253899c-22.712891-22.493095-53.949188-36.393494-88.439392-36.393494
		c-69.419891,0-125.695282,56.275391-125.695282,125.695282c0,69.420914,56.275391,125.694321,125.695282,125.694321
		c34.490204,0,65.726501-13.900299,88.437531-36.390625c-16.287109,10.279297-35.566437,16.252014-56.25,16.252014
		C273.037079,304.638702,225.777298,257.38089,225.777298,199.082993z"/>
	<polygon fill="#FF0000" points="322.894501,122.026405 358.080078,170.465805 415.021484,151.97171 379.826202,200.402298 
		415.011688,248.841797 358.074188,230.334 322.878906,278.765594 322.884796,218.8965 265.945282,200.39061 322.888702,181.8965 	
		"/>
</g>
</svg>
