<svg class="svgOrigin" xmlns="http://www.w3.org/2000/svg" width="600" height="400" x="0px" y="0px" viewBox="0 0 600 400" enable-background="new 0 0 600 400">
<g>
	<rect x="0.000488" y="-0.00049" fill="#006BA5" width="599.999512" height="400.000488"/>
	<rect x="0.000488" y="65.438507" fill="#FFFFFF" width="599.999512" height="269.121979"/>
	<rect x="0.000488" y="84.852997" fill="#CC0033" width="599.999512" height="230.294495"/>
	<path fill="#FFFFFF" d="M240.363297,200.000504c0,51.510193-41.755905,93.266098-93.265594,93.266098
		c-51.509804,0-93.267105-41.755905-93.267105-93.266098c0-51.509293,41.757298-93.266594,93.267105-93.266594
		C198.607391,106.73391,240.363297,148.491211,240.363297,200.000504z"/>
	<polygon fill="#CC0033" points="147.097702,124.365707 164.077591,176.627411 219.0298,176.627411 174.5728,208.927704 
		191.553696,261.190399 147.097702,228.89061 102.640099,261.190399 119.621597,208.927704 75.164101,176.627411 
		130.116196,176.627411 	"/>
</g>
</svg>
