<svg class="svgOrigin" xmlns="http://www.w3.org/2000/svg" width="600" height="400" x="0px" y="0px" viewBox="0 0 600 400" enable-background="new 0 0 600 400">
<g>
	<rect fill="#FFFFFF" width="600" height="400"/>
	<polygon fill="#00844A" points="600,400 600,119.778305 179.667999,400 	"/>
	<polygon fill="#005A8C" points="0,400 179.667999,400 600,119.778305 600,0 	"/>
	<path fill="#844A39" d="M188.334,108c-7.591797-10.698189-21.306702-16.83889-33.109406-20.280289L170.084,60.166
		c1.759796,0.595707,3.640594,0.93261,5.6035,0.93261c9.664093,0,17.5-7.8349,17.5-17.5c0-9.665001-7.835907-17.5-17.5-17.5
		c-9.666,0-17.5,7.834999-17.5,17.5c0,6.275391,3.3125,11.763699,8.275391,14.8526l-15.203094,28.1894
		c-9.201202-2.326103-16.517593-2.992203-17.537094-2.992203c-2.414108,0-4.212906-4.675697-4.212906-5.731407
		c0-1.055695,4.060501,0.151405,4.060501-21.56929s-9.5019-47.210999-10.777298-47.210999
		c-1.275406,0-10.777405,25.490288-10.777405,47.210999s4.0606,20.513596,4.0606,21.56929
		c0,1.05571-1.798897,5.731407-4.212898,5.731407c-1.019501,0-8.335999,0.6661-17.539093,2.993202l-16.75-31.055702
		c6.261696-3.586906,19.4375-1.6992,19.4375-1.6992L55.212898,22.791l8.521503,51.395508
		c0,0,4.357395-12.598598,10.419895-16.513599l16.205101,30.047802C78.556602,91.162109,64.843803,97.302704,57.251999,108
		c-14.6661,20.667007-20.334,48-20.334,60s9.6679,9,13.334-2c3.666-11,14.666-38,27.666-38s18.334,10.001007,18.334,16.334
		c0,6.333008-23,38.334-28.334,58.334c-5.3321,20,3.334,12.667908,7,11C76.25,213.0625,80.150398,210.916,85.578102,208.43161
		L54.2383,266.546906l3.5215,1.900391l33.747997-62.580093c8.451202-3.4375,19.013702-6.7285,29.283203-7.122101V273.5h4.001999
		v-74.75589c10.269501,0.3936,20.830002,3.685593,29.281204,7.123093l33.749985,62.580093l3.5215-1.900391l-31.341797-58.117203
		c5.429703,2.486298,9.332001,4.632797,10.664108,5.238297c3.666,1.667908,12.332001,9,7-11
		c-5.334-20-28.334-52.000992-28.334-58.334c0-6.332993,5.334-16.334,18.334-16.334s24,27,27.666,38s13.334,14,13.334,2
		S203,128.667007,188.334,108z"/>
</g>
</svg>
