<svg class="svgOrigin" xmlns="http://www.w3.org/2000/svg" width="600" height="400" x="0px" y="0px" viewBox="0 0 600 400" enable-background="new 0 0 600 400">
<g>
	<rect x="0.000488" y="-0.00049" fill="#FF0000" width="599.999512" height="400.000488"/>
	<path fill="#FFFFC2" d="M326.300781,87.811996c5.795898,0,7.991211,2.571312,7.991211,2.571312
		c0-4.943802-12.776398-16.707497-28.641602-16.707497s-43.815002,7.681099-43.815002,54.906189
		c0,39.800812,23.975098,60.702209,31.514191,66.2901c-2.734375-4.447296-8.487274-15.411697-8.5-29.134293
		c0.010803-11.193405,3.711914-21.351608,6.499023-27.420898l-4.929718,1.814896l4.120697-6.1577l-4.584503-5.821793
		l7.130829,2.01619l4.11969-6.158699l0.286591,7.404305l7.128906,2.015594l-6.952209,2.559601l0.285706,7.404297l-4.1987-5.333496
		c-2.735901,5.708008-6.86969,16.180603-6.858398,27.677704c-0.004395,8.589798,2.379395,16.128891,4.771912,21.515091
		c1.242676,2.805206,2.468292,4.99321,3.36618,6.463409c-0.538483-2.903809-1.274384-7.736801-1.274384-12.495605
		c0-7.501495,5.550812-15.887192,15.980988-19.574707c11.771515-4.161591,18.923798-17.729996,18.923798-31.709488
		c0-13.979004-10.978485-20.877899-11.605499-29.682602C316.571289,93.380409,320.504883,87.811996,326.300781,87.811996z"/>
	<path fill="#FFFFC2" d="M414.839783,190.535599c1.782318,5.515213,0.009796,8.395111,0.009796,8.395111
		c4.705109-1.520111,11.97171-17.29451,7.092804-32.391602c-4.876984-15.097198-20.77829-39.331604-65.716797-24.813004
		c-37.873993,12.237305-50.391571,41.476501-53.392578,50.368103c3.392578-3.969208,12.057587-12.814407,25.112274-17.045395
		c10.652405-3.431107,21.457001-3.031708,28.089905-2.245605l-3.242188-4.133301l7.125885,2.027893l4.129913-6.151901
		l0.273499,7.405304l7.126892,2.026794l-6.957001,2.548416l0.274414,7.404297l-4.573212-5.829102l-6.957092,2.548294
		l3.78418-5.634796c-6.273376-0.849106-17.509796-1.5625-28.446289,1.982895
		c-8.174805,2.636307-14.61618,7.222198-19.005798,11.155304c-2.287109,2.044907-3.994202,3.883804-5.116302,5.190399
		c2.598694-1.405701,6.970795-3.592194,11.499115-5.054596c7.136688-2.306702,16.825195,0.3974,23.539978,9.189392
		c7.578125,9.922897,22.689514,12.55571,35.992218,8.257797c13.301788-4.296799,16.490204-16.864685,24.675781-20.168396
		C406.549805,182.9888,413.057587,185.020508,414.839783,190.535599z"/>
	<path fill="#FFFFC2" d="M344.311493,306.366211c-4.701111,3.392578-7.985291,2.591797-7.985291,2.591797
		c2.892578,4.009796,20.136688,6.073181,33.002899-3.210907c12.867188-9.282288,31.039978-31.862305,3.406281-70.162094
		c-23.287201-32.275406-54.958099-35.198807-64.341797-35.320404c4.819305,2.007904,15.901306,7.534195,23.938416,18.656296
		c6.540985,9.080109,9.482483,19.485306,10.775391,26.038101l2.934601-4.355499l0.261688,7.404297l7.124023,2.038101
		l-6.961914,2.537094l0.261688,7.404312l-4.563385-5.835907l-6.962891,2.537109l4.141602-6.1436l-4.5625-5.836914l6.524384,1.867218
		c-1.120087-6.229507-3.897491-17.139709-10.632782-26.458008c-5.022522-6.968796-11.366211-11.6875-16.458008-14.654297
		c-2.649414-1.547913-4.922913-2.607407-6.51181-3.272507c2.135803,2.0401,5.560608,5.528305,8.345795,9.387711
		c4.388611,6.082092,4.792908,16.13089-1.508789,25.223694c-7.112305,10.261703-4.970703,25.451096,3.207001,36.787094
		c8.178711,11.337891,21.11911,10.506805,26.779297,17.282196C348.945282,296.15921,349.010681,302.975586,344.311493,306.366211z"
		/>
	<path fill="#FFFFC2" d="M212.4077,274.865204c-4.674301-3.429688-4.921906-6.802704-4.921906-6.802704
		c-2.925705,3.986298,0.411697,21.030304,13.202209,30.417999c12.788589,9.390594,39.861801,19.741211,67.811478-18.328186
		c23.554199-32.082016,16.597198-63.117111,13.828613-72.083908c-0.429688,5.202103-2.279816,17.447205-10.393005,28.513596
		c-6.630402,9.016602-15.626495,15.014709-21.464386,18.258804l5.046387,1.452194l-6.965302,2.527313l0.251404,7.404297
		l-4.555206-5.843719l-6.96579,2.525299l4.150909-6.137573l-4.555206-5.845718l7.11969,2.053711l4.152313-6.137711
		l0.227997,6.783203c5.583008-2.980499,15.111786-8.9785,21.907684-18.250992c5.087921-6.922897,7.627014-14.408203,8.884796-20.166
		c0.658203-2.999008,0.967804-5.486404,1.1138-7.20311c-1.285675,2.659103-3.552277,6.991211-6.369171,10.827103
		c-4.437531,6.046906-13.876404,9.519501-24.465302,6.319305c-11.951721-3.612305-25.747116,3.094803-34.02002,14.360397
		c-8.274399,11.270493-3.504395,23.327103-8.211395,30.795914C223.544891,276.136688,217.077591,278.293915,212.4077,274.865204z"/>
	<path fill="#FFFFC2" d="M201.830093,139.665512c1.827606-5.502411,4.960403-6.774902,4.960403-6.774902
		c-4.691895-1.558609-19.884705,6.857391-24.885696,21.914597c-5.003906,15.056107-6.530304,44.000992,38.288589,58.893005
		c37.769501,12.548889,65.163513-3.612305,72.844208-9.002899c-5.08252,1.191391-17.303711,3.19339-30.327606-1.124008
		c-10.619202-3.536606-19.0923-10.253403-23.974197-14.811493l0.169998,5.248993l-4.547394-5.851593l-6.9673,2.516098
		l4.16069-6.131302l-4.545486-5.852097l7.116699,2.062988l4.162598-6.131287l0.233398,7.406189l7.117691,2.063507
		l-6.384293,2.302689c4.553299,4.396515,13.188995,11.619705,24.101608,15.235901
		c8.151398,2.711914,16.056183,2.828094,21.921875,2.254913c3.055603-0.295914,5.518005-0.767609,7.19632-1.155304
		c-2.925812-0.405304-7.74472-1.230515-12.260803-2.731903c-7.118591-2.363297-13.325195-10.277893-13.534607-21.337402
		c-0.236908-12.483902-10.860901-23.549393-24.125-27.957596c-13.267593-4.409103-23.27449,3.837006-31.828186,1.654297
		C204.045395,150.6548,200.003891,145.163605,201.830093,139.665512z"/>
</g>
</svg>
