<svg class="svgOrigin" xmlns="http://www.w3.org/2000/svg" width="600" height="400" x="0px" y="0px" viewBox="0 0 600 400" enable-background="new 0 0 600 400">
<g>
	<rect x="0.000488" y="-0.00049" fill="#FFFFFF" width="599.999512" height="400.000488"/>
	<rect x="0.000488" y="-0.00049" fill="#CC0033" width="599.999512" height="97.012695"/>
	<rect x="0.000488" y="302.988312" fill="#CC0033" width="599.999512" height="97.011703"/>
	<polygon fill="#943118" points="285.188995,186.987305 284.275879,194.745102 286.443787,195.8862 287.299805,187.044403 	"/>
	<path fill="#943118" d="M296.421387,114.413109c0,0-1.551788,111.686501-11.744598,118.999992
		c0,0-5.097687-1.995102-3.545502-15.513702c1.491302-12.990189-5.097595,0.444305-5.097595,0.444305
		s2.438507,16.176804,1.108887,16.176804c-1.32959,0-12.186981-10.860306-11.52298-21.497101
		c0.664581-10.637695-4.654297,3.989304-4.654297,3.989304s4.210999,12.852493,7.978088,15.289993
		c3.766602,2.4375-7.75589,2.4375-13.518097-7.977493c-5.761703-10.415009-4.432098,8.420898-4.432098,8.420898
		s6.648895,5.100601,9.972107,5.541992c3.323792,0.441406,16.841278,8.64061,16.61969,19.500015
		c-0.22171,10.858398-7.53421,13.960876-9.750488,17.063477c-2.216797,3.102509-6.427307,9.0849-6.427307,10.193298
		s2.881897-1.108398,6.427307-0.664978c3.544891,0.443298,9.307098,6.870087,15.955078,6.426697
		c6.647919-0.443298,6.646912-6.426697,10.635712-5.983398c3.9888,0.44339,10.6362,6.205078,14.403809,6.205078
		c3.768585,0,3.768585-3.100586,6.205078-1.993073c2.4375,1.106384,3.768524,0.441376,6.427704-1.552826
		c2.65921-1.99408,5.761719-5.981384,10.19342-4.43158c4.43158,1.550781,10.413086,5.986298,14.402283,6.427704
		c3.990295,0.441376,7.314514-0.22171,6.871094-1.109406c-0.443298-0.886719-5.318298-9.305603-8.642578-9.748993
		c-3.325226-0.444305-11.081024-10.859406-13.295898-11.302704c-2.21582-0.44342-6.6474-1.330109-6.6474-11.523514
		c0-10.193298,8.418884-23.267502,12.40921-25.705002c3.989166-2.4375,14.843689-8.418991,16.618073-9.305695
		c1.774414-0.887695-3.543884-2.217804-6.203094-1.774399c-2.65921,0.443298-11.74411,6.428696-11.96579,4.210907
		c-0.22171-2.216812-0.884796-8.862305-1.994202-7.977509c-1.108398,0.885696-1.108398,0.885696-1.108398,0.885696
		s-2.878906,11.968811-4.43161,12.411209c-1.551788,0.441391-2.217804-7.53421-0.886688-11.524506
		c1.330078-3.989197-1.994202-7.088791-2.88092-4.208893c-0.886688,2.878891-1.552704,11.964798-3.324188,14.180588
		c-1.772491,2.215805-4.43161,7.3125-7.3125,5.5401c-2.88089-1.772491,1.99411-51.189987-4.875-67.809586
		c0,0-2.439514-46.314003-0.886688-51.632301L296.421387,114.413109z"/>
	<path fill="#943118" d="M327.886688,207.042999c0,0,4.211914-57.837891,0.887695-66.923386l2.65921,0.222198
		c0,0,2.88089,27.6987-1.99411,67.808594L327.886688,207.042999z"/>
	<path fill="#943118" d="M319.024384,177.348602c0,0,5.761719-38.115692,2.88092-54.735298l2.65918-0.221695
		c0,0,2.21582,23.268593-3.1026,55.178703L319.024384,177.348602z"/>
	<path fill="#943118" d="M338.523376,139.012207c0,0-0.017487,0.493195-0.038971,1.330597
		c-0.112305,4.3022-0.336029,17.680099,1.148376,19.721191c1.772522,2.437515,3.545898-1.995193,3.545898-1.995193
		s-3.102478,5.541107-2.65918-16.17569L338.523376,139.012207z"/>
	<path fill="#943118" d="M349.382782,143.222702c0,0-0.885681,16.176697-6.6474,19.500397l4.875-3.546295
		c0,0,4.873016-7.534195,3.987305-16.61969L349.382782,143.222702z"/>
	<path fill="#943118" d="M342.735382,185.7686l2.880798-1.108002c0,0-4.210876-10.636688-3.324188-19.5
		C343.17868,156.296906,338.747986,178.6772,342.735382,185.7686z"/>
	<path fill="#943118" d="M369.548798,170.035202c0,0,1.992188,35.236298-4.654297,47.201096l1.995087,0.6651
		c0,0,5.982513,2.879807,6.204193-49.195786L369.548798,170.035202z"/>
	<path fill="#943118" d="M362.014587,194.411606c0,0-0.001892,14.849106-2.216705,17.949692l-5.541077-2.880798
		c0,0,1.996094-10.416992,1.774475-14.626495C355.809601,190.644501,362.014587,194.411606,362.014587,194.411606z"/>
	<path fill="#943118" d="M351.156281,193.968307c0,0,0.221619,9.528793-0.44339,12.631302
		c-0.665009,3.102493-4.210876,3.543991-4.210876,3.543991s3.100464-9.748093,2.436462-15.731995
		C348.275391,188.427704,351.156281,193.968307,351.156281,193.968307z"/>
	<path fill="#943118" d="M341.405304,192.195801c0,0-0.444427,15.956497-1.772522,20.165497l-3.324188-0.886688
		c0,0,0.886688-14.402802,0.886688-20.608398C337.195282,184.660599,341.405304,192.195801,341.405304,192.195801z"/>
	<path fill="#943118" d="M316.365204,121.50441c0,0,0,12.188492-2.21582,14.625504
		c-2.21579,2.4375-3.767578-0.885803-3.767578-0.885803s7.091797-11.301201,1.551788-18.170906
		C306.393585,110.203606,316.365204,121.50441,316.365204,121.50441z"/>
	<polygon fill="#943118" points="293.540009,119.731407 292.654297,137.016113 291.102997,137.016113 291.768097,119.06691 	"/>
	<path fill="#943118" d="M288.22168,140.339813l-1.771973,19.943893h-1.5513l1.32959-18.170898l-3.76709,1.994598
		c0,0-4.433105,15.069397-7.535126,16.841293c-3.101593,1.772507-1.32959-1.107895-1.32959-1.107895
		s7.092804-13.295898,7.535095-16.398392c0.442413-3.1026-9.972595-0.22171-9.972595-0.22171s0.444794,14.846207-0.664093,18.392609
		c-1.108917,3.546387-2.216797-0.664612-2.216797-0.664612s1.10788-11.523895,1.10788-15.068787
		c0-3.54541-5.760681,1.5513-5.760681,1.5513s-1.551819,13.295898-2.659698,15.511688
		c-1.107422,2.215805-3.544922-0.664597-3.544922-0.664597s5.09671-7.534592,5.09671-14.847092s4.874512-8.8638,4.874512-8.8638
		l11.966797-2.216309L288.22168,140.339813z"/>
	<polygon fill="#943118" points="271.158691,183.773911 272.266602,181.1147 272.044891,201.279312 269.385681,200.171402 
		269.607391,186.875504 	"/>
	<polygon fill="#943118" points="257.42038,185.1035 255.647003,198.398407 251.880386,199.063507 253.210007,186.875504 	"/>
	<path fill="#188C4A" d="M260.07959,226.09671c-1.32959-0.001999-9.526901,10.85939-11.743698,11.746094
		s-15.291-0.886703-16.62059,0c-1.329605,0.886703-9.307114,2.215805-9.307114,2.215805s8.642105-7.090805,11.966309-9.528305
		c0,0-6.868607-2.4375-10.193298-2.4375c-3.32431,0-11.524002,2.215805-12.409698,2.215805
		c-0.8862,0-8.198303-1.996109-9.527802-1.108398c-1.329605,0.886688-10.637299,4.654297-14.847702,4.654297
		c0,0,13.7388-7.311508,15.068405-10.636703c0,0-6.869202,1.107407-8.420502,1.107407c0,0,15.2901-5.761703,16.397995-7.977509
		l-4.209503-0.221695c0,0,11.966309-5.5401,13.960007-7.534195c1.994095-1.99411,15.289993-10.194305,17.063004-10.636703
		c1.773392-0.442902,7.75679,1.107391,9.750885,1.107391c1.993713,0,3.101608-2.879898,4.875-3.101593
		c1.77301-0.221603,33.68222-5.760696,45.206116-3.988708c11.523895,1.771912,17.9487,5.539001,23.268097,5.98291
		c5.318298,0.443298,13.074188,9.085892,15.289001,9.085892c2.215881,0,14.183594-5.539993,18.836884-4.655289
		c4.652405,0.887695,6.868195,3.54689,8.19931,3.54689c1.329987,0,1.329987-3.54689,3.102509-2.659195
		c1.772491,0.886795,9.083984,3.987305,12.40918,3.987305c-1.552795-1.993103-5.320282-5.982407-9.086884-5.982407
		c-3.765717,0-4.873108-2.215805-9.305695-2.215805c-4.433624,0-13.297791-0.664993-15.070313-1.5513
		c-1.772491-0.885696-3.990204,0.220703-7.53421-1.551193c-3.543884-1.772003-7.53418-1.992706-9.30658-3.987808
		c-1.771515-1.995087-5.763702-6.86969-9.529297-7.313492c-3.766602-0.443405-7.9776,1.994095-11.96582,2.215805
		c-3.987305,0.221695-12.853577,0.8862-14.847198,0.221695c0,0,5.760712-8.199203,9.528809-9.085495
		c3.768585-0.885712,10.634796-1.772903,12.40921-3.102509c1.774384-1.32959,12.852478-2.65921,18.835876-2.21579
		c5.983398,0.443787,15.070313,2.660095,20.167023,1.773392c-5.761719-1.551697-11.080109-2.882294-14.405304-4.654297
		c-3.324219-1.771896-9.525421-3.545395-11.964813-3.545395c-2.439484,0-4.209991,1.10788-5.761688,1.10788
		c-1.552795,0-3.105499-1.32959-4.211914-1.10788c-1.107483,0.222198-2.88089,5.31929-9.306702,5.762192
		c-6.424805,0.442398-9.750488,2.4375-11.080078,2.4375c-1.32962,0-3.54541,0.442398-5.318298,0.885803
		c-1.77301,0.443802-5.761719,8.422302-9.30722,8.64299c0,0,4.228607,2.251511,9.64801,3.33551
		c0,0-10.313507,0.873993-13.858398,0.873993c-3.54541,0-11.52301,1.99411-13.96051,1.329605
		c-2.4375-0.664108-3.987701-0.8862-4.875-0.664108c-0.886688,0.22171-1.994598,1.107513-3.545792,1.329605
		c-1.551804,0.221695-5.540604,1.107407-6.870209,1.5513c-1.32959,0.443298-5.095688,3.324203-9.306091,3.102493
		c-4.210495-0.221695-8.419907,1.10791-10.636703,2.215805c0,0,3.324707-4.210403,3.767105-6.426193
		c0,0-7.535202,1.772003-10.194397,1.107895c0,0,14.403793-5.5401,15.069397-8.199203
		c0.664993-2.659195,6.87059-3.324692,8.642502-4.210999c1.772491-0.885696,19.722198-4.210403,27.256378-3.76709
		c7.53421,0.443893,10.637726-1.993607,12.188507-3.544907c0,0-7.091797-1.107895-12.410187-1.329605
		c-5.31842-0.221588-9.307098,1.329605-14.625519,1.329605c-5.318283,0-11.744583,2.880905-14.182083,2.880905
		s-14.403809-0.22171-16.177292-0.22171c0,0,10.415085-8.8647,11.74469-11.080597
		c1.330002-2.215302,15.291-4.431091,20.387695-5.760696c5.096619-1.329605,23.7099-1.5513,25.483398-2.65921
		c1.772919-1.107895,17.727509-1.108887,20.830017-1.995087c3.1026-0.885696,12.186584,1.995087,18.392578,1.995087
		c6.205109,0,14.848602-1.772003,19.501007,0c4.65329,1.772003,23.047791,6.426315,27.701202,7.53421
		c4.65329,1.107407,1.106415,5.983398,3.765594,6.869598c2.65921,0.886307,5.986298,3.9888,9.530304,3.9888
		c0,0-12.63089,1.993607-16.398499,1.328598c0,0-0.664978,3.9888,4.209015,4.875
		c4.875,0.885696,12.40918,8.200195,14.84668,8.642609c2.4375,0.442886-2.4375,3.544388-4.875,3.10199
		c-2.4375-0.442795-2.435608,4.874496,4.211914,6.425797c6.646484,1.551804,10.414978,9.528809,12.63089,10.194809
		c0,0-9.97171,0.884796-13.740295-0.666c0,0,1.552795,7.090805,5.762695,7.3125
		c4.208984,0.221695,7.75589,3.770493,10.858398,4.433594c0,0-3.102509,0-5.540009-1.330994
		c0,0,1.326202,2.880798,6.203094,5.096603c4.877014,2.215897,6.207001,6.207993,7.757813,6.871094
		c0,0-3.765594,0.886795-5.761688-0.221603c0,0,2.4375,3.541901,4.65329,3.322205c0,0-4.211914,3.324188-8.200195,3.324188
		c-3.987305,0-9.748993-4.432587-13.074219-5.983383c-3.324188-1.549805-9.972595-0.441406-11.301788-0.66301
		c-1.328094-0.221695-11.523407-1.3311-15.954987-3.54689c0,0,3.547791,5.321289,6.871094,6.427689
		c3.322205,1.106506,12.629791,5.5401,17.504791,5.318405c0,0-16.618103,2.657196-19.720703,1.328094
		c-3.102478-1.328094-5.539978-2.659195-8.420898-2.659195c-2.881805,0-2.881805,0-2.881805,0s-5.318298-4.430603-8.642578-4.652298
		c-3.324219-0.221695-6.644501-1.3311-9.084015-3.546906c-2.439392-2.21579-5.320282-5.31839-7.757782-5.31839
		s-6.423798,0.441391-10.856415-0.221603c-4.433594-0.663101-5.321289,2.878891-6.649384,2.215805
		c-1.329102-0.663101-5.983398-3.098709-8.420898-2.878906c-2.4375,0.219696-5.540619,2.215805-10.415619,1.994095
		c-4.874481-0.221695-5.983307-2.217789-7.977509-1.330994c-1.993591,0.887695-2.658173,4.211899-5.539093,3.768494
		c-2.880798-0.44429-3.987701-1.994095-5.096588-1.994095c-1.108917,0-3.32431,2.878906-5.76181,1.1064
		C265.397888,223.881805,261.852509,226.099609,260.07959,226.09671z"/>
	<path fill="#188C4A" d="M370.214783,146.100601c2.039093,0.509308-13.9599,1.772003-17.727478,1.772003
		c-2.095703,0-9.094727-0.601105-15.070313-0.442398c-4.764709,0.126907-8.718811,1.130798-10.19339,0.442398
		c-3.324219-1.5513-3.324219-1.5513-3.324219-1.5513s-0.443298-0.664093-2.65918-0.664093c-2.21582,0-5.318298,1.5513-9.75,1.5513
		c-4.43161,0-7.534119,2.436493-12.408722,1.993591c-4.875885-0.442291-6.870087-4.209396-9.307098-3.544891
		c-2.4375,0.664093-8.643982,1.993698-11.523895,1.993698c-2.879883,0-8.641083,3.9897-12.1875,3.546402
		c-3.545898-0.443909-6.205109-1.772507-8.864288-1.10791c-2.659103,0.664001-4.654312,1.329498-6.426208,1.329498
		c-1.772491,0-4.432693-1.5522-6.4263-1.108795c-1.994095,0.443298-6.647003,0.443298-8.420395,0.443298
		c0,0,5.7612-3.544891,11.07959-7.977493c5.318314-4.432205,8.863708-1.329605,13.295914-4.21051
		c4.432098-2.880798,13.517487-4.875,14.847107-7.534195c1.32959-2.659103-3.544922-3.324203-6.204102-3.324203
		c-2.659119,0-8.421417,1.108902-12.188416,1.108902c0,0,3.54541-2.879906,6.204498-5.318298
		c2.65921-2.438499,5.76181-1.995201,8.19931-4.654297c2.4375-2.659203,11.522888-1.994698,13.074188-3.9888
		c0,0-7.756805-0.442398-9.750488-1.772003c0,0,4.210388-2.659195,5.540009-5.762199
		c1.32959-3.102501,7.53418,0.221695,11.52298-3.9888c3.9888-4.210396,9.752411-4.653801,11.081512-5.983398
		c3.100586,0.443398,9.747101,7.313004,16.396484,7.534698c6.649414,0.222198,7.53421,3.767105,10.858398,4.875
		c0,0-5.541992,6.205605-8.642578,6.869606c0,0,7.314484,1.107994,9.085999,0c1.7724-1.107414,5.764587,1.993195,6.649384,3.102097
		s5.540009,4.653801,7.3125,4.653801c0,0-3.546906,2.4375-5.984406,2.4375c0,0,0.664124,3.102104,4.210022,4.874992
		c3.545898,1.772903,8.862305,5.983398,13.074188,6.205612C359.799805,138.123001,366.667999,145.214401,370.214783,146.100601z"/>
	<path fill="#FFFFFF" d="M246.8013,226.153305c-1.784714-0.179703-5.383301,3.388702-4.386307,3.388702
		C243.412094,229.542007,248.795395,226.352509,246.8013,226.153305z"/>
	<path fill="#FFFFFF" d="M236.035599,205.816406c2.188995-0.241196,7.774902,0.401398,9.170502,0.798798
		c1.395493,0.398499,0.399902,2.792007-2.5914,2.792007C239.623993,209.407211,234.241699,206.014603,236.035599,205.816406z"/>
	<path fill="#FFFFFF" d="M265.143097,202.826202c-1.770996-0.291992-5.183594-0.995102-6.778809-1.195297
		c-1.595276-0.199295-4.386292-2.192398-3.389191-2.192398c0.996597,0,4.584991,0.995605,6.578583,1.593704
		C263.547882,201.630905,266.339783,203.025406,265.143097,202.826202z"/>
	<path fill="#FFFFFF" d="M283.285187,200.834c-2.753479-0.459488-4.58548-1.994202-5.980988-2.392593
		c-1.395508-0.398407,0.997101-1.196808,2.392609-0.598602C281.092285,198.441406,284.481903,201.033203,283.285187,200.834z"/>
	<path fill="#FFFFFF" d="M301.027283,160.7603c-1.260681,0-12.759705,2.193314-14.354004,2.193314
		c-1.594177,0-0.795898,3.189987,0.798401,3.189987c0.693329,0,4.126404,0.35051,6.379425-0.199799
		c2.929688-0.715302,4.792908-2.426697,5.582001-2.990189C300.827606,161.957001,302.623993,160.7603,301.027283,160.7603z"/>
	<path fill="#FFFFFF" d="M346.882782,182.292511c-1.28418,1.027802-9.171906,1.794891-11.763702,0
		c-2.59079-1.79541-6.380798-2.990707-8.572174-2.990707c-2.192413,0-5.382813-2.192902-2.591827-2.392593
		c2.791016-0.199707,15.349609-1.394608,17.743103,0.598099C344.091797,179.500504,347.879883,181.495102,346.882782,182.292511z"/>
	<path fill="#FFFFFF" d="M364.027283,187.874512c-3.574188,0.509293-5.980377-2.791-7.774384-4.3862
		c-1.793884-1.595703-0.401306-3.986801,1.992188-2.192902C360.638702,183.089401,365.421906,187.675812,364.027283,187.874512z"/>
	<path fill="#FFFFFF" d="M308.405304,136.039108c-2.203217,0-6.978516,1.5952-9.370605,1.5952
		c-2.392609,0-3.190002,3.389603-0.19931,3.389603c2.990814,0,5.981995-1.793915,8.373627-1.793915
		C309.600586,139.229996,310.599579,136.039108,308.405304,136.039108z"/>
</g>
</svg>
