<svg class="svgOrigin" xmlns="http://www.w3.org/2000/svg" width="600" height="400" x="0px" y="0px" viewBox="0 0 600 400" enable-background="new 0 0 600 400">
<g>
	<rect x="0.000488" y="-0.00049" fill="#0148C2" width="599.999512" height="400.000488"/>
	<rect x="0.000488" y="100.102104" fill="#D7021A" width="599.999512" height="199.797302"/>
	<path fill="#FFFFFF" d="M156.76709,291.120117v-13.065399h9.338409v-13.370117h8.332993v-9.786194h7.072708v-6.007797h5.943893
		v-5.463806h1.278809l6.137192-7.960007h0.595703v-23.185593l-3.580597-4.858307v-20.373596l8.780807,7.074692v6.81691
		l1.928192,2.2202h0.893097v-29.888199l4.878891,7.378006h2.133301c-0.053696-1.098709-0.031693-1.869705-0.031693-1.869705
		s0.597092,0.3423,1.342697,0.876007l0.001999,0.003891c-0.984894-1.671402-3.348694-5.526291-3.134796-9.191391
		c0.769104,0.25,1.658203,0.988281,2.367706,1.678192c0,0-2.1978-4.619095-1.43071-7.176193
		c0.531311,0.123993,1.3125,0.6362,2.045898,1.193802v0.000992c0,0-1.406693-3.283691-1.022903-6.820801
		c0.651306,0.205597,1.598114,0.923798,2.457504,1.667007c0,0-0.409698-1.710007,0.313507-3.031708
		c0.181595,0.053207,0.3974,0.143997,0.619095,0.25l0.020004-2.295898h1.278793v-2.087891h0.981003v-1.705109h0.5112v-2.088898
		h0.297897c0,0,0.405701-2.535095,0.895004-3.025894c0.4897-0.490204,0.767105-1.449203,0.767105-2.3862
		c0-0.937012,0.299789-1.193802,0.661591-1.193802c0.361298,0,0.661102,0.25679,0.661102,1.193802
		c0,0.936996,0.277908,1.895996,0.767105,2.3862c0.489792,0.490799,0.894989,3.025894,0.894989,3.025894h0.297913v2.088898h0.511688
		v1.705109h0.981003v2.087891h1.278305l0.020004,2.295898c0.221695-0.106003,0.4375-0.196793,0.619598-0.25
		c0.72319,1.321701,0.321289,3.022903,0.321289,3.022903c0.857513-0.740204,1.800308-1.453598,2.449707-1.658203
		c0.383301,3.537109-1.016998,6.815903-1.016998,6.815903c0.7314-0.555603,1.510193-1.065903,2.039993-1.189896
		c0.767105,2.557098-1.430695,7.174286-1.430695,7.174286c0.709503-0.688995,1.598206-1.426285,2.367706-1.676285
		c0.213898,3.6651-2.149902,7.519989-3.134811,9.191391h-0.001892c0.747101-0.536591,1.346695-0.879898,1.346695-0.879898
		s0.021912,0.770996-0.032303,1.869705h2.133804l4.878906-7.378006v21.7901l6.017593-0.001007c0-0.543396,0-0.982895,0-1.193787
		c0-0.852112,1.106903-0.852112,2.557098-0.852112c1.450699,0,2.303696,0.341812,2.303696,0.852112
		c0,0.102997,0,0.548294,0,1.193787h22.580109v-13.481888c0-1.778305,0.277893-2.013702,0.435608-1.856003
		c0.158203,0.1577,2.65329,2.1035,2.65329,2.1035c0-1.054703,0.351593-1.278305,0.671387-0.958908
		c0.319824,0.319809,3.100616,2.781204,3.100616,3.324707c0,0.543396,0,1.949707,0,3.643997
		c0,1.694305,1.534607,3.484406,2.557587,3.484406c0.243622,0,2.796906,0,6.552704,0v-7.799805
		c0,0-7.927185-7.991699-6.201202-14.065002c2.365295,3.803711,4.762695,6.009811,4.762695,6.009811h2.973206v-3.548309
		c0,0-7.640106-8.215393-5.402405-12.946304c1.02301,2.652802,4.059601,5.338303,4.059601,5.338303h3.066925
		c0.001984,0,0.001984-3.068802,0.001984-3.068802s-5.817902-5.594193-4.890686-11.476089
		c1.278381,3.260803,4.123596,4.666992,4.123596,4.666992h1.662109v-3.772003c0,0-5.178711-7.128387-4.123627-10.292892
		c0.735413,1.789993,3.068909,4.251404,3.068909,4.251404h1.180695c0.001892,0,0.001892-2.621109,0.001892-2.621109
		c-3.85199-4.104004-3.068787-8.247498-3.068787-8.247498s1.486298,3.308609,3.228485,4.1987h1.247009v-3.153793
		c-4.261688-4.2612-3.410583-7.757805-3.410583-7.757805s1.652283,3.068794,2.729004,3.495598
		c0.155792,0,1.350586-0.042999,2.47168-0.042999c0-1.726501,0.575195-2.365692,1.118591-2.365692c0.056213,0,0.235901,0,0.51181,0
		c0-0.767105,0.191406-2.910103,0.575195-2.910103c0.027802,0,0.111816,0,0.243622,0c0,0,0-2.743698,0.391571-2.743698
		c0.045929,0,0.213928,0,0.47171,0c0,0,0-2.743202,0.391602-2.743202c0.069794,0,0.357391,0,0.783203,0
		c0-1.631302,0.505402-3.321701,1.725098-4.070801c0.039093-3.077599,0.850098-3.453598,1.483398-3.453598
		s1.444794,0.375999,1.481903,3.453598c1.220703,0.7491,1.726624,2.439499,1.726624,4.070801c0.425781,0,0.712891,0,0.783173,0
		c0.391602,0,0.391602,2.743202,0.391602,2.743202c0.257813,0,0.425812,0,0.47171,0c0.391602,0,0.391602,2.743698,0.391602,2.743698
		c0.131805,0,0.21579,0,0.243103,0c0.383789,0,0.576202,2.142998,0.576202,2.910103c0.275391,0,0.455078,0,0.510681,0
		c0.544006,0,1.119202,0.639191,1.119202,2.365692c1.121094,0,2.315399,0.042999,2.47171,0.042999
		c1.07608-0.426804,2.728485-3.495598,2.728485-3.495598s0.851501,3.496605-3.410187,7.757805v3.153793h1.247101
		c1.742188-0.890091,3.228485-4.1987,3.228485-4.1987s0.783203,4.143494-3.069305,8.247498l0.001923,2.621109h1.181702
		c0,0,2.332977-2.461411,3.068298-4.251404c1.054688,3.164505-4.124023,10.292892-4.124023,10.292892v3.772003h1.662109
		c0,0,2.845703-1.406189,4.123993-4.666992c0.926819,5.881897-4.890594,11.476089-4.890594,11.476089l0.002014,3.068802h3.066406
		c0,0,3.037079-2.685501,4.059479-5.338303c2.238312,4.730911-5.402283,12.946304-5.402283,12.946304v3.548309h2.973602
		c0,0,2.397491-2.2061,4.762695-6.009811c1.726593,6.073303-6.201111,14.065002-6.201111,14.065002v7.799805
		c3.755798,0,6.308594,0,6.552704,0c1.023407,0,2.557587-1.7901,2.557587-3.484406c0-1.69429,0-3.100601,0-3.643997
		c0-0.543503,2.781311-3.004898,3.100616-3.324707c0.319305-0.319397,0.670898-0.095795,0.670898,0.958908
		c0,0,2.496094-1.945801,2.65329-2.1035c0.158203-0.1577,0.435608,0.077698,0.435608,1.856003v13.481888h22.579987
		c0-0.645493,0-1.09079,0-1.193787c0-0.5103,0.853607-0.852112,2.303802-0.852112c1.450104,0,2.557617,0,2.557617,0.852112
		c0,0.210892,0,0.650391,0,1.193787l6.017487,0.001007v-21.7901l4.878998,7.378006h2.133698
		c-0.05368-1.098709-0.032196-1.869705-0.032196-1.869705s0.599609,0.343307,1.34671,0.879898h-0.002014
		c-0.985291-1.671402-3.348572-5.526291-3.134674-9.191391c0.76947,0.25,1.658173,0.987289,2.367188,1.676285
		c0,0-2.197296-4.617188-1.429688-7.174286c0.529297,0.123993,1.308594,0.634293,2.038971,1.189896
		c0,0-1.400391-3.278793-1.016571-6.815903c0.649475,0.204605,1.592773,0.917999,2.44928,1.658203
		c0,0-0.401398-1.701202,0.322205-3.022903c0.181702,0.053207,0.397491,0.143997,0.619202,0.25l0.019501-2.295898h1.279297
		v-2.087891h0.980499v-1.705109h0.511688v-2.088898h0.297821c0,0,0.405304-2.535095,0.894592-3.025894
		c0.489197-0.490204,0.767487-1.449203,0.767487-2.3862c0-0.937012,0.299805-1.193802,0.661224-1.193802
		c0.361298,0,0.661102,0.25679,0.661102,1.193802c0,0.936996,0.27829,1.895996,0.767578,2.3862
		c0.489197,0.490799,0.894501,3.025894,0.894501,3.025894h0.297913v2.088898h0.511688v1.705109h0.980499v2.087891h1.279205
		l0.019592,2.295898c0.22171-0.106003,0.4375-0.196793,0.61911-0.25c0.723694,1.321701,0.314514,3.031708,0.314514,3.031708
		c0.858398-0.74321,1.805573-1.461411,2.457001-1.667007c0.383789,3.537109-1.022522,6.820801-1.022522,6.820801v-0.000992
		c0.732513-0.557602,1.513702-1.069809,2.045013-1.193802c0.767487,2.557098-1.429718,7.176193-1.429718,7.176193
		c0.709015-0.689911,1.597626-1.428192,2.367218-1.678192c0.213806,3.6651-2.149414,7.519989-3.134796,9.191391l0.001984-0.003891
		c0.745117-0.533707,1.342712-0.876007,1.342712-0.876007s0.021484,0.770996-0.032196,1.869705h2.133789l4.878906-7.378006
		v29.888199h0.893585l1.927734-2.2202v-6.81691l8.780273-7.074692v20.373596l-3.580109,4.858307v23.185593h0.595703
		l6.137695,7.960007h1.27832v5.463806h5.94339v6.007797h7.073212v9.786194h8.332977v13.370117h9.337921v13.065399H156.76709z"/>
	<path d="M434.149384,277.796906v-13.372101h-8.335907v-9.786102h-7.072296v-6.003006h-5.939392l-0.003906-5.466797h-1.406281
		l-6.137726-7.957001h-0.463867v-22.850601l3.580078-4.858398v-20.992188l-9.293884,7.488281v6.847717l-1.7901,2.058594h-0.515625
		l-0.003876-30.484406l-5.270508,7.973602h-1.732391c0.018494-0.474594,0.026306-0.885193,0.026306-1.167892
		c0-0.287613-0.003906-0.452698-0.003906-0.452698l-0.016602-0.4272l-0.367218,0.211395
		c-0.003906,0.004395-0.171783,0.101105-0.435486,0.267105c1.05658-1.848099,2.615204-4.858902,2.621094-7.885712
		c-0.003876-0.161194-0.003876-0.321793-0.011688-0.481506l-0.022522-0.334991l-0.311493,0.102112
		c-0.531311,0.177689-1.088898,0.554199-1.612305,0.979996c0.475616-1.202698,1.163116-3.229507,1.168915-4.98201
		c0-0.465286-0.045898-0.913986-0.169922-1.327591l-0.070282-0.232407l-0.233398,0.058609
		c-0.415009,0.104996-0.938507,0.401794-1.468811,0.759293c0.328217-0.986893,0.823303-2.804703,0.823303-4.879898
		c0-0.418503-0.021484-0.850098-0.063507-1.285706l-0.038086-0.3125l-0.295898,0.09671
		c-0.577118,0.190002-1.320313,0.710495-2.043915,1.298798c0.014618-0.166,0.026306-0.345703,0.026306-0.549301
		c0-0.591293-0.087799-1.326599-0.451111-1.991196l-0.1026-0.18161l-0.193298,0.059113
		c-0.098694,0.028793-0.202179,0.066788-0.30957,0.110794l-0.003906-1.912094v-0.253403h-1.275421l-0.003876-1.83551v-0.253387
		h-0.976624l-0.003876-1.450699v-0.253906h-0.507813l-0.003906-1.834v-0.257294h-0.339783
		c-0.105499-0.606415-0.4151-2.387711-0.926819-2.951202c-0.413971-0.401306-0.697205-1.318298-0.693298-2.202606
		c0-0.962906-0.383789-1.449692-0.913086-1.449692c-0.531311,0-0.917023,0.486786-0.917023,1.449692
		c0.003906,0.884308-0.279297,1.8013-0.69339,2.202606c-0.511688,0.563492-0.823181,2.349594-0.926697,2.951202h-0.341797v2.091293
		h-0.51181v1.704605h-0.980408v2.088898h-1.281281v2.16449c-0.107391-0.042999-0.211914-0.080994-0.307617-0.109787
		l-0.203094-0.060104l-0.09668,0.181595c-0.359406,0.663605-0.451202,1.399002-0.451202,1.995209
		c0,0.201599,0.01178,0.38179,0.026398,0.545395c-0.72171-0.586502-1.464813-1.106003-2.041992-1.295395l-0.299805-0.093307
		l-0.03421,0.308609c-0.045898,0.43158-0.065399,0.862289-0.065399,1.284698c0,2.067795,0.491211,3.885193,0.820282,4.873993
		c-0.527283-0.356506-1.046875-0.651398-1.461884-0.755402l-0.236298-0.054703l-0.067413,0.231903
		c-0.127899,0.410202-0.177795,0.858002-0.177795,1.326202c0.00589,1.753403,0.695404,3.779297,1.174896,4.981003
		c-0.523499-0.425797-1.081085-0.802307-1.610382-0.981003l-0.313507-0.098099l-0.020508,0.325699
		c-0.013702,0.161102-0.017609,0.324707-0.017609,0.4897c0.003906,3.022995,1.558624,6.031693,2.623108,7.882797
		c-0.263702-0.164993-0.431702-0.261703-0.435608-0.266098l-0.36319-0.202606l-0.018585,0.413498
		c0,0-0.007813,0.169998-0.007813,0.457611c0,0.2827,0.007813,0.69429,0.026398,1.1689h-1.728607l-5.2724-7.961899v22.371597
		h-5.503876c0-0.416504,0-0.762207,0-0.936096c-0.087921-1.194809-1.422913-1.093704-2.813507-1.110809
		c-1.456116,0.024902-2.469696,0.26561-2.559601,1.110809c0,0.087891,0,0.438492,0,0.937988H331.40329v-13.22699
		c-0.068298-1.500504-0.038086-1.977112-0.611298-2.153809c-0.126007,0-0.217804,0.063004-0.269501,0.122009
		c-0.082092,0.082993-1.538086,1.225601-2.244202,1.780289c-0.061493-0.491699-0.231384-0.804199-0.630798-0.852493
		c-0.189484,0-0.332092,0.097107-0.445404,0.214798c-0.316406,0.370605-3.063385,2.620605-3.172791,3.501495
		c0,0.543411,0,1.949707,0,3.644012c-0.003906,1.549301-1.530304,3.226593-2.299805,3.230499
		c-0.241211-0.002914-2.699188-0.001999-6.298798-0.001999v-7.445801c0.724609-0.760208,6.418884-6.794907,6.442291-12.330002
		c0.004028-0.644608-0.075104-1.280807-0.250885-1.902908l-0.160217-0.556595l-0.30368,0.492706
		c-2.112305,3.395996-4.241211,5.495087-4.647522,5.887695h-2.61319l-0.003906-3.195801
		c0.651306-0.729996,5.787994-6.477097,5.810516-11.085495c0-0.724106-0.126007-1.423309-0.427704-2.067398l-0.26181-0.538513
		l-0.211884,0.555099c-0.888611,2.331604-3.468689,4.757401-3.921814,5.174805h-2.710999V161.3423
		c0.645508-0.65239,4.968811-5.151398,4.984406-10.284195c0.003906-0.441406-0.030304-0.883804-0.095703-1.334503
		l-0.148407-0.929703l-0.344788,0.875c-1.233398,3.161713-4,4.518097-3.996094,4.53421l-1.292908-0.0112l-0.003906-3.449203
		c0.463806-0.661194,4.241211-6.007797,4.267517-9.407303c-0.003906-0.374496-0.049805-0.724091-0.15332-1.048798
		l-0.220703-0.656204l-0.261688,0.640106c-0.621094,1.528793-2.544891,3.656296-2.944305,4.091797h-0.813507v-2.264603
		c2.72171-2.948792,3.136719-5.925797,3.130798-7.411194c0-0.610306-0.061493-0.968704-0.065399-0.985794l-0.156189-0.803207
		l-0.330109,0.748993c0.006805,0.012207-1.509796,3.2827-3.110382,4.074707l-0.873016-0.005905l-0.003906-2.812988
		c3.024414-3.059509,3.484406-5.758713,3.480499-7.074707c0-0.530197-0.072296-0.833-0.076202-0.850098l-0.160187-0.652298
		l-0.311493,0.589394c0.003906,0.020905-1.711884,3.077095-2.600616,3.379799
		c-0.110291-0.010193-0.921875-0.014099-2.138702-0.016098c-0.05368-1.596191-0.609283-2.388695-1.354492-2.408699
		c-0.035095-0.0009-0.133698-0.0009-0.26358-0.0019c-0.015625-0.415596-0.059601-0.991707-0.141602-1.523499
		c-0.164124-0.639099-0.084015-1.201599-0.672913-1.378403c-0.003906-0.260696-0.014587-0.690399-0.045898-1.140594
		c-0.144501-0.707504,0.061493-1.367706-0.597595-1.611305c-0.028412,0-0.112305,0-0.219818,0
		c-0.003876-0.261795-0.014587-0.6866-0.045898-1.132797c-0.144501-0.707603,0.061615-1.367699-0.597595-1.611404
		c-0.055695,0-0.25589,0-0.540985,0c-0.054718-1.532196-0.555725-3.1269-1.716797-3.931099
		c-0.029327-2.973694-0.934601-3.598198-1.732025-3.589897c-0.809998-0.003899-1.716278,0.625999-1.73819,3.685097
		c-1.063995,0.824196-1.653412,2.341301-1.713898,3.835899c-0.287109,0-0.487793,0-0.542511,0
		c-0.660583,0.243706-0.458496,0.903801-0.597595,1.611404c-0.032806,0.446198-0.044006,0.871002-0.047882,1.132797
		c-0.10791,0-0.189026,0-0.216827,0c-0.660095,0.243599-0.458466,0.903801-0.597198,1.611305
		c-0.032196,0.450195-0.042877,0.878899-0.046783,1.139595c-0.594788,0.176804-0.510803,0.739304-0.678711,1.379402
		c-0.07959,0.531792-0.122589,1.107002-0.13678,1.522499c-0.129822,0-0.226501,0-0.262726,0
		c-0.748993,0.023903-1.302673,0.815407-1.354492,2.408699c-1.233795,0-2.071686,0.001007-2.236786,0.002899
		c-0.790009-0.285599-2.497009-3.363701-2.502411-3.363701l-0.314484-0.575195l-0.159607,0.634201
		c-0.004395,0.017097-0.080109,0.319901-0.080109,0.853096c-0.003906,1.313904,0.459503,4.016998,3.481415,7.071701v2.795898
		h-0.989227c-1.488281-0.765106-2.989777-4.052704-2.997589-4.048798l-0.327606-0.727005l-0.155792,0.782211
		c0,0.016098-0.072205,0.373489-0.072205,0.987793c0,1.483398,0.405701,4.458496,3.136719,7.406204v2.267593h-0.816925
		c-0.403778-0.434601-2.319794-2.565399-2.943878-4.093704l-0.259705-0.622101l-0.218811,0.638214
		c-0.109772,0.3237-0.155701,0.6772-0.155701,1.05069c0.023926,3.390701,3.785614,8.715897,4.266113,9.402405v3.439392h-1.403412
		c0.029816-0.013092-2.672302-1.388596-3.885681-4.505295l-0.34082-0.858398l-0.151886,0.908203
		c-0.074707,0.449692-0.105011,0.894989-0.105011,1.336395c0.016205,5.1436,4.364319,9.652802,4.993713,10.289597v2.708008h-2.71582
		c-0.46048-0.417511-3.025879-2.845306-3.920898-5.178711l-0.210999-0.546387l-0.255798,0.529297
		c-0.307587,0.643494-0.4375,1.345703-0.4375,2.067795c0.02832,4.613297,5.163605,10.358398,5.813019,11.087402v3.195801h-2.614319
		c-0.410583-0.392502-2.536102-2.494598-4.648895-5.888596l-0.297882-0.483902l-0.165009,0.546402
		c-0.179718,0.622498-0.255402,1.260696-0.255402,1.904297c0.02298,5.537094,5.72168,11.571701,6.447296,12.332001v7.444794
		c-3.601593,0-6.059601,0-6.294403,0c-0.773499-0.004898-2.300812-1.678192-2.304688-3.230499c0-1.690903,0-3.099594,0-3.641998
		c-0.108917-0.883301-2.856018-3.133804-3.175812-3.508301c-0.112793-0.117706-0.264709-0.209991-0.441406-0.209991
		c-0.403778,0.0513-0.569305,0.364685-0.631378,0.853485c-0.707001-0.554688-2.166504-1.699188-2.248505-1.788605
		c-0.055206-0.05069-0.144012-0.113693-0.27002-0.113693c-0.573303,0.176697-0.539093,0.653305-0.602081,2.153809v13.226089
		h-22.069809c0-0.499588,0-0.850098,0-0.937988c-0.092789-0.843307-1.104004-1.083008-2.5625-1.108902
		c-1.390106,0.01709-2.716797-0.084-2.809998,1.108902c0,0.174789,0,0.520493,0,0.937988h-5.504898v-22.3853l-5.274399,7.97171
		l-1.731506,0.002899c0.019104-0.473602,0.025894-0.885208,0.026901-1.167999c0-0.285599-0.004898-0.449203-0.004898-0.453598
		l-0.007797-0.432602l-0.373611,0.217804c-0.002899,0.004395-0.172791,0.10199-0.4375,0.268997
		c1.060608-1.847107,2.61821-4.859802,2.621109-7.888611c0-0.160187-0.003906-0.323792-0.012207-0.483398l-0.021988-0.332108
		l-0.310501,0.10112c-0.531204,0.178696-1.088913,0.555695-1.613312,0.980988c0.475601-1.201691,1.1651-3.228592,1.167999-4.983002
		c0-0.465286-0.045898-0.914993-0.167999-1.326599l-0.070801-0.230499l-0.234787,0.054703
		c-0.415604,0.104996-0.937103,0.401901-1.4664,0.759293c0.32869-0.987793,0.823792-2.80809,0.823792-4.88089
		c0-0.419403-0.020996-0.847107-0.067902-1.283707l-0.0327-0.310486l-0.298798,0.097198
		c-0.575195,0.189392-1.318405,0.707993-2.041092,1.294388c0.015198-0.164093,0.02739-0.342789,0.02739-0.544388
		c0-0.596207-0.0923-1.330612-0.452591-1.992706l-0.101105-0.181198l-0.1978,0.055206
		c-0.097595,0.029785-0.202606,0.067886-0.311508,0.111786v-1.910095v-0.255402h-1.276886v-1.831604v-0.255295h-0.980911v-1.449692
		v-0.255905h-0.512192V150.0513v-0.255386h-0.340805c-0.106003-0.605515-0.417496-2.389709-0.926804-2.948212
		c-0.411591-0.406296-0.696289-1.320389-0.692398-2.205597c0-0.963898-0.385696-1.450699-0.917892-1.450699
		c-0.532806,0-0.914108,0.486801-0.914108,1.450699c0.003906,0.885208-0.280792,1.799301-0.696289,2.205597
		c-0.509811,0.558502-0.819305,2.342697-0.923309,2.948212h-0.341293v2.091293h-0.51181v1.705597h-0.982895v2.086899H213.791
		v2.165497c-0.108902-0.0439-0.213409-0.082993-0.310501-0.111786l-0.1978-0.055206l-0.099609,0.175797
		c-0.361801,0.667496-0.453598,1.401901-0.453598,1.998108c0,0.201599,0.011703,0.380295,0.02681,0.544388
		c-0.723114-0.587387-1.467209-1.106888-2.043915-1.29689l-0.297394-0.092804l-0.030197,0.310608
		c-0.049789,0.432587-0.070801,0.864197-0.070801,1.283691c0,2.069794,0.494598,3.888199,0.823196,4.876007
		c-0.528793-0.355499-1.048798-0.651413-1.46579-0.756409l-0.235397-0.054703l-0.06691,0.230499
		c-0.121994,0.411606-0.171799,0.861313-0.171799,1.326599c0.002899,1.75351,0.690903,3.779312,1.169403,4.981003
		c-0.523407-0.424789-1.080597-0.8013-1.611298-0.978989l-0.310608-0.10112l-0.020996,0.327713
		c-0.012695,0.164001-0.017105,0.3237-0.017105,0.487793c0.00351,3.028809,1.560608,6.037613,2.623596,7.886703
		c-0.263687-0.166-0.430695-0.262695-0.433594-0.26709l-0.365692-0.209503l-0.017105,0.420395
		c0,0.003906-0.007797,0.167999-0.007797,0.457504c0.0009,0.282791,0.007797,0.69339,0.025787,1.167999h-1.72699l-5.275406-7.966797
		v30.476593h-0.5186l-1.789993-2.060593v-6.845718l-9.292496-7.483887v20.985901l3.581604,4.862305v22.848587h-0.466812
		l-6.137192,7.957001h-1.408707v5.466797h-5.943893v6.003006h-7.072205v9.788086h-8.331604v13.370117h-9.338898v13.577087
		h286.976563v-13.577087H434.149384z M433.639587,277.796906H387.99408v-12.858398h45.645508V277.796906z M212.513687,243.678711
		h2.363312v47.181702h-2.363312V243.678711z M199.981003,208.545898l-5.128006-5.128891h7.628006l6.741196,7.761703
		l0.003891,24.033188h-2.553192v-16.810501H202.6689v16.810501h-2.684006L199.981003,208.545898z M209.397003,199.9785
		c0.705093,0.0923,2.563004,0.570801,3.703094,2.926804h-3.202606C209.580597,201.588898,209.442902,200.479996,209.397003,199.9785
		z M212.164993,193.359909c-2.006805-2.479507-2.376404-5.126999-2.376404-6.733902c0-0.504898,0.036606-0.899399,0.069809-1.1548
		c0.7612,0.397491,2.727997,1.536102,3.587402,2.987793l0.273392,0.461411l0.185104-0.50441
		c0.972702-2.655289,4.688004-6.428192,5.538101-7.275391c0.858902,0.847198,4.561996,4.622101,5.534195,7.275391l0.184494,0.50441
		l0.274002-0.461411c0.85791-1.449692,2.827103-2.580597,3.588303-2.981888c0.032806,0.255798,0.068909,0.648392,0.068909,1.148895
		c-0.005402,1.608902-0.369614,4.260193-2.382813,6.737793c-0.32959,0.146011-1.756897,0.827103-2.853989,2.2724
		c-1.040604-2.916992-4.25441-5.15329-4.266098-5.173294l-0.14801-0.104996l-0.147003,0.104996
		c-0.011688,0.020004-3.225586,2.256302-4.270493,5.173294C213.914093,194.170898,212.464798,193.492706,212.164993,193.359909z
		 M212.237793,193.961899c0.584503,0.300812,1.813995,1.055206,2.662094,2.388702l0.318909,0.500504l0.143997-0.576706
		c0.631302-2.538101,3.415009-4.771988,4.082504-5.285095c0.677292,0.514099,3.44429,2.7509,4.071793,5.285095l0.142609,0.580597
		l0.319794-0.504395c0.846207-1.331604,2.077606-2.078598,2.662109-2.382294c0.002899,0.082504,0.003891,0.177689,0.003891,0.283691
		c0.004395,1.329514-0.267593,4.348099-2.272491,6.546799c-2.211411-3.65329-4.75-5.946686-4.759705-5.960388l-0.172897-0.151901
		l-0.172806,0.151901c-0.0103,0.013702-2.549301,2.307098-4.761292,5.960388
		c-2.005814-2.201599-2.277298-5.217285-2.273407-6.546799C212.232895,194.143112,212.234894,194.044907,212.237793,193.961899z
		 M219.442398,195.383804c0.721191,0.688004,3.505402,3.515106,5.5,7.5215h-11.005402
		C215.935089,198.895004,218.729996,196.071808,219.442398,195.383804z M228.989288,202.905304h-3.208496
		c1.141602-2.361404,3.006805-2.828598,3.708008-2.922394C229.444794,200.486298,229.307098,201.592804,228.989288,202.905304z
		 M213.343796,203.417007l0.155701,0.373993l0.176804-0.373993h11.527802l0.176788,0.370102l0.154709-0.370102h3.325699
		c-0.4375,1.616196-1.166504,3.459991-2.370605,4.940399h-14.102005c-1.201691-1.477509-1.927795-3.324203-2.364288-4.940399
		H213.343796z M288.416504,218.911102h2.958984v16.298904h-2.955109L288.416504,218.911102z M289.81839,199.047913
		l-0.303802-0.133804l-0.054199,0.323196c0,0.013199-0.092682,0.580597-0.092682,1.498505
		c0,0.590393,0.048798,1.336502,0.177673,2.157791c-6.267578,0-11.204102,0-12.202087,0
		c-1.409698,0.003906-2.708984-0.875-3.650909-1.901901c-0.946289-1.004898-1.513702-2.212891-1.497589-2.574188
		c0-0.254913,0-1.351608,0-2.870102h19.76709v4.75C290.878906,199.516098,289.828094,199.057602,289.81839,199.047913z
		 M289.066895,172.368713c-0.002014-0.417511,0.020996-0.735901,0.041992-0.94191
		c0.698212,0.208008,2.64212,0.961899,4.175812,3.235809l0.214783,0.31929l0.213409-0.327591
		c1.849121-2.887711,5.439392-6.717804,6.287598-7.610809c0.847198,0.893005,4.434998,4.723099,6.287598,7.610809l0.205109,0.327591
		l0.219696-0.31929c1.531189-2.270004,3.474609-3.013214,4.173798-3.226608c0.022491,0.206604,0.044006,0.522507,0.044006,0.932709
		c-0.003906,1.703598-0.393616,4.968689-2.856506,8.454987h-6.542908c-0.811584-0.834-1.362793-1.298294-1.369202-1.303192
		l-0.163574-0.135208l-0.166016,0.135208c-0.003906,0.004898-0.553192,0.469193-1.364197,1.303192h-6.54541
		C289.451691,177.337402,289.066895,174.072311,289.066895,172.368713z M290.332489,151.693802c0-0.015091,0-0.02919,0-0.042892
		c0.785217,0.20549,2.933105,0.888702,3.883789,2.378403l0.277802,0.425293l0.176819-0.475601
		c1.088898-2.925797,4.554199-5.924301,5.331482-6.5811c0.792999,0.657806,4.237823,3.660202,5.324707,6.5811l0.171906,0.475601
		l0.281311-0.425293c0.95108-1.487305,3.098602-2.162613,3.883789-2.373505c0,0.012695,0,0.024902,0,0.037994
		c0.003906,1.304199-0.277405,5.819901-3.458008,7.599701l-2.032288-0.030792
		c-1.935516-2.500504-4.017517-3.953598-4.029297-3.965805l-0.144012-0.101105l-0.14801,0.101105
		c-0.009674,0.012207-2.091797,1.464294-4.026794,3.963806h-2.159698
		C290.606384,157.513702,290.324707,152.998001,290.332489,151.693802z M297.781677,130.959503l0.319916,0.319809l0.108795-0.441406
		c0.487396-1.994202,1.474213-2.742203,1.797913-2.957001c0.339783,0.219696,1.300293,0.9897,1.777802,2.957001l0.108398,0.441406
		l0.321289-0.3237c0.689514-0.690506,1.669006-0.812012,2.223694-0.812012c0.060516,0,0.114197,0.0009,0.162109,0.003906
		c-0.051788,0.453598-0.213898,1.462402-0.632813,2.521393c-0.517578,0.195801-0.973694,0.521011-1.504883,1.031815
		c-0.517609-1.591309-2.293518-3.002014-2.301819-3.024902l-0.163574-0.134811l-0.160126,0.134811
		c-0.009796,0.022888-1.787079,1.432602-2.306183,3.023895c-0.526794-0.508301-0.981903-0.833008-1.498505-1.0298
		c-0.421387-1.059998-0.581604-2.068802-0.6362-2.523407c0.045898-0.001999,0.097595-0.002899,0.154694-0.002899
		C296.107391,130.1436,297.091278,130.2612,297.781677,130.959503z M297.49118,134.377899l0.361298,0.365814l0.076202-0.512711
		c0.143616-1.184601,1.590332-2.575195,2.075714-3.017593c0.491699,0.442398,1.922394,1.8349,2.067902,3.017593l0.068298,0.508698
		l0.365295-0.361801c0.637695-0.638199,1.083008-1.036087,1.541992-1.233902
		c-0.019592,1.614304-0.307678,3.453705-1.333984,4.152908c-1.077209-2.020996-2.58551-2.645004-2.621613-2.655304
		l-0.095703-0.038101l-0.091797,0.038101c-0.032196,0.0103-1.54248,0.633301-2.619598,2.653305
		c-1.026886-0.701202-1.313507-2.538605-1.336487-4.150909C296.40918,133.341812,296.856903,133.7397,297.49118,134.377899z
		 M296.727081,139.06691l0.303711,0.303696l0.12149-0.412613c0.795502-2.678192,2.456604-3.592285,2.852112-3.794891
		c0.423798,0.205612,2.052185,1.142609,2.843292,3.794891l0.117096,0.412613l0.308624-0.303696
		c0.628876-0.643097,2.003876-1.1875,2.670898-1.4263c-0.150421,1.042999-0.707001,3.888702-2.385712,5.4561
		c-1.320313-2.117706-3.382294-3.879898-3.394501-3.893097l-0.167511-0.143509l-0.164093,0.143509
		c-0.007782,0.013199-1.994598,1.714386-3.318298,3.780289c-1.614288-1.586395-2.248596-4.310593-2.438507-5.340302
		C294.748993,137.8853,296.101593,138.429703,296.727081,139.06691z M296.445282,138.2061h0.432617
		c-0.031219,0.080505-0.069305,0.146408-0.098114,0.2314C296.675781,138.356903,296.560089,138.280807,296.445282,138.2061z
		 M303.117188,138.20311h0.441406c-0.118195,0.076691-0.235413,0.153793-0.341797,0.236404
		C303.1875,138.3535,303.149384,138.285614,303.117188,138.20311z M300.00238,139.739304
		c0.665619,0.602509,3.101105,2.92569,3.86972,5.1147l0.190399,0.538101l0.277283-0.500504
		c0.663116-1.221695,2.030304-1.946793,2.632904-2.224594c0.030212,0.268097,0.064392,0.681595,0.064392,1.182098
		c0,1.593307-0.359375,3.963898-2.141602,5.094299h-2.483398c-1.210876-1.245605-2.247986-2.068893-2.251892-2.076706
		l-0.159698-0.125992l-0.159698,0.125992c-0.004395,0.007813-1.040009,0.8311-2.251007,2.076706h-2.48819
		c-1.785187-1.126495-2.143585-3.500992-2.139709-5.094299c0-0.504898,0.033722-0.921402,0.063019-1.188904
		c0.604492,0.275803,1.969696,1.008698,2.634277,2.2314l0.273407,0.500504l0.193909-0.538101
		C296.895477,142.662109,299.347198,140.340805,300.00238,139.739304z M300.00238,155.825211
		c0.757416,0.559601,4.215424,3.277786,5.919525,7.366196l0.142578,0.3535l0.277313-0.268494
		c1.788086-1.7901,3.128906-2.524414,3.694305-2.792007c0.029297,0.319794,0.063477,0.8452,0.063477,1.491196
		c0.00592,2.067902-0.389587,5.319809-2.40329,6.914001h-5.310608c-1.23819-1.392502-2.199677-2.389603-2.203583-2.391602
		l-0.185516-0.189896l-0.180176,0.189896c-0.003906,0.001999-0.96582,0.9991-2.202606,2.391602h-5.312012
		c-2.018097-1.594193-2.408691-4.8461-2.404785-6.914001c0-0.654297,0.038086-1.180695,0.066895-1.498093
		c0.566406,0.263702,1.90329,1.007904,3.691406,2.798904l0.273376,0.272888l0.147003-0.357895
		C295.782684,159.09671,299.260284,156.383804,300.00238,155.825211z M302.833008,169.402802h0.849579v0.987305
		C303.392578,170.04541,303.113281,169.72171,302.833008,169.402802z M297.164581,169.402802
		c-0.2789,0.318909-0.558594,0.6436-0.849182,0.987305v-0.987305H297.164581z M306.313507,187.388199
		c-1.356506-2.617203-3.03421-4.68309-4.300812-6.050797h5.939392v4.585007
		C307.462891,186.322311,306.92868,186.784698,306.313507,187.388199z M292.046906,181.337402h5.940887
		c-1.266113,1.367706-2.945313,3.434601-4.302704,6.050797c-0.616302-0.6026-1.148987-1.064987-1.638184-1.46489V181.337402z
		 M293.571289,187.996613l0.248505,0.247498l0.160217-0.315903c2.141571-4.283203,5.27829-7.205109,6.020477-7.871597
		c0.751007,0.667496,3.877411,3.590393,6.015106,7.871597l0.156311,0.319794l0.255798-0.251389
		c1.629883-1.62941,2.802795-2.466812,3.560577-2.892105c0.417023-0.235809,0.693298-0.341797,0.856415-0.391602
		c0.089905,0.339294,0.242188,1.053696,0.242188,2.028793c-0.003876,1.906708-0.591797,4.765106-3.414001,7.639206h-15.346191
		c-2.830109-2.868195-3.414612-5.731003-3.418488-7.639206c0-0.984894,0.160583-1.703094,0.251495-2.038101
		C289.643585,184.844711,291.024902,185.449203,293.571289,187.996613z M327.802704,198.418503
		c0.018585,0.358398-0.55069,1.567307-1.498016,2.574203c-0.941406,1.027802-2.241211,1.9048-3.650391,1.900894
		c-0.998993,0-5.935516,0-12.203094,0c0.127899-0.821289,0.177704-1.567398,0.179688-2.157791
		c-0.003876-0.91301-0.091797-1.485306-0.095703-1.49411l-0.053802-0.332993l-0.30368,0.139206
		c-0.009705,0.009689-1.05661,0.467194-2.139618,1.247498v-4.75h19.762695
		C327.800781,197.064911,327.802704,198.162598,327.802704,198.418503z M299.620605,194.890106
		c-0.749023,0.895996-3.73291,4.459503-5.851593,7.196793c-0.339813-0.5215-0.805115-0.983398-1.294434-1.386688v-5.810104
		H299.620605z M306.225586,202.086899c-2.113281-2.737289-5.09668-6.300797-5.845703-7.196793h7.144501v5.807693
		C307.033203,201.102509,306.567383,201.564499,306.225586,202.086899z M289.9263,199.664993
		c0.794891,0.401413,2.873505,1.567413,3.586884,2.99321l0.184998,0.363297l0.248596-0.323288
		c2.094727-2.734314,5.24173-6.499512,6.053711-7.462402c0.807098,0.962891,3.953613,4.728088,6.053192,7.462402l0.244202,0.323288
		l0.185516-0.363297c0.713898-1.422791,2.790985-2.578598,3.588898-2.985291c0.023407,0.244095,0.045898,0.6064,0.045898,1.062897
		c0,1.806198-0.387695,5.013184-2.679688,7.749588h-14.881409c-2.28952-2.736404-2.680084-5.94339-2.680084-7.749588
		C289.877014,200.272507,289.901886,199.9077,289.9263,199.664993z M308.110382,208.991211V243.1689h-2.941498l-0.001892-31.614197
		h-10.336914V243.1689h-2.942871v-34.177689H308.110382z M353.469696,202.905304H331.40329v-4.431198h22.066406
		C353.469696,200.282211,353.469696,202.1064,353.469696,202.905304z M370.511688,199.9785
		c0.706116,0.091309,2.565399,0.568405,3.707092,2.926804h-3.205078
		C370.696289,201.587906,370.560486,200.477997,370.511688,199.9785z M373.279297,193.359909
		c-2.003906-2.4776-2.373993-5.128906-2.373993-6.73291c0-0.504395,0.036072-0.900391,0.068298-1.155792
		c0.758789,0.3965,2.7276,1.536102,3.587891,2.986786l0.272522,0.46051l0.189362-0.50351
		c0.970703-2.655182,4.684631-6.423294,5.538116-7.272385c0.861389,0.849091,4.561493,4.619095,5.532288,7.272385l0.18161,0.499619
		l0.280304-0.456619c0.856384-1.449692,2.829102-2.580582,3.585907-2.980881c0.032196,0.25679,0.065399,0.649399,0.065399,1.149887
		c-0.003906,1.604004-0.372986,4.25531-2.372986,6.73291c-0.297913,0.129791-1.75,0.80809-2.861328,2.27829
		c-1.042999-2.917999-4.256897-5.157196-4.269592-5.177292l-0.1474-0.102005l-0.143616,0.102005
		c-0.016602,0.020096-3.228485,2.257401-4.271484,5.174393C375.027283,194.1689,373.579102,193.491699,373.279297,193.359909z
		 M373.353485,193.959c0.581116,0.300812,1.815399,1.055206,2.663116,2.391602l0.319275,0.506302l0.143616-0.583496
		c0.629913-2.537109,3.416992-4.771896,4.082001-5.284103c0.673889,0.513107,3.444397,2.7509,4.076202,5.284103l0.137695,0.575699
		l0.321289-0.498505c0.845703-1.332489,2.080109-2.080093,2.663116-2.383301c0.003906,0.082504,0.003906,0.178696,0.003906,0.285599
		c0,1.324203-0.275421,4.3423-2.271515,6.542999c-2.211884-3.649399-4.752899-5.944794-4.762695-5.95459l-0.173798-0.156204
		l-0.170013,0.156204c-0.009674,0.009796-2.548798,2.306198-4.762695,5.958496
		c-2.005798-2.197693-2.280182-5.218292-2.275299-6.546906C373.347687,194.142105,373.349579,194.0439,373.353485,193.959z
		 M380.559601,195.383804c0.716797,0.684097,3.505798,3.513199,5.501892,7.5215H375.05368
		C377.055695,198.893997,379.848602,196.067902,380.559601,195.383804z M390.105499,202.905304h-3.209015
		c1.141602-2.361404,3.006805-2.828598,3.710907-2.922394C390.563477,200.485413,390.424805,201.591812,390.105499,202.905304z
		 M374.459991,203.417007l0.154297,0.372101l0.177704-0.372101h11.529297l0.173798,0.372101l0.158203-0.372101h3.326202
		c-0.439484,1.616196-1.169006,3.459991-2.371094,4.940399h-14.103516c-1.202179-1.477509-1.927795-3.324203-2.363281-4.940399
		H374.459991z M400.014587,235.211899h-2.682587v-16.8125h-4.011719v16.8125h-2.547791v-24.035095l6.741211-7.759796h7.631775
		l-5.13089,5.126892V235.211899z M384.607391,285.841797h-9.018494v-5.106384h9.018494V285.841797z M384.607391,280.223602
		h-9.018494v-5.3974h9.018494V280.223602z M384.607391,274.314514h-9.018494v-4.919006h9.018494V274.314514z M384.607391,268.883789
		h-9.018494v-3.170898h9.018494V268.883789z M384.607391,265.202118h-9.018494v-4.429626h9.018494V265.202118z
		 M384.607391,260.258789h-9.018494v-3.941376h9.018494V260.258789z M384.607391,255.80571h-9.018494v-3.462006h9.018494V255.80571z
		 M384.607391,251.832001h-9.018494v-5.398392h9.018494V251.832001z M384.607391,245.921906h-9.018494v-2.243195h9.018494
		V245.921906z M375.588898,243.1689v-30.849594h9.018494V243.1689H375.588898z M375.081085,211.808609V243.1689h-2.942383
		v-34.303696h15.343689V243.1689h-2.363312v-31.360291H375.081085z M371.627014,277.798798h-63.00592v-12.860291h63.00592
		V277.798798z M371.627014,264.426788h-63.00592v-9.27449h63.00592V264.426788z M371.627014,254.64061h-63.00592v-5.49411h63.00592
		V254.64061z M371.627014,248.635696h-63.00592v-4.956985h63.00592V248.635696z M325.049805,235.722702l5.740204,7.446198h-9.224609
		l-5.743103-7.446198H325.049805z M325.427704,211.195297l1.640686-1.638687h31.728516v4.257889h-33.369202V211.195297z
		 M365.363281,235.211899h-2.980499V218.90921h2.980499V235.211899z M368.282196,235.722702l-5.739197,7.446198h-9.104523
		l5.741211-7.446198H368.282196z M331.439484,243.1689l-5.744202-7.446198h32.835999l-5.744202,7.446198H331.439484z
		 M331.988281,235.211899h-2.978485v-16.300797h2.978485V235.211899z M339.560486,235.211899h-2.980408V218.90921h2.980408
		V235.211899z M347.13089,235.211899h-2.976593v-16.304688h2.976593V235.211899z M354.705078,235.211899h-2.979492V218.90921
		h2.979492V235.211899z M325.427704,214.325211h33.369202v20.886688h-3.572327l-0.005798-16.8125h-4.007904v16.8125h-3.560486
		l-0.003906-16.810501h-4.00589v16.810501h-3.566406v-16.8125h-4.007782v16.8125h-3.5625v-16.810501h-4.007813v16.810501h-3.064514
		L325.427704,214.325211z M363.189484,243.1689l5.740204-7.446198h2.697327v7.446198H363.189484z M387.99408,235.718704h2.395508
		l5.745209,7.450195h-8.140717V235.718704z M396.782196,243.1689l-5.748016-7.450195h9.232422l5.742188,7.450195H396.782196z
		 M396.81839,235.211899h-2.980499v-16.300797h2.980499V235.211899z M390.259796,210.991211v24.220688h-2.265717V208.70311
		c1.304718-1.605408,2.069397-3.587906,2.516602-5.286102h5.744202v0.675797L390.259796,210.991211z M372.863281,208.357407
		h-1.236267v26.854492h-2.565521v-24.222595l-4.199188-4.833099v-2.739197h5.742188
		C371.021484,204.997101,371.716797,206.817398,372.863281,208.357407z M364.34668,205.5625l-1.864288-2.145493h1.864288V205.5625z
		 M368.545898,211.174805l0.003906,24.037094h-2.670929l-0.003876-16.8125h-4.007813v16.8125h-2.555695l-0.005798-26.667999
		l-5.127991-5.126892h7.629883L368.545898,211.174805z M358.796906,208.759811v0.285095h-31.217804l2.0625-2.057602h27.382782
		L358.796906,208.759811z M324.917999,210.9814v24.230499h-5.887695l-0.003906-16.810501h-3.468811v-11.416h13.360413
		L324.917999,210.9814z M315.557587,218.911102h2.955109v16.300797h-2.955109V218.911102z M315.176788,235.722702l5.739197,7.446198
		h-6.287079l-5.742218-7.446198H315.176788z M308.621094,235.211899v-16.300797h2.955109l0.003876,16.300797H308.621094z
		 M308.621094,236.218704l5.360291,6.950195h-5.360291V236.218704z M304.65918,285.877899h-9.317902v-5.274384h9.317902V285.877899z
		 M295.341278,252.313507h9.317902v3.99411h-9.317902V252.313507z M304.65918,251.799805h-9.317902v-5.240204h9.317902V251.799805z
		 M304.65918,274.30661h-9.317902v-5.019501h9.317902V274.30661z M304.65918,280.091797h-9.317902v-5.274384h9.317902V280.091797z
		 M304.65918,268.774414h-9.317902v-3.035126h9.317902V268.774414z M304.65918,265.225616h-9.317902v-4.856506h9.317902V265.225616z
		 M304.65918,259.855499h-9.317902v-3.035187h9.317902V259.855499z M304.65918,246.045898h-9.317902v-2.367188h9.317902V246.045898z
		 M295.341278,243.1689v-31.107391h9.317902V243.1689H295.341278z M291.375488,254.645508h-63.006393V249.1465h63.006393V254.645508
		z M228.369095,264.936493h63.006393v12.862305h-63.006393V264.936493z M291.375488,264.426788h-63.006393v-9.272491h63.006393
		V264.426788z M291.375488,248.633804h-63.006393v-4.955093h63.006393V248.633804z M228.369095,235.722702h2.698807
		l5.739197,7.446198h-8.438004V235.722702z M234.632294,218.911102h2.983902v16.298904h-2.979004L234.632294,218.911102z
		 M240.819794,235.722702l5.744202,7.446198h-9.109894l-5.737808-7.446198H240.819794z M274.569305,211.199203v2.615295h-33.367218
		v-4.25589h31.727112L274.569305,211.199203z M284.173279,235.722702l-5.73819,7.446198h-9.226074l5.73877-7.446198H284.173279z
		 M247.210892,243.1689l-5.741699-7.446198h32.830093l-5.737793,7.446198H247.210892z M245.289993,218.911102h2.983902v16.298904
		H245.2939L245.289993,218.911102z M255.846191,235.210007h-2.982895v-16.298904h2.982895V235.210007z M260.435089,235.210007
		v-16.298904h2.979919l0.003876,16.298904H260.435089z M270.986786,235.210007h-2.978485v-16.298904h2.978485V235.210007z
		 M241.202087,214.327103h33.367218v20.882904h-3.06781v-16.808609h-4.007813v16.808609h-3.565491v-16.808609h-4.006287v16.808609
		h-3.565521v-16.808609h-4.003891v16.808609h-3.564896v-16.808609h-4.006805v16.808609h-3.578705V214.327103z M286.014191,243.1689
		l5.361298-6.950195v6.950195H286.014191z M291.108887,235.722702l-5.742188,7.446198h-6.28421l5.7388-7.446198H291.108887z
		 M281.484894,235.210007v-16.298904h2.955994l0.002014,16.298904H281.484894z M280.970703,218.401398v16.808609h-5.891113V210.9814
		l-3.999512-3.996002h13.358917l0.001892,11.416H280.970703z M270.35788,206.987305l2.057617,2.057602h-31.213409v-0.285095
		l1.772507-1.772507H270.35788z M240.688004,208.545898v26.664108h-2.557114v-16.808609h-4.007889v16.808609h-2.676208v-24.031296
		l6.743607-7.761703h7.629898L240.688004,208.545898z M235.651398,205.564499v-2.147491h1.8647L235.651398,205.564499z
		 M235.138687,206.154312l-4.201691,4.834991v24.220703h-2.567902v-26.8526h-1.235794
		c1.147491-1.540009,1.843796-3.360306,2.260696-4.940399h5.74469V206.154312z M212.007294,208.699203v26.512695h-2.270996
		v-24.222595l-5.993607-6.8965v-0.675797h5.745102C209.936493,205.115204,210.702591,207.092804,212.007294,208.699203z
		 M206.162094,235.211899h-2.982895v-16.300797h2.982895V235.211899z M208.959488,235.720703l-5.744186,7.448196h-9.226013
		l5.745605-7.450195L208.959488,235.720703z M209.607391,235.722702h2.399902v7.446198H203.8638L209.607391,235.722702z
		 M212.513687,208.865204h15.343704l0.001999,34.303696h-2.940002v-31.360291h-10.042389V243.1689h-2.363312V208.865204z
		 M215.389587,260.772491h9.017609v4.429626h-9.017609V260.772491z M224.407196,268.881805h-9.017609v-3.168915h9.017609V268.881805
		z M215.389587,269.397491h9.017609v4.918915h-9.017609V269.397491z M224.407196,260.258789h-9.017609v-3.941376h9.017609
		V260.258789z M215.389587,280.735413h9.017609v5.108276h-9.017609V280.735413z M224.407196,280.225616h-9.017609v-5.399414
		h9.017609V280.225616z M224.407196,255.801804h-9.017609v-3.458099h9.017609V255.801804z M224.407196,251.830109h-9.017609v-5.3965
		h9.017609V251.830109z M224.407196,245.919907h-9.017609v-2.241196h9.017609V245.919907z M215.389587,243.1689v-30.849594h9.017609
		V243.1689H215.389587z M215.389587,286.355499h9.017609v4.504913h-9.017609V286.355499z M224.919388,243.678711h2.940002
		l0.001907,47.181702h-2.94191V243.678711z M228.369095,278.310516h63.006393v12.549896h-63.006393V278.310516z
		 M291.887207,243.678711h2.942871v47.181702h-2.942871V243.678711z M295.341278,286.389618h9.317902v4.470795h-9.317902V286.389618
		z M305.168884,243.678711h2.941498v47.181702h-2.939484L305.168884,243.678711z M308.621094,278.310516h63.00592v12.549896
		h-63.00592V278.310516z M372.138702,243.678711h2.942383v47.181702h-2.942383V243.678711z M375.588898,286.353516h9.018494
		v4.506897h-9.018494V286.353516z M385.11908,243.678711h2.363312v47.181702h-2.363312V243.678711z M425.30658,264.424805h-37.3125
		v-9.2686l37.3125-0.003906V264.424805z M418.234375,254.638702H387.99408V249.1465l30.240295-0.003891V254.638702z
		 M412.290009,248.635696H387.99408v-4.956985h24.292023L412.290009,248.635696z M410.742188,243.1689h-4.085907l-5.746094-7.450195
		H405L410.742188,243.1689z M404.27829,212.196304v23.015594h-3.751892v-26.452087l5.328094-5.327209v-0.015594h2v3.919891
		L404.27829,212.196304z M407.854492,202.905304h-2.002014c-0.001892-1.775406-0.001892-8.595703-0.001892-9.038101
		c-0.087891-0.8423-1.098572-1.082993-2.554688-1.108902c-0.787109,0.0103-1.546906-0.009796-2.082001,0.177704l6.640594-5.353012
		V202.905304z M399.587891,194.248505l1.014587-0.817795c-0.061493,0.123001-0.108398,0.262695-0.121979,0.436493
		c0,0.780304,0,4.710907,0,5.363297l-0.892609,1.027802V194.248505z M400.992188,199.416504v-0.093292c0,0,0-4.604904,0-5.456009
		c0.013702-0.287598,0.116211-0.376495,0.537109-0.499496c0.408203-0.092804,1.037079-0.09671,1.766602-0.09671
		c0.701202,0,1.256805,0.084503,1.604492,0.219711c0.359406,0.139694,0.447296,0.287598,0.44339,0.376495
		c-0.003998,0.445297,0,7.266602-0.003998,9.038101h-7.380768L400.992188,199.416504z M396.84079,203.417007l-0.070313,0.081985
		v-0.081985H396.84079z M389.738281,180.905807h1.893494h0.13382l4.485413-6.784698l0.003876,28.784195h-5.612305
		c0.427704-1.810593,0.492218-3.182205,0.496124-3.192398l0.009674-0.270508h-0.26358
		c-0.036194-0.003891-2.848694,0.022003-4.40921,3.11911c-0.2276-0.451096-0.47171-0.875-0.71579-1.2939
		c2.24408-2.373611,2.511688-5.609406,2.517487-7.014709c-0.003906-0.3237-0.01358-0.507797-0.019501-0.6064
		c2.069305-2.584503,2.460999-5.346695,2.460999-7.019501c-0.003998-0.968292-0.125977-1.577698-0.129883-1.590393
		l-0.067413-0.320801l-0.288086,0.138702c-0.007813,0.007294-0.557617,0.263702-1.268616,0.705597
		C389.461884,184.066406,389.662079,182.281204,389.738281,180.905807z M391.076202,170.939499
		c0.003876,3.384201-2.125,6.916504-3.082123,8.541c-0.767487,0.553207-1.680603,1.305603-2.284088,2.118607
		c-0.124115-0.273895-0.294006-0.566406-0.475586-0.864197c2.454071-1.916107,2.679688-5.522003,2.687469-6.902405
		c0-0.0849-0.001984-0.133301-0.001984-0.201202c0.265594-0.3237,1.868195-2.17569,3.156311-2.791
		C391.076202,170.873505,391.076202,170.906204,391.076202,170.939499z M376.165985,180.3022
		c-2.195282-1.705994-2.473602-5.141098-2.468689-6.469696c0-0.087906,0-0.166,0.001892-0.232895
		c0.611298,0.163589,2.013702,0.624496,2.342804,1.407196l0.272491,0.605499l0.201111-0.634308
		c0.425781-1.395493,3.316406-4.126389,4.044006-4.801697c0.737305,0.675308,3.61618,3.407211,4.039978,4.801697l0.195313,0.634308
		l0.27829-0.605499c0.327209-0.777802,1.72171-1.230392,2.335022-1.399399c0.001984,0.065903,0.001984,0.141098,0.001984,0.225098
		c0.005798,1.328598-0.271484,4.765594-2.460999,6.471207c-1.539001-2.283707-4.205994-4.8452-4.21579-4.862305l-0.177704-0.168503
		l-0.173889,0.168503C380.373993,175.458511,377.705078,178.020004,376.165985,180.3022z M376.783203,159.260712
		c0-0.22261,0.008789-0.411606,0.016602-0.554611c0.40329,0.149902,1.092773,0.466812,1.188477,0.884201l0.223602,0.727112
		l0.261719-0.718307c0.156281-0.486298,1.570282-2.131302,2.087891-2.723099c0.519592,0.591797,1.921906,2.237793,2.080109,2.723099
		l0.25,0.726593l0.233398-0.735397c0.097687-0.41449,0.785187-0.725098,1.186493-0.876892
		c0.007813,0.142593,0.011688,0.328598,0.011688,0.547302c0,0.80809-0.095703,2.057693-0.527283,3.173401
		c-0.301819,0.1763-0.61911,0.38179-0.873016,0.628387c-0.619202-1.372589-2.183594-2.777802-2.191498-2.79689l-0.177704-0.160614
		l-0.167999,0.160614c-0.007782,0.019089-1.572205,1.424301-2.193298,2.79689
		c-0.253906-0.246597-0.571289-0.452087-0.873077-0.628387C376.881805,161.318405,376.783203,160.068802,376.783203,159.260712z
		 M378.051788,163.688995l0.299805,0.54541l0.169891-0.600098c0.271515-1.006409,1.568298-2.357895,2.040009-2.825195
		c0.473694,0.4673,1.762695,1.819794,2.030304,2.825195l0.15921,0.596191l0.309479-0.541504
		c0.194397-0.382385,1.031311-0.849182,1.506897-1.090897c0.007813,0.183609,0.015625,0.426804,0.015625,0.71051
		c0.008789,1.218704-0.173828,3.158691-0.902313,4.150391c-0.987305-1.45459-2.9375-3.248596-2.947296-3.2715l-0.177704-0.164993
		l-0.171906,0.164993c-0.009796,0.022903-1.961884,1.815903-2.951202,3.269501
		c-0.728485-0.992188-0.915009-2.931091-0.907196-4.148392c0-0.289108,0.010712-0.534698,0.020508-0.718307
		C377.019501,162.8311,377.860382,163.304199,378.051788,163.688995z M377.300781,169.006302l0.114227-0.430603
		c0.22757-0.951706,2.499084-3.214386,3.146484-3.848587c0.657288,0.634201,2.911194,2.896881,3.140594,3.848587l0.110413,0.422806
		l0.315399-0.308594c0.546906-0.55661,1.492188-1.020004,1.996094-1.245102c-0.001892,1.080093-0.280212,4.155792-2.295898,5.377502
		c-1.30661-1.5952-3.092712-3.166504-3.100616-3.184601l-0.173798-0.151901l-0.164093,0.151901
		c-0.009705,0.018097-1.795807,1.590286-3.102509,3.185501c-2.026398-1.219711-2.297791-4.306107-2.30368-5.386215
		c0.503906,0.222702,1.454102,0.692413,2.003906,1.252914L377.300781,169.006302z M390.287079,166.223099
		c0.007813,2.388702-1.436493,5.528412-1.543884,5.769104c-0.391602,0.383804-0.717804,0.741196-0.945313,1l-0.191498,0.037109
		c-0.016602,0.021988-1.828094,0.308594-2.71579,1.340286c-0.18158-0.358398-0.455109-0.748993-0.756805-1.144485
		c1.996094-1.2798,2.401398-3.898911,2.479492-5.278809c0.335907-0.313492,2.451202-2.204605,3.587921-2.649902
		C390.259796,165.580109,390.287079,165.892609,390.287079,166.223099z M389.168884,160.601105
		c0,2.783203-0.933502,5.129898-1.042877,5.4077c-0.589905,0.450195-1.132813,0.915009-1.493225,1.233398
		c0-0.111801-0.001892-0.190002-0.001892-0.192902l-0.017609-0.355499l-0.330078,0.126999
		c-0.009827,0.007813-1.3125,0.495605-2.237305,1.253403c-0.026398-0.051697-0.06842-0.110794-0.097717-0.164505
		c0.991302-1.180695,1.132904-3.2827,1.142609-4.601089c0-0.085907-0.001892-0.157196-0.003906-0.235809
		c0.334015-0.346695,2.699219-2.712387,4.049805-3.361389C389.158203,160.009811,389.168884,160.30661,389.168884,160.601105z
		 M386.752899,159.849106c0,0.507294-0.069305,0.898895-0.099609,1.042999c-0.649414,0.567398-1.222595,1.118607-1.59079,1.484406
		c-0.00592-0.1138-0.011719-0.194901-0.011719-0.196808l-0.02829-0.358902l-0.325195,0.144012
		c-0.003906,0.00589-0.110413,0.053787-0.25592,0.123093c0.311523-1.0513,0.393616-2.104996,0.393616-2.827194
		c0-0.042007-0.001984-0.074203-0.001984-0.112808c0.261688-0.161102,1.054688-0.634201,1.626007-0.852997
		C386.683594,158.800308,386.752899,159.369614,386.752899,159.849106z M385.696289,158.0811
		c-0.330109,0.165512-0.647491,0.343201-0.88089,0.482407c-0.010712-0.139206-0.018494-0.224594-0.018494-0.229004
		l-0.03421-0.291504l-0.281311,0.071701c-0.011688,0.022003-1.037079,0.214905-1.587799,0.882401
		c-0.627991-1.00589-2.137695-2.656296-2.144592-2.678299l-0.117188-0.130798h5.064484V158.0811z M379.308594,147.208511
		c0.565399-0.579605,0.837891-1.581512,0.841797-2.566406c0.037109-0.913101,0.21579-0.920898,0.40921-0.941895
		c0.189392,0.020996,0.367188,0.028793,0.405182,0.941895c0.003998,0.984894,0.276398,1.986801,0.841797,2.566406
		c0.289124,0.241699,0.63092,1.909698,0.762726,2.587402h-4.029297
		C378.665985,149.11821,379.019501,147.451202,379.308594,147.208511z M378.192383,150.307114h4.732422v1.580093h-4.732422
		V150.307114z M377.680695,152.395004h5.751892l0.003906,1.196808h-5.755798V152.395004z M376.699188,154.104004h7.713898
		l0.004913,1.576706h-7.718811V154.104004z M375.420898,156.188004h5.064484l-0.117188,0.130798
		c-0.010803,0.022003-1.516602,1.669998-2.146515,2.6763c-0.550781-0.665497-1.576202-0.858398-1.589874-0.880402
		l-0.284119-0.066788l-0.029297,0.286591c0,0.001907-0.010803,0.087906-0.018585,0.227005
		c-0.235321-0.138199-0.548798-0.315903-0.878906-0.479507V156.188004z M374.354492,159.852112
		c0-0.483398,0.069305-1.049911,0.301788-1.557205c0.567322,0.217804,1.354401,0.688995,1.622009,0.852097
		c0,0.039505-0.001892,0.071701-0.001892,0.113708c0,0.725098,0.082001,1.777893,0.393494,2.826187
		c-0.144501-0.06929-0.247986-0.116196-0.253906-0.122086l-0.326202-0.135712l-0.029297,0.34671
		c0,0.000992-0.005798,0.082489-0.014587,0.196793c-0.365204-0.365799-0.936493-0.9151-1.585907-1.479492
		C374.427704,160.748001,374.354492,160.358398,374.354492,159.852112z M371.938477,160.602112
		c0-0.295502,0.011719-0.594299,0.038116-0.895111c1.338806,0.645508,3.677704,2.998108,4.045898,3.364807
		c-0.002014,0.078598-0.003906,0.149902-0.003906,0.236801c0.007813,1.317398,0.151306,3.416992,1.146423,4.599091
		c-0.030212,0.052704-0.072205,0.111801-0.097626,0.163605c-0.924805-0.756393-2.223602-1.242691-2.235382-1.250504
		l-0.316406-0.122101l-0.029297,0.337906c0,0.003006-0.003906,0.085999-0.005798,0.203598
		c-0.360413-0.319794-0.905304-0.786102-1.495117-1.236801C372.859406,165.6978,371.938477,163.362305,371.938477,160.602112z
		 M370.822296,166.224106c0-0.330505,0.029297-0.643997,0.091797-0.929703c1.130798,0.447296,3.236298,2.33551,3.583893,2.651901
		c0.076202,1.382797,0.485413,4,2.483398,5.278809c-0.301697,0.395493-0.573181,0.786087-0.756805,1.144485
		c-0.885681-1.031693-2.699188-1.318298-2.717773-1.340286l-0.191406-0.035202
		c-0.225616-0.258698-0.549805-0.615204-0.939392-0.998001C372.270477,171.777313,370.813477,168.615707,370.822296,166.224106z
		 M370.035187,170.941406c0-0.033203,0-0.065903,0.001892-0.099106c1.286102,0.615692,2.884827,2.473602,3.156311,2.792007
		c-0.002014,0.068298-0.003906,0.114197-0.003906,0.198196c0.003906,1.380402,0.233398,4.986298,2.693298,6.898499
		c-0.184601,0.298798-0.351501,0.592209-0.477478,0.868103c-0.601624-0.811005-1.512726-1.5625-2.27829-2.1147
		C372.160187,177.86911,370.030304,174.326706,370.035187,170.941406z M375.24118,182.274399l0.288116,0.507309l0.177704-0.557098
		c0.583008-1.911102,4.037079-5.423309,4.8526-6.241699c0.825195,0.81839,4.265594,4.332489,4.84668,6.241699l0.171814,0.553192
		l0.294006-0.503403c0.704987-1.243591,2.597595-2.525406,3.406189-3.038589c0.003906,1.218292-0.103485,4.675797-1.037109,6.806702
		c-0.651398,0.468201-1.337891,1.056595-1.851593,1.747101c-1.432587-3.163605-5.646393-7.1763-5.654205-7.192413
		l-0.181702-0.169998l-0.173798,0.169998c-0.007782,0.016113-4.223602,4.028809-5.652405,7.191406
		c-0.51358-0.688492-1.198181-1.276901-1.849579-1.744202c-0.943298-2.130798-1.048798-5.602005-1.044891-6.815903
		C372.643585,179.738312,374.538086,181.027802,375.24118,182.274399z M369.343781,180.905807h2.029205
		c0.078217,1.375397,0.276398,3.159592,0.777405,4.654297c-0.710907-0.441895-1.258789-0.698303-1.266602-0.705597
		l-0.291992-0.130905l-0.067413,0.309097c0,0.012711-0.131805,0.621109-0.131805,1.594299
		c0,1.671814,0.387726,4.433105,2.464813,7.016602c-0.007813,0.099609-0.021515,0.285599-0.021515,0.609299
		c0.003906,1.405304,0.269623,4.641098,2.521515,7.014709c-0.24411,0.420898-0.488312,0.844696-0.717804,1.298798
		c-1.558502-3.102005-4.371002-3.127899-4.407196-3.124008h-0.269501l0.015594,0.270508
		c0.002014,0.010193,0.066406,1.381805,0.496094,3.192398h-5.612274v-28.782303L369.343781,180.905807z M364.34668,195.315399
		v7.589905h-2.309601l-3.194275-3.675797c0-0.459503,0-2.457504,0-3.914108H364.34668z M354.424805,193.4888
		c0.345673-0.13089,0.899384-0.218796,1.604492-0.218796c0.723602,0,1.356384,0.003906,1.766602,0.100601
		c0.416992,0.118195,0.523407,0.207001,0.535187,0.498505c0,0.849197,0,5.452194,0,5.4561v0.093292l3.030212,3.486801h-7.379913
		c0-1.7686,0-8.594803,0-9.036194C353.973602,193.776398,354.065399,193.628403,354.424805,193.4888z M353.469696,195.317902
		c0,0.734802,0,1.663101,0,2.641098H331.40329v-2.641098H353.469696z M331.40329,205.225601v-1.808594h22.066406v0.015594
		l3.040985,3.041h-26.360291L331.40329,205.225601z M330.75,180.023911c0.064484,0.212402,0.145477,0.707092,0.139587,1.556198
		v23.433594l-1.461884,1.458008h-14.382813v28.740189h-2.949188l-0.003906-16.810501h-3.470703v-9.916h-0.539093
		c1.306702-1.691498,1.975586-3.50589,2.285187-5.080093c6.309601-0.003906,11.28421-0.003906,12.287109-0.003906
		c3.252899-0.0625,5.604492-3.752487,5.658203-4.982895c0-1.001999,0-14.882401,0-16.468796
		C328.711884,181.6362,330.254883,180.433105,330.75,180.023911z M324.539093,187.836411c0-1.694305,0-3.100601,0-3.644012
		c-0.110413-0.206985,2.704987-2.877899,3.02829-3.142593c0.059631-0.063995,0.076202-0.055206,0.080109-0.063995
		c0,0,0.007813-0.003906,0.051697,0.106003c0.053711,0.125488,0.103516,0.37059,0.103516,0.737289
		c-0.001923,0.761703-0.003906,8.560501-0.001923,13.207001h-19.762695v-0.308105
		c1.044922-1.060486,1.797821-2.126389,2.333008-3.151291c6.25,0,11.014587,0,11.358398,0
		C323,191.517609,324.501007,189.672409,324.539093,187.836411z M316.710907,175.719208l0.076172-0.067795
		c0.011719-0.007813,2.205109-2.027908,4.476624-5.542007c0.068298,0.3862,0.100586,0.7798,0.100586,1.179703
		c0.025299,5.554199-6.379883,12.039993-6.372101,12.0522l-0.071289,0.071793v7.65181
		c-1.3125-0.000916-2.761719-0.000916-4.307617-0.001907c0.752899-1.640091,0.985321-3.152405,0.983398-4.321304
		c0-1.464401-0.328094-2.402298-0.335999-2.419388l-0.068298-0.186111l-0.19339,0.013199
		c-0.066406,0.008804-0.878906,0.108902-2.537109,1.364807V181.1577c1.387695-1.950195,2.137695-3.830994,2.539124-5.438492
		H316.710907z M315.080078,164.561996l0.072205-0.063004c0.007904-0.011688,2.643616-2.323181,3.872101-4.852493
		c0.116211,0.404312,0.169922,0.833008,0.169922,1.282211c0.025391,4.551285-5.746124,10.804688-5.742218,10.812988
		l-0.067291,0.071808v3.3965h-2.26181c0.243195-1.144104,0.317413-2.126007,0.317413-2.841293
		c0-0.81601-0.080017-1.292511-0.080017-1.304214l-0.047882-0.256897l-0.25592,0.049805
		c-0.032196,0.003906-2.554565,0.501495-4.546783,3.205597c-0.657318-0.983902-1.480499-2.042007-2.313507-3.053696v-1.606506
		h3.669891l0.06842-0.053696c1.507782-1.167007,2.176697-3.033707,2.466797-4.787109H315.080078z M312.682587,154.6875
		c0.123993-0.038101,2.523499-1.216797,3.956116-3.944794c0.003876,0.105896,0.005798,0.210907,0.005798,0.315399
		c0.018585,5.224594-4.908203,9.982895-4.908203,9.999496l-0.076111,0.071304v2.923798h-1.186584
		c0.095703-0.751404,0.133789-1.468704,0.135803-2.077103c0-1.119598-0.103516-1.889694-0.103516-1.897995l-0.041992-0.307602
		l-0.291992,0.097198c-0.036224,0.011703-1.612305,0.548309-3.92392,2.784698
		c-0.481384-1.066498-1.073181-2.02449-1.692291-2.882904h1.776306c2.111389-1.186493,3.048889-3.274384,3.478485-5.081497
		H312.682587z M312.18158,144.871109l0.076202-0.075195c0.007813-0.015106,1.797913-1.890106,2.766602-3.611313
		c0.002014,0.050308,0.002014,0.100113,0.002014,0.150803c0.026306,3.283707-4.217804,9.164597-4.212891,9.172409
		l-0.050812,0.066895v3.613297l-0.834991-0.00679c0.206085-1.075211,0.244202-2.002014,0.246094-2.487411
		c0-0.235809-0.007813-0.37059-0.007813-0.375l-0.016602-0.298294l-0.287079,0.058594
		c-0.020508,0.012207-2.754913,0.51561-4.233398,2.296906c-0.63382-1.426804-1.709015-2.796402-2.741211-3.919006h2.081085h0.072205
		l0.060608-0.038101c1.708008-1.056595,2.243103-2.971588,2.388611-4.547791H312.18158z M310.733398,138.205109
		c1.360382-0.694397,2.462891-2.455597,3.03418-3.512695c0,1.412582-0.384796,4.270493-3.0625,7.128891l-0.067383,0.070801v2.4702
		h-3.109406c0.007813-0.176804,0.016602-0.352493,0.016602-0.513199c0-0.930206-0.108398-1.586395-0.108398-1.595703
		l-0.051697-0.306595l-0.2901,0.108902c-0.019501,0.012192-1.843689,0.652283-2.928711,2.154694
		c-0.099579-0.222595-0.225586-0.440399-0.347595-0.659103c1.676697-1.523499,2.317291-4.009796,2.549805-5.346191H310.733398z
		 M310.167999,130.786606c0.942383-0.394501,1.983398-1.982895,2.541016-2.921898
		c-0.011719,1.222694-0.437531,3.773003-3.404327,6.7481l-0.076202,0.075699v3.023895l-2.781189-0.018997
		c0.032196-0.231995,0.05069-0.401398,0.052704-0.405304l0.029297-0.378891l-0.357391,0.112793
		c-0.009827,0.008301-0.827209,0.255798-1.698303,0.672302h-1.456024c1.381805-0.996994,1.530304-3.207504,1.543915-4.902802
		v-0.249496c0.236389-0.665497,0.377991-1.284698,0.461914-1.755402
		C307.780304,130.786606,309.889587,130.786606,310.167999,130.786606z M307.42868,130.278305
		c-0.6875-0.000992-1.474579-0.000992-2.330078-0.000992c0.026398-0.2099,0.036194-0.343704,0.036194-0.348602l0.016602-0.235809
		l-0.232513-0.033188c-0.007782,0-0.195282-0.025909-0.479401-0.025909c-0.521484,0-1.414093,0.0952-2.19339,0.645508
		c-0.02829-0.001007-0.055695-0.001007-0.084015-0.001007c-0.253876-0.834-0.599579-1.453598-0.934601-1.899902
		c2.69632,0,5.112305,0,5.349609,0C306.865204,128.382309,307.375,128.768112,307.42868,130.278305z M300.00238,112.458
		c0.431702,0.016106,1.070801,0.147003,1.200714,2.804207c-0.355408-0.148903-0.745087-0.255898-1.202606-0.257797
		c-0.449707,0.004898-0.844208,0.127899-1.208984,0.303696C298.915497,112.60891,299.562988,112.474106,300.00238,112.458z
		 M300.000488,115.512711c2.001526,0.009293,2.858917,1.911095,2.937012,3.956993c-1.53421,0-4.337402,0-5.873016,0
		C297.157196,117.444809,298.277283,115.522003,300.000488,115.512711z M295.918884,121.114708
		c0.025909-0.336403,0.0625-0.6689,0.1138-0.904709c0.020996-0.09819,0.044922-0.178795,0.065002-0.227089
		c0.878906,0,6.929596,0,7.804596,0c0.158203,0.342796,0.202209,1.674294,0.217804,2.230995c-1.810486,0-6.441406,0-8.24408,0
		C295.879883,121.957001,295.889587,121.54541,295.918884,121.114708z M295.166504,122.950211
		c0.020996-0.095207,0.044891-0.174805,0.06488-0.223106c0.957123,0,8.563507,0,9.536194,0
		c0.155304,0.342705,0.201202,1.675201,0.21582,2.231895c-1.839813-0.002892-8.138702-0.002892-9.97171,0
		c0.003906-0.256889,0.016113-0.669395,0.045898-1.101089C295.082489,123.522507,295.116699,123.185509,295.166504,122.950211z
		 M294.332489,126.42041c0.045898-0.307602,0.105011-0.589302,0.167511-0.778305
		c0.025391-0.079102,0.053192-0.138695,0.074188-0.172897c0.921906,0,9.939514,0,10.8526,0
		c0.185516,0.273003,0.351501,1.658195,0.377899,2.398499c-1.039093-0.000999-2.9776,0.000999-5.029297-0.002998
		c-0.361298-0.352501-0.643097-0.505302-0.663086-0.514603l-0.1138-0.054695l-0.113708,0.054695
		c-0.016113,0.0093-0.301788,0.164101-0.666504,0.5205c-2.049805-0.002899-3.983887-0.003899-5.021515-0.003899
		C294.210388,127.474106,294.254395,126.917,294.332489,126.42041z M293.423279,128.37941c0.236908,0,2.651428,0,5.346222,0
		c-0.335419,0.446304-0.680115,1.065903-0.933594,1.898895c-0.027313,0-0.05423,0-0.081024,0
		c-0.779297-0.549301-1.675293-0.644501-2.202698-0.644501c-0.282684,0-0.463806,0.025909-0.475494,0.025909l-0.231995,0.038086
		l0.01709,0.230911c0,0.004898,0.010315,0.138702,0.036102,0.349594c-0.854004-0.001892-1.640594-0.001892-2.330505-0.002899
		C292.622986,128.768112,293.134796,128.383301,293.423279,128.37941z M290.694305,134.6138
		c-2.961914-2.966797-3.395508-5.518097-3.405212-6.743195c0.554199,0.940399,1.571289,2.5186,2.450195,2.899902
		c0.364716,0.017105,2.473602,0.017105,5.236298,0.017105c0.083008,0.469696,0.22702,1.087891,0.462921,1.750488v0.253403
		c0.011688,1.694305,0.161591,3.902802,1.542877,4.900909h-1.460388c-0.86911-0.415512-1.682098-0.662109-1.692902-0.67041
		l-0.378906-0.116699l0.046906,0.39061c0.002411,0.003891,0.027313,0.170898,0.065918,0.398392h-2.792999v-3.009705
		L290.694305,134.6138z M289.292999,141.823212c-2.680206-2.856903-3.062988-5.71431-3.065002-7.125412
		c0.565491,1.054611,1.643097,2.805603,2.921906,3.476013l4.512177,0.027893c0.273926,1.297806,0.974121,3.695297,2.581116,5.225494
		c-0.148499,0.258804-0.293488,0.5186-0.411194,0.783203c-1.085907-1.502411-2.913116-2.142502-2.929199-2.154694l-0.28952-0.104507
		l-0.050781,0.3022c0,0.009308-0.114319,0.661591-0.114319,1.595703c0,0.160706,0.008301,0.336395,0.016205,0.513199H289.3638
		v-2.363312v-0.104996L289.292999,141.823212z M289.185089,150.508804c-0.016205,0-4.241699-5.889694-4.216797-9.173401
		c0-0.051697,0.001892-0.1035,0.003906-0.154694c0.965302,1.7202,2.759186,3.600098,2.76709,3.615204l0.075195,0.076187h4.687897
		c0.147003,1.576111,0.684113,3.490204,2.395508,4.546799l0.058594,0.038101h2.156799
		c-1.033691,1.122604-2.109375,2.492203-2.744202,3.919006c-1.477997-1.781296-4.214294-2.284698-4.234283-2.296906
		l-0.285706-0.054703l-0.01709,0.290512c0,0.003891-0.00882,0.139191-0.00882,0.378891
		c0.002014,0.485397,0.037201,1.411194,0.237823,2.483398h-0.825226v-3.601501L289.185089,150.508804z M288.261688,161.057602
		c-0.016083-0.003891-4.929688-4.774902-4.912598-9.999496c0-0.107895,0.002014-0.215302,0.00592-0.324203
		c1.43158,2.734802,3.825195,3.911606,3.848083,3.926697l2.972687,0.024002c0.416504,1.804199,1.3237,3.883804,3.363312,5.051712
		l1.908203,0.025894c-0.620605,0.859894-1.213898,1.818893-1.695282,2.887695c-2.311615-2.235291-3.889709-2.770996-3.926819-2.7827
		l-0.289612-0.097198l-0.042877,0.307602c0,0.008301-0.105011,0.778397-0.105011,1.897995
		c0.001007,0.609406,0.038086,1.327606,0.133789,2.080109h-1.183594v-2.925797L288.261688,161.057602z M286.546387,171.742706
		c-0.020508-0.012207-5.774902-6.258804-5.745605-10.815002c0-0.448196,0.053711-0.877899,0.172821-1.282196
		c1.229492,2.529297,3.862793,4.839905,3.870605,4.855499l0.072296,0.062988h4.677704
		c0.289093,1.753418,0.957977,3.61911,2.469788,4.78511l0.06781,0.053696h3.673889v1.6026
		c-0.834015,1.012711-1.65921,2.071701-2.317413,3.057602c-1.987793-2.704102-4.515198-3.201691-4.547394-3.205597
		l-0.25238-0.049805l-0.045929,0.252502c-0.004395,0.016098-0.088898,0.492599-0.088898,1.308609
		c0,0.715286,0.0737,1.698196,0.317413,2.842194H286.6138v-3.396408L286.546387,171.742706z M285.004395,183.339401
		c-0.01709-0.009293-6.397491-6.494202-6.372589-12.050293c0-0.398499,0.032288-0.79451,0.101074-1.18071
		c2.271515,3.515106,4.468323,5.536102,4.480011,5.543915l0.072296,0.066895h5.708008
		c0.402313,1.607498,1.151794,3.489304,2.544403,5.440491v4.355408c-1.661591-1.256805-2.473602-1.356903-2.536591-1.365707
		l-0.197815-0.01709l-0.062988,0.185089c-0.00882,0.022003-0.341797,0.956009-0.341797,2.424301
		c-0.001923,1.1689,0.22998,2.682114,0.984375,4.324203c-1.54538,0-2.993195,0-4.30368,0v-7.650909L285.004395,183.339401z
		 M272.29538,181.088913c0.0513-0.101105,0.055206-0.0923,0.055206-0.101105c0,0,0.01712-0.003906,0.080109,0.059097
		c0.323212,0.265594,3.137695,2.939896,3.028809,3.1465c-0.005402,0.542404-0.005402,1.946701,0,3.641998
		c0.037598,1.838409,1.53418,3.684097,2.812988,3.739304c0.338287,0,5.098602,0,11.351013,0.003891
		c0.536194,1.027802,1.290588,2.095703,2.338379,3.158707v0.297897h-19.76709c0-4.6465,0-12.445404,0-13.2061
		C272.194794,181.463409,272.241699,181.215302,272.29538,181.088913z M269.10788,181.580109
		c0-0.738297,0.050812-1.196808,0.109924-1.449203c0.009277-0.041992,0.018982-0.078201,0.029297-0.108002
		c0.493103,0.409195,2.038483,1.614304,2.438904,1.926804c0,1.588394,0,15.467804,0,16.467804
		c0.050293,1.232391,2.405792,4.921387,5.657288,4.983887c1.005798,0,5.976501,0,12.284088,0.003906
		c0.308624,1.574203,0.980011,3.390594,2.291504,5.080093h-0.543396v9.916h-3.468292v16.808609h-2.954102V206.47171h-14.386688
		l-1.458527-1.458008V181.580109z M269.845184,206.473602h-26.357391l3.041-3.041v-0.015594h22.069809v1.808594
		L269.845184,206.473602z M246.528793,198.471207h22.069809v4.434097h-22.069809
		C246.528793,202.104507,246.528793,200.279312,246.528793,198.471207z M268.598602,195.318802v2.643097h-22.069809
		c0-0.977997,0-1.908188,0-2.643097H268.598602z M241.666,199.418503v-0.093292c0-0.003906,0-4.606003,0-5.457001
		c0.012695-0.290604,0.117691-0.37941,0.539597-0.497604c0.408203-0.096695,1.040497-0.100601,1.760696-0.100601
		c0.708496,0,1.260803,0.087906,1.606506,0.218796c0.361801,0.138611,0.450592,0.286606,0.442291,0.37941
		c0,0.443298,0,7.266602,0,9.037094H238.6362L241.666,199.418503z M241.156296,195.318802c0,1.4561,0,3.452194,0,3.910706
		l-3.193405,3.675797h-2.311493v-7.586502H241.156296z M228.619598,180.905807h1.895996h0.138702l4.48439-6.781815v28.781311
		h-5.6138c0.428207-1.8116,0.492203-3.182205,0.496109-3.195297l0.013199-0.265701h-0.2686
		c-0.036102-0.007797-2.850098,0.019104-4.409592,3.117203c-0.227615-0.449203-0.470306-0.871109-0.712906-1.290009
		c2.248505-2.373596,2.5112-5.612289,2.515091-7.019501c0-0.318893-0.011185-0.499588-0.018097-0.601593
		c2.075699-2.587402,2.46051-5.3535,2.46051-7.024399c0-0.971207-0.126007-1.576706-0.126007-1.589401l-0.067902-0.314896
		l-0.293396,0.133789c-0.006409,0.006302-0.554703,0.261703-1.264709,0.703613
		C228.344696,184.065399,228.542496,182.280304,228.619598,180.905807z M229.961395,170.939499
		c0.004898,3.384201-2.124008,6.914505-3.080093,8.53801c-0.769012,0.553299-1.686005,1.306702-2.288513,2.12059
		c-0.125-0.275787-0.294495-0.56929-0.4785-0.868103c2.456512-1.913086,2.685013-5.514191,2.693298-6.897491
		c0-0.085892-0.002899-0.133301-0.003891-0.201202c0.266602-0.321198,1.866699-2.176697,3.1577-2.791901
		C229.961395,170.873505,229.961395,170.906204,229.961395,170.939499z M215.04689,180.303711
		c-2.195801-1.708511-2.4702-5.138718-2.465393-6.471207c0-0.086899,0.000992-0.164001,0.001999-0.230896
		c0.612305,0.163498,2.013702,0.625504,2.341797,1.406693l0.276398,0.604004l0.197708-0.634308
		c0.42189-1.394485,3.310608-4.121597,4.043991-4.799789c0.743103,0.678192,3.617111,3.405304,4.037613,4.799789l0.197693,0.630402
		l0.276901-0.600098c0.325699-0.778305,1.723099-1.233902,2.337402-1.400894c0.0009,0.065002,0.001892,0.141098,0.001892,0.225098
		c0.009308,1.332489-0.269501,4.765594-2.461395,6.473206c-1.536102-2.2798-4.209503-4.844299-4.216309-4.864304l-0.175797-0.171402
		l-0.176804,0.171402C219.254395,175.461411,216.585388,178.023911,215.04689,180.303711z M215.669388,159.258804
		c0-0.221695,0.006912-0.408691,0.015701-0.551804c0.402802,0.149902,1.090805,0.466812,1.188904,0.883301l0.225601,0.730011
		l0.256805-0.722214c0.156799-0.485291,1.571289-2.130295,2.08699-2.722092c0.521408,0.592697,1.921799,2.237793,2.078613,2.722092
		l0.251892,0.722214l0.235901-0.730011c0.096603-0.41449,0.784103-0.725998,1.185501-0.876892
		c0.007797,0.142593,0.014191,0.327591,0.014191,0.545395c0,0.811005-0.094299,2.059601-0.5327,3.175308
		c-0.301788,0.1763-0.620193,0.38179-0.873093,0.627396c-0.619095-1.373505-2.183594-2.777802-2.191406-2.796906l-0.17189-0.159607
		l-0.171799,0.159607c-0.008301,0.019104-1.569412,1.423401-2.19191,2.796906c-0.252502-0.245605-0.569397-0.450195-0.871094-0.625
		C215.763199,161.319305,215.669388,160.069809,215.669388,159.258804z M216.935089,163.688995l0.301712,0.541504l0.167496-0.5952
		c0.270996-1.0103,1.570297-2.359894,2.039093-2.826187c0.473618,0.466293,1.762207,1.816895,2.0327,2.826187l0.167908,0.5952
		l0.301804-0.541504c0.192886-0.381393,1.028793-0.847183,1.504395-1.08989c0.007797,0.182602,0.014603,0.424805,0.014603,0.708496
		c0.012299,1.2173-0.167404,3.158707-0.900803,4.152405c-0.987808-1.456604-2.940994-3.251495-2.946808-3.274506l-0.176788-0.164001
		l-0.176712,0.164001c-0.006393,0.02301-1.959991,1.817902-2.947296,3.274506
		c-0.732895-0.993698-0.913101-2.935104-0.900894-4.152405c0-0.286102,0.006897-0.530701,0.015198-0.714294
		C215.906296,162.834,216.741196,163.30661,216.935089,163.688995z M216.182602,169.001511l0.117188-0.428711
		c0.226608-0.9478,2.49411-3.209488,3.1436-3.844803c0.658203,0.635315,2.910614,2.897003,3.137711,3.844803l0.112701,0.428711
		l0.314987-0.310608c0.550308-0.556595,1.495102-1.022003,1.998505-1.248001c-0.004898,1.081009-0.278793,4.1577-2.297287,5.37941
		c-1.306717-1.593307-3.091812-3.164612-3.097717-3.182709l-0.17189-0.154694l-0.171799,0.154694
		c-0.005905,0.018097-1.792007,1.589401-3.098709,3.182709c-2.024887-1.222702-2.29689-4.304199-2.300797-5.383316
		c0.502502,0.224609,1.450699,0.693314,2.003006,1.251907L216.182602,169.001511z M229.17189,166.223099
		c0.00441,2.383804-1.434097,5.517609-1.545395,5.768112c-0.391602,0.383789-0.718307,0.741196-0.944901,1.000992
		l-0.192795,0.037109c-0.014709,0.022888-1.828201,0.307587-2.712906,1.343292
		c-0.183105-0.359406-0.457504-0.751999-0.7603-1.148499c1.998093-1.275894,2.404297-3.897903,2.482407-5.2798
		c0.346695-0.325592,2.455093-2.206497,3.585999-2.649902C229.145004,165.580109,229.17189,165.894501,229.17189,166.223099z
		 M228.0513,160.599106c0.003891,2.784195-0.937012,5.128891-1.044998,5.409698
		c-0.586411,0.448196-1.129807,0.911606-1.487305,1.230499c-0.0009-0.110901-0.002899-0.190002-0.002899-0.190002
		l-0.020996-0.357391l-0.327606,0.125992c-0.012207,0.011703-1.315002,0.499512-2.2388,1.25531
		c-0.024902-0.051712-0.067902-0.110809-0.098099-0.164505c0.995102-1.179703,1.133804-3.284714,1.146896-4.601105
		c0-0.087891-0.001892-0.161102-0.002899-0.240692c0.361298-0.372101,2.704102-2.713409,4.044403-3.358917
		C228.042496,160.008804,228.0513,160.30661,228.0513,160.599106z M225.638687,159.852112
		c0,0.500397-0.070786,0.890091-0.099594,1.039001c-0.650406,0.566391-1.224197,1.117691-1.589401,1.483398
		c-0.008301-0.1138-0.014191-0.193802-0.014191-0.195801l-0.029709-0.356903l-0.326691,0.142105
		c-0.00441,0.005798-0.10791,0.053696-0.252014,0.12149c0.314011-1.048798,0.3936-2.1035,0.3936-2.826599
		c0-0.041992-0.000992-0.074203-0.001892-0.112808c0.270905-0.166992,1.058105-0.633286,1.624496-0.852493
		C225.568802,158.8022,225.638687,159.367706,225.638687,159.852112z M224.575699,158.0811
		c-0.327698,0.163513-0.642105,0.341309-0.876999,0.480408c-0.008804-0.137207-0.018005-0.221695-0.020004-0.226105
		l-0.028809-0.28949l-0.285599,0.067886c-0.010284,0.023911-1.036194,0.216812-1.588394,0.88031
		c-0.628403-1.008301-2.134796-2.655197-2.145996-2.676208l-0.117706-0.130905h5.063507V158.0811z M218.194794,147.208511
		c0.565506-0.578598,0.834-1.580612,0.837906-2.566406c0.038101-0.914108,0.217789-0.921906,0.406799-0.938995
		c0.192795,0.01709,0.373505,0.024887,0.406189,0.938995c0.00441,0.985794,0.276901,1.987808,0.843307,2.566406
		c0.290497,0.243591,0.633301,1.912094,0.764099,2.587402h-4.0327
		C217.547394,149.120605,217.898895,147.452103,218.194794,147.208511z M217.075699,150.307114h4.729996v1.580093h-4.729996
		V150.307114z M216.564499,152.395004h5.752899v1.1978h-5.752899V152.395004z M215.581497,154.104004l7.716797-0.003891v1.57959
		h-7.716797V154.104004z M214.302689,156.186996h5.065506l-0.119705,0.130905c-0.00679,0.021011-1.513596,1.6689-2.144485,2.676208
		c-0.551804-0.663498-1.575714-0.8564-1.589417-0.88031l-0.281693-0.067886l-0.033203,0.28949
		c0,0.00441-0.008804,0.088898-0.018997,0.226105c-0.234894-0.139099-0.549393-0.316895-0.878006-0.480408V156.186996z
		 M213.240692,159.852112c0-0.484406,0.069809-1.050812,0.296906-1.559601c0.565399,0.218689,1.350601,0.689392,1.622101,0.854492
		c0,0.038498-0.001999,0.070801-0.001999,0.111801c0,0.723099,0.080093,1.777802,0.3936,2.825699
		c-0.142609-0.067902-0.245605-0.114792-0.249512-0.12059l-0.327698-0.137711l-0.029297,0.352509
		c0,0.001999-0.005798,0.082001-0.012695,0.195801c-0.367599-0.3647-0.939911-0.915009-1.590302-1.482407
		C213.310501,160.745102,213.240692,160.3564,213.240692,159.852112z M210.826187,160.601105
		c0-0.292496,0.0112-0.590393,0.03511-0.891098c1.345703,0.648392,3.699203,3.016098,4.044998,3.3647
		c-0.001007,0.077606-0.003006,0.147995-0.003006,0.232895c0.012711,1.316391,0.1465,3.417999,1.1465,4.600098
		c-0.029785,0.053711-0.072693,0.1138-0.097702,0.165512c-0.924286-0.755798-2.22699-1.243607-2.238693-1.25531l-0.3228-0.121094
		l-0.020996,0.343704c0,0.006897-0.003906,0.085999-0.006805,0.198792c-0.357895-0.318893-0.902405-0.783203-1.490692-1.233002
		C211.748489,165.707993,210.826187,163.36821,210.826187,160.601105z M209.70459,166.223099
		c0-0.328598,0.0298-0.641998,0.091812-0.928696c1.127899,0.444397,3.233887,2.33551,3.585388,2.651901
		c0.075699,1.382797,0.482498,4,2.482498,5.277802c-0.301788,0.3965-0.575699,0.787094-0.758286,1.145493
		c-0.889206-1.0327-2.69931-1.317398-2.714401-1.340286l-0.19191-0.03421c-0.225601-0.257797-0.549301-0.614197-0.939896-0.997101
		C211.155289,171.782211,209.700699,168.621613,209.70459,166.223099z M208.919388,170.939499c0-0.033295,0-0.065994,0-0.099197
		c1.291504,0.616699,2.891113,2.483398,3.1577,2.794006c-0.001892,0.068298-0.003891,0.114197-0.003891,0.198196
		c0.007904,1.383301,0.233398,4.982407,2.692902,6.8965c-0.184601,0.297897-0.3535,0.591309-0.479507,0.866196
		c-0.601089-0.810989-1.513199-1.560501-2.279297-2.112793C211.0439,177.860809,208.915497,174.326706,208.919388,170.939499z
		 M214.126007,182.274399l0.28949,0.507309l0.172897-0.558105c0.584503-1.909103,4.037613-5.423294,4.855896-6.2397
		c0.827209,0.816406,4.265717,4.332504,4.845703,6.2397l0.175797,0.563004l0.2901-0.512207
		c0.70311-1.240692,2.590302-2.519501,3.403305-3.035599c0.003906,1.220703-0.104004,4.670898-1.034195,6.801712
		c-0.653305,0.469299-1.340302,1.059601-1.854996,1.75c-1.430206-3.164505-5.645004-7.176208-5.652817-7.192413l-0.176788-0.1689
		l-0.176712,0.1689c-0.008286,0.016205-4.222687,4.027908-5.65329,7.192413c-0.514206-0.690399-1.201706-1.280701-1.853104-1.749008
		c-0.940903-2.135696-1.042892-5.601105-1.039001-6.813004C211.5298,179.739304,213.420395,181.0298,214.126007,182.274399z
		 M203.742691,174.123993l4.484406,6.779816h2.030701c0.077209,1.375504,0.274902,3.16069,0.774399,4.654297
		c-0.711395-0.440903-1.258804-0.697296-1.264603-0.702606l-0.293991-0.133789l-0.06781,0.310989
		c0,0.016602-0.129898,0.626007-0.129898,1.593307c0,1.669891,0.388702,4.433105,2.465302,7.019501
		c-0.008804,0.098602-0.020996,0.283691-0.020996,0.606491c0.004395,1.406204,0.26709,4.640106,2.5186,7.017502
		c-0.243698,0.419006-0.486404,0.840912-0.714401,1.292007c-1.559097-3.098099-4.373001-3.125-4.40921-3.117203h-0.268494
		l0.011703,0.265701c0.003891,0.013092,0.069794,1.383698,0.498489,3.195297h-5.614197V174.123993z M203.229492,203.417007v0.084
		l-0.072296-0.084H203.229492z M194.656296,202.905304c-0.001999-1.770493-0.001999-8.594803-0.001999-9.037094
		c-0.004898-0.092804,0.084-0.240799,0.446793-0.37941c0.345703-0.13089,0.896912-0.218796,1.605011-0.218796
		c0.7202,0,1.352493,0.003906,1.7612,0.100601c0.42189,0.118195,0.5224,0.207001,0.53949,0.497604c0,0.850998,0,5.453094,0,5.457001
		v0.093292l3.027908,3.486801H194.656296z M200.410202,200.257309l-0.893112-1.027802c0-0.664108,0-4.583008,0-5.361298
		c-0.013702-0.177811-0.0625-0.318909-0.127502-0.444412l1.020615,0.822815V200.257309z M198.789093,192.939911
		c-0.533203-0.191406-1.293503-0.17041-2.082993-0.180603c-1.458511,0.025894-2.473206,0.265594-2.562103,1.108902
		c0,0.442291,0,7.264603,0,9.037094h-2.001907v-15.324692L198.789093,192.939911z M192.14209,207.335007v-3.917999h2.001907
		v0.015594l5.326202,5.327209v26.452087h-3.75v-23.018494L192.14209,207.335007z M194.997101,235.716797l4.09079,0.001907
		l-5.746094,7.450195h-4.083496L194.997101,235.716797z M187.710007,243.678711h24.297287v4.956985h-24.297287V243.678711z
		 M181.764191,249.144501h30.243103v5.498108l-30.243103-0.003906V249.144501z M174.691391,255.154297h37.315903v9.272491
		h-37.315903V255.154297z M166.361298,264.938507h45.645996v12.858398h-45.645996V264.938507z M157.020004,278.305695h54.987289
		v12.554718h-54.987289V278.305695z M442.977478,290.860413H387.99408v-12.549896l54.983398-0.004822V290.860413z"/>
</g>
</svg>
