<svg class="svgOrigin" xmlns="http://www.w3.org/2000/svg" width="600" height="400" x="0px" y="0px" viewBox="0 0 600 400" enable-background="new 0 0 600 400">
<g>
	<rect x="0.000488" y="-0.00049" fill="#00785E" width="599.999512" height="400.000488"/>
	<polygon fill="#FBD116" points="300.000488,65.073212 305.228485,81.166 322.149384,81.166 308.459991,91.111305 
		313.688507,107.204605 300.000488,97.258308 286.310089,107.204605 291.539581,91.111305 277.849579,81.166 294.770996,81.166 	"/>
	<polygon fill="#FBD116" points="361.22168,117.839409 356.844696,108.110809 346.239288,109.266609 354.139587,102.096207 
		349.761688,92.36821 359.022491,97.666504 366.921906,90.498001 364.74408,100.941406 374.004883,106.237808 
		363.399384,107.397507 	"/>
	<polygon fill="#FBD116" points="384.571289,158.493713 385.648376,147.879913 375.888702,143.574203 386.315399,141.318405 
		387.392578,130.705612 392.758789,139.9272 403.185486,137.672409 396.075195,145.625 401.44339,154.843307 391.68158,150.542007 	
		"/>
	<path fill="#FFFFFF" d="M300.000488,227.242203c-22.630402,20.660095-31.868683,22.885696-58.596191,21.739197
		c-26.727997-1.1474-45.258301-17.547791-45.258301-17.547791l9.348099-5.576202
		c27.384796,21.481491,57.231491,17.217804,57.231491,17.217804c-53.789093-5.574203-66.248093-40.501007-66.248093-40.501007
		c37.879898-24.925797,77.23439,4.919006,77.23439,4.919006c-24.434097-22.79451-55.916992-17.874512-55.916992-17.874512
		l-8.199203-10.002487c38.699203-5.575211,68.0522,21.6465,68.0522,21.6465
		c-27.712799-40.996109-6.394989-70.511703-6.394989-70.511703l9.018097,8.526794
		c-15.57959,32.632401,1.313019,59.197296,1.313019,59.197296c-21.481506-48.701691,18.416473-77.74659,18.416473-77.74659
		s39.895996,29.044899,18.41452,77.74659c0,0,16.892578-26.564896,1.312469-59.197296l9.018616-8.526794
		c0,0,21.317383,29.515594-6.395508,70.511703c0,0,29.353516-27.22171,68.052704-21.6465l-8.199188,10.002487
		c0,0-31.483398-4.919998-55.917023,17.874512c0,0,39.354523-29.844803,77.234406-4.919006
		c0,0-12.458984,34.926804-66.248108,40.501007c0,0,29.84671,4.263687,57.231506-17.217804l9.348602,5.576202
		c0,0-18.531189,16.400391-45.258789,17.547791C331.867188,250.127899,322.628906,247.902298,300.000488,227.242203z"/>
	<path fill="#FFFFFF" d="M300.000488,244.995102c-13.064484,13.062515-23.809082,16.692398-40.834991,16.692398
		c-17.026306,0-48.01561-0.069305-53.8134-0.069305c-2.628998-2.629883-5.817902-8.036194-5.817902-8.036194s36.763199,0,59.01799,0
		c22.254395,0,41.448303-19.613297,41.448303-19.613297s19.191895,19.613297,41.446808,19.613297
		c22.253906,0,59.017487,0,59.017487,0s-3.188385,5.406311-5.818298,8.036194c-5.797882,0-36.787079,0.069305-53.813477,0.069305
		C323.807587,261.6875,313.0625,258.057617,300.000488,244.995102z"/>
	<path fill="#FFFFFF" d="M212.25679,271.638702c-1.648392-1.076202-2.924789-2.796906-2.924789-2.796906h181.334991
		c0,0-1.276398,1.720703-2.924805,2.796906C382.966797,271.638702,217.031693,271.638702,212.25679,271.638702z"/>
	<path fill="#FFFFFF" d="M225.129395,285.759796c-1.364807-0.8526-6.818893-6.13681-6.818893-6.13681h163.377975
		c0,0-5.454071,5.28421-6.819397,6.13681H225.129395z"/>
	<path fill="#FFFFFF" d="M245.076187,299.569305c-4.603088-1.705994-13.125992-8.5224-13.125992-8.5224h136.098602
		c0,0-8.523407,6.816406-13.125916,8.5224H245.076187z"/>
	<path fill="#FFFFFF" d="M300.000488,313.537109c-28.983398,0-49.298401-11.06842-49.298401-11.06842h98.594818
		C349.296906,302.468689,328.981384,313.537109,300.000488,313.537109z"/>
	<polygon fill="#FBD116" points="238.776901,117.839409 243.154297,108.110809 253.759293,109.266609 245.85939,102.096207 
		250.236801,92.36821 240.976593,97.666504 233.077087,90.498001 235.254898,100.941406 225.994598,106.237808 
		236.599091,107.397507 	"/>
	<polygon fill="#FBD116" points="215.427689,158.493713 214.350601,147.879913 224.110397,143.574203 213.683594,141.318405 
		212.6064,130.705612 207.240189,139.9272 196.813004,137.672409 203.923798,145.625 198.555191,154.843307 208.316895,150.542007 	
		"/>
</g>
</svg>
