<svg class="svgOrigin" xmlns="http://www.w3.org/2000/svg" width="600" height="400" x="0px" y="0px" viewBox="0 0 600 400" enable-background="new 0 0 600 400">
<g>
	<rect x="0.000488" y="-0.00049" fill="#00844A" width="599.998535" height="400.000488"/>
	<path fill="#FFFFFF" d="M164.87059,93.025406c-1.81929-0.201698-4.986801,4.986801-3.835892,9.973595
		c1.150803,4.986809,3.577103,29.535713,3.577103,29.535713s-2.455505,0.850098-3.321304-1.0215
		c-1.354996-2.929214-4.091797-5.626511-4.091797-10.740707c0-5.114799,2.685089-4.858902,0.25589-7.671898
		c-2.429688-2.813499-5.37059,3.196297-6.9048,6.776802c-1.534698,3.580093-4.347687,12.786194-7.160599,12.786194
		c-2.812988,0-6.265198-5.753899-6.9048-10.868195c-0.639191-5.1147-1.534195-0.8955-1.662094,0.767097
		c-0.128006,1.662102-0.128006,19.179695,6.265106,19.818794c6.3936,0.639694,9.462387-11.379791,9.845688-14.192795
		c0.383804-2.813004,1.917999-5.370102,1.917999-0.894997c0,4.47509,4.6035,13.936989,12.530701,13.809486
		c0,0,4.347702,28.257813,4.347702,31.070816c0,2.813492,3.835907,1.022995,4.219208-5.753906
		c0.383789-6.776794-2.065399-27.023407-2.065399-27.023407s2.662094-3.664093,5.134293-4.559097
		c3.147003-1.138702,4.6035,6.648911,9.589798,6.009811c4.986801-0.639221,8.311508-7.160706,8.694809-11.763702
		c0.383804-4.603004-3.580002-10.101601-2.812912-13.681602c0.767502-3.580101,2.557602-2.3013,2.557602-4.219299
		s-2.940887-8.183609-5.498596-8.183609c-2.557098,0-5.242096,3.835999-5.242096,6.393105
		c0,2.557602,6.520905,17.773399,6.39299,20.202606c-0.127899,2.429703-1.278793,3.324692-3.580093,0.639694
		c-2.301697-2.685097-8.950592-17.901405-9.206497-21.609406c-0.255402-3.708-1.406296-4.091789-2.813004-2.301292
		c-1.406204,1.7901-3.580093,4.475098-3.196304,7.416c0.383301,2.941002,3.580109,7.543999,2.940903,11.1241
		c-0.639603,3.580498-4.560501,4.901802-4.560501,4.901802s-3.111801-17.560501-2.344193-21.14061
		c0.766998-3.580093,3.068802-1.27829,3.068802-3.196793C171.008301,103.510307,167.17189,93.281204,164.87059,93.025406z"/>
	<path fill="#FFFFFF" d="M142.579102,94.901405c-1.902802-0.090897,0,6.5634,1.022995,7.756805
		c1.022903,1.193893,1.449203,5.711899,1.449203,7.075699s3.153793-3.324203,3.58049-7.160706
		C149.05809,98.737305,144.369095,94.987305,142.579102,94.901405z"/>
	<path fill="#FFFFFF" d="M185.116196,94.134308c-1.365707-0.046898-1.533203,1.619598-2.386703,1.534599
		c-0.852997-0.084908-2.046402-2.215797-2.387192-2.045906c-0.340805,0.169998-0.255905,4.091805-1.875,3.665108
		c-1.619202-0.426804-2.301804-1.023003-2.557602-0.511703c-0.255402,0.511703-0.768097,5.796799,4.176697,5.285591
		C185.031296,101.550804,187.588394,94.220207,185.116196,94.134308z"/>
	<path fill="#FFFFFF" d="M162.014603,148.0923c-1.697205-1.155792-8.013596,1.534698-12.274902,3.324707
		c-4.261703,1.789993-11.763611,8.438995-9.973602,9.717804c1.7901,1.278793,3.239304-2.899002,12.190002-6.137711
		C160.906693,151.758804,166.020493,150.820801,162.014603,148.0923z"/>
	<path fill="#FFFFFF" d="M151.188995,190.032211c-0.125992-0.722107-5.709991,0.426788-6.051804-1.363708
		c-0.341293-1.7901,0.767609-11.93309-0.76709-12.104004c-1.53421-0.170898-3.835907,11.849609-3.751007,16.366699
		c0.085007,4.517014,1.619202,7.926712,5.114807,7.585907C149.229004,200.1763,152.211899,195.914108,151.188995,190.032211z"/>
	<path fill="#FFFFFF" d="M158.349594,165.7388c-1.022903,0-5.284698,13.979507-5.284698,22.844711
		c0,8.865692,3.068893,18.753387,18.241699,18.241699c15.173401-0.510712,37.337006-16.024902,37.337006-28.981903
		c0-12.957596,0-22.504395,0-22.504395s1.705002-1.534714,2.557098-1.534714c0.85199,0,1.704102,5.796906,4.432098,5.626511
		c2.7285-0.170898,7.842804-6.819901,7.842804-6.819901s4.09079,6.989304,7.841797,6.649002
		c3.750992-0.340912,5.456497-3.920898,5.456497-7.160706c0-3.239197-1.3647-10.570801-2.899399-10.399902
		c-1.534195,0.170898-3.067398,7.501999-4.2612,7.501999c-1.193909,0-2.558105-6.649002-3.921906-6.649002
		s-2.727997,7.842804-6.137695,6.649002c-3.409195-1.193893-1.704102-7.160202-2.897903-7.3311
		c-1.193405-0.170898-6.989304,8.013702-8.694901,5.796906c0,0-0.682098-16.196808-1.193298-20.800301
		c-0.511703-4.602997-1.534698-13.63871-1.534698-13.63871s4.091797-2.727997,3.239807-4.602997
		c-0.852112-1.875-5.455612-11.592789-6.989807-13.126999c-1.534195-1.534592-6.309601,3.580109-5.455994,8.694908
		c0.852997,5.114197,7.161102,38.701088,6.478989,46.5429c0,0-4.944885,3.750992-6.308594,1.022995
		c-1.363297-2.7285-3.920395-7.842804-8.012207-7.842804c-4.091797,0-8.694901,9.036102-8.694901,12.445801
		c0,3.409195,3.068909,7.841812,14.149902,6.989807c0,0-11.764603,16.366699-20.117599,16.366699
		c-8.353088,0-8.524002-14.661697-8.524002-14.661697s-4.432587,3.409195-4.432587,11.0811
		c0,7.67189,1.70459,13.468689,10.399399,13.298294c8.694901-0.170898,28.471695-13.810501,29.323792-28.813004l2.386703-1.704102
		c0,0,0,14.832611,0,18.412613c0,3.580093-13.980499,18.924393-32.222198,18.924393S158.349594,165.7388,158.349594,165.7388z"/>
	<path fill="#FFFFFF" d="M230.6362,105.215805c0,0-14.149902,13.638702-15.855408,14.149902
		c-1.705093,0.511703,6.818802,0.340797,9.546799-1.193802c2.728607-1.534195,12.786697-8.353996,12.786697-13.809097
		c0-5.455597-0.340393-9.545898-4.43219-9.376503c-4.091797,0.169899-5.455505,3.067902-5.455505,5.284698
		C227.226593,102.487808,230.6362,105.215805,230.6362,105.215805z"/>
	<path fill="#FFFFFF" d="M227.567398,121.582504c0,0-3.068909,2.898003-3.068909,7.671906
		c0,4.773895,2.897003,6.138702,5.284698,5.79689c2.387207-0.341797,6.648911-5.114792,4.262207-7.16069
		c-2.3862-2.045906-4.943802,0.34079-4.943802,0.34079S227.226593,128.402313,227.567398,121.582504z"/>
	<path fill="#FFFFFF" d="M216.484894,185.686005c0,0,5.967697-4.943802,5.967697-10.229492
		c0-5.28511-1.8759-6.307114-1.8759-4.603012s-3.409195,2.898911-3.409195-0.511688c0-3.410202,3.920898-4.944809,5.625992-4.944809
		c1.705002,0,3.580002,0.8535,3.580002,7.331497C226.373489,179.206512,216.484894,185.686005,216.484894,185.686005z"/>
	<path fill="#FFFFFF" d="M246.661087,104.363808c0,0-4.943787,9.3759-4.943787,15.684097
		c0,6.308502,1.022888,14.491707,7.160599,14.491707c6.137695,0,8.013702-10.230003,9.376984-14.662201
		c1.3638-4.432602,3.921906-6.649414,4.603516-5.966805c0.681183,0.682198,1.192383,4.432198-0.170898,6.478104
		c-1.3638,2.045898-0.852112,15.003395,8.183105,15.003395c9.035675,0,13.980499-9.717796,13.980499-9.717796
		s1.533203,9.035194,11.421783,9.035194c9.888214,0,11.592316-8.864799,11.592316-12.615799
		c0-3.7509-2.724609-12.274895-2.384705-13.808998c0.339783-1.534706,3.921783,0.510201,4.091797-0.682602
		c0.169891-1.192398-7.333008-13.296898-8.697296-15.001999c-1.362305-1.705109-4.942902,4.602005-4.942902,8.353004
		s6.480988,15.855499,5.968292,18.583496c-0.513702,2.728004-2.900391,4.603004-5.627502,4.603004
		c-2.72699,0-5.625885-6.478004-6.477997-10.7407c-0.85199-4.262199-2.557587-18.752907-3.068787-19.435501
		c-0.511719-0.682205-4.603119,5.285591-4.603119,6.648895c0,1.3638,1.19342,3.751503,1.19342,5.797401
		c0,2.045403,0,10.398903-0.17041,11.592705c-0.170898,1.193398-8.012695,7.500999-11.081512,7.671898
		c-3.068878,0.170395-5.114777-5.1147-4.603088-9.717804c0.511292-4.603508,0.511292-13.638596-1.022888-13.809502
		c-1.534729-0.170898-8.184601,8.183105-10.911621,13.126907c-2.727097,4.943893-3.750992,9.377495-5.79689,9.377495
		c-2.156799,0-4.772003-0.566406-4.602997-6.648994C245.297897,111.864708,246.661087,104.363808,246.661087,104.363808z"/>
	<path fill="#FFFFFF" d="M251.435089,96.861305c0,0-0.341293,7.502502,0.852005,7.502502
		c1.193909,0,3.920914-2.045898,3.068909-3.580597C254.503891,99.249001,251.606003,95.32711,251.435089,96.861305z"/>
	<path fill="#FFFFFF" d="M273.257294,93.281204c-3.409607,2.216797,2.045898,6.990799,2.216309,8.354103
		c0.170898,1.363693-0.340302,4.432602-0.340302,4.432602s4.262207-2.044998,3.580078-6.307602
		C278.031281,95.498001,275.830597,91.60891,273.257294,93.281204z"/>
	<path fill="#FFFFFF" d="M231.659195,170.000504c0,0-6.990707,4.944809-5.796906,16.708008
		c0,0-29.324188,15.684097-31.710388,16.536591c-2.38681,0.8535-1.364807,2.045898,1.875,2.387711
		c3.239197,0.341797,13.809998-1.706009,30.517487-10.229507c0,0,0.682205,10.911194,11.934616,10.911194
		c11.251999,0,25.060577-10.911194,27.617676-19.776398c0,0,7.426208,18.069305,36.826202,19.264603
		c2.705017,0.109406,2.067322-10.426193,0-10.910599c-2.315491-0.542496-13.126984-1.875-12.786682-7.160706
		c0.340881-5.285095,32.39209-12.786087,34.437988-14.320801c2.045898-1.534088,8.355499-7.160095-1.704102-7.160095
		s-28.983887,0-31.540985,0s-0.339813-3.239792,2.387695-4.262695c2.72699-1.022995,17.047791-3.579102,20.458008-5.455109
		c3.410187-1.875992,5.625977-4.433594,5.625977-9.036591s-6.81839-10.399902-14.320282-10.229004
		c-7.502502,0.170395-11.252502,7.67189-11.423401,10.740204c-0.170898,3.068893-0.5112,5.967804-4.091797,6.308594
		c-3.580017,0.340805-7.501923,4.602097-10.911102,8.523911c-3.409698,3.92189-6.137695,8.524887-4.091797,8.524887
		s16.538605,0,18.754395,0c2.215302,0,0.340302,3.2388-1.705597,3.2388s-8.523895,5.114807-8.523895,13.980011
		c0,0-17.731018-16.025909-20.799805-48.077209c0,0-6.9897,8.695801-6.9897,9.888702s5.28508,20.628403,8.18309,28.471207
		c0,0-7.330109,12.615189-14.149887,15.854996c-6.819916,3.2397-15.173904,3.409698-16.537613-2.045898
		c0,0,10.570801-8.523895,15.003403-13.809097c4.432098-5.285599,5.626007-9.888702,5.626007-14.832504
		c0-4.943893-3.068909-8.524902-2.557205-10.911606c0.511307-2.386292,1.875992-3.75,0-5.455093
		c-1.876404-1.705109-6.137695-4.602097-7.160599-5.455597c-1.022995-0.852997-6.478989,8.693893-4.773895,10.91069
		c1.704987,2.216812,8.694794,11.935501,8.694794,13.639603s-10.740707,13.467804-17.901398,17.218796
		C230.124496,183.980499,227.226593,180.229507,231.659195,170.000504z"/>
	<path fill="#FFFFFF" d="M275.814484,141.870102c0,2.045898-1.022003,9.889709,4.433502,9.036102
		c5.455109-0.852997,8.694916-4.2612,8.694916-7.671799c0-3.410202-2.387695-4.774002-2.387695-4.774002
		s0,3.920898-2.045898,3.920898c-2.045929,0-2.55722-3.068802-2.55722-3.068802s0.512299,4.772903-2.21579,4.6035
		C277.008301,143.746109,275.814484,141.870102,275.814484,141.870102z"/>
	<path fill="#FFFFFF" d="M315.878906,134.539612c-3.064423,0.139099-4.430725-5.796906-3.75-9.377007
		c0.68158-3.580101,1.704102,0.000999,3.580109,0.170898c1.875977,0.169907,3.921875-3.239799,3.921875-1.705093
		C319.63089,125.162605,319.628906,134.370102,315.878906,134.539612z"/>
	<path fill="#FFFFFF" d="M314.516602,197.448212c0-1.705002,3.408203-2.045914,2.897491-5.114212
		c-0.51181-3.068893-2.385803-4.772995-4.26181-3.409698c-1.875885,1.3638-4.261688,3.068909-5.284088,4.091797
		c-1.023499,1.02301,1.0224,4.091812,3.068298,2.557114c2.045898-1.534103,3.408203-0.852005,2.21579,1.022995
		c-1.193268,1.875-3.069275,8.0112,0,7.160599c3.06842-0.851501,9.03421-3.581497,10.910217-5.796799
		c1.875977-2.215897,0.169891-3.410706-1.53421-2.557709C320.824188,196.255905,314.516602,199.153809,314.516602,197.448212z"/>
	<path fill="#FFFFFF" d="M329.176788,119.194809c0,0-4.34671-6.350105-4.730499-7.373001
		c-0.383789-1.023003,2.557617-2.301811,1.022491-4.347702c-1.53418-2.045898-10.356476-11.507797-11.507874-12.402802
		c-1.150421-0.894997-3.452118,5.242699,0,11.124504c3.453186,5.881798,16.623108,27.235405,16.623108,27.235405
		s5.497986,56.643997,5.753876,62.397888c0,0,4.045898-5.722198,3.963898-7.927689
		c-0.127991-3.452209-1.662201-45.008301-1.662201-45.008301s21.480499,31.582489,23.143616,42.067291
		c0,0-7.799805,10.996597-13.425812,13.170502c-5.626892,2.173294-8.311493,2.301193-9.079102,2.301193
		c-0.766602,0-1.406189,4.091309,6.137695,3.964401c7.544006-0.127899,16.111298-6.905289,19.051819-12.147507
		c2.941376-5.242691,6.393494-12.402786,6.393494-16.366684c0-3.963806-0.639618-23.399399-1.27829-35.546906
		c-0.639618-12.146896-3.453125-29.280693-3.453125-29.280693s2.429718-0.255905,1.917999-3.1968
		c-0.510803-2.94091-5.498077-14.832504-6.264679-15.599602c-0.767609-0.767097-6.649414,6.520996-5.115204,10.86869
		c1.534088,4.347107,9.079102,35.162613,9.079102,75.951599c0,0-5.499115-19.562988-29.025421-50.506287
		c0,0-1.151398-15.216309-1.279297-15.727608C335.314484,112.333,338,112.333,337.232391,110.159706
		c-0.766602-2.173897-5.114197-13.170395-6.392609-14.576706c-1.279297-1.406693-4.091797,2.045906-3.707977,6.009308
		C327.514587,105.556206,329.176788,119.194809,329.176788,119.194809z"/>
	<path fill="#FFFFFF" d="M346.311493,105.172905c1.799805,2.300201,0.638702,6.904701,2.300812,6.648903
		c1.663086-0.255898,3.197296-6.776901,1.023376-11.124504c-2.173798-4.347198-4.859283-8.183098-5.881775-8.183098
		C342.730499,92.514206,341.708008,99.291,346.311493,105.172905z"/>
	<path fill="#FFFFFF" d="M353.599579,111.18261c0,0-0.639587,3.452194-1.279297,4.219299
		c-0.638702,0.766998-2.42868-1.278908-2.42868-1.278908s0.25589,2.557709-1.662109,3.83651
		c-1.917999,1.278297-4.347687-1.023003-4.347687-1.023003s0.127991,7.671898,3.06839,7.160202
		c2.941406-0.511307,8.695282-2.940903,8.695282-5.4981C355.645477,116.041504,353.599579,111.18261,353.599579,111.18261z"/>
	<path fill="#FFFFFF" d="M378.916992,108.880905c0,0,3.580109-2.557198,2.55661-4.219795
		c-1.0224-1.662109-6.00882-9.461899-6.648407-10.101006c-0.639709-0.639694-4.475616,3.963806-3.452209,10.356895
		c1.022491,6.393105,7.671906,63.165504,8.822296,70.709511c1.150421,7.5439,0.779297,13.828094,3.580109,6.520996
		c2.941406-7.671906,3.580109-11.635803,2.557617-18.540604C385.309601,156.702103,379.172882,112.97271,378.916992,108.880905z"/>
	<path fill="#FFFFFF" d="M413.696289,117.447807c0,0-4.987274-3.708099-5.881805-4.9869
		c-0.895599-1.278297,2.940399-2.045906,0.766602-4.347099c-2.172882-2.301811-8.950195-8.183601-10.484406-9.078598
		c-1.53418-0.895103-2.813477,5.1147-0.639679,9.845695c2.173889,4.730904,17.389679,24.677704,17.389679,24.677704
		s3.708008,28.770004,3.963806,36.569794c0.25589,7.799301-0.127899,13.809097-4.858398,14.065002
		c-4.731384,0.255798-8.439392-8.950699-9.461884-12.530792c-1.023407-3.580109-5.499023-6.009811-8.567322-0.255905
		c-3.06839,5.753891-6.777405,21.225601-10.868195,21.225601c-4.091797,0-8.439484-11.124008-8.439484-14.064911
		c0-2.940887-2.813416-4.602997-2.813416-3.196793c0,1.406708,0.767517,27.107895,9.717712,26.340302
		c8.951202-0.767105,10.357513-14.960403,10.997101-17.006302c0.638702-2.045395,2.684601-8.694794,4.34668-6.648895
		c1.663116,2.045898,5.115204,15.216293,12.40332,15.216293c7.288086,0,12.275391-7.416504,12.019501-15.599594
		c-0.255798-8.183609-2.173828-36.697296-2.173828-36.697296l10.357422,10.996094c0,0,1.406311,41.300797,1.406311,43.218704
		c0,1.917999,4.858368-3.963806,4.858368-8.055603s0.255829-22.632309,0.255829-22.632309s9.333984,4.986801,15.343811,22.504303
		c0,0-6.392639,10.35701-23.527435,15.727097c0,0,16.11142,1.535202,23.783203-7.799286
		c7.671906-9.334,8.439514-15.7276,8.183594-21.864807c-0.255798-6.137695-4.475494-58.5625-4.731384-59.841309
		c-0.25589-1.27829,1.535095,0.383812,1.535095-3.708c0-4.091789-5.626892-13.425789-6.521393-15.726997
		c-0.895508-2.301788-5.626007,1.150406-5.498108,5.498001c0.127899,4.347206,3.835999,8.694809,4.219696,16.110909
		c0.382904,7.416496,4.98642,57.667397,4.858398,64.699699c0,0-7.927673-20.585999-18.923798-30.815506
		c0,0-1.917999-32.733398-1.917999-33.756294c0-1.023003,2.8125-0.639198,2.045898-2.813004
		c-0.767487-2.173805-5.370087-17.133804-6.649384-18.923805c-1.27832-1.790588-6.648407,5.24221-5.370117,8.694809
		c1.27832,3.452103,3.452209,8.822296,4.091797,15.854996c0.639709,7.0327,1.406311,19.179703,1.406311,19.179703
		l-10.356506-9.078201c0,0-1.151398-15.088303-0.639587-15.727501c0.511719-0.639198,2.684479-1.150894,2.045898-2.685097
		c-0.639709-1.534599-4.347717-13.553711-5.370209-15.471603c-1.023407-1.917999-6.905182,3.708-6.137604,7.032204
		C410.627014,104.917,412.92868,105.811996,413.696289,117.447807z"/>
	<path fill="#FFFFFF" d="M441.826202,125.63131c0,0,4.347595,0.511299,4.347595-7.160599s-3.068298-14.192902-4.475616-15.47171
		c-1.406189-1.278793-4.730377,1.278809-3.324188,4.603104c1.406311,3.324699,4.475586,5.753899,4.219788,10.612701
		C442.337891,123.073708,441.826202,125.63131,441.826202,125.63131z"/>
	<path fill="#FFFFFF" d="M408.709015,163.479004c1.151367,0,1.279266-5.498001,0.383789-8.822296
		c-0.894623-3.324707-2.301819-4.986801-3.963928-3.580505c-1.662079,1.406708,0.127899,6.393509,0.511719,8.055603
		C406.024384,160.7939,407.558594,163.479004,408.709015,163.479004z"/>
	<path fill="#FFFFFF" d="M409.476593,141.614304c-1.917999-1.7901-6.265717,3.963806-10.229492,5.753906
		c-3.963898,1.789993-9.589905,0.89299-9.589905,5.242599c0,3.068893,4.347687,2.813004,10.613281-1.150803
		C406.563477,147.477997,411.394501,143.404312,409.476593,141.614304z"/>
	<path fill="#FFFFFF" d="M398.480499,131.001511c-1.279297-0.255905-1.535217-8.950706-5.626007-8.950706
		c-4.091797,0-3.453094,2.429703-3.453094,4.730904c0,2.301804,0.639587,3.580597,3.069305,3.452698
		c2.42868-0.128006,2.940399,1.662094,2.940399,2.940903c0,1.278305,2.045898,5.114304,3.963898,5.114304s1.917999,0,1.917999,0
		s-0.38382-8.694901,1.023376-10.229111c1.406311-1.534096,3.963928-2.684998,1.790009-4.986794
		c-2.173798-2.301201-4.859283,0.639702-4.731384,2.812996C399.502899,128.060501,399.758789,131.257309,398.480499,131.001511z"/>
	<path fill="#FFFFFF" d="M421.879883,196.596207c0-1.406296,2.55661,0.127899,1.790009-2.173798
		c-0.767609-2.3013-3.963806-1.02301-5.243103,0.255798c-1.278412,1.278793,1.279297,1.534698,1.407227,2.685104
		c0.127869,1.150894-2.045929,1.917892-2.045929,3.707993c0,1.789993-0.127899,4.987305,1.790009,3.580093
		c1.917999-1.406296,5.114288-3.196289,4.858398-4.6026C424.180695,198.642105,421.879883,198.002899,421.879883,196.596207z"/>
	<path fill="#FFFFFF" d="M406.408203,284.311493c-1.94632,0-11.461914,0-25.573212,0v-1.746094
		c1.251892-0.609283,2.121094-1.881805,2.121094-3.368103c0-2.076202-1.681702-3.757782-3.757904-3.757782
		c-2.075195,0-3.757782,1.68158-3.757782,3.757782c0,1.360321,0.731506,2.542908,1.814484,3.202118v1.912079
		c-61.974579,0-199.981491,0-199.981491,0s10.229004,10.485413,14.576706,10.485413c4.347198,0,185.404785,0,185.404785,0v4.602509
		c-1.082977,0.660187-1.814484,1.842773-1.814484,3.203094c0,2.076202,1.682587,3.757904,3.757782,3.757904
		c1.936615,0,3.510834-1.468811,3.715912-3.348724h9.180603c0.206085,1.879913,1.780304,3.348724,3.71579,3.348724
		c1.936615,0,3.510803-1.468811,3.716797-3.348724h7.745209c0.385712,1.398499,1.804596,2.6651,5.2724,2.781311
		c7.671906,0.255798,8.951202-5.370087,8.951202-11.507782C421.496094,288.147491,416.636688,284.311493,406.408203,284.311493z
		 M407.430695,294.796906c3.835907,0,2.813385,3.835907,1.27832,4.347595c-0.487335,0.161194-1.048828,0.866211-1.34671,1.757813
		h-8.216827c-0.622986-1.216797-1.873993-2.057617-3.334991-2.057617c-1.4599,0-2.710907,0.84082-3.333893,2.057617h-9.94339
		c-0.372101-0.725525-0.964813-1.310516-1.698212-1.667908v-4.4375
		C380.834991,294.796906,403.594696,294.796906,407.430695,294.796906z"/>
	<path fill="#00844A" d="M189.281693,154.627411c-1.165497,1.554703-4.460403-0.234802-3.051697-2.81691
		C187.638702,149.227997,191.042007,152.280304,189.281693,154.627411z"/>
	<path fill="#00844A" d="M311.118195,148.876511c0,2.468689-4.341797,2.347595-6.924805,2.347595
		s-4.225098-2.817902-4.225098-4.813004c0-1.994598,4.109802-1.525391,5.634186-0.704102
		C307.127014,146.528305,311.118195,147.585007,311.118195,148.876511z"/>
</g>
</svg>
