<svg class="svgOrigin" xmlns="http://www.w3.org/2000/svg" width="600" height="400" x="0px" y="0px" viewBox="0 0 600 400" enable-background="new 0 0 600 400">
<g>
	<rect x="0.000488" y="-0.00049" fill="#004A7B" width="599.999512" height="400.000488"/>
	<path fill="#FFD600" d="M160.805191,119.877411c6.796402-6.747002-19.896988,0.454094-23.986801,2.511299l-10.26519-9.487305
		c-0.021904-0.100601-1.700203-6.257408-1.708504-13.681198l0,0c0.008301-3.6875,0.377998-6.432602,1.628403-8.743103l0,0
		c1.264694-2.313499,3.318405-3.816895,5.891602-5.105499l0,0c5.174896-2.620094,11.476089-4.1558,21.381897-4.143608l0,0
		c5.216293,0.004913,10.276794,1.364815,14.172806,4.156815l0,0c3.895996,2.769997,6.564987,7.163994,6.540985,12.609299l0,0
		c0,1.42289,0.016205,2.716301,0.016205,3.920891l0,0c0.137695,6.771996-0.907303,11.497108-8.211502,18.284706l0,0
		l-2.832993,1.758293L160.805191,119.877411z"/>
	<rect x="0.000488" y="199.999512" fill="#BD0029" width="599.999512" height="200.000488"/>
	<path fill="#FFD600" d="M122.894997,85.865211c0,1.976593-1.6045,3.580093-3.580101,3.580093
		c-1.977997,0-3.580498-1.6035-3.580498-3.580093c0-1.977005,1.602501-3.580505,3.580498-3.580505
		C121.290497,82.284706,122.894997,83.888206,122.894997,85.865211z"/>
	<path fill="#FFD600" d="M122.894997,95.583c0,1.976608-1.6045,3.580109-3.580101,3.580109
		c-1.977997,0-3.580498-1.6035-3.580498-3.580109c0-1.976997,1.602501-3.580589,3.580498-3.580589
		C121.290497,92.002411,122.894997,93.606003,122.894997,95.583z"/>
	<path fill="#FFD600" d="M122.894997,105.300804c0,1.976501-1.6045,3.580101-3.580101,3.580101
		c-1.977997,0-3.580498-1.6036-3.580498-3.580101c0-1.977097,1.602501-3.580597,3.580498-3.580597
		C121.290497,101.720207,122.894997,103.323708,122.894997,105.300804z"/>
	<path fill="#FFD600" d="M131.498001,82.540504c0,1.977104-1.602509,3.580101-3.580505,3.580101
		c-1.9776,0-3.580101-1.602997-3.580101-3.580101c0-1.976997,1.602501-3.580093,3.580101-3.580093
		C129.895493,78.960411,131.498001,80.563507,131.498001,82.540504z"/>
	<path fill="#FFD600" d="M140.550293,79.216309c0,1.976601-1.604492,3.580101-3.580093,3.580101
		c-1.976105,0-3.580109-1.6035-3.580109-3.580101c0-1.976997,1.604004-3.580597,3.580109-3.580597
		C138.945801,75.635712,140.550293,77.239311,140.550293,79.216309z"/>
	<path fill="#FFD600" d="M150.166,77.425812c0,1.976997-1.602005,3.580498-3.580109,3.580498
		c-1.977997,0-3.580002-1.6035-3.580002-3.580498c0-1.976601,1.602005-3.580101,3.580002-3.580101
		C148.563995,73.845711,150.166,75.449211,150.166,77.425812z"/>
	<path fill="#FFD600" d="M159.372589,76.658707c0,1.977005-1.602585,3.580605-3.580093,3.580605
		c-1.977997,0-3.580597-1.6036-3.580597-3.580605c0-1.976601,1.6026-3.580101,3.580597-3.580101
		C157.770004,73.078606,159.372589,74.682106,159.372589,76.658707z"/>
	<path fill="#FFD600" d="M168.834503,78.704605c0,1.977005-1.602112,3.580101-3.580109,3.580101
		s-3.580597-1.603096-3.580597-3.580101c0-1.977097,1.6026-3.580093,3.580597-3.580093S168.834503,76.727509,168.834503,78.704605z"
		/>
	<path fill="#FFD600" d="M176.762192,84.075211c0,1.976601-1.602493,3.580101-3.580093,3.580101
		c-1.977997,0-3.580505-1.6035-3.580505-3.580101c0-1.977104,1.602509-3.580605,3.580505-3.580605
		C175.159698,80.494606,176.762192,82.098106,176.762192,84.075211z"/>
	<path fill="#FFD600" d="M181.621094,92.769997c0,1.976608-1.602493,3.580109-3.580093,3.580109
		c-1.977997,0-3.580612-1.6035-3.580612-3.580109c0-1.976997,1.602615-3.58049,3.580612-3.58049
		C180.0186,89.189507,181.621094,90.792999,181.621094,92.769997z"/>
	<path fill="#FFD600" d="M181.621094,102.231911c0,1.977089-1.602493,3.580086-3.580093,3.580086
		c-1.977997,0-3.580612-1.602997-3.580612-3.580086c0-1.977005,1.602615-3.580002,3.580612-3.580002
		C180.0186,98.651909,181.621094,100.254906,181.621094,102.231911z"/>
	<path fill="#FFD600" d="M180.086395,111.438004c0,1.976997-1.602005,3.580605-3.580093,3.580605
		c-1.978012,0-3.580002-1.603607-3.580002-3.580605c0-1.976593,1.60199-3.580093,3.580002-3.580093
		C178.48439,107.85791,180.086395,109.461411,180.086395,111.438004z"/>
	<path fill="none" stroke="#004A7B" stroke-width="1.02292" d="M128.451202,112.059608
		c-0.325699-1.313499-1.556709-6.667999-1.556709-12.838402c0-7.114799,1.534706-9.567902,6.393608-12.0215
		s10.740692-3.925797,20.458496-3.925797s18.667999,5.152397,18.667999,14.7202c0,9.568893,0.735306,12.767601-7.563995,20.732498"
		/>
	<path fill="#FFD600" d="M122.355499,63.512707c0,1.680202-1.362305,3.043003-3.040604,3.043003
		c-1.682602,0-3.044899-1.362801-3.044899-3.043003c0-1.680199,1.362297-3.042999,3.044899-3.042999
		C120.993195,60.469707,122.355499,61.832508,122.355499,63.512707z"/>
	<path fill="#FFD600" d="M122.355499,50.694309c0,1.680199-1.362305,3.0425-3.040604,3.0425
		c-1.682602,0-3.044899-1.362301-3.044899-3.0425c0-1.680099,1.362297-3.0429,3.044899-3.0429
		C120.993195,47.651409,122.355499,49.01421,122.355499,50.694309z"/>
	<path fill="#FFD600" d="M122.355499,56.95171c0,1.680099-1.362305,3.0429-3.040604,3.0429
		c-1.682602,0-3.044899-1.362801-3.044899-3.0429c0-1.680202,1.362297-3.042999,3.044899-3.042999
		C120.993195,53.90871,122.355499,55.271507,122.355499,56.95171z"/>
	<path fill="#FFD600" d="M128.628891,56.95171c0,1.680099-1.362793,3.0429-3.042992,3.0429
		c-1.680099,0-3.042404-1.362801-3.042404-3.0429c0-1.680202,1.362305-3.042999,3.042404-3.042999
		C127.266098,53.90871,128.628891,55.271507,128.628891,56.95171z"/>
	<path fill="#FFD600" d="M77.8228,119.877411c-6.796898-6.747002,19.896904,0.454094,23.986298,2.511299l10.265099-9.487305
		c0.020004-0.100601,1.698303-6.257408,1.706604-13.681198l0,0c-0.008301-3.6875-0.375999-6.432602-1.626503-8.743103l0,0
		c-1.262703-2.313499-3.320297-3.816895-5.8936-5.105499l0,0c-5.170898-2.620094-11.475998-4.1558-21.381798-4.143608l0,0
		c-5.214302,0.004913-10.272896,1.364815-14.1689,4.156815l0,0c-3.898003,2.769997-6.568901,7.163994-6.5411,12.609299l0,0
		c0,1.42289-0.017998,2.716301-0.017998,3.920891l0,0c-0.137703,6.771996,0.909195,11.497108,8.211395,18.284706l0,0l2.833,1.758293
		L77.8228,119.877411z"/>
	<path fill="#FFD600" d="M107.129395,82.540504c0,1.977104,1.6045,3.580101,3.580605,3.580101
		c1.975494,0,3.580002-1.602997,3.580002-3.580101c0-1.976997-1.604507-3.580093-3.580002-3.580093
		C108.733894,78.960411,107.129395,80.563507,107.129395,82.540504z"/>
	<path fill="#FFD600" d="M98.077103,79.216309c0,1.976601,1.6026,3.580101,3.580093,3.580101
		c1.978104,0,3.580605-1.6035,3.580605-3.580101c0-1.976997-1.602501-3.580597-3.580605-3.580597
		C99.679703,75.635712,98.077103,77.239311,98.077103,79.216309z"/>
	<path fill="#FFD600" d="M88.461403,77.425812c0,1.976997,1.603996,3.580498,3.580093,3.580498
		c1.976105,0,3.580101-1.6035,3.580101-3.580498c0-1.976601-1.603996-3.580101-3.580101-3.580101
		C90.065399,73.845711,88.461403,75.449211,88.461403,77.425812z"/>
	<path fill="#FFD600" d="M79.254898,76.658707c0,1.977005,1.6045,3.580605,3.580505,3.580605
		c1.975594,0,3.580093-1.6036,3.580093-3.580605c0-1.976601-1.6045-3.580101-3.580093-3.580101
		C80.859398,73.078606,79.254898,74.682106,79.254898,76.658707z"/>
	<path fill="#FFD600" d="M69.792999,78.704605c0,1.977005,1.6045,3.580101,3.580002,3.580101
		c1.976097,0,3.580597-1.603096,3.580597-3.580101c0-1.977097-1.6045-3.580093-3.580597-3.580093
		C71.397499,75.124512,69.792999,76.727509,69.792999,78.704605z"/>
	<path fill="#FFD600" d="M61.8652,84.075211c0,1.976601,1.6045,3.580101,3.580601,3.580101
		c1.975601,0,3.580101-1.6035,3.580101-3.580101c0-1.977104-1.6045-3.580605-3.580101-3.580605
		C63.4697,80.494606,61.8652,82.098106,61.8652,84.075211z"/>
	<path fill="#FFD600" d="M57.006302,92.769997c0,1.976608,1.6045,3.580109,3.580597,3.580109
		c1.975601,0,3.580101-1.6035,3.580101-3.580109c0-1.976997-1.6045-3.58049-3.580101-3.58049
		C58.610802,89.189507,57.006302,90.792999,57.006302,92.769997z"/>
	<path fill="#FFD600" d="M57.006302,102.231911c0,1.977089,1.6045,3.580086,3.580597,3.580086
		c1.975601,0,3.580101-1.602997,3.580101-3.580086c0-1.977005-1.6045-3.580002-3.580101-3.580002
		C58.610802,98.651909,57.006302,100.254906,57.006302,102.231911z"/>
	<path fill="#FFD600" d="M58.541,111.438004c0,1.976997,1.604,3.580605,3.580101,3.580605
		c1.976097,0,3.580101-1.603607,3.580101-3.580605c0-1.976593-1.604004-3.580093-3.580101-3.580093
		C60.145,107.85791,58.541,109.461411,58.541,111.438004z"/>
	<path fill="none" stroke="#004A7B" stroke-width="1.02292" d="M110.1763,112.059608
		c0.327599-1.313499,1.556595-6.667999,1.556595-12.838402c0-7.114799-1.534698-9.567902-6.393501-12.0215
		c-4.858894-2.453598-10.740791-3.925797-20.458496-3.925797c-9.717796,0-18.667999,5.152397-18.667999,14.7202
		c0,9.568893-0.735397,12.767601,7.565903,20.732498"/>
	<path fill="#FFD600" d="M109.998497,56.95171c0,1.680099,1.362801,3.0429,3.042999,3.0429s3.042503-1.362801,3.042503-3.0429
		c0-1.680202-1.362305-3.042999-3.042503-3.042999S109.998497,55.271507,109.998497,56.95171z"/>
	<path fill="#FFD600" d="M119.314896,78.960411c0,0-5.792-0.255806-5.792-3.068802c0-0.5112,0.001999-1.084999,0.042-1.687004
		H125.0625c0.038094,0.602005,0.042,1.175804,0.042,1.687004C125.1045,78.704605,119.314896,78.960411,119.314896,78.960411z"/>
	<path fill="#FFD600" d="M113.670898,73.18161c0.349602-2.462402,1.540001-5.094704,5.643997-5.894005
		c4.099701,0.799301,5.292,3.431602,5.642105,5.894005H113.670898z"/>
	<path fill="#FFD600" stroke="#004A7B" stroke-width="1.02292" d="M119.2827,149.397903
		c-0.003906,0-1.404305-0.079498-3.947701-0.079498c-7.140701,0-23.1856,0.633301-41.480499,5.348099
		c2.581497,3.546402,7.442398,5.577209,18.442902,6.127396c20.458496,1.02301,27.017494,0.767105,27.017494,0.767105
		s6.557198,0.255905,27.015198-0.767105c11.000504-0.549286,15.859406-2.580994,18.44281-6.127396
		c-18.298813-4.714798-34.345703-5.348099-41.486305-5.348099C120.749001,149.318405,119.346695,149.397903,119.2827,149.397903z"/>
	<path fill="#FFD600" stroke="#004A7B" stroke-width="1.02292" d="M119.2827,148.373993c0.0103,0,1.444397-0.07959,4.003899-0.07959
		c7.242195,0,23.521004,0.644104,42.075691,5.471207c1.740204-2.95311,2.29541-6.825211,3.472214-11.639603
		c2.812988-11.508301,12.786591-23.527397,12.786591-23.527397s-8.950699-2.557106-15.599594,1.278801
		c-8.694809-9.206505-21.737305-10.2295-29.92041-2.557602c-6.648987-7.671898-16.786194-6.648903-16.786194-6.648903
		s-10.139595-1.022995-16.788498,6.648903c-8.183098-7.671898-21.225601-6.648903-29.920395,2.557602
		c-6.649002-3.835907-15.599701-1.278801-15.599701-1.278801s9.973701,12.019096,12.786697,23.527397
		c1.176704,4.815903,1.732399,8.686493,3.474098,11.640594c18.548805-4.826202,34.827599-5.472198,42.067902-5.472198
		C117.900398,148.294403,119.334999,148.373993,119.2827,148.373993z"/>
	<path fill="#004A7B" d="M145.714798,130.04541c0,0,0.399506-10.392105-0.399399-12.589806c0,0,4.798904-1.398499,7.595703,3.597603
		C152.911102,121.053207,147.912598,124.250504,145.714798,130.04541z"/>
	<path fill="#004A7B" d="M168.696793,130.445313c0,0,0.399399-6.595207-0.399902-8.393509c0,0,4.797302,0.400803,5.3965,3.3974
		C173.69339,125.449203,169.49559,128.647003,168.696793,130.445313z"/>
	<path fill="#004A7B" d="M119.314896,129.04541c0-7.793411-4.423302-12.588409-4.423302-12.588409
		c2.097702-2.098091,4.423302-1.399895,4.423302-1.399895s2.321304-0.698196,4.418999,1.399895
		C123.733894,116.457001,119.314896,121.251999,119.314896,129.04541z"/>
	<path fill="#004A7B" d="M92.910599,130.04541c0,0-0.399399-10.392105,0.399498-12.589806c0,0-4.794998-1.398499-7.591797,3.597603
		C85.7183,121.053207,90.712898,124.250504,92.910599,130.04541z"/>
	<path fill="#004A7B" d="M69.930702,130.445313c0,0-0.399399-6.595207,0.399895-8.393509c0,0-4.794998,0.400803-5.3946,3.3974
		C64.935997,125.449203,69.131798,128.647003,69.930702,130.445313z"/>
</g>
</svg>
