<svg class="svgOrigin" xmlns="http://www.w3.org/2000/svg" width="600" height="400" x="0px" y="0px" viewBox="0 0 600 400" enable-background="new 0 0 600 400">
<g>
	<rect fill="#0A51A1" width="600" height="400"/>
	<polygon fill="#FFFF00" points="300,95.560509 325.113281,172.852509 406.382782,172.852509 340.634796,220.621109 
		365.747986,297.912109 300,250.144501 234.251999,297.912109 259.365204,220.621109 193.617188,172.852509 274.886688,172.852509 	
		"/>
	<polygon fill="#FFFF00" points="73.910202,22.63381 79.632797,40.247108 98.152298,40.247108 83.169899,51.132809 
		88.892601,68.74511 73.910202,57.860409 58.9277,68.74511 64.650398,51.132809 49.667999,40.247108 68.1875,40.247108 	"/>
	<polygon fill="#FFFF00" points="73.910202,146.645508 79.632797,164.258804 98.152298,164.258804 83.169899,175.142609 
		88.892601,192.753906 73.910202,181.871109 58.9277,192.753906 64.650398,175.142609 49.667999,164.258804 68.1875,164.258804 	"/>
	<polygon fill="#FFFF00" points="73.910202,208.650406 79.632797,226.263702 98.152298,226.263702 83.169899,237.148407 
		88.892601,254.759796 73.910202,243.876999 58.9277,254.759796 64.650398,237.148407 49.667999,226.263702 68.1875,226.263702 	"/>
	<polygon fill="#FFFF00" points="73.910202,270.656189 79.632797,288.269501 98.152298,288.269501 83.169899,299.156189 
		88.892601,316.765594 73.910202,305.882813 58.9277,316.765594 64.650398,299.156189 49.667999,288.269501 68.1875,288.269501 	"/>
	<polygon fill="#FFFF00" points="73.910202,332.660187 79.632797,350.273407 98.152298,350.273407 83.169899,361.158203 
		88.892601,378.769501 73.910202,367.886688 58.9277,378.769501 64.650398,361.158203 49.667999,350.273407 68.1875,350.273407 	"/>
	<polygon fill="#FFFF00" points="73.910202,84.63961 79.632797,102.252907 98.152298,102.252907 83.169899,113.137711 
		88.892601,130.748993 73.910202,119.866203 58.9277,130.748993 64.650398,113.137711 49.667999,102.252907 68.1875,102.252907 	"/>
</g>
</svg>
