<svg class="svgOrigin" xmlns="http://www.w3.org/2000/svg" width="600" height="400" x="0px" y="0px" viewBox="0 0 600 400" enable-background="new 0 0 600 400">
<g>
	<rect fill="#FFFFFF" width="600" height="400"/>
	<rect fill="#00844A" width="300" height="400"/>
	<path fill="#D60029" d="M326.546906,278.605499c-43.412109,0-78.605515-35.19339-78.605515-78.605499
		s35.193405-78.605492,78.605515-78.605492c31.132782,0,58.035095,18.101601,70.76358,44.353096
		c-13.99411-38.491699-50.898407-65.985893-94.226471-65.985893c-55.359421,0-100.238327,44.878899-100.238327,100.238289
		s44.878906,100.238312,100.238327,100.238312c43.328064,0,80.232361-27.493195,94.226471-65.984406
		C384.582001,260.503906,357.679688,278.605499,326.546906,278.605499z"/>
	<polygon fill="#D60029" points="361.93158,154.963913 361.580078,191.289108 396.019501,202.845703 361.365204,213.739304 
		361.015594,250.0625 339.947296,220.470703 305.292999,231.361298 326.925781,202.18161 305.859406,172.588913 
		340.298798,184.1465 	"/>
</g>
</svg>
