<svg class="svgOrigin" xmlns="http://www.w3.org/2000/svg" width="600" height="400" x="0px" y="0px" viewBox="0 0 600 400" enable-background="new 0 0 600 400">
<g>
	<rect x="0.000488" y="-0.00049" fill="#FFFFFF" width="599.999512" height="400.000488"/>
	<rect x="0.000488" y="266.665985" fill="#D60029" width="599.999512" height="133.334"/>
	<rect x="0.000488" y="133.332993" fill="#005284" width="599.999512" height="133.332993"/>
	<path fill="#FFFFFF" d="M190.947296,320.685486c-5.861908-2.385681-22.843796-9.801697-38.385803-21.375885
		c-16.008789-11.922913-43.643997-38.214905-48.798294-80.342789c-5.100601-41.661102-1.138702-110.458504,1.925804-123.467812
		h-4.175308c-3.416496,14.51371-8.966797,82.382805-3.844292,124.214897
		c5.122597,41.832001,31.161194,69.579102,51.224197,84.518494c20.062897,14.940521,42.053696,23.049805,42.053696,23.049805
		s21.988708-8.109283,42.051697-23.049805c20.0625-14.939392,46.099091-42.686493,51.22171-84.518494
		c5.122589-41.832092-0.427216-109.701187-3.839813-124.214897h-4.175812
		c3.063019,13.009308,7.024933,81.806709,1.924316,123.467812c-5.156708,42.127884-32.787598,68.419876-48.798798,80.342789
		C213.789093,310.883789,196.807098,318.299805,190.947296,320.685486z"/>
	<path fill="#D60029" d="M190.947296,320.685486c-5.861908-2.385681-22.843796-9.801697-38.385803-21.375885
		c-16.008789-11.922913-43.643997-38.214905-48.798294-80.342789c-5.100601-41.661102-1.138702-110.458504,1.925804-123.467812
		h170.516083c3.063019,13.009308,7.024933,81.806709,1.924316,123.467812
		c-5.156708,42.127884-32.787598,68.419876-48.798798,80.342789C213.789093,310.883789,196.807098,318.299805,190.947296,320.685486
		z"/>
	<path fill="#005284" d="M190.947296,320.685486c-5.630402-2.291901-21.519608-9.236298-36.537598-20.037079l0,0
		c-0.615295-0.443298-1.234909-0.880798-1.848206-1.338806c-1.092697-0.8125-2.243591-1.700195-3.432098-2.646484
		c-0.087906-0.070313-0.177704-0.144501-0.265594-0.213928c-1.123108-0.901276-2.285706-1.862274-3.476608-2.880798
		c-0.115692-0.100586-0.231888-0.202179-0.349594-0.301788c-1.204605-1.039093-2.435501-2.137695-3.686005-3.298798
		c-0.087891-0.082092-0.175797-0.162109-0.263702-0.244202c-2.665497-2.487305-5.412598-5.25-8.155289-8.292908
		c-0.090302-0.101593-0.180206-0.204102-0.270004-0.305695c-1.288605-1.440399-2.575195-2.944305-3.854004-4.508789
		c-0.117691-0.146515-0.235794-0.292023-0.355499-0.4375c-1.276794-1.580994-2.541496-3.224609-3.786095-4.93161
		c-0.085899-0.117188-0.171906-0.231506-0.257805-0.349609c-1.314499-1.819397-2.608894-3.707977-3.867699-5.671875
		c0-0.002014-0.003899-0.00592-0.003899-0.007813c4.161598-11.267593,12.484894-20.917999,23.535202-20.917999
		c8.019501,0,14.062897,3.230499,18.12059,8.457001c2.529312-13.589798,14.428711-23.886703,28.753906-23.886703
		c14.322708,0,26.2202,10.296906,28.749496,23.886703c4.059509-5.226501,10.1035-8.457001,18.123001-8.457001
		c11.050293,0,19.373596,9.650406,23.537109,20.917999c-0.003906,0.001892-0.003906,0.005798-0.007813,0.007813
		c-1.254883,1.963898-2.549286,3.852478-3.868103,5.671875c-0.083984,0.118103-0.171906,0.232422-0.25589,0.349609
		c-1.244598,1.707001-2.509308,3.350616-3.788101,4.93161c-0.115707,0.145477-0.235306,0.290985-0.355499,0.4375
		c-1.274399,1.564484-2.561005,3.06839-3.852005,4.508789c-0.089905,0.101593-0.179703,0.204102-0.2715,0.305695
		c-2.741196,3.042908-5.486298,5.805603-8.151398,8.292908c-0.089798,0.082092-0.175705,0.162109-0.265594,0.244202
		c-1.251007,1.161102-2.4814,2.259705-3.686005,3.298798c-0.116196,0.099609-0.233902,0.201202-0.350098,0.301788
		c-1.190399,1.018524-2.351105,1.979523-3.476105,2.880798c-0.087906,0.069427-0.177704,0.143616-0.265594,0.213928
		c-1.190903,0.946289-2.341812,1.833984-3.432602,2.646484c-0.613297,0.458008-1.230499,0.895508-1.850098,1.338806l0,0
		C212.464401,311.449188,196.577103,318.393585,190.947296,320.685486z"/>
	<path fill="#FFFFFF" d="M246.320801,208.871109l-1.362808-16.707001l1.362808-16.707596
		c-18.688507,8.448288-36.413605,9.015686-44.089401,8.773987c-0.124008-9.846695-0.16011-18.499496-0.127899-26.098694
		c6.165497,0.114807,17.633301,1.559601,33.648499,8.799805l-1.364807-16.707504l1.364807-16.707504
		c-15.847198,7.162598-27.247101,8.655304-33.456604,8.797897c0.719193-34.475594,3.108398-38.462395,3.108398-38.462395
		c-5.797791,2.728004-14.456497,3.409607-14.456497,3.409607s-8.663101-0.681602-14.459-3.409607
		c0,0,2.389603,3.986801,3.108902,38.462395c-6.211502-0.142593-17.611404-1.6353-33.454605-8.797897l1.362305,16.707504
		l-1.362305,16.707504c16.015106-7.240204,27.480896-8.684998,33.644501-8.799805c0.033707,7.599197,0,16.251999-0.125992,26.098694
		c-7.673813,0.241699-25.401306-0.325699-44.08931-8.773987l1.364212,16.707596l-1.364212,16.707001
		c18.484406-8.356003,36.020004-9.001511,43.827606-8.780304c-0.19191,9.5401-0.459503,20.016602-0.815399,31.520493
		c3.756302-1.753891,7.941895-2.741196,12.363297-2.741196c4.419403,0,8.606903,0.987305,12.358902,2.741196
		c-0.355499-11.503891-0.621597-21.980392-0.811096-31.520493C210.298798,199.869598,227.836395,200.515106,246.320801,208.871109z"
		/>
</g>
</svg>
