<svg class="svgOrigin" xmlns="http://www.w3.org/2000/svg" width="600" height="400" x="0px" y="0px" viewBox="0 0 600 400" enable-background="new 0 0 600 400">
<g>
	<rect fill="#D60029" width="600" height="400"/>
	<polygon fill="#FFD600" points="556.439514,43.353508 43.560501,43.353508 300,200.000504 	"/>
	<polygon fill="#00844A" points="43.560501,43.353508 43.560501,356.646515 300,200.000504 	"/>
	<path d="M75.753899,192.211411l13.050804,5.769592c3.738297,7.972107,4.634796,14.608795,4.634796,14.608795
		s-6.447296-1.822189-13.8106-6.644485L75.753899,192.211411z"/>
	<polygon fill="#FFD600" points="43.560501,356.646515 556.439514,356.646515 300,200.000504 	"/>
	<polygon fill="#00844A" points="300,200.000504 556.439514,356.646515 556.439514,43.353508 	"/>
	<path fill="#D60029" d="M331.599579,200.000504c0,17.450699-14.148376,31.599106-31.599579,31.599106
		s-31.599609-14.148407-31.599609-31.599106c0-17.451202,14.148407-31.599594,31.599609-31.599594
		S331.599579,182.549301,331.599579,200.000504z"/>
	<polygon fill="#FFD600" points="300,179.160599 304.667999,193.525909 319.769501,193.525909 307.552704,202.402298 
		312.218781,216.76561 300,207.888702 287.781281,216.76561 292.447296,202.402298 280.230499,193.525909 295.332001,193.525909 	
		"/>
	<polygon fill="#FFD600" points="169.761688,5.76561 173.558594,17.45121 185.843796,17.45121 175.906296,24.671909 
		179.703094,36.355511 169.761688,29.134809 159.824203,36.355511 163.619095,24.671909 153.679703,17.45121 165.964798,17.45121 	
		"/>
	<polygon fill="#FFD600" points="300,5.76561 303.796906,17.45121 316.082001,17.45121 306.144501,24.671909 309.941406,36.355511 
		300,29.134809 290.0625,36.355511 293.857391,24.671909 283.917999,17.45121 296.203094,17.45121 	"/>
	<polygon fill="#FFD600" points="430.238281,5.76561 434.035187,17.45121 446.320282,17.45121 436.382782,24.671909 
		440.179688,36.355511 430.238281,29.134809 420.300781,36.355511 424.095703,24.671909 414.156281,17.45121 426.441376,17.45121 	
		"/>
	<polygon fill="#FFD600" points="169.761688,363.355499 173.558594,375.040985 185.843796,375.040985 175.906296,382.261688 
		179.703094,393.945313 169.761688,386.724609 159.824203,393.945313 163.619095,382.261688 153.679703,375.040985 
		165.964798,375.040985 	"/>
	<polygon fill="#FFD600" points="300,363.355499 303.796906,375.040985 316.082001,375.040985 306.144501,382.261688 
		309.941406,393.945313 300,386.724609 290.0625,393.945313 293.857391,382.261688 283.917999,375.040985 296.203094,375.040985 	
		"/>
	<polygon fill="#FFD600" points="430.238281,363.355499 434.035187,375.040985 446.320282,375.040985 436.382782,382.261688 
		440.179688,393.945313 430.238281,386.724609 420.300781,393.945313 424.095703,382.261688 414.156281,375.040985 
		426.441376,375.040985 	"/>
	<path fill="#FFD600" d="M62.294899,176.701706c0,0,26.283203,1.951096,33.361404,24.166c0,0-6.265701-3.699203-16.914101-5.212906
		c0,10.755402,2.779297,17.480011,2.779297,17.480011C60.525398,202.998001,62.294899,176.701706,62.294899,176.701706z"/>
	<path fill="#DE0029" d="M85.226601,196.94191c1.953102,4.590302,3.578102,10.30809,3.578102,10.30809
		s-5.431702-2.416-9.701202-4.994095l-1.8535-8.321793L85.226601,196.94191z"/>
</g>
</svg>
