<svg class="svgOrigin" xmlns="http://www.w3.org/2000/svg" width="600" height="400" x="0px" y="0px" viewBox="0 0 600 400" enable-background="new 0 0 600 400">
<g>
	<rect fill="#FFFFFF" width="600" height="400"/>
	<rect fill="#0094C6" width="600" height="133.332504"/>
	<rect y="266.665985" fill="#0094C6" width="600" height="133.334"/>
	<polygon fill="#0094C6" points="296,180.682098 301.459015,197.484909 319.128906,197.484909 304.834015,207.86911 
		310.292999,224.673798 296,214.289108 281.707001,224.673798 287.165985,207.86911 272.871094,197.484909 290.540985,197.484909 	
		"/>
	<polygon fill="#0094C6" points="242.476593,140.158707 247.935501,156.961411 265.605499,156.961411 251.310501,167.346207 
		256.769501,184.150909 242.476593,173.766113 228.183594,184.150909 233.642593,167.346207 219.347702,156.961411 
		237.017593,156.961411 	"/>
	<polygon fill="#0094C6" points="349.523376,140.158707 344.064484,156.961411 326.394501,156.961411 340.689484,167.346207 
		335.230499,184.150909 349.523376,173.766113 363.816376,184.150909 358.357391,167.346207 372.652283,156.961411 
		354.982391,156.961411 	"/>
	<polygon fill="#0094C6" points="242.476593,217.804703 247.935501,234.607407 265.605499,234.607407 251.310501,244.992203 
		256.769501,261.796906 242.476593,251.412109 228.183594,261.796906 233.642593,244.992203 219.347702,234.607407 
		237.017593,234.607407 	"/>
	<polygon fill="#0094C6" points="349.523376,217.804703 344.064484,234.607407 326.394501,234.607407 340.689484,244.992203 
		335.230499,261.796906 349.523376,251.412109 363.816376,261.796906 358.357391,244.992203 372.652283,234.607407 
		354.982391,234.607407 	"/>
</g>
</svg>
