<svg class="svgOrigin" xmlns="http://www.w3.org/2000/svg" width="600" height="400" x="0px" y="0px" viewBox="0 0 600 400" enable-background="new 0 0 600 400">
<g>
	<rect x="0.000488" y="-0.00049" fill="#FFFFFF" width="599.999512" height="400.000488"/>
	<rect x="0.000488" y="-0.00049" fill="#D60021" width="599.999512" height="132.289597"/>
	<rect x="0.000488" y="267.709015" width="599.999512" height="132.291"/>
	<polygon fill="#007B42" points="103.669395,174.002899 110.674797,195.566406 133.348099,195.566406 115.005394,208.8936 
		122.011696,230.457001 103.669395,217.128906 85.325699,230.457001 92.333,208.8936 73.9897,195.566406 96.662598,195.566406 	"/>
	<polygon fill="#007B42" points="302.379883,174.002899 309.386688,195.566406 332.058594,195.566406 313.71579,208.8936 
		320.722687,230.457001 302.379883,217.128906 284.036102,230.457001 291.043884,208.8936 272.700195,195.566406 
		295.373505,195.566406 	"/>
	<polygon fill="#007B42" points="494.126007,174.002899 501.132782,195.566406 523.804688,195.566406 505.461884,208.8936 
		512.468811,230.457001 494.126007,217.128906 475.783203,230.457001 482.790009,208.8936 464.447296,195.566406 
		487.11908,195.566406 	"/>
	<path fill="#007B42" d="M158.1978,241.99411c-5.528397,0-11.254898-0.814407-11.494705-0.846603l0.058609-2.03421
		c2.222687-0.175797,10.466293-3.538086,38.955093-30.787094l0.257797-0.244202c1.479507-1.416,2.921906-2.107391,4.402405-2.107391
		c3.107895,0,5.940903,2.988297,10.225098,7.513702c0.924301,0.979492,1.922806,2.02829,3.006805,3.140594
		c2.390594,2.4561,3.542496,2.821304,4.018997,2.821304c0.193893,0,0.332489-0.057602,0.480499-0.210007
		c1.43309-1.434494,1.421402-7.851501,1.412598-14.6465l-0.004395-1.952103c0-13.619095,1.029297-17.262695,6.105988-21.652802
		c4.659607-4.022995,29.463806-22.884796,30.517502-23.686096l1.513702,1.3116
		c-2.513702,4.525299-10.791,19.367599-11.671906,20.253906c-0.366699,0.362289-1.395493,0.957001-4.4785,2.693787
		c-4.014587,2.264709-10.081985,5.685104-11.925293,7.532211c-2.407196,2.398499-2.302704,20.833496-2.268494,26.894104
		l0.007797,1.991196c0,4.878891-1.830109,16.577103-6.350098,16.577103c-1.889206,0-5.178711-2.915009-11.718811-9.10051
		c-3.179688-3.006897-7.531189-7.123108-8.610794-7.308594c-1.306595,0.253891-7.316406,6.519501-11.701691,11.094696
		c-4.979904,5.194305-9.686005,10.102509-12.000504,11.367203C165.2314,241.539108,162.372589,241.99411,158.1978,241.99411
		L158.1978,241.99411z"/>
	<polygon fill="#007B42" points="191.979004,240.746109 185.844696,235.787109 192.097198,228.716797 197.688004,233.135712 
		191.979004,240.746109 	"/>
	<polygon fill="#007B42" points="244.232391,183.501007 238.917007,179.122604 243.735794,173.4048 247.832489,177.811996 
		244.232391,183.501007 	"/>
	<polygon fill="#007B42" points="239.768097,238.559601 239.768097,189.691406 248.847198,179.237808 248.847198,229.483398 
		239.768097,238.559601 	"/>
	<path fill="#007B42" d="M406.106384,161.952606c0,0-0.42569,8.308594-5.751892,8.308594s-4.474609-7.455994-4.474609-7.455994
		s0.426697,3.621994,4.900421,3.621994C405.253876,166.4272,406.106384,161.952606,406.106384,161.952606z"/>
	<path fill="#007B42" d="M400.600586,160.461411c-1.917999,0-2.345703-4.047806-0.213898-4.047806
		C402.518585,156.413605,402.518585,160.461411,400.600586,160.461411z"/>
	<path fill="#007B42" d="M437.962891,236.767609v-50.7901l10.890594-11.017502c0,0-2.065399,47.852493-2.253906,50.653305
		C446.412079,228.414993,437.962891,236.767609,437.962891,236.767609L437.962891,236.767609z"/>
	<path fill="#007B42" d="M421.274384,185.606003v36.423294c0,3.730515-2.057587,7.5-6.648376,7.5
		c-4.545929,0-9.416016-5.326187-9.416016-13.253891v-44.596695l-11.841797,8.496094v40.362305
		c0,4.001999-3.839905,10.055695-9.627991,10.055695c-5.901306,0-7.610321-1.972702-7.610321-8.775406v-36.411194
		c0,0-14.402405,11.462006-19.525391,16.944397c-3.708008,3.967804-8.664093,12.182602-7.070313,16.969696
		c0.9375,2.815414,3.174835,4.365204,6.295898,4.365204c5.82132,0,9.670929-2.720703,11.760712-4.794891v11.020493
		c0,3.983398,5.816406,9.542007,15.291992,9.542007c7.666016,0,14.161102-7.186508,16.628906-10.319305
		c1.677795,3.230499,6.265594,10.107407,14.902405,10.107407c11.485291,0,17.747009-11.509811,17.747009-17.423813v-47.227097
		L421.274384,185.606003z M368.612305,209.459c0,0-8.735291,6.816406-8.735291,1.278305s8.735291-9.373001,8.735291-9.373001
		V209.459z"/>
</g>
</svg>
