<svg class="svgOrigin" xmlns="http://www.w3.org/2000/svg" width="600" height="400" x="0px" y="0px" viewBox="0 0 600 400" enable-background="new 0 0 600 400">
<g>
	<rect fill="#D60021" width="600" height="400"/>
	<rect fill="#004A84" width="600" height="133.332993"/>
	<rect y="266.665009" fill="#00844A" width="600" height="133.335007"/>
	<path fill="#FFFFFF" d="M244.806595,200.000504c0-30.483902,24.710495-55.194794,55.193405-55.194794
		c5.558594,0,10.922882,0.830002,15.983398,2.359283c-9.200195-5.48378-19.945801-8.642487-31.433594-8.642487
		c-33.953613,0-61.477509,27.523895-61.477509,61.477997c0,33.950699,27.523895,61.478012,61.477509,61.478012
		c11.487793,0,22.233398-3.160126,31.433594-8.642609c-5.060516,1.526398-10.424805,2.356491-15.983398,2.356491
		C269.51709,255.192398,244.806595,230.482407,244.806595,200.000504z"/>
	<polygon fill="#FFFFFF" points="346.643585,173.554199 352.716797,184.517609 364.763702,181.060104 361.305695,193.1064 
		372.268585,199.180206 361.305695,205.257813 364.763702,217.30571 352.716797,213.848602 346.643585,224.809601 
		340.569305,213.848602 328.522491,217.30571 331.980499,205.257813 321.018585,199.180206 331.980499,193.1064 
		328.522491,181.060104 340.569305,184.517609 	"/>
</g>
</svg>
