<svg class="svgOrigin" xmlns="http://www.w3.org/2000/svg" width="600" height="400" x="0px" y="0px" viewBox="0 0 600 400" enable-background="new 0 0 600 400">
<g>
	<rect x="0.990723" y="0.66061" fill="#D60029" width="599.009277" height="399.339386"/>
	<rect x="0.990723" y="266.886688" fill="#00844A" width="599.009277" height="133.113297"/>
	<rect x="-0.32959" y="-0.65819" width="599.009277" height="133.112793"/>
	<path fill="#D60029" d="M300.495087,51.600109c0,0-4.652283-31.946299-4.652283-38.2827
		c0-6.335999,4.652283-6.5337,4.652283-6.5337s4.652405,0.1977,4.652405,6.5337
		C305.147491,19.653811,300.495087,51.600109,300.495087,51.600109z"/>
	<path fill="#D60029" d="M308.423798,51.934608c0,0-1.94632-32.224197-1.412109-38.538097
		c0.532196-6.31351,5.186493-6.1196,5.186493-6.1196s4.617218,0.5898,4.085022,6.9023
		C315.748993,20.49321,308.423798,51.934608,308.423798,51.934608z"/>
	<path fill="#D60029" d="M316.347687,52.944309c0,0,0.793915-32.2729,1.860321-38.518997
		c1.066376-6.245601,5.687469-5.657701,5.687469-5.657701s4.549805,0.9785,3.485413,7.2241
		C326.311493,22.23731,316.347687,52.944309,316.347687,52.944309z"/>
	<path fill="#D60029" d="M325.0625,54.862309c0,0,3.844696-32.052696,5.497986-38.170399
		c1.653412-6.1157,6.19931-5.0933,6.19931-5.0933s4.435486,1.404799,2.784088,7.521999
		C337.888702,25.236309,325.0625,54.862309,325.0625,54.862309z"/>
	<path fill="#D60029" d="M333.111298,57.43121c0,0,6.706085-31.578701,8.901398-37.523003
		c2.19339-5.943399,6.629883-4.517099,6.629883-4.517099s4.291016,1.79689,2.097626,7.741199
		C348.542999,29.07571,333.111298,57.43121,333.111298,57.43121z"/>
	<path fill="#D60029" d="M341.854492,61.172909c0,0,9.858398-30.740299,12.643494-36.432701
		c2.782318-5.6919,7.050812-3.824699,7.050812-3.824699s4.088898,2.220699,1.306702,7.9126
		C360.06839,34.52,341.854492,61.172909,341.854492,61.172909z"/>
	<path fill="#D60029" d="M349.137695,65.142105c0,0,12.526398-29.752495,15.801788-35.178196
		c3.271393-5.424799,7.361298-3.188999,7.361298-3.188999s3.876007,2.5718,0.603516,7.996601
		C369.627014,40.195808,349.137695,65.142105,349.137695,65.142105z"/>
	<path fill="#D60029" d="M356.419891,70.01371c0,0,15.239288-28.4585,19.00589-33.55571
		c3.761719-5.097191,7.624023-2.491192,7.624023-2.491192s3.621094,2.921402-0.139618,8.018101
		C379.140594,47.082001,356.419891,70.01371,356.419891,70.01371z"/>
	<path fill="#D60029" d="M363.430695,75.731911c0,0,17.899384-26.8647,22.138611-31.576603
		c4.233398-4.711899,7.829071-1.747097,7.829071-1.747097s3.322327,3.254398-0.911072,7.967297
		C388.247101,55.086411,363.430695,75.731911,363.430695,75.731911z"/>
	<path fill="#D60029" d="M369.826202,82.060104c0,0,20.381805-25.032795,25.051697-29.318394
		c4.664093-4.286102,7.959991-0.991711,7.959991-0.991711s2.997101,3.55661-1.666992,7.843708
		C396.501007,63.87841,369.826202,82.060104,369.826202,82.060104z"/>
	<path fill="#D60029" d="M375.094696,88.322311c0,0,22.478485-23.167503,27.502991-27.03231
		c5.019501-3.863693,8.016602-0.296291,8.016602-0.296291s2.676697,3.804195-2.341797,7.668896
		C403.247101,72.526405,375.094696,88.322311,375.094696,88.322311z"/>
	<path fill="#D60029" d="M380.359406,95.907707c0,0,24.640594-20.8545,30.020477-24.208
		c5.373993-3.353996,8.005798,0.490204,8.005798,0.490204s2.292023,4.047897-3.082001,7.402901
		C409.925781,82.945305,380.359406,95.907707,380.359406,95.907707z"/>
	<path fill="#D60029" d="M384.753876,103.767609c0,0,26.522522-18.403297,32.197327-21.227608
		c5.669891-2.825592,7.923798,1.252998,7.923798,1.252998s1.893585,4.248512-3.776398,7.074211
		C415.423798,93.691406,384.753876,103.767609,384.753876,103.767609z"/>
	<path fill="#D60029" d="M388.123993,111.354507c0,0,28.041016-15.994102,33.941406-18.307602
		c5.898499-2.315498,7.78418,1.946304,7.78418,1.946304s1.510803,4.398895-4.385681,6.713295
		C419.561493,104.019997,388.123993,111.354507,388.123993,111.354507z"/>
	<path fill="#D60029" d="M391.142578,120.359406c0,0,29.509705-13.086899,35.612305-14.793999
		c6.103516-1.7099,7.548798,2.7202,7.548798,2.7202s1.060608,4.528397-5.039093,6.237801
		C423.15918,116.230507,391.142578,120.359406,391.142578,120.359406z"/>
	<path fill="#D60029" d="M292.566895,51.934608c0,0,1.946289-32.224197,1.411591-38.538097
		c-0.532196-6.31351-5.186493-6.1196-5.186493-6.1196s-4.617188,0.5898-4.084991,6.9023
		C285.24118,20.49321,292.566895,51.934608,292.566895,51.934608z"/>
	<path fill="#D60029" d="M284.642578,52.944309c0,0-0.793488-32.2729-1.860382-38.518997
		c-1.066406-6.245601-5.6875-5.657701-5.6875-5.657701s-4.549316,0.9785-3.484802,7.2241
		C274.67868,22.23731,284.642578,52.944309,284.642578,52.944309z"/>
	<path fill="#D60029" d="M275.928192,54.862309c0,0-3.845184-32.052696-5.498505-38.170399
		c-1.65329-6.1157-6.1987-5.0933-6.1987-5.0933s-4.436096,1.404799-2.78418,7.521999
		C263.102081,25.236309,275.928192,54.862309,275.928192,54.862309z"/>
	<path fill="#D60029" d="M267.879395,57.43121c0,0-6.706116-31.578701-8.901398-37.523003
		c-2.193817-5.943399-6.629898-4.517099-6.629898-4.517099S248.056595,17.188,250.25,23.132309
		C252.4478,29.07571,267.879395,57.43121,267.879395,57.43121z"/>
	<path fill="#D60029" d="M259.135681,61.172909c0,0-9.858383-30.740299-12.64299-36.432701
		c-2.782303-5.6919-7.050797-3.824699-7.050797-3.824699s-4.088898,2.220699-1.306595,7.9126
		C240.92189,34.52,259.135681,61.172909,259.135681,61.172909z"/>
	<path fill="#D60029" d="M251.852997,65.142105c0,0-12.526306-29.752495-15.801697-35.178196
		c-3.272003-5.424799-7.361404-3.188999-7.361404-3.188999s-3.8759,2.5718-0.604004,7.996601
		C231.363297,40.195808,251.852997,65.142105,251.852997,65.142105z"/>
	<path fill="#D60029" d="M244.570297,70.01371c0,0-15.2388-28.4585-19.005798-33.55571
		c-3.761307-5.097191-7.6241-2.491192-7.6241-2.491192s-3.621109,2.921402,0.140198,8.018101
		C221.850098,47.082001,244.570297,70.01371,244.570297,70.01371z"/>
	<path fill="#D60029" d="M237.560089,75.731911c0,0-17.899887-26.8647-22.139191-31.576603
		c-4.232895-4.711899-7.828598-1.747097-7.828598-1.747097s-3.3228,3.254398,0.910599,7.967297
		C212.743698,55.086411,237.560089,75.731911,237.560089,75.731911z"/>
	<path fill="#D60029" d="M231.164597,82.060104c0,0-20.382401-25.032795-25.052307-29.318394
		c-4.664093-4.286102-7.959488-0.991711-7.959488-0.991711s-2.997009,3.55661,1.666992,7.843708
		C204.4897,63.87841,231.164597,82.060104,231.164597,82.060104z"/>
	<path fill="#D60029" d="M225.895996,88.322311c0,0-22.4785-23.167503-27.503403-27.03231
		c-5.019104-3.863693-8.016098-0.296291-8.016098-0.296291s-2.677307,3.804195,2.341797,7.668896
		C197.743195,72.526405,225.895996,88.322311,225.895996,88.322311z"/>
	<path fill="#D60029" d="M220.631302,95.907707c0,0-24.641113-20.8545-30.020905-24.208
		c-5.373596-3.353996-8.005905,0.490204-8.005905,0.490204s-2.291489,4.047897,3.082504,7.402901
		C191.064896,82.945305,220.631302,95.907707,220.631302,95.907707z"/>
	<path fill="#D60029" d="M216.236298,103.767609c0,0-26.5224-18.403297-32.196701-21.227608
		c-5.670502-2.825592-7.924408,1.252998-7.924408,1.252998s-1.893494,4.248512,3.776901,7.074211
		C185.566391,93.691406,216.236298,103.767609,216.236298,103.767609z"/>
	<path fill="#D60029" d="M212.866699,111.354507c0,0-28.041504-15.994102-33.94191-18.307602
		c-5.898392-2.315498-7.784195,1.946304-7.784195,1.946304s-1.510696,4.398895,4.385803,6.713295
		C181.428696,104.019997,212.866699,111.354507,212.866699,111.354507z"/>
	<path fill="#D60029" d="M209.848099,120.359406c0,0-29.509705-13.086899-35.612701-14.793999
		c-6.103104-1.7099-7.548401,2.7202-7.548401,2.7202s-1.060501,4.528397,5.038605,6.237801
		C177.8311,116.230507,209.848099,120.359406,209.848099,120.359406z"/>
	<path fill="#D60029" d="M208.102997,127.725105c0,0-31.151306-8.471695-37.439896-9.233902
		c-6.294403-0.768097-7.050812,3.830605-7.050812,3.830605s-0.3647,4.635696,5.923813,5.403297
		C175.830597,128.488312,208.102997,127.725105,208.102997,127.725105z"/>
	<path fill="#D60029" d="M392.887695,127.725105c0,0,31.151398-8.471695,37.441406-9.233902
		c6.292999-0.768097,7.050781,3.830605,7.050781,3.830605s0.363312,4.635696-5.923798,5.403297
		C425.162079,128.488312,392.887695,127.725105,392.887695,127.725105z"/>
	<path fill="#D60029" d="M300.495087,64.993706c-38.2099,0-70.196289,26.551704-78.575195,62.205002h157.150391
		C370.691376,91.54541,338.705078,64.993706,300.495087,64.993706z"/>
</g>
</svg>
