<svg class="svgOrigin" xmlns="http://www.w3.org/2000/svg" width="600" height="400" x="0px" y="0px" viewBox="0 0 600 400" enable-background="new 0 0 600 400">
<g>
	<rect x="0.000488" y="-0.00049" fill="#FFFFFF" width="599.999512" height="400.000488"/>
	<path fill="#FFA500" d="M460.811493,64.726608c0,0-22.5224,20.712898-28.318298,27.190903
		c-5.795898,6.478493-14.902405,21.749489-27.277405,26.937996c-10.571289,4.432098-21.479492,7.5-26.254913,8.693802
		c-4.774384,1.193398-5.11618,8.864296,1.363312,16.877892c6.478516,8.013702,9.03421,11.935608,9.206116,15.173904
		c0.171783,3.238708,12.786072,20.458496,10.740173,21.310501c-2.045898,0.8526-20.799774,2.557602-24.549774,1.534698
		c-3.75-1.022995-15.341827-8.695801-20.287109-9.376999c-4.944305-0.681595-15.345703-0.8535-16.538116,8.694901
		c-1.192383,9.547791-2.729492,26.082504-14.662079,36.482895c-11.933594,10.401306-28.641113,18.5849-50.805206,18.754898
		c-22.163605,0.169907-31.539505,0.341705-32.733398,0.341705c-1.193787,0-0.001007,10.400406,0.340805,11.251999
		c0.341797,0.850601,1.364288,3.068405-1.19281,2.726593c-2.55719-0.341797-12.274887-0.510788-13.809601-0.510788
		c-1.534195,0-4.43309-12.617203-10.570801-15.174805c-6.137192-2.556595-20.286591-2.8965-25.231384-5.284195
		c-4.944901-2.387711-19.605515-11.251907-28.130402-28.129807c-8.524902-16.878494-17.219711-56.261795-18.583511-74.844292
		c0,0,14.490707,18.242699,20.9702,20.799797c6.479004,2.557602,13.639709,1.875992,15.002899,0
		c1.363815-1.876007,9.035706-15.515594,14.321304-15.685501c5.285202-0.169495,23.016602,9.717697,26.254898,11.763596
		c3.2388,2.045898,13.127396-0.340302,13.127396-4.943802c0-4.602997-1.193787-32.220695-1.193787-33.073692
		c0-0.853104,1.022888-1.875,4.602997,2.557098c3.580597,4.432091,14.490799,17.217804,27.448303,18.582504
		c12.957489,1.364296,36.316895,0.171898,40.066895-1.533707c3.75-1.705093,23.695282-14.151794,30.173798-17.390594
		c6.479492-3.238304,32.054688-3.920898,39.042999-5.966301C380.324188,100.44191,450.242188,68.988808,460.811493,64.726608z"/>
	<path fill="#217B42" d="M312.217804,302.128906c0,0-2.381897-16.669891,6.878876-20.373993
		C319.09668,281.754913,323.06839,300.80661,312.217804,302.128906z"/>
	<path fill="#217B42" d="M327.439484,296.445313c0,0-2.381897-16.670898,6.878906-20.375
		C334.31839,276.070313,338.290009,295.122101,327.439484,296.445313z"/>
	<path fill="#217B42" d="M339.876007,290.491211c0,0-2.38092-16.669922,6.878876-20.373993
		C346.754883,270.117218,350.726593,289.168915,339.876007,290.491211z"/>
	<path fill="#217B42" d="M352.047882,284.935516c0,0-2.381897-16.670898,6.878906-20.375
		C358.926788,264.560516,362.898376,283.612305,352.047882,284.935516z"/>
	<path fill="#217B42" d="M314.069305,304.245087c0,0,4.099579,9.657227,19.711975,9.657227
		C333.781281,313.902313,326.248993,301.737305,314.069305,304.245087z"/>
	<path fill="#217B42" d="M329.657196,298.501007c0,0,4.099609,9.657196,19.710999,9.657196
		C349.368195,308.158203,341.835876,295.993195,329.657196,298.501007z"/>
	<path fill="#217B42" d="M342.381805,291.939514c0,0,2.447296,8.666901,19.712891,7.805603
		C362.094696,299.745117,353.328094,289.150391,342.381805,291.939514z"/>
	<path fill="#217B42" d="M355.082001,287.442413c0,0,7.144592-6.481506,19.184601,1.058594
		C374.266602,288.501007,362.820282,294.65329,355.082001,287.442413z"/>
	<path fill="#217B42" d="M364.476593,276.330109c0,0,0.926697-14.025391,13.627899-17.86142
		C378.104492,258.468689,375.986298,274.74411,364.476593,276.330109z"/>
	<path fill="#217B42" d="M287.248993,314.206085c-4.10199,0.131805-21.262695,12.133728-21.262695,12.133728l-1.190918-0.662109
		c4.629425-5.026306,18.654327-12.568298,18.654327-12.568298l-9.393127-5.026398
		c-7.409088,11.246094-18.125885,10.186493-18.125885,10.186493c1.188904-8.333008,16.221191-11.972595,16.221191-11.972595
		c-5.951691-6.747101-2.856995-20.044891-2.856995-20.044891c11.114288,8.20108,5.026398,19.785095,5.026398,19.785095
		l12.927704,6.145477l12.927307-6.145477c0,0-6.087402-11.584015,5.026794-19.785095c0,0,3.094788,13.297791-2.857391,20.044891
		c0,0,15.032196,3.639587,16.220703,11.972595c0,0-10.71582,1.059601-18.126526-10.186493l-9.391998,5.026398
		c0,0,14.025299,7.541992,18.654205,12.568298l-1.190399,0.662109
		C308.511688,326.339813,291.350586,314.337891,287.248993,314.206085z"/>
	<path fill="#217B42" d="M262.280304,302.128906c0,0,2.381287-16.669891-6.878906-20.373993
		C255.401398,281.754913,251.429688,300.80661,262.280304,302.128906z"/>
	<path fill="#217B42" d="M247.05809,296.445313c0,0,2.381805-16.670898-6.878403-20.375
		C240.179688,276.070313,236.207489,295.122101,247.05809,296.445313z"/>
	<path fill="#217B42" d="M234.621094,290.491211c0,0,2.381805-16.669922-6.878403-20.373993
		C227.742691,270.117218,223.770493,289.168915,234.621094,290.491211z"/>
	<path fill="#217B42" d="M222.450195,284.935516c0,0,2.381302-16.670898-6.878906-20.375
		C215.571289,264.560516,211.599594,283.612305,222.450195,284.935516z"/>
	<path fill="#217B42" d="M260.428192,304.245087c0,0-4.099609,9.657227-19.711395,9.657227
		C240.716797,313.902313,248.248993,301.737305,260.428192,304.245087z"/>
	<path fill="#217B42" d="M244.840286,298.501007c0,0-4.099594,9.657196-19.710892,9.657196
		C225.129395,308.158203,232.661591,295.993195,244.840286,298.501007z"/>
	<path fill="#217B42" d="M232.115692,291.939514c0,0-2.447205,8.666901-19.712891,7.805603
		C212.402802,299.745117,221.169388,289.150391,232.115692,291.939514z"/>
	<path fill="#217B42" d="M219.415497,287.442413c0,0-7.144501-6.481506-19.184097,1.058594
		C200.2314,288.501007,211.6772,294.65329,219.415497,287.442413z"/>
	<path fill="#217B42" d="M210.020996,276.330109c0,0-0.926804-14.025391-13.627396-17.86142
		C196.3936,258.468689,198.5112,274.74411,210.020996,276.330109z"/>
</g>
</svg>
