<svg class="svgOrigin" xmlns="http://www.w3.org/2000/svg" width="600" height="400" x="0px" y="0px" viewBox="0 0 600 400" enable-background="new 0 0 600 400">
<g>
	<rect x="0.000488" y="-0.00049" fill="#FFFFFF" width="599.999512" height="400.000488"/>
	<polygon fill="#E8112D" points="600,160 340,160 340,-0.00049 260.001495,-0.00049 260.001495,160 0.000488,160 
		0.000488,239.998001 260.000488,239.998001 260.000488,399.998047 340,399.998047 340,239.998001 600,239.998001 	"/>
	<path fill="#E8112D" d="M130.199203,117.743706c-2.996605,0-7.69191,0.063904-13.445808,0.831001
		c2.876999-14.768501,3.356499-28.578102,3.356499-28.578102s-13.809593,0.4795-28.57769,3.356392
		c0.767097-5.753891,0.831093-9.863289,0.831093-13.445786c0-3.582001-0.063995-7.691902-0.831093-13.445801
		c14.768097,2.876999,28.57769,3.356499,28.57769,3.356499s-0.4795-13.809101-3.356499-28.577702
		c5.753899,0.767101,10.523003,0.8311,13.445808,0.8311c2.922897,0,7.691895-0.063999,13.445801-0.8311
		c-2.876907,14.7686-3.356415,28.577702-3.356415,28.577702s13.809509-0.4795,28.57811-3.356499
		c-0.767105,5.753899-0.8311,9.8638-0.8311,13.445801c0,3.582497,0.063995,7.691895,0.8311,13.445786
		c-14.7686-2.876892-28.57811-3.356392-28.57811-3.356392s0.479507,13.809601,3.356415,28.578102
		C137.891098,117.80761,133.196289,117.743706,130.199203,117.743706z"/>
	<path fill="#E8112D" d="M469.801788,117.743706c2.997009,0,7.691406,0.063904,13.445313,0.831001
		c-2.877014-14.768501-3.356506-28.578102-3.356506-28.578102s13.809601,0.4795,28.578186,3.356392
		c-0.766693-5.753891-0.831085-9.863289-0.831085-13.445786c0-3.582001,0.064392-7.691902,0.831085-13.445801
		c-14.768585,2.876999-28.578186,3.356499-28.578186,3.356499s0.479492-13.809101,3.356506-28.577702
		c-5.753906,0.767101-10.522522,0.8311-13.445313,0.8311c-2.922913,0-7.692413-0.063999-13.446289-0.8311
		c2.876892,14.7686,3.356384,28.577702,3.356384,28.577702s-13.809601-0.4795-28.577087-3.356499
		c0.766602,5.753899,0.830994,9.8638,0.830994,13.445801c0,3.582497-0.064392,7.691895-0.830994,13.445786
		c14.767487-2.876892,28.577087-3.356392,28.577087-3.356392s-0.479492,13.809601-3.356384,28.578102
		C462.109375,117.80761,466.804688,117.743706,469.801788,117.743706z"/>
	<path fill="#E8112D" d="M130.199203,282.25589c-2.996605,0-7.69191-0.063477-13.445808-0.831085
		c2.876999,14.768585,3.356499,28.578094,3.356499,28.578094s-13.809593-0.479492-28.57769-3.356384
		c0.767097,5.753876,0.831093,9.863281,0.831093,13.445282s-0.063995,7.692413-0.831093,13.446289
		c14.768097-2.876984,28.57769-3.356476,28.57769-3.356476s-0.4795,13.809601-3.356499,28.577179
		c5.753899-0.766602,10.523003-0.831085,13.445808-0.831085c2.922897,0,7.691895,0.064484,13.445801,0.831085
		c-2.876907-14.767578-3.356415-28.577179-3.356415-28.577179s13.809509,0.479492,28.57811,3.356476
		c-0.767105-5.753876-0.8311-9.864288-0.8311-13.446289s0.063995-7.691406,0.8311-13.445282
		c-14.7686,2.876892-28.57811,3.356384-28.57811,3.356384s0.479507-13.809509,3.356415-28.578094
		C137.891098,282.192413,133.196289,282.25589,130.199203,282.25589z"/>
	<path fill="#E8112D" d="M469.801788,282.25589c2.997009,0,7.691406-0.063477,13.445313-0.831085
		c-2.877014,14.768585-3.356506,28.578094-3.356506,28.578094s13.809601-0.479492,28.578186-3.356384
		c-0.766693,5.753876-0.831085,9.863281-0.831085,13.445282s0.064392,7.692413,0.831085,13.446289
		c-14.768585-2.876984-28.578186-3.356476-28.578186-3.356476s0.479492,13.809601,3.356506,28.577179
		c-5.753906-0.766602-10.522522-0.831085-13.445313-0.831085c-2.922913,0-7.692413,0.064484-13.446289,0.831085
		c2.876892-14.767578,3.356384-28.577179,3.356384-28.577179s-13.809601,0.479492-28.577087,3.356476
		c0.766602-5.753876,0.830994-9.864288,0.830994-13.446289s-0.064392-7.691406-0.830994-13.445282
		c14.767487,2.876892,28.577087,3.356384,28.577087,3.356384s-0.479492-13.809509-3.356384-28.578094
		C462.109375,282.192413,466.804688,282.25589,469.801788,282.25589z"/>
</g>
</svg>
