<svg class="svgOrigin" xmlns="http://www.w3.org/2000/svg" width="600" height="400" x="0px" y="0px" viewBox="0 0 600 400" enable-background="new 0 0 600 400">
<g>
	<rect x="0.000488" y="-0.00049" fill="#028CFF" width="599.999512" height="400.000488"/>
	<path fill="#F5E319" d="M373.940399,159.758301c0,26.329102-21.345703,47.672409-47.673798,47.672409
		c-26.330109,0-47.672394-21.343307-47.672394-47.672409c0-26.32959,21.342285-47.67289,47.672394-47.67289
		C352.594696,112.085411,373.940399,133.428711,373.940399,159.758301z"/>
	<path fill="#F5E319" d="M326.063477,104.414604c-9.550781,0-6.055695-9.4991-3.342773-13.343796
		c1.843781-2.613304,3.342773-7.389198,3.342773-7.389198s1.498016,4.775894,3.341827,7.389198
		C332.118195,94.915504,335.613281,104.414604,326.063477,104.414604z"/>
	<path fill="#F5E319" d="M337.273376,105.519508c-9.352478-1.934097-4.007782-10.527802-0.571289-13.744598
		c2.333099-2.185501,4.768616-6.559105,4.768616-6.559105s0.5,4.980499,1.776398,7.912605
		C345.127014,97.442909,346.625,107.45311,337.273376,105.519508z"/>
	<path fill="#F5E319" d="M347.530304,108.662109c-8.802826-3.70211-1.902405-11.1035,2.091797-13.596703
		c2.710907-1.694298,5.944305-5.516098,5.944305-5.516098s-0.469727,4.983398,0.214874,8.106499
		C356.794891,102.251999,356.333008,112.364304,347.530304,108.662109z"/>
	<path fill="#F5E319" d="M357.196289,113.862808c-7.899384-5.366699,0.325195-11.2603,4.733398-12.916504
		c2.992218-1.125999,6.914093-4.234894,6.914093-4.234894s-1.442383,4.792999-1.38678,7.989799
		C367.542999,109.407204,365.093781,119.228996,357.196289,113.862808z"/>
	<path fill="#F5E319" d="M365.036102,120.261703c-6.791016-6.714798,2.371094-11.012199,7.006897-11.838394
		c3.146484-0.5625,7.569305-2.904701,7.569305-2.904701s-2.291016,4.450096-2.81842,7.603996
		C376.022491,117.76561,371.825195,126.976608,365.036102,120.261703z"/>
	<path fill="#F5E319" d="M371.934601,128.492203c-5.366211-7.899895,4.453094-10.347206,9.160095-10.262199
		c3.197296,0.056107,7.988312-1.388695,7.988312-1.388695s-3.107422,3.923798-4.234406,6.917
		C383.194305,128.164612,377.298798,136.391602,371.934601,128.492203z"/>
	<path fill="#F5E319" d="M377.127014,137.934113c-3.733429-8.789612,6.375885-9.288116,10.976471-8.292999
		c3.125,0.674301,8.103516,0.185593,8.103516,0.185593s-3.805603,3.246506-5.492218,5.965805
		C388.237305,139.792999,380.859406,146.722702,377.127014,137.934113z"/>
	<path fill="#F5E319" d="M380.49408,148.690903c-1.873993-9.364197,8.125-7.804703,12.428802-5.897903
		c2.924805,1.293915,7.899414,1.824203,7.899414,1.824203s-4.387695,2.408203-6.588898,4.729004
		C390.998993,152.762711,382.370087,158.052704,380.49408,148.690903z"/>
	<path fill="#F5E319" d="M381.610382,160.009811c0.080017-9.548904,9.549805-5.978607,13.372009-3.231506
		c2.599609,1.8638,7.360413,3.400406,7.360413,3.400406s-4.787109,1.460495-7.416016,3.281693
		C391.0625,166.1436,381.532196,169.557602,381.610382,160.009811z"/>
	<path fill="#F5E319" d="M380.502014,170.779312c1.937469-9.350113,10.532166-4.00441,13.745087-0.566406
		c2.1875,2.335007,6.557587,4.768097,6.557587,4.768097s-4.979492,0.500397-7.912109,1.775299
		C388.579102,178.6362,378.567383,180.129898,380.502014,170.779312z"/>
	<path fill="#F5E319" d="M377.231384,181.333511c3.757904-8.7798,11.118195-1.833008,13.584991,2.174789
		c1.680725,2.723099,5.478516,5.975601,5.478516,5.975601s-4.978516-0.498489-8.105408,0.167496
		C383.588898,190.637711,373.479492,190.112305,377.231384,181.333511z"/>
	<path fill="#F5E319" d="M372.372101,190.372101c5.314392-7.936096,11.266602,0.250504,12.950195,4.645004
		c1.149384,2.986801,4.282196,6.885193,4.282196,6.885193s-4.801788-1.410095-7.998108-1.331985
		C376.901398,200.688995,367.063477,198.30661,372.372101,190.372101z"/>
	<path fill="#F5E319" d="M365.127899,199.161606c6.827179-6.679199,10.976593,2.553192,11.725586,7.198792
		c0.513702,3.158203,2.781311,7.615204,2.781311,7.615204s-4.40921-2.363297-7.554718-2.940399
		C367.449188,210.1875,358.308594,205.842804,365.127899,199.161606z"/>
	<path fill="#F5E319" d="M356.449188,206.1465c8.025391-5.175797,10.241211,4.699203,10.044891,9.401398
		c-0.129791,3.197205,1.19931,8.017502,1.19931,8.017502s-3.845703-3.198196-6.811584-4.392502
		C356.514587,217.414108,348.429688,211.327103,356.449188,206.1465z"/>
	<path fill="#F5E319" d="M347.75589,210.757797c8.817291-3.672791,9.248993,6.438507,8.223602,11.032196
		c-0.695313,3.124115-0.242188,8.103607-0.242188,8.103607s-3.217804-3.828201-5.922821-5.530289
		C345.826202,221.859406,338.947296,214.4375,347.75589,210.757797z"/>
	<path fill="#F5E319" d="M337.011688,214.045898c9.377899-1.814499,7.757813,8.175812,5.825195,12.466812
		c-1.310486,2.9189-1.873993,7.887695-1.873993,7.887695s-2.377014-4.399399-4.682587-6.613297
		C332.879883,224.531204,327.641602,215.872101,337.011688,214.045898z"/>
	<path fill="#F5E319" d="M326.470703,215.100601c9.549774,0,6.055695,9.5,3.342773,13.345703
		c-1.844696,2.613297-3.342773,7.388702-3.342773,7.388702s-1.499023-4.775406-3.342804-7.388702
		C320.415009,224.600601,316.920898,215.100601,326.470703,215.100601z"/>
	<path fill="#F5E319" d="M315.260681,213.998001c9.351624,1.933609,4.007904,10.526398,0.57132,13.74321
		c-2.334015,2.185593-4.769501,6.559601-4.769501,6.559601s-0.498993-4.981506-1.775421-7.912109
		C307.406281,222.073212,305.908203,212.063507,315.260681,213.998001z"/>
	<path fill="#F5E319" d="M305.002899,210.8535c8.802795,3.704102,1.902405,11.104492-2.091797,13.597702
		c-2.710907,1.694305-5.943298,5.515594-5.943298,5.515594s0.469208-4.98439-0.21579-8.105499
		C295.7388,217.264603,296.200684,207.153305,305.002899,210.8535z"/>
	<path fill="#F5E319" d="M295.337402,205.654312c7.899902,5.367188-0.325714,11.260681-4.73291,12.914993
		c-2.993195,1.126999-6.915009,4.235397-6.915009,4.235397s1.44281-4.792999,1.386719-7.989304
		C284.990204,210.110397,287.439484,200.287598,295.337402,205.654312z"/>
	<path fill="#F5E319" d="M287.497589,199.25441c6.791016,6.716293-2.371582,11.0112-7.006409,11.838394
		c-3.146973,0.5634-7.570282,2.905197-7.570282,2.905197s2.291504-4.451096,2.819305-7.604401
		C276.5112,201.751007,280.709015,192.539612,287.497589,199.25441z"/>
	<path fill="#F5E319" d="M280.599091,191.023911c5.366211,7.899887-4.453583,10.347198-9.160583,10.262192
		c-3.196808-0.055603-7.987305,1.387695-7.987305,1.387695s3.106384-3.922791,4.233398-6.915497
		C269.338898,191.352112,275.234406,183.124512,280.599091,191.023911z"/>
	<path fill="#F5E319" d="M275.721191,182.300308c3.856903,8.736801-6.242706,9.378403-10.858887,8.448196
		c-3.133301-0.629395-8.105499-0.070801-8.105499-0.070801s3.760284-3.300705,5.408691-6.042892
		C264.584991,180.599106,271.864288,173.565399,275.721191,182.300308z"/>
	<path fill="#F5E319" d="M272.176788,171.475601c1.985809,9.341309-8.031799,7.90181-12.356995,6.046906
		c-2.940887-1.258804-7.921906-1.729004-7.921906-1.729004s4.358398-2.461502,6.532318-4.80809
		C261.623993,167.5298,270.188995,162.136703,272.176788,171.475601z"/>
	<path fill="#F5E319" d="M270.924286,160.170898c0.034729,9.548813-9.477997,6.0923-13.332001,3.391098
		c-2.621597-1.832001-7.401398-3.311493-7.401398-3.311493s4.770004-1.51709,7.376495-3.370102
		C261.398895,154.150909,270.887207,150.622604,270.924286,160.170898z"/>
	<path fill="#F5E319" d="M271.938995,149.201202c-1.856995,9.367203-10.498108,4.095703-13.739288,0.684509
		c-2.208008-2.315903-6.598114-4.711411-6.598114-4.711411s4.974609-0.542999,7.896393-1.842789
		C263.794403,141.414612,273.792999,139.835007,271.938995,149.201202z"/>
	<path fill="#F5E319" d="M275.119598,138.620605c-3.683105,8.811508-11.10202,1.927704-13.603516-2.059097
		c-1.704071-2.708008-5.529282-5.927704-5.529282-5.927704s4.982895,0.455597,8.1035-0.237808
		C268.682587,129.371109,278.795898,129.809601,275.119598,138.620605z"/>
	<path fill="#F5E319" d="M280.161102,129.144501c-5.313904,7.935608-11.266113-0.2509-12.950195-4.644997
		c-1.148895-2.986794-4.281219-6.884796-4.281219-6.884796s4.800812,1.409203,7.997498,1.331596
		C275.632294,118.82711,285.469696,121.209999,280.161102,129.144501z"/>
	<path fill="#F5E319" d="M287.405792,120.354507c-6.826691,6.679199-10.976593-2.552299-11.725586-7.198303
		c-0.513702-3.1586-2.781311-7.6157-2.781311-7.6157s4.409698,2.363304,7.554199,2.940903
		C285.084015,109.32811,294.224579,113.673805,287.405792,120.354507z"/>
	<path fill="#F5E319" d="M296.084503,113.37011c-8.025421,5.175301-10.241211-4.699203-10.04541-9.402306
		c0.129791-3.196297-1.198792-8.017097-1.198792-8.017097s3.846191,3.198204,6.811096,4.392998
		C296.018585,102.102104,304.104492,108.189507,296.084503,113.37011z"/>
	<path fill="#F5E319" d="M304.777283,108.758804c-8.816376,3.672401-9.247986-6.438995-8.223083-11.032196
		c0.695282-3.124504,0.241699-8.103607,0.241699-8.103607s3.218689,3.828209,5.923798,5.530304
		C306.707001,97.656708,313.585907,105.078606,304.777283,108.758804z"/>
	<path fill="#F5E319" d="M315.522491,105.470207c-9.378906,1.814499-7.757904-8.175301-5.826202-12.466797
		c1.310516-2.9189,1.873993-7.887703,1.873993-7.887703s2.377899,4.399399,4.682617,6.613289
		C319.65329,94.985405,324.892578,103.644508,315.522491,105.470207z"/>
	<path fill="#F5E319" d="M319.230499,264.522491c-1.670898-0.901398-8.164093,0.719727-10.924805,2.279297
		c-2.760803,1.560516-5.641602,4.563416-4.441406,4.922821c1.201111,0.360382,3.480408,0.240204,4.920898-1.080109
		c1.440399-1.321289,6.722595-3.722595,7.923828-4.202087C317.90918,265.962891,320.790985,265.363312,319.230499,264.522491z"/>
	<path fill="#F5E319" d="M317.790009,272.444305c0.171875-1.55069-2.042023-1.919891-3.961914-1.919891
		s-4.920898,1.921875-4.68161,2.760803c0.240204,0.838776,3.720703,0.958893,5.041016,0.838776
		C315.507782,274.004913,317.669891,273.525391,317.790009,272.444305z"/>
	<path fill="#F5E319" d="M335.915009,276.286102c-1.84082-1.226501-6.960907-2.643494-8.042023-3.482391
		c-1.080994-0.838898-8.164978,1.323303-10.564392,1.802704c-2.399414,0.479492-8.643585,1.55957-11.763702,0.479492
		c-3.121094-1.080994-6.842285-1.079102-6.842285,0.720703s-0.720215,5.041107,0.239777,4.800781
		c0.9599-0.239197,4.803711-1.200195,6.002899-1.080994c1.198303,0.120117,2.638733,1.922791,4.800812,1.922791
		c2.162109,0,3.719696-1.802673,4.68161-1.802673c0.960999,0,6.245178-0.122101,7.44339-1.081116
		c1.199188-0.958984,3.480499-1.198181,4.920898-1.078094c1.440399,0.11911,4.798798,2.15921,6.361298,2.15921
		S337.714783,277.487305,335.915009,276.286102z"/>
	<path fill="#F5E319" d="M355.482391,274.843689c0,0-2.399384-3.242096-6.122009-1.080994
		c-3.72168,2.162109-11.162201,7.444305-12.963898,7.683594c-1.802704,0.240204-8.40329-1.557587-11.044891-1.679688
		c-2.640686-0.122101-10.321289,6.720703-11.882813,7.68161c-1.5625,0.960999-1.441498,3.962006,1.799805,3.962006
		c3.240204,0,5.160095-2.0401,6.241211-2.640717c1.080994-0.601501,0.84079,2.760803,3.841797,2.640717
		c3.000885-0.120209,3.720703-3.72171,4.920898-3.72171c1.201111,0,1.5625,3.601501,3.602509,3.601501
		s2.279297-3.362305,3.480499-3.362305c1.200195,0,1.082001,2.282288,3.482391,2.282288
		c2.399414,0,3.240204-1.922882,4.919891-2.041992c1.680695-0.120087,1.800812,2.401306,4.202209,2.401306
		c2.401306,0,2.640594-3.360291,4.321289-3.360291c1.680603,0,2.399414,2.039978,4.321198,2.039978
		c1.921906,0,3.484406-2.881775,4.683624-3.121094c1.198303-0.240204,1.438477-1.919891,2.399384-1.799805
		c0.960999,0.119202,0.838898,1.200195,1.679718,1.320313c0.841797,0.120209,2.162079-3.123016,3.722687-3.602509
		c1.559601-0.479492,2.15921,1.201202,3.240204,0.960907c1.081085-0.239197,6.003906-1.683594,6.003906-2.762695
		s0-2.998993-0.240204-3.839813c-0.239319-0.841797,0.960907-0.122101,2.641602-0.122101
		c1.679688,0,7.322296-0.719696,8.762695-1.919891c1.440399-1.201202,1.201202-1.921906,1.680695-2.401398
		s1.082001-1.199219-0.479492-1.199219c-1.5625,0-9.722717,1.560608-14.166016,0.479523
		c-4.442383-1.080109-13.804688-3.841797-15.365295-4.080994c-1.560486-0.240326-5.644501,2.880768-6.603485,4.20108
		C355.603485,272.68161,355.482391,274.843689,355.482391,274.843689z"/>
	<path fill="#F5E319" d="M323.809601,262.574188c1.700195-0.714783,8.780182-6.138672,13.041992-6.73439
		c4.261688-0.595688,11.505798,0.938492,16.451111-1.192291c4.944397-2.131897,10.826172-9.975601,14.662079-11.593796
		c3.835999-1.61911,12.191498-2.469711,15.685608-5.455109c3.49411-2.984299,10.738312-13.894501,13.637695-19.351501
		c2.898407-5.4561,7.927704-8.866196,11.507813-8.866196s3.496094,3.240204,2.131805,4.519501
		c-1.364227,1.278305-0.851501,3.580093,1.875977,3.580093c2.726624,0,4.175812,1.108398,0.681702,3.324203
		c-3.495178,2.215805-3.579102,4.177704-1.705078,4.433609c1.873993,0.255798,1.790985,1.788086,0.255798,2.640594
		c-1.534088,0.8535-4.093719,2.985397-4.518524,4.263702c-0.425781,1.279297-0.169891,2.897385-1.959991,3.494095
		c-1.790009,0.597702-4.345703,1.195297-4.517578,3.921906c-0.171814,2.727493-1.194305,2.811493-2.899414,2.897491
		c-1.704102,0.085907-2.386719,1.364197-2.386719,2.898407c0,1.535095-0.597595,2.643494-1.789978,2.045898
		c-1.19342-0.596695-1.961884-0.255905-2.045898,1.279297c-0.083984,1.534195-1.195313,3.835907-3.835999,4.858398
		c-2.641602,1.023407-2.813416,2.299805-4.091797,2.471695c-1.279327,0.171814-4.259705,1.536102-5.199219,1.705994
		c-0.938507,0.169922-1.108398,1.620117,0.681702,2.045929c1.790009,0.425781,2.815399,0.597687,3.666016,0
		c0.851501-0.597626,0.253876-1.53421,1.618103-1.620117c1.365295-0.085907,3.580078,1.362305,4.689484,0.936493
		c1.108398-0.425781-0.425812-2.131805,0.853516-2.301697c1.27829-0.169006,2.128876,0.767517,3.49408,0.511719
		c1.364319-0.25592,0.084015-1.448318,1.192413-1.704117c1.109406-0.25589,2.813507,1.023392,3.410187,0.511703
		c0.597595-0.511703-0.8526-2.813492,0.169891-2.813492c1.023407,0,3.49411,1.704086,5.370117,1.704086
		c1.876984,0,4.261688-1.1064,2.813507-2.726501c-1.448212-1.620193-2.643616-2.303696-3.580109-3.155289
		c-0.9375-0.850601,0.085999-1.362305,1.108398-1.362305c1.023499,0,7.841797-0.938492,8.951202-2.387695
		c1.108398-1.448303,0.253906-2.386703-0.341797-3.068405c-0.595703-0.681595,0.597687-1.532196,1.620087-1.704102
		c1.022522-0.171799,1.960022-1.111298,1.022522-2.217697c-0.936523-1.106506-1.192413-1.8741-0.424805-2.471695
		c0.766602-0.59671,5.114197-3.75,5.625885-4.34671c0.51181-0.597687,0-2.045898-1.279297-1.535187
		c-1.27829,0.511795-4.348602,1.704086-5.030212,1.704086c-0.681671,0-0.425781-1.0224,0.597626-1.704086
		c1.022491-0.680603,6.988281-5.284103,9.461884-7.927719c2.473694-2.642593,7.332092-7.246094,5.541992-8.69429
		c-1.789978-1.448303-7.501892,5.7099-8.525391,4.517502c-1.0224-1.193298,5.712891-5.031204,9.037201-10.741211
		c3.324188-5.710892,5.030212-10.228989,4.858398-11.336884c-0.171906-1.10791-2.215881-0.426712-3.580109,1.534195
		c-1.364288,1.960907-8.269592,10.654297-10.570282,12.104507c-2.301819,1.450195-2.729492,0.513687-1.365295-1.874008
		c1.365295-2.387695,6.393585-11.168503,10.059601-18.925293c3.665985-7.756912,5.795898-15.427811,5.795898-16.792007
		c0-1.364792-1.44632-2.471695-3.152313,0.767105c-1.706085,3.238693-4.689484,10.143997-7.24707,14.832504
		c-2.556732,4.687988-5.286133,7.927185-5.966827,8.694794c-0.681702,0.76709-1.107391-0.001007-0.681702-2.387695
		c0.425812-2.386215,8.950195-23.01561,8.950195-29.749512c0-6.733887-3.665985-8.865692-3.835907-4.262695
		c-0.169891,4.602997-2.896484,13.213394-4.261688,17.304703c-1.364288,4.091797-4.174805,11.933594-4.09079,5.966797
		c0.083008-5.966797,1.0224-13.979004-0.767609-13.638702c-1.7901,0.340912-2.645508,1.875-3.240204,7.245605
		c-0.595703,5.370193-6.907288,26.508804-13.895599,35.375992c-6.989197,8.866211-24.122986,28.641602-41.512604,34.267609
		c-17.389679,5.625992-23.783295,4.433594-28.555695,9.633789C322.702087,261.126007,322.189484,263.25589,323.809601,262.574188z"
		/>
	<path fill="#F5E319" d="M319.545898,258.910217c-2.473602-0.646515-6.649414-3.666107-8.269501-4.602615
		c-1.620117-0.9375-10.226593,1.534195-15.854004,0.255905c-5.627014-1.279297-10.401398-10.653305-14.577698-12.871109
		c-4.176697-2.217789-11.166504-2.472687-14.917511-5.797897c-3.750885-3.324203-10.655685-12.104507-12.956985-16.536102
		c-2.301712-4.431595-8.525406-11.507797-9.462402-12.019501c-0.936996-0.511795-4.517105,1.961914-3.40921,3.751907
		c1.10791,1.7901,4.261307,4.091797,3.40921,5.795898c-0.852005,1.704102-4.772903,0.939499-4.772903,1.876007
		c0,0.9375,7.927704,7.587891,7.160599,8.695282c-0.767105,1.106506-1.023895,4.175812,0.681198,4.175812
		c1.705002,0,3.835907-0.425812,4.602997,1.108398c0.767609,1.534195,1.193802,3.154297,2.216812,3.921906
		c1.022888,0.767502,2.21579,1.873993,1.619095,2.471603c-0.596207,0.596695-2.215302,0.9366-1.107407,2.470688
		c1.107407,1.535202,2.643112,1.792007,3.580093,1.707108c0.937012-0.085999,2.72702,1.364197,1.9599,2.300797
		c-0.766998,0.9375-1.620575,3.069305,0,3.069305c1.620209,0,3.069916-1.367203,3.666107-0.939499
		c0.5961,0.427795,2.643005,1.620193,1.534607,3.155289c-1.108887,1.53421-0.853516,2.214905,0.852112,2.214905
		c1.705078,0,5.370087,3.06929,6.904297,3.835892c1.534576,0.767609,8.865692,3.07132,11.16748,3.241211
		c2.301697,0.169891,5.1987,0.852509,6.051697,1.022491c0.852997,0.169891,1.448303,2.129791,0,2.129791
		c-1.4487,0-5.370575-0.595703-7.756775,0.086029c-2.386719,0.68158-4.688019,1.280273-6.478516,0.341797
		c-1.7901-0.939514-3.580109-2.301819-4.858887-2.643616c-1.27829-0.341797-2.89801,1.023499-4.603119-0.255798
		c-1.704987-1.278412-3.921783-2.642609-4.688904-2.642609c-0.76709,0-3.154785-2.729492-5.114777-3.06929
		c-1.959915-0.338898-6.477005,0.083908-6.563004-2.300797c-0.085907-2.385803,2.727097-1.535202,3.920898-1.535202
		c1.193893,0,1.108887-2.298798-1.363708-2.384705c-2.472198-0.085999-4.091293,0.936508-5.114304,0.680603
		c-1.022888-0.255798-3.409592-2.131805-3.58049-3.068298c-0.170502-0.9375,2.727493,0.257797,2.471603-1.448303
		c-0.255814-1.707001-2.983902-1.449203-2.813004-3.325195c0.170898-1.876007,2.387299-1.280304,1.620193-2.217804
		c-0.76709-0.936508-4.091797,0.341797-6.649002-1.192291c-2.557098-1.53421-4.092682-3.494217-3.1548-3.75
		c0.938004-0.255905,4.858902,0.423798,4.774002-1.450211c-0.084991-1.8741-5.966797-2.7276-7.756897-5.029297
		c-1.789993-2.300797-6.393997-6.988297-5.200195-8.3526c1.19339-1.365204,6.649002,2.8125,7.075195,1.960007
		c0.426804-0.8535-1.449203-2.389709-2.983795-3.497116c-1.534195-1.106384-10.314011-7.416-13.126999-11.251892
		c-2.813004-3.835999-7.585907-11.6763-4.943802-12.785202c2.641998-1.108902,10.143494,9.207001,11.677704,10.911102
		c1.534195,1.704102,9.291992,8.781311,9.888687,7.927811c0.5961-0.8526-6.733887-7.927811-10.740784-14.917999
		c-4.006805-6.9897-7.842712-20.203613-5.625916-20.885208c2.216309-0.681198,4.604004,7.585907,8.098099,13.042389
		c3.494614,5.456116,7.074707,9.462006,8.012711,8.694916c0.937988-0.767105-6.308105-10.824707-7.927704-17.388702
		c-1.619202-6.563995-2.044998-15.685608,0.597595-15.770508c2.642105-0.084991,2.89801,11.934601,5.199203,16.537613
		c2.301804,4.602997,4.006897,8.7798,5.626007,8.012695c1.619598-0.767105,0.767593-8.865707,0.767593-10.400406
		c0-1.534195,1.535202-3.06839,2.472198-0.5112c0.936996,2.557098,1.021896,10.229004,4.772903,17.048798
		c3.750992,6.819794,10.315399,19.093201,15.258804,24.037613c4.943787,4.945297,13.808594,16.197189,36.143097,24.380798
		c22.334412,8.182693,26.596191,7.673889,27.618591,8.610397C325.597687,254.479507,323.126007,259.847717,319.545898,258.910217z"
		/>
	<path fill="#F5E319" d="M79.227997,73.94381c0.797401-1.598602,1.290604-3.1586,1.290604-5.112701
		c0-5.728107-2.8731-8.858398-7.357002-9.504898c3.632805-0.6875,7.357002-3.4575,7.357002-8.992702
		c0-1.953598-0.493202-3.514198-1.290604-5.112297c-0.797295-1.598602-1.823196-3.085003-2.107895-6.5313
		c-0.284698-3.446201,1.848198-9.663002,2.522499-12.257301c0.674301-2.5942-4.191399,4.441391-4.795898,5.044899
		c-0.6045,0.6036-2.273506-0.247509-2.450699,0.923901c-0.176804,1.171799,2.237793,3.339802,2.237793,5.258801
		c0,1.9189-0.730995,3.529301-3.0327,3.529301c-2.301796,0-5.147499,3.2822-4.792999,6.632797
		c0.308601,2.912102,1.692406,4.507301,5.296402,4.507301c2.820801,0,1.737297-3.491199-0.0718-3.0518
		c-2.166,0.526402-2.701202-0.944302-2.701202-2.493599c0-1.549301,1.206604-2.9575,3.795906-2.9575
		c2.589394,0,4.729996,2.908699,4.729996,6.506798c0,3.598103-2.076599,6.4072-6.512199,6.512199
		c-4.434998,0.105003-9.246101-2.5854-9.246101-7.5532c0-5.248096,3.0728-10.634796,4.922905-15.056198
		c2.045898-4.8906-0.255905-9.0464-2.877007-9.301699c-2.620598-0.255901-3.691395,0.56739-4.628395,1.299299
		c-0.937-0.731909-2.007801-1.555201-4.627903-1.299299c-2.621098,0.255299-4.922897,4.411098-2.876999,9.301699
		c1.850101,4.421402,4.922901,9.808102,4.922901,15.056198c0,4.9678-4.8111,7.658203-9.246601,7.5532
		c-4.435101-0.105-6.5117-2.914097-6.5117-6.512199c0-3.598099,2.140598-6.506798,4.73-6.506798
		c2.589302,0,3.795799,1.408199,3.795799,2.9575c0,1.549297-0.535599,3.02-2.701099,2.493599
		c-1.809101-0.4394-2.893101,3.0518-0.0718,3.0518c3.604,0,4.987801-1.5952,5.296402-4.507301
		c0.3545-3.350597-2.491703-6.632797-4.793003-6.632797c-2.301697,0-3.0327-1.610401-3.0327-3.529301
		c0-1.918999,2.414101-4.087002,2.237301-5.258801C46.4604,31.23,44.7915,32.081108,44.187,31.477509
		c-0.6045-0.603508-5.4702-7.639099-4.795898-5.044899c0.674297,2.594299,2.807098,8.8111,2.521999,12.257301
		c-0.284702,3.446297-1.3106,4.932697-2.107403,6.5313c-0.797398,1.598099-1.2911,3.158699-1.2911,5.112297
		c0,5.535202,3.724201,8.305202,7.357502,8.992702c-4.484402,0.6465-7.357502,3.776791-7.357502,9.504898
		c0,1.954102,0.493702,3.514099,1.2911,5.112701c0.796803,1.59819,1.822701,3.084496,2.107403,6.5308
		c0.285099,3.4468-1.847702,9.663101-2.521999,12.257301C38.716801,95.32621,43.5825,88.290504,44.187,87.686996
		c0.6045-0.602997,2.273399,0.248108,2.450199-0.92379s-2.237301-3.339401-2.237301-5.258301
		c0-1.918999,0.731003-3.529297,3.0327-3.529297c2.3013,0,5.147503-3.2827,4.793003-6.633301
		c-0.308601-2.911598-1.692402-4.507309-5.296402-4.507309c-2.821301,0-1.737301,3.491707,0.0718,3.051712
		c2.165501-0.526306,2.701099,0.944397,2.701099,2.493698s-1.206497,2.958-3.795799,2.958c-2.589401,0-4.73-2.909203-4.73-6.507301
		c0-3.598198,2.076599-6.407299,6.5117-6.512299c4.435501-0.1049,7.812,2.585503,7.812,7.553299
		c0,5.248497-8.826698,21.683098-14.313999,38.120598s6.446301,21.090805,6.446301,21.090805s-11.933601,4.65329-6.446301,21.09079
		S55.5,183.046402,55.5,188.294907c0,4.967804-3.376499,7.658203-7.812,7.553192
		c-4.435101-0.104889-6.5117-2.913986-6.5117-6.512192c0-3.598099,2.140598-6.507309,4.73-6.507309
		c2.589302,0,3.795799,1.408707,3.795799,2.958008s-0.535599,3.020004-2.701099,2.493698
		c-1.809101-0.440002-2.893101,3.051697-0.0718,3.051697c3.604,0,4.987801-1.595688,5.296402-4.507294
		c0.3545-3.350601-2.491703-6.633301-4.793003-6.633301c-2.301697,0-3.0327-1.610306-3.0327-3.529297
		c0-1.9189,2.414101-4.086411,2.237301-5.258301c-0.1768-1.171906-1.845699-0.320816-2.450199-0.923813
		c-0.6045-0.603485-5.4702-7.639191-4.795898-5.044891c0.674297,2.594208,2.807098,8.811005,2.521999,12.257294
		c-0.284702,3.446304-1.3106,4.932602-2.107403,6.530701c-0.797398,1.598709-1.2911,3.158707-1.2911,5.112808
		c0,5.759796,2.908302,8.889694,7.434601,9.510803c-4.526299,0.621597-7.434601,3.750992-7.434601,9.510696
		c0,1.954102,0.493702,3.514694,1.2911,5.113297c0.796803,1.597702,1.822701,3.085007,2.107403,6.531296
		c0.285099,3.446213-1.847702,9.661102-2.521999,12.256805c-0.674301,2.594696,4.191399-4.441406,4.795898-5.044907
		s2.273399,0.248001,2.450199-0.922897c0.1768-1.172791-2.237301-3.34079-2.237301-5.258789
		c0-1.919907,0.731003-3.530212,3.0327-3.530212c2.3013,0,5.147503-3.282288,4.793003-6.632889
		c-0.308601-2.911118-1.692402-4.506805-5.296402-4.506805c-2.821301,0-1.737301,3.490204,0.0718,3.050797
		c2.165501-0.525391,2.701099,0.944305,2.701099,2.493103c0,1.549896-1.206497,2.959-3.795799,2.959
		c-2.589401,0-4.73-2.909103-4.73-6.507797c0-3.597595,2.076599-6.407196,6.5117-6.512695
		c4.435501-0.1035,7.812,2.584991,7.812,7.553696c0,5.2491-8.826698,21.683594-14.313999,38.122101
		c-5.487301,16.436493,6.446301,21.089905,6.446301,21.089905s-11.933601,4.65329-6.446301,21.089783
		C46.673302,306.138702,55.5,322.573212,55.5,327.822296c0,4.968689-3.376499,7.657196-7.812,7.553711
		c-4.435101-0.106506-6.5117-2.9151-6.5117-6.513702c0-3.597717,2.140598-6.506805,4.73-6.506805
		c2.589302,0,3.795799,1.408203,3.795799,2.959015c0,1.548798-0.535599,3.018494-2.701099,2.493073
		c-1.809101-0.439392-2.893101,3.050812-0.0718,3.050812c3.604,0,4.987801-1.595703,5.296402-4.506805
		c0.3545-3.350586-2.491703-6.632904-4.793003-6.632904c-2.301697,0-3.0327-1.610291-3.0327-3.530182
		c0-1.917999,2.414101-4.085999,2.237301-5.25882c-0.1768-1.170898-1.845699-0.319275-2.450199-0.922882
		c-0.6045-0.603516-5.4702-7.640594-4.795898-5.044891c0.674297,2.595673,2.807098,8.810577,2.521999,12.256775
		c-0.284702,3.44632-1.3106,4.932709-2.107403,6.531311c-0.797398,1.598602-1.2911,3.15921-1.2911,5.112305
		c0,5.730499,2.8741,8.861298,7.360401,9.506805c-3.6343,0.684601-7.360401,3.454102-7.360401,8.990295
		c0,1.954102,0.493702,3.516602,1.2911,5.114197c0.796803,1.598694,1.822701,3.084991,2.107403,6.529297
		c0.285099,3.448303-1.847702,9.664093-2.521999,12.258789c-0.674301,2.593811,4.191399-4.443298,4.795898-5.045898
		c0.6045-0.603485,2.273399,0.247101,2.450199-0.923798s-2.237301-3.339905-2.237301-5.257782
		c0-1.917999,0.731003-3.52832,3.0327-3.52832c2.3013,0,5.147503-3.285187,4.793003-6.632904
		c-0.308601-2.912994-1.692402-4.507782-5.296402-4.507782c-2.821301,0-1.737301,3.490295,0.0718,3.050781
		c2.165501-0.525391,2.701099,0.945313,2.701099,2.493225c0,1.548798-1.206497,2.958984-3.795799,2.958984
		c-2.589401,0-4.73-2.90918-4.73-6.508789c0-3.59671,2.076599-6.405304,6.5117-6.511719
		c4.435501-0.105499,9.246601,2.585907,9.246601,7.554626c0,5.246094-3.0728,10.632874-4.922901,15.055695
		c-2.045898,4.890594,0.255901,9.046906,2.876999,9.302704c2.620102,0.25589,3.690903-0.567322,4.627903-1.30072
		c0.937,0.733398,2.007797,1.55661,4.628395,1.30072c2.621101-0.255798,4.922905-4.412109,2.877007-9.302704
		c-1.850105-4.422821-4.922905-9.809601-4.922905-15.055695c0-4.968719,4.811104-7.660126,9.246101-7.554626
		c4.4356,0.106415,6.512199,2.915009,6.512199,6.511719c0,3.599609-2.140602,6.508789-4.729996,6.508789
		c-2.589302,0-3.795906-1.410187-3.795906-2.958984c0-1.547913,0.535202-3.018616,2.701202-2.493225
		c1.809097,0.439514,2.892601-3.050781,0.0718-3.050781c-3.603996,0-4.987801,1.594788-5.296402,4.507782
		c-0.3545,3.347717,2.491203,6.632904,4.792999,6.632904c2.301704,0,3.0327,1.610321,3.0327,3.52832
		c0,1.917877-2.414597,4.086884-2.237793,5.257782c0.177193,1.170898,1.846199,0.320313,2.450699,0.923798
		c0.6045,0.6026,5.4702,7.639709,4.795898,5.045898c-0.674301-2.594696-2.807198-8.810486-2.522499-12.258789
		c0.284698-3.444305,1.3106-4.930603,2.107895-6.529297c0.797401-1.597595,1.290604-3.160095,1.290604-5.114197
		c0-5.536194-3.726097-8.305695-7.360397-8.990295c4.486298-0.645508,7.360397-3.776306,7.360397-9.506805
		c0-1.953094-0.493202-3.513702-1.290604-5.112305c-0.797295-1.598602-1.823196-3.084991-2.107895-6.531311
		c-0.284698-3.446198,1.848198-9.661102,2.522499-12.256775c0.674301-2.595703-4.191399,4.441376-4.795898,5.044891
		c-0.6045,0.603607-2.273506-0.248016-2.450699,0.922882c-0.176804,1.172821,2.237793,3.34082,2.237793,5.25882
		c0,1.919891-0.730995,3.530182-3.0327,3.530182c-2.301796,0-5.147499,3.282318-4.792999,6.632904
		c0.308601,2.911102,1.692406,4.506805,5.296402,4.506805c2.820801,0,1.737297-3.490204-0.0718-3.050812
		c-2.166,0.525421-2.701202-0.944275-2.701202-2.493073c0-1.550812,1.206604-2.959015,3.795906-2.959015
		c2.589394,0,4.729996,2.909088,4.729996,6.506805c0,3.598602-2.076599,6.407196-6.512199,6.513702
		c-4.434998,0.103485-7.811501-2.585022-7.811501-7.553711c0-5.249084,8.826698-21.683594,14.314003-38.122101
		c5.486801-16.436493-6.446304-21.089783-6.446304-21.089783s11.933105-4.653412,6.446304-21.089905
		c-5.487305-16.438507-14.314003-32.873001-14.314003-38.122101c0-4.968704,3.376503-7.657196,7.811501-7.553696
		c4.4356,0.105499,6.512199,2.9151,6.512199,6.512695c0,3.598694-2.140602,6.507797-4.729996,6.507797
		c-2.589302,0-3.795906-1.409103-3.795906-2.959c0-1.548798,0.535202-3.018494,2.701202-2.493103
		c1.809097,0.439407,2.892601-3.050797,0.0718-3.050797c-3.603996,0-4.987801,1.595688-5.296402,4.506805
		c-0.3545,3.350601,2.491203,6.632889,4.792999,6.632889c2.301704,0,3.0327,1.610306,3.0327,3.530212
		c0,1.917999-2.414597,4.085999-2.237793,5.258789c0.177193,1.170898,1.846199,0.319397,2.450699,0.922897
		s5.4702,7.639603,4.795898,5.044907c-0.674301-2.595703-2.807198-8.810593-2.522499-12.256805
		c0.284698-3.446289,1.3106-4.933594,2.107895-6.531296c0.797401-1.598602,1.290604-3.159195,1.290604-5.113297
		c0-5.759705-2.907799-8.889099-7.434097-9.510696c4.526299-0.621109,7.434097-3.751007,7.434097-9.510803
		c0-1.954102-0.493202-3.514099-1.290604-5.112808c-0.797295-1.598099-1.823196-3.084396-2.107895-6.530701
		c-0.284698-3.446289,1.848198-9.663086,2.522499-12.257294c0.674301-2.594299-4.191399,4.441406-4.795898,5.044891
		c-0.6045,0.602997-2.273506-0.248093-2.450699,0.923813c-0.176804,1.17189,2.237793,3.339401,2.237793,5.258301
		c0,1.918991-0.730995,3.529297-3.0327,3.529297c-2.301796,0-5.147499,3.2827-4.792999,6.633301
		c0.308601,2.911606,1.692406,4.507294,5.296402,4.507294c2.820801,0,1.737297-3.491699-0.0718-3.051697
		c-2.166,0.526306-2.701202-0.944397-2.701202-2.493698s1.206604-2.958008,3.795906-2.958008
		c2.589394,0,4.729996,2.90921,4.729996,6.507309c0,3.598206-2.076599,6.407303-6.512199,6.512192
		c-4.434998,0.105011-7.811501-2.585388-7.811501-7.553192c0-5.248505,8.826698-21.683105,14.314003-38.120605
		c5.486801-16.4375-6.446304-21.09079-6.446304-21.09079s11.933105-4.653305,6.446304-21.090805
		c-5.487305-16.4375-14.314003-32.872101-14.314003-38.120598c0-4.967796,3.376503-7.658199,7.811501-7.553299
		c4.4356,0.105,6.512199,2.914101,6.512199,6.512299c0,3.598099-2.140602,6.507301-4.729996,6.507301
		c-2.589302,0-3.795906-1.408699-3.795906-2.958s0.535202-3.020004,2.701202-2.493698
		c1.809097,0.439995,2.892601-3.051712,0.0718-3.051712c-3.603996,0-4.987801,1.595711-5.296402,4.507309
		c-0.3545,3.350601,2.491203,6.633301,4.792999,6.633301c2.301704,0,3.0327,1.610298,3.0327,3.529297
		c0,1.9189-2.414597,4.086403-2.237793,5.258301c0.177193,1.171898,1.846199,0.320793,2.450699,0.92379
		c0.6045,0.603508,5.4702,7.639214,4.795898,5.044914c-0.674301-2.5942-2.807198-8.810501-2.522499-12.257301
		C77.4048,77.028305,78.430702,75.542,79.227997,73.94381z M54.729,34.779808
		c-0.639599-1.757809-0.767601-2.716808-0.703602-4.091299c0.064003-1.37451,1.150902-2.429699,2.109901-2.6856
		c0.9589-0.255299,2.077599-0.0317,3.381302,1.278801c1.303699-1.310501,2.422398-1.5341,3.381798-1.278801
		c0.959,0.255901,2.045403,1.31109,2.109398,2.6856c0.064003,1.374491-0.063995,2.33349-0.703094,4.091299
		c-0.639202,1.758301-2.205605,5.1147-3.324703,7.480499c-0.637199,1.3461-1.1436,2.193302-1.463398,3.2421
		c-0.319302-1.048798-0.826202-1.896-1.463402-3.2421C56.934601,39.894508,55.368198,36.538109,54.729,34.779808z
		 M64.304703,362.915009c0.639099,1.757904,0.767097,2.716797,0.703094,4.091797
		c-0.063995,1.374084-1.150398,2.42868-2.109398,2.684601c-0.9594,0.25589-2.078098,0.032196-3.381798-1.27832
		c-1.303703,1.310516-2.422401,1.53421-3.381302,1.27832c-0.959-0.25592-2.045898-1.310516-2.109901-2.684601
		c-0.063999-1.375,0.064003-2.333893,0.703602-4.091797c0.639198-1.75882,2.205601-5.115204,3.3242-7.480408
		c0.637199-1.34671,1.1441-2.19339,1.463402-3.244202c0.319798,1.050812,0.826199,1.897491,1.463398,3.244202
		C62.099098,357.799805,63.665501,361.156189,64.304703,362.915009z M69.715797,338.371094
		c-3.691895,0.732391-8.800297,3.729492-10.199196,8.325195c-1.398403-4.595703-6.506802-7.592804-10.1992-8.325195
		c4.792-0.643585,8.741699-4.057587,10.1992-8.844696C60.974098,334.313507,64.923798,337.727509,69.715797,338.371094z
		 M73.866699,285.336914c-2.564499,9.305695-14.350098,37.989288-14.350098,37.989288S47.730999,294.642609,45.167,285.336914
		c-2.564499-9.310516,4.463402-12.918915,6.3633-12.918915s5.6987,2.945313,5.6987,5.415009
		c0,2.468781-1.846699,3.660187-3.650902,3.660187c-1.804199,0-2.8452-0.713898-2.8452-1.663086
		c0-1.475616-0.902798-0.940491-1.662098,0.57608c-0.7603,1.517609-0.599602,2.950226,0.159698,3.995209
		C49.9897,285.446289,50.77,285.456116,50.77,284.196289c0-1.113281,0.449699-1.384796,1.209499-0.625977
		c0.760201,0.759796,4.5854,0.435577,5.2495-1.083008c0,0,0,10.920898,0,12.915009c0,1.995178-1.893101,2.648499-3.619099,1.945404
		c0,0-0.191902,2.173798,1.950199,2.173798c1.3745,0,2.619099-0.794922,2.619099-0.794922s0,8.8349,0,10.162994
		c0,1.329102,1.337402,2.667023,1.337402,2.667023s1.337898-1.337921,1.337898-2.667023c0-1.328094,0-10.162994,0-10.162994
		s1.244598,0.794922,2.619099,0.794922c2.141598,0,1.949703-2.173798,1.949703-2.173798
		c-1.726002,0.703094-3.619102,0.049774-3.619102-1.945404c0-1.99411,0-12.915009,0-12.915009
		c0.6646,1.518585,4.489304,1.842804,5.249504,1.083008c0.7603-0.75882,1.209999-0.487305,1.209999,0.625977
		c0,1.259827,0.780197,1.25,1.538994,0.205109c0.7593-1.044983,0.920403-2.4776,0.160202-3.995209
		c-0.7593-1.516571-1.662598-2.051697-1.662598-0.57608c0,0.949188-1.040497,1.663086-2.844704,1.663086
		c-1.804195,0-3.651398-1.191406-3.651398-3.660187c0-2.469696,3.799301-5.415009,5.699203-5.415009
		C69.403297,272.417999,76.431198,276.026398,73.866699,285.336914z M52.991699,268.610413
		c3.9189,0,6.524902-7.872101,6.524902-7.872101s2.6064,7.872101,6.525398,7.872101
		c-3.713398,0-6.525398,6.980377-6.525398,6.980377S56.704601,268.610413,52.991699,268.610413z M73.866699,251.883804
		c2.564499,9.310501-4.463402,12.9189-6.363297,12.9189c-1.899902,0-5.699203-2.945313-5.699203-5.415009
		c0-2.468781,1.847202-3.660187,3.651398-3.660187c1.804207,0,2.844704,0.713898,2.844704,1.663086
		c0,1.475616,0.903297,0.940521,1.662598-0.57608c0.760201-1.518616,0.599098-2.950211-0.160202-3.995209
		c-0.758797-1.044907-1.538994-1.055603-1.538994,0.205093c0,1.113312-0.449699,1.384811-1.209999,0.626007
		c-0.760201-0.759796-4.584904-0.435608-5.249504,1.082993c0,0,0-10.920898,0-12.914993
		c0-1.996094,1.893101-2.649506,3.619102-1.945404c0,0,0.191895-2.173798-1.949703-2.173798
		c-1.3745,0-2.619099,0.794907-2.619099,0.794907s0-8.8349,0-10.16301c0-1.329102-1.337898-2.666992-1.337898-2.666992
		s-1.337402,1.337891-1.337402,2.666992c0,1.32811,0,10.16301,0,10.16301s-1.244598-0.794907-2.619099-0.794907
		c-2.142101,0-1.950199,2.173798-1.950199,2.173798c1.725998-0.704102,3.619099-0.05069,3.619099,1.945404
		c0,1.994095,0,12.914993,0,12.914993c-0.664101-1.5186-4.4893-1.842789-5.2495-1.082993
		C51.2197,254.40921,50.77,254.137711,50.77,253.024399c0-1.260696-0.7803-1.25-1.539501-0.205093
		c-0.7593,1.044998-0.919998,2.476593-0.159698,3.995209c0.7593,1.516602,1.662098,2.051697,1.662098,0.57608
		c0-0.949188,1.041-1.663086,2.8452-1.663086c1.804203,0,3.650902,1.191406,3.650902,3.660187
		c0,2.469696-3.798801,5.415009-5.6987,5.415009s-8.927799-3.608398-6.3633-12.9189
		c2.563999-9.305695,14.349602-37.990204,14.349602-37.990204S71.3022,242.57811,73.866699,251.883804z M69.762199,198.84671
		c-4.811996,0.627396-8.784199,4.044891-10.245598,8.847595c-1.461403-4.802704-5.433102-8.2202-10.245102-8.847595
		c4.812-0.626999,8.783699-4.04451,10.245102-8.847717C60.978001,194.8022,64.950203,198.219711,69.762199,198.84671z
		 M73.866699,145.809113c-2.564499,9.30809-14.350098,37.990692-14.350098,37.990692S47.730999,155.117203,45.167,145.809113
		c-2.564499-9.308609,4.463402-12.917511,6.3633-12.917511s5.6987,2.944809,5.6987,5.414108
		c0,2.469696-1.846699,3.660095-3.650902,3.660095c-1.804199,0-2.8452-0.713394-2.8452-1.662094
		c0-1.476608-0.902798-0.940903-1.662098,0.575195c-0.7603,1.519501-0.599602,2.951202,0.159698,3.996094
		C49.9897,145.919907,50.77,145.929703,50.77,144.6689c0-1.111786,0.449699-1.385193,1.209499-0.625
		c0.760201,0.759811,4.5854,0.4366,5.2495-1.083893c0,0,0,10.921295,0,12.916504c0,1.994598-1.893101,2.647888-3.619099,1.944794
		c0,0-0.191902,2.173798,1.950199,2.173798c1.3745,0,2.619099-0.794403,2.619099-0.794403s0,8.833511,0,10.162109
		s1.337402,2.666504,1.337402,2.666504s1.337898-1.337906,1.337898-2.666504s0-10.162109,0-10.162109
		s1.244598,0.794403,2.619099,0.794403c2.141598,0,1.949703-2.173798,1.949703-2.173798
		c-1.726002,0.703094-3.619102,0.049805-3.619102-1.944794c0-1.995209,0-12.916504,0-12.916504
		c0.6646,1.520493,4.489304,1.843704,5.249504,1.083893c0.7603-0.760193,1.209999-0.486786,1.209999,0.625
		c0,1.260803,0.780197,1.251007,1.538994,0.2061c0.7593-1.044891,0.920403-2.476593,0.160202-3.996094
		c-0.7593-1.516098-1.662598-2.051804-1.662598-0.575195c0,0.9487-1.040497,1.662094-2.844704,1.662094
		c-1.804195,0-3.651398-1.190399-3.651398-3.660095c0-2.469299,3.799301-5.414108,5.699203-5.414108
		C69.403297,132.891602,76.431198,136.500504,73.866699,145.809113z M52.991699,129.083511
		c3.9189,0,6.524902-7.871605,6.524902-7.871605s2.6064,7.871605,6.525398,7.871605
		c-3.713398,0-6.525398,6.980484-6.525398,6.980484S56.704601,129.083511,52.991699,129.083511z M73.866699,112.35791
		c2.564499,9.308594-4.463402,12.917496-6.363297,12.917496c-1.899902,0-5.699203-2.944801-5.699203-5.414101
		c0-2.469696,1.847202-3.660095,3.651398-3.660095c1.804207,0,2.844704,0.713394,2.844704,1.662094
		c0,1.476501,0.903297,0.940903,1.662598-0.575195c0.760201-1.519501,0.599098-2.951202-0.160202-3.996109
		c-0.758797-1.044891-1.538994-1.054695-1.538994,0.206001c0,1.111908-0.449699,1.385307-1.209999,0.625
		c-0.760201-0.759697-4.584904-0.436493-5.249504,1.084c0,0,0-10.921394,0-12.916c0-1.995094,1.893101-2.648392,3.619102-1.94529
		c0,0,0.191895-2.173805-1.949703-2.173805c-1.3745,0-2.619099,0.794403-2.619099,0.794403s0-8.833504,0-10.162102
		s-1.337898-2.666496-1.337898-2.666496s-1.337402,1.337898-1.337402,2.666496s0,10.162102,0,10.162102
		s-1.244598-0.794403-2.619099-0.794403c-2.142101,0-1.950199,2.173805-1.950199,2.173805
		c1.725998-0.703102,3.619099-0.049805,3.619099,1.94529c0,1.994606,0,12.916,0,12.916
		c-0.664101-1.520493-4.4893-1.843697-5.2495-1.084c-0.7598,0.760307-1.209499,0.486908-1.209499-0.625
		c0-1.260696-0.7803-1.250893-1.539501-0.206001c-0.7593,1.044907-0.919998,2.476608-0.159698,3.996109
		c0.7593,1.516098,1.662098,2.051697,1.662098,0.575195c0-0.9487,1.041-1.662094,2.8452-1.662094
		c1.804203,0,3.650902,1.190399,3.650902,3.660095c0,2.469299-3.798801,5.414101-5.6987,5.414101
		s-8.927799-3.608902-6.3633-12.917496c2.563999-9.308105,14.349602-37.9907,14.349602-37.9907
		S71.3022,103.049805,73.866699,112.35791z M59.516602,68.167999c-1.4575-4.78709-5.4053-8.199692-10.196301-8.843792
		c3.692398-0.735298,8.797897-3.732399,10.196301-8.327099c1.398899,4.5947,6.504402,7.591801,10.196297,8.327099
		C64.921898,59.968307,60.974098,63.380909,59.516602,68.167999z"/>
</g>
</svg>
