<svg class="svgOrigin" xmlns="http://www.w3.org/2000/svg" width="600" height="400" x="0px" y="0px" viewBox="0 0 600 400" enable-background="new 0 0 600 400">
<g>
	<rect fill="#FFFFFF" width="600" height="400"/>
	<rect y="232" fill="#D60021" width="600" height="34"/>
	<rect y="298" fill="#004A7B" width="600" height="102"/>
	<rect fill="#004A7B" width="600" height="200"/>
	<polygon fill="#FFAD00" points="185.248001,136.524414 189.35939,149.175812 202.660202,149.175812 191.898392,156.99411 
		196.009796,169.644501 185.248001,161.826202 174.486298,169.644501 178.597702,156.99411 167.835892,149.175812 
		181.136688,149.175812 	"/>
	<polygon fill="#FFAD00" points="185.248001,328.742188 189.35939,341.394501 202.660202,341.394501 191.898392,349.212891 
		196.009796,361.863312 185.248001,354.044891 174.486298,361.863312 178.597702,349.212891 167.835892,341.394501 
		181.136688,341.394501 	"/>
	<polygon fill="#FFAD00" points="247.75589,155.963913 251.867188,168.615204 265.167999,168.615204 254.406296,176.433609 
		258.517609,189.084 247.75589,181.26561 236.994095,189.084 241.105499,176.433609 230.343796,168.615204 243.644501,168.615204 	
		"/>
	<polygon fill="#FFAD00" points="247.75589,302.207001 251.867188,314.859406 265.167999,314.859406 254.406296,322.677704 
		258.517609,335.328094 247.75589,327.509796 236.994095,335.328094 241.105499,322.677704 230.343796,314.859406 
		243.644501,314.859406 	"/>
	<polygon fill="#FFAD00" points="274.882782,200.781204 278.992188,213.43161 292.292999,213.43161 281.533203,221.25 
		285.644501,233.900406 274.882782,226.082001 264.121094,233.900406 268.230499,221.25 257.468781,213.43161 270.771484,213.43161 
			"/>
	<polygon fill="#FFAD00" points="274.882782,267.417999 278.992188,280.06839 292.292999,280.06839 281.533203,287.886688 
		285.644501,300.537109 274.882782,292.718689 264.121094,300.537109 268.230499,287.886688 257.468781,280.06839 
		270.771484,280.06839 	"/>
	<polygon fill="#FFAD00" points="122.740196,155.963913 118.628899,168.615204 105.328094,168.615204 116.089798,176.433609 
		111.9785,189.084 122.740196,181.26561 133.501999,189.084 129.390594,176.433609 140.152298,168.615204 126.851593,168.615204 	
		"/>
	<polygon fill="#FFAD00" points="122.740196,302.207001 118.628899,314.859406 105.328094,314.859406 116.089798,322.677704 
		111.9785,335.328094 122.740196,327.509796 133.501999,335.328094 129.390594,322.677704 140.152298,314.859406 
		126.851593,314.859406 	"/>
	<polygon fill="#FFAD00" points="95.613297,200.781204 91.503899,213.43161 78.203102,213.43161 88.962898,221.25 
		84.851601,233.900406 95.613297,226.082001 106.375,233.900406 102.265594,221.25 113.027298,213.43161 99.724602,213.43161 	"/>
	<polygon fill="#FFAD00" points="95.613297,267.417999 91.503899,280.06839 78.203102,280.06839 88.962898,287.886688 
		84.851601,300.537109 95.613297,292.718689 106.375,300.537109 102.265594,287.886688 113.027298,280.06839 99.724602,280.06839 	
		"/>
</g>
</svg>
