<svg class="svgOrigin" xmlns="http://www.w3.org/2000/svg" width="600" height="400" x="0px" y="0px" viewBox="0 0 600 400" enable-background="new 0 0 600 400">
<g>
	<rect x="0.000488" y="-0.00049" fill="#D60021" width="599.999512" height="400.000488"/>
	<path d="M298.361786,340.316406c-3.196777,0-11.379883-7.927704-11.379883-13.297821
		c0-5.370178,4.475098-10.229492,7.032684-15.087891c2.55719-4.859406,0.895111-12.786194,0.895111-12.786194
		c-13.298401,23.654297-23.783203,15.598694-23.783203,15.598694c15.983398-7.798889,13.042389-22.376007,13.042389-22.376007
		s-8.183502,9.078125-12.402802,9.078125c-4.219696,0-7.032684-3.068298-7.032684-3.068298
		c13.809601-5.242218,11.891602-19.307709,11.891602-19.307709s-5.242706,13.9375-13.17041,13.9375
		s-11.635803-4.731415-11.635803-4.731415C275.602081,283.672913,269.464386,259.25,269.464386,259.25
		s-2.812988,3.963898-8.311096,12.147491c-5.498489,8.183624-16.622498,6.137726-16.622498,6.137726l-15.471695,18.02829
		c2.940903,4.347595,1.406204,19.052704,1.406204,19.052704S229.826187,303.875,221.259293,303.875
		s-2.813004,13.425812-2.813004,13.425812c-13.553696-3.324219-11.635788-18.029297-11.635788-18.029297
		c-6.904709,2.557587-4.603012,11.125-4.603012,11.125c-8.183594-7.544006,0.383301-17.389709,0.383301-17.389709
		c-4.602997,0.638702-7.799789,2.428711-7.799789,2.428711c9.845688-18.923828,29.792496-5.498016,29.792496-5.498016
		L239.416,273.059601c0,0-2.301712-9.973694,2.045898-16.239288c4.347198-6.264603,9.58989-3.19632,17.517593-10.86821
		c7.927704-7.671799,4.986786-19.691391,4.986786-19.691391c-8.822678,8.951187-11.891586,6.77739-11.891586,6.77739
		c4.986801-10.101593-1.406693-15.087891-1.406693-15.087891s-1.53421,10.612289-9.078201,26.851593
		c-7.5439,16.238205-22.248505,10.868103-22.248505,10.868103c26.595703-24.933609,20.969711-43.857407,20.969711-43.857407
		c-9.461914,29.281204-40.021408,63.165009-56.388611,63.165009c-16.366699,0-20.969803-22.503906-20.969803-22.503906
		s11.252502,11.891602,32.222198,4.6026c20.969711-7.288101,35.162598-57.027405,35.162598-57.027405
		s-34.139587,49.2276-50.634293,49.2276c-16.494598,0-11.507797-22.503891-11.507797-22.503891s8.055191,13.9375,23.6548,4.7314
		c15.599594-9.207001,31.199203-40.277802,31.199203-40.277802s-27.235306,28.3862-47.054199,28.3862
		c-19.819305,0-8.183609-25.317398-8.183609-25.317398c-0.76709,5.242203,5.753906,15.7276,23.399399,10.101593
		c17.645508-5.626495,31.71051-31.710999,31.71051-31.710999s-27.874512,22.120697-42.707001,22.120697
		c-14.832108,0-16.110901-19.307693-16.110901-19.307693s11.507797,7.288101,30.048401,4.475098
		c18.540497-2.813004,26.084396-20.074692,26.084396-20.074692s-26.468201,14.832489-35.291,14.832489
		c-8.822296,0-21.225601-2.429596-21.225601-14.4487c0-12.019501,2.045898-12.402786,2.045898-12.402786
		s-2.429199,14.9599,19.947296,14.9599c22.376007,0,33.372498-12.914505,33.372498-12.914505
		s-16.494598,5.626495-28.641586,5.626495c-12.1474,0-22.376404-10.357498-22.376404-17.645599
		c0-7.288498,8.438904-8.438904,8.438904-8.438904c-1.534103,6.009308,4.986893,14.576599,15.7276,14.576599
		c10.740692,0,22.887695-2.940903,22.887695-2.940903c-29.664597-1.278793-44.113297-17.134293-44.113297-27.491188
		s16.622589-17.773399,16.622589-17.773399s-1.150894,3.580498-1.150894,13.170395
		c0,9.589806,19.818802,19.690903,30.431595,19.690903c10.612808,0,13.809601-2.813004,24.550308-2.685097
		c10.740692,0.127998,14.4487,5.625999,15.471695,9.845802c1.022888,4.219696,6.904785,8.438889,11.123993,8.566788
		c4.219696,0.128006,8.567413-0.5112,8.567413-5.498001c0-4.986786-0.511719-11.635689-5.626495-18.540489
		c-5.114197-6.9048-18.667908-13.425804-22.248505-13.425804c-3.580109,0-15.98291,0-20.330612,0
		c-4.347092,0-5.370087-4.730995-5.370087-4.730995s-5.242706,0-7.799805,0s-5.242706-1.534607-5.242706-3.452606
		s3.324707-4.091301,4.986908-4.475098c1.662598-0.383797,3.068802,0,0.511703,0.767097
		C212.9478,95.838409,212.9478,99.291,215.121597,99.291s7.67189,0,7.67189,0c0.255814-2.301689,1.790009-5.242691,6.26561-5.88179
		c4.475098-0.639214,9.205994-9.206604,14.320801-9.334c5.1147-0.127899,5.625992,4.091301,11.891602,4.091301
		c6.265091,0,8.694778-3.963905,9.973099-3.835907c1.278809,0.127907,1.959991,0.426704-3.154297,7.586906
		c19.093781,7.502396,36.271484,30.346199,36.271484,30.346199s17.178223-22.843803,36.272003-30.346199
		c-5.115204-7.160202-4.433594-7.459-3.155304-7.586906c1.279297-0.127998,3.708008,3.835907,9.973602,3.835907
		c6.265717,0,6.777405-4.2192,11.891693-4.091301c5.114227,0.127396,9.845703,8.694786,14.321228,9.334
		c4.474579,0.639099,6.009796,3.580101,6.264679,5.88179c0,0,5.498993,0,7.671906,0c2.173798,0,2.173798-3.452591-0.382813-4.219696
		c-2.557678-0.767097-1.151398-1.150894,0.510712-0.767097c1.663086,0.383797,4.987305,2.557098,4.987305,4.475098
		s-2.685516,3.452606-5.242218,3.452606c-2.557587,0-7.799774,0-7.799774,0s-1.023407,4.730995-5.371124,4.730995
		c-4.34668,0-16.75,0-20.330078,0c-3.580017,0-17.13382,6.521004-22.249023,13.425804
		c-5.114197,6.9048-5.625977,13.553703-5.625977,18.540489c0,4.986801,4.347687,5.626007,8.567383,5.498001
		c4.219696-0.127899,10.101593-4.347092,11.124023-8.566788c1.023468-4.219803,4.731476-9.717804,15.47168-9.845802
		c10.741211-0.127907,13.9375,2.685097,24.549805,2.685097c10.613312,0,30.432587-10.101097,30.432587-19.690903
		c0-9.589897-1.151276-13.170395-1.151276-13.170395s16.622986,7.416496,16.622986,17.773399
		s-14.449188,26.212395-44.114197,27.491188c0,0,12.1474,2.940903,22.888611,2.940903
		c10.740295,0,17.26181-8.567291,15.7276-14.576599c0,0,8.438477,1.150406,8.438477,8.438904
		c0,7.288101-10.229492,17.645599-22.375977,17.645599c-12.147522,0-28.641602-5.626495-28.641602-5.626495
		s10.996094,12.914505,33.371979,12.914505c22.377014,0,19.947327-14.9599,19.947327-14.9599s2.045868,0.383286,2.045868,12.402786
		c0,12.019104-12.40329,14.4487-21.225586,14.4487c-8.823212,0-35.290985-14.832489-35.290985-14.832489
		s7.543976,17.261688,26.084991,20.074692c18.539978,2.813004,30.047791-4.475098,30.047791-4.475098
		s-1.27829,19.307693-16.111298,19.307693c-14.832001,0-42.706085-22.120697-42.706085-22.120697
		s14.064484,26.084503,31.709991,31.710999c17.645508,5.626007,24.166992-4.85939,23.399384-10.101593
		c0,0,11.635803,25.317398-8.183594,25.317398c-19.818298,0-47.05368-28.3862-47.05368-28.3862
		s15.599579,31.070801,31.198181,40.277802c15.599701,9.2061,23.655304-4.7314,23.655304-4.7314
		s4.987305,22.503891-11.507813,22.503891c-16.49408,0-50.634796-49.2276-50.634796-49.2276s14.19342,49.739304,35.163116,57.027405
		c20.969788,7.289001,32.222687-4.6026,32.222687-4.6026s-4.603485,22.503906-20.970703,22.503906
		c-16.36618,0-46.925781-33.883804-56.387695-63.165009c0,0-5.626984,18.923798,20.969696,43.857407
		c0,0-14.705078,5.370102-22.248993-10.868103c-7.544006-16.239304-9.078094-26.851593-9.078094-26.851593
		s-6.393616,4.986298-1.406311,15.087891c0,0-3.069305,2.173798-11.891602-6.77739c0,0-2.941376,12.019592,4.986298,19.691391
		c7.927826,7.67189,13.170013,4.603607,17.517609,10.86821c4.347717,6.265594,2.045898,16.239288,2.045898,16.239288
		l14.832001,16.877899c0,0,19.947296-13.425812,29.792999,5.498016c0,0-3.196289-1.790009-7.799805-2.428711
		c0,0,8.567413,9.845703,0.38382,17.389709c0,0,2.301788-8.567413-4.603516-11.125c0,0,1.917999,14.705078-11.635803,18.029297
		c0,0,5.753998-13.425812-2.8125-13.425812c-8.567291,0-9.207001,10.741211-9.207001,10.741211
		s-1.53418-14.705109,1.407227-19.052704l-15.471619-18.02829c0,0-11.125,2.045898-16.623108-6.137726
		c-5.497986-8.183594-8.310486-12.147491-8.310486-12.147491s-6.137695,24.422913,17.644501,29.025391
		c0,0-3.708008,4.731415-11.635712,4.731415c-7.926788,0-13.169983-13.9375-13.169983-13.9375
		s-1.917908,14.065491,11.891602,19.307709c0,0-2.8125,3.068298-7.032196,3.068298c-4.219727,0-12.40332-9.078125-12.40332-9.078125
		s-2.940399,14.577118,13.041992,22.376007c0,0-10.484375,8.055603-23.782196-15.598694c0,0-1.662598,7.926788,0.894531,12.786194
		c2.557587,4.858398,7.033173,9.717712,7.033173,15.087891C309.742188,332.388702,301.558594,340.316406,298.361786,340.316406z"/>
</g>
</svg>
