<svg class="svgOrigin" xmlns="http://www.w3.org/2000/svg" width="600" height="400" x="0px" y="0px" viewBox="0 0 600 400" enable-background="new 0 0 600 400">
<g>
	<rect x="0.000488" y="-0.00049" fill="#D60027" width="599.999512" height="400.000488"/>
	
		<ellipse transform="matrix(0.062137 -0.998068 0.998068 0.062137 81.288544 486.506012)" fill="#FFBC00" cx="299.512573" cy="199.999634" rx="63.122478" ry="63.121471"/>
	<path fill="#FFBC00" d="M299.512695,130.737808c3.633789,0,7.202087,0.284698,10.686493,0.827103L330.74408-0.00049h-62.462372
		l20.544495,131.565399C292.3125,131.022507,295.880402,130.737808,299.512695,130.737808z"/>
	<path fill="#FFBC00" d="M299.512695,269.261688c-3.632294,0-7.202606-0.286072-10.686493-0.827087L268.281708,400h62.462372
		l-20.544891-131.565399C306.714783,268.975616,303.146484,269.261688,299.512695,269.261688z"/>
	<path fill="#FFBC00" d="M357.145477,161.639206L600-0.00049H475.338898L345.210876,148.0186
		C349.753906,152.017105,353.775391,156.591309,357.145477,161.639206z"/>
	<path fill="#FFBC00" d="M368.775391,199.999512c0,3.021988-0.21579,5.992691-0.592804,8.913589L600,239.003906v-79.295914
		l-231.853516,31.088409C368.547882,193.810104,368.775391,196.877899,368.775391,199.999512z"/>
	<path fill="#FFBC00" d="M357.145477,238.360397c-3.370087,5.048813-7.391571,9.622009-11.934601,13.61911L475.34079,400H600
		L357.145477,238.360397z"/>
	<path fill="#FFBC00" d="M241.9375,238.446304L0.002441,400h120.834457l132.560593-148.38179
		C249.049789,247.730499,245.193787,243.30661,241.9375,238.446304z"/>
	<path fill="#FFBC00" d="M230.251999,199.999512c0-3.0224,0.215302-5.994614,0.593201-8.916519L0.000488,161.109909v76.153793
		l230.796906-28.715805C230.451691,205.745102,230.251999,202.895508,230.251999,199.999512z"/>
	<path fill="#FFBC00" d="M253.397491,148.381302L120.836899-0.00049H0.000488L241.9375,161.5522
		C245.193787,156.691406,249.049789,152.268997,253.397491,148.381302z"/>
</g>
</svg>
