<svg class="svgOrigin" xmlns="http://www.w3.org/2000/svg" width="600" height="400" x="0px" y="0px" viewBox="0 0 600 400" enable-background="new 0 0 600 400">
<g>
	<rect x="0.000488" y="-0.00049" fill="#FFFFFF" width="599.999512" height="400.000488"/>
	<polygon fill="#298442" points="0.000488,-0.00049 0.000488,138.583511 2.57373,138.583511 2.57373,132.152313 
		33.190399,132.152313 33.190399,138.583511 35.763699,138.583511 35.763699,132.152313 66.381302,132.152313 66.381302,138.583511 
		68.954597,138.583511 68.954597,132.152313 99.5718,132.152313 99.5718,138.583511 102.144997,138.583511 102.144997,132.152313 
		132.761703,132.152313 132.761703,138.583511 135.335007,138.583511 135.335007,132.152313 165.952591,132.152313 
		165.952591,138.583511 168.525894,138.583511 168.525894,132.152313 199.142593,132.152313 199.142593,138.583511 
		201.71579,138.583511 201.71579,132.152313 232.332489,132.152313 232.332489,138.583511 234.906296,138.583511 
		234.906296,132.152313 265.523895,132.152313 265.523895,138.583511 268.097198,138.583511 268.097198,132.152313 
		298.713898,132.152313 298.713898,138.583511 301.287079,138.583511 301.287079,132.152313 331.905304,132.152313 
		331.905304,138.583511 334.478485,138.583511 334.478485,132.152313 365.093781,132.152313 365.093781,138.583511 
		367.666992,138.583511 367.666992,132.152313 398.285187,132.152313 398.285187,138.583511 400.858398,138.583511 
		400.858398,132.152313 431.475586,132.152313 431.475586,138.583511 434.048798,138.583511 434.048798,132.152313 
		464.665009,132.152313 464.665009,138.583511 467.238281,138.583511 467.238281,132.152313 497.856384,132.152313 
		497.856384,138.583511 500.429688,138.583511 500.429688,132.152313 531.046875,132.152313 531.046875,138.583511 
		533.620056,138.583511 533.620056,132.152313 564.236267,132.152313 564.236267,138.583511 566.80957,138.583511 
		566.80957,132.152313 597.426758,132.152313 597.426758,138.583511 600,138.583511 600,-0.00049 	"/>
	<g>
		<rect x="1.26221" y="109.29641" fill="#FFFFFF" width="39.096691" height="3.5434"/>
		<polygon fill="#FFFFFF" points="58.299801,109.29641 58.299801,123.803207 54.976601,123.803207 54.976601,109.29641 
			51.434101,109.29641 51.434101,123.803207 48.109901,123.803207 48.109901,109.29641 44.567402,109.29641 44.567402,116.605507 
			32.715801,116.605507 32.715801,127.347206 41.355,127.347206 41.355,123.803207 36.2593,123.803207 36.2593,120.148911 
			44.567402,120.148911 44.567402,127.347206 61.8433,127.347206 61.8433,109.29641 		"/>
		<rect x="7.96484" y="123.30571" fill="#FFFFFF" width="3.54246" height="4.0415"/>
		<polygon fill="#FFFFFF" points="20.9785,116.605507 20.9785,120.148911 25.741199,120.148911 25.741199,123.803207 
			18.2104,123.803207 18.2104,116.605507 1.26221,116.605507 1.26221,127.347206 4.80518,127.347206 4.80518,120.148911 
			14.667,120.148911 14.667,127.347206 29.2847,127.347206 29.2847,116.605507 		"/>
	</g>
	<g>
		<rect x="68.374496" y="109.29641" fill="#FFFFFF" width="39.096699" height="3.5434"/>
		<polygon fill="#FFFFFF" points="125.412094,109.29641 125.412094,123.803207 122.088898,123.803207 122.088898,109.29641 
			118.546394,109.29641 118.546394,123.803207 115.222198,123.803207 115.222198,109.29641 111.679695,109.29641 
			111.679695,116.605507 99.829102,116.605507 99.829102,127.347206 108.4673,127.347206 108.4673,123.803207 
			103.371597,123.803207 103.371597,120.148911 111.679695,120.148911 111.679695,127.347206 128.955597,127.347206 
			128.955597,109.29641 		"/>
		<rect x="75.077103" y="123.30571" fill="#FFFFFF" width="3.5425" height="4.0415"/>
		<polygon fill="#FFFFFF" points="88.090797,116.605507 88.090797,120.148911 92.8535,120.148911 92.8535,123.803207 
			85.3228,123.803207 85.3228,116.605507 68.374496,116.605507 68.374496,127.347206 71.917503,127.347206 71.917503,120.148911 
			81.779297,120.148911 81.779297,127.347206 96.397003,127.347206 96.397003,116.605507 		"/>
	</g>
	<g>
		<rect x="135.485794" y="109.29641" fill="#FFFFFF" width="39.096699" height="3.5434"/>
		<polygon fill="#FFFFFF" points="192.523392,109.29641 192.523392,123.803207 189.200195,123.803207 189.200195,109.29641 
			185.6577,109.29641 185.6577,123.803207 182.333496,123.803207 182.333496,109.29641 178.791,109.29641 178.791,116.605507 
			166.939499,116.605507 166.939499,127.347206 175.578598,127.347206 175.578598,123.803207 170.482895,123.803207 
			170.482895,120.148911 178.791,120.148911 178.791,127.347206 196.066895,127.347206 196.066895,109.29641 		"/>
		<rect x="142.188492" y="123.30571" fill="#FFFFFF" width="3.542504" height="4.0415"/>
		<polygon fill="#FFFFFF" points="155.202103,116.605507 155.202103,120.148911 159.964798,120.148911 159.964798,123.803207 
			152.434097,123.803207 152.434097,116.605507 135.485794,116.605507 135.485794,127.347206 139.028793,127.347206 
			139.028793,120.148911 148.890594,120.148911 148.890594,127.347206 163.508301,127.347206 163.508301,116.605507 		"/>
	</g>
	<g>
		<rect x="202.598099" y="109.29641" fill="#FFFFFF" width="39.096699" height="3.5434"/>
		<polygon fill="#FFFFFF" points="259.635681,109.29641 259.635681,123.803207 256.3125,123.803207 256.3125,109.29641 
			252.770004,109.29641 252.770004,123.803207 249.445801,123.803207 249.445801,109.29641 245.90329,109.29641 
			245.90329,116.605507 234.051788,116.605507 234.051788,127.347206 242.690887,127.347206 242.690887,123.803207 
			237.5952,123.803207 237.5952,120.148911 245.90329,120.148911 245.90329,127.347206 263.179199,127.347206 263.179199,109.29641 
					"/>
		<rect x="209.300797" y="123.30571" fill="#FFFFFF" width="3.5425" height="4.0415"/>
		<polygon fill="#FFFFFF" points="222.314499,116.605507 222.314499,120.148911 227.077087,120.148911 227.077087,123.803207 
			219.545395,123.803207 219.545395,116.605507 202.598099,116.605507 202.598099,127.347206 206.141098,127.347206 
			206.141098,120.148911 216.002899,120.148911 216.002899,127.347206 230.62059,127.347206 230.62059,116.605507 		"/>
	</g>
	<g>
		<rect x="269.709503" y="109.29641" fill="#FFFFFF" width="39.0952" height="3.5434"/>
		<polygon fill="#FFFFFF" points="326.746094,109.29641 326.746094,123.803207 323.423798,123.803207 323.423798,109.29641 
			319.879883,109.29641 319.879883,123.803207 316.558594,123.803207 316.558594,109.29641 313.014587,109.29641 
			313.014587,116.605507 301.163086,116.605507 301.163086,127.347206 309.80368,127.347206 309.80368,123.803207 
			304.705078,123.803207 304.705078,120.148911 313.014587,120.148911 313.014587,127.347206 330.290985,127.347206 
			330.290985,109.29641 		"/>
		<rect x="276.412079" y="123.30571" fill="#FFFFFF" width="3.5425" height="4.0415"/>
		<polygon fill="#FFFFFF" points="289.425781,116.605507 289.425781,120.148911 294.188507,120.148911 294.188507,123.803207 
			286.657684,123.803207 286.657684,116.605507 269.709503,116.605507 269.709503,127.347206 273.25238,127.347206 
			273.25238,120.148911 283.114288,120.148911 283.114288,127.347206 297.731903,127.347206 297.731903,116.605507 		"/>
	</g>
	<g>
		<rect x="336.821289" y="109.29641" fill="#FFFFFF" width="39.094707" height="3.5434"/>
		<polygon fill="#FFFFFF" points="393.857391,109.29641 393.857391,123.803207 390.535187,123.803207 390.535187,109.29641 
			386.99118,109.29641 386.99118,123.803207 383.669891,123.803207 383.669891,109.29641 380.126007,109.29641 
			380.126007,116.605507 368.276398,116.605507 368.276398,127.347206 376.915009,127.347206 376.915009,123.803207 
			371.816376,123.803207 371.816376,120.148911 380.126007,120.148911 380.126007,127.347206 397.401398,127.347206 
			397.401398,109.29641 		"/>
		<rect x="343.524384" y="123.30571" fill="#FFFFFF" width="3.542" height="4.0415"/>
		<polygon fill="#FFFFFF" points="356.537079,116.605507 356.537079,120.148911 361.301788,120.148911 361.301788,123.803207 
			353.767578,123.803207 353.767578,116.605507 336.821289,116.605507 336.821289,127.347206 340.36618,127.347206 
			340.36618,120.148911 350.227478,120.148911 350.227478,127.347206 364.841797,127.347206 364.841797,116.605507 		"/>
	</g>
	<g>
		<rect x="403.932587" y="109.29641" fill="#FFFFFF" width="39.0947" height="3.5434"/>
		<polygon fill="#FFFFFF" points="460.968781,109.29641 460.968781,123.803207 457.646484,123.803207 457.646484,109.29641 
			454.102478,109.29641 454.102478,123.803207 450.781281,123.803207 450.781281,109.29641 447.237274,109.29641 
			447.237274,116.605507 435.387695,116.605507 435.387695,127.347206 444.026398,127.347206 444.026398,123.803207 
			438.927704,123.803207 438.927704,120.148911 447.237274,120.148911 447.237274,127.347206 464.512695,127.347206 
			464.512695,109.29641 		"/>
		<rect x="410.637695" y="123.30571" fill="#FFFFFF" width="3.54" height="4.0415"/>
		<polygon fill="#FFFFFF" points="423.650391,116.605507 423.650391,120.148911 428.413086,120.148911 428.413086,123.803207 
			420.878876,123.803207 420.878876,116.605507 403.932587,116.605507 403.932587,127.347206 407.477478,127.347206 
			407.477478,120.148911 417.338898,120.148911 417.338898,127.347206 431.953094,127.347206 431.953094,116.605507 		"/>
	</g>
	<g>
		<rect x="471.045898" y="109.29641" fill="#FFFFFF" width="39.0947" height="3.5434"/>
		<polygon fill="#FFFFFF" points="528.08197,109.29641 528.08197,123.803207 524.759766,123.803207 524.759766,109.29641 
			521.215759,109.29641 521.215759,123.803207 517.89447,123.803207 517.89447,109.29641 514.350586,109.29641 
			514.350586,116.605507 502.501007,116.605507 502.501007,127.347206 511.139587,127.347206 511.139587,123.803207 
			506.040985,123.803207 506.040985,120.148911 514.350586,120.148911 514.350586,127.347206 531.627014,127.347206 
			531.627014,109.29641 		"/>
		<rect x="477.751007" y="123.30571" fill="#FFFFFF" width="3.54" height="4.0415"/>
		<polygon fill="#FFFFFF" points="490.763702,116.605507 490.763702,120.148911 495.526398,120.148911 495.526398,123.803207 
			487.992188,123.803207 487.992188,116.605507 471.045898,116.605507 471.045898,127.347206 474.59079,127.347206 
			474.59079,120.148911 484.452087,120.148911 484.452087,127.347206 499.066376,127.347206 499.066376,116.605507 		"/>
	</g>
	<g>
		<rect x="538.157166" y="109.29641" fill="#FFFFFF" width="39.094814" height="3.5434"/>
		<polygon fill="#FFFFFF" points="595.193359,109.29641 595.193359,123.803207 591.872986,123.803207 591.872986,109.29641 
			588.327087,109.29641 588.327087,123.803207 585.005859,123.803207 585.005859,109.29641 581.461914,109.29641 
			581.461914,116.605507 569.612305,116.605507 569.612305,127.347206 578.250977,127.347206 578.250977,123.803207 
			573.152283,123.803207 573.152283,120.148911 581.461914,120.148911 581.461914,127.347206 598.737305,127.347206 
			598.737305,109.29641 		"/>
		<rect x="544.862305" y="123.30571" fill="#FFFFFF" width="3.54" height="4.0415"/>
		<polygon fill="#FFFFFF" points="557.872986,116.605507 557.872986,120.148911 562.637695,120.148911 562.637695,123.803207 
			555.103516,123.803207 555.103516,116.605507 538.157166,116.605507 538.157166,127.347206 541.702087,127.347206 
			541.702087,120.148911 551.563477,120.148911 551.563477,127.347206 566.177673,127.347206 566.177673,116.605507 		"/>
	</g>
	<polygon fill="#D60021" points="600,400 600,261.415985 597.426758,261.415985 597.426758,267.84671 566.811462,267.84671 
		566.811462,261.415985 564.238281,261.415985 564.238281,267.84671 533.618164,267.84671 533.618164,261.415985 
		531.044861,261.415985 531.044861,267.84671 500.429688,267.84671 500.429688,261.415985 497.856384,261.415985 
		497.856384,267.84671 467.240173,267.84671 467.240173,261.415985 464.666992,261.415985 464.666992,267.84671 
		434.046875,267.84671 434.046875,261.415985 431.473602,261.415985 431.473602,267.84671 400.858398,267.84671 
		400.858398,261.415985 398.285187,261.415985 398.285187,267.84671 367.668884,267.84671 367.668884,261.415985 
		365.095703,261.415985 365.095703,267.84671 334.476593,267.84671 334.476593,261.415985 331.90329,261.415985 
		331.90329,267.84671 301.287079,267.84671 301.287079,261.415985 298.713898,261.415985 298.713898,267.84671 
		268.096191,267.84671 268.096191,261.415985 265.522888,261.415985 265.522888,267.84671 234.907196,267.84671 
		234.907196,261.415985 232.333496,261.415985 232.333496,267.84671 201.71579,267.84671 201.71579,261.415985 
		199.142593,261.415985 199.142593,267.84671 168.524902,267.84671 168.524902,261.415985 165.951691,261.415985 
		165.951691,267.84671 135.335892,267.84671 135.335892,261.415985 132.762695,261.415985 132.762695,267.84671 
		102.144997,267.84671 102.144997,261.415985 99.5718,261.415985 99.5718,267.84671 68.953598,267.84671 68.953598,261.415985 
		66.380402,261.415985 66.380402,267.84671 35.764599,267.84671 35.764599,261.415985 33.191399,261.415985 33.191399,267.84671 
		2.57373,267.84671 2.57373,261.415985 0.000488,261.415985 0.000488,400 	"/>
	<g>
		<rect x="1.26221" y="271.418915" fill="#FFFFFF" width="39.096691" height="3.543"/>
		<polygon fill="#FFFFFF" points="58.299801,271.420898 58.299801,285.927704 54.976601,285.927704 54.976601,271.420898 
			51.434101,271.420898 51.434101,285.927704 48.109901,285.927704 48.109901,271.420898 44.567402,271.420898 
			44.567402,278.729492 32.715801,278.729492 32.715801,289.470703 41.355,289.470703 41.355,285.927704 36.2593,285.927704 
			36.2593,282.273407 44.567402,282.273407 44.567402,289.470703 61.8433,289.470703 61.8433,271.420898 		"/>
		<rect x="7.96484" y="285.430695" fill="#FFFFFF" width="3.54246" height="4.04"/>
		<polygon fill="#FFFFFF" points="20.9785,278.729492 20.9785,282.273407 25.741199,282.273407 25.741199,285.927704 
			18.2104,285.927704 18.2104,278.729492 1.26221,278.729492 1.26221,289.470703 4.80518,289.470703 4.80518,282.273407 
			14.667,282.273407 14.667,289.470703 29.2847,289.470703 29.2847,278.729492 		"/>
	</g>
	<g>
		<rect x="68.374496" y="271.418915" fill="#FFFFFF" width="39.096699" height="3.543"/>
		<polygon fill="#FFFFFF" points="125.412094,271.420898 125.412094,285.927704 122.088898,285.927704 122.088898,271.420898 
			118.546394,271.420898 118.546394,285.927704 115.222198,285.927704 115.222198,271.420898 111.679695,271.420898 
			111.679695,278.729492 99.829102,278.729492 99.829102,289.470703 108.4673,289.470703 108.4673,285.927704 
			103.371597,285.927704 103.371597,282.273407 111.679695,282.273407 111.679695,289.470703 128.955597,289.470703 
			128.955597,271.420898 		"/>
		<rect x="75.077103" y="285.430695" fill="#FFFFFF" width="3.5425" height="4.04"/>
		<polygon fill="#FFFFFF" points="88.090797,278.729492 88.090797,282.273407 92.8535,282.273407 92.8535,285.927704 
			85.3228,285.927704 85.3228,278.729492 68.374496,278.729492 68.374496,289.470703 71.917503,289.470703 71.917503,282.273407 
			81.779297,282.273407 81.779297,289.470703 96.397003,289.470703 96.397003,278.729492 		"/>
	</g>
	<g>
		<rect x="135.485794" y="271.418915" fill="#FFFFFF" width="39.096699" height="3.543"/>
		<polygon fill="#FFFFFF" points="192.523392,271.420898 192.523392,285.927704 189.200195,285.927704 189.200195,271.420898 
			185.6577,271.420898 185.6577,285.927704 182.333496,285.927704 182.333496,271.420898 178.791,271.420898 178.791,278.729492 
			166.939499,278.729492 166.939499,289.470703 175.578598,289.470703 175.578598,285.927704 170.482895,285.927704 
			170.482895,282.273407 178.791,282.273407 178.791,289.470703 196.066895,289.470703 196.066895,271.420898 		"/>
		<rect x="142.188492" y="285.430695" fill="#FFFFFF" width="3.542504" height="4.04"/>
		<polygon fill="#FFFFFF" points="155.202103,278.729492 155.202103,282.273407 159.964798,282.273407 159.964798,285.927704 
			152.434097,285.927704 152.434097,278.729492 135.485794,278.729492 135.485794,289.470703 139.028793,289.470703 
			139.028793,282.273407 148.890594,282.273407 148.890594,289.470703 163.508301,289.470703 163.508301,278.729492 		"/>
	</g>
	<g>
		<rect x="202.598099" y="271.418915" fill="#FFFFFF" width="39.096699" height="3.543"/>
		<polygon fill="#FFFFFF" points="259.635681,271.420898 259.635681,285.927704 256.3125,285.927704 256.3125,271.420898 
			252.770004,271.420898 252.770004,285.927704 249.445801,285.927704 249.445801,271.420898 245.90329,271.420898 
			245.90329,278.729492 234.051788,278.729492 234.051788,289.470703 242.690887,289.470703 242.690887,285.927704 
			237.5952,285.927704 237.5952,282.273407 245.90329,282.273407 245.90329,289.470703 263.179199,289.470703 
			263.179199,271.420898 		"/>
		<rect x="209.300797" y="285.430695" fill="#FFFFFF" width="3.5425" height="4.04"/>
		<polygon fill="#FFFFFF" points="222.314499,278.729492 222.314499,282.273407 227.077087,282.273407 227.077087,285.927704 
			219.545395,285.927704 219.545395,278.729492 202.598099,278.729492 202.598099,289.470703 206.141098,289.470703 
			206.141098,282.273407 216.002899,282.273407 216.002899,289.470703 230.62059,289.470703 230.62059,278.729492 		"/>
	</g>
	<g>
		<rect x="269.709503" y="271.418915" fill="#FFFFFF" width="39.0952" height="3.543"/>
		<polygon fill="#FFFFFF" points="326.746094,271.420898 326.746094,285.927704 323.423798,285.927704 323.423798,271.420898 
			319.879883,271.420898 319.879883,285.927704 316.558594,285.927704 316.558594,271.420898 313.014587,271.420898 
			313.014587,278.729492 301.163086,278.729492 301.163086,289.470703 309.80368,289.470703 309.80368,285.927704 
			304.705078,285.927704 304.705078,282.273407 313.014587,282.273407 313.014587,289.470703 330.290985,289.470703 
			330.290985,271.420898 		"/>
		<rect x="276.412079" y="285.430695" fill="#FFFFFF" width="3.5425" height="4.04"/>
		<polygon fill="#FFFFFF" points="289.425781,278.729492 289.425781,282.273407 294.188507,282.273407 294.188507,285.927704 
			286.657684,285.927704 286.657684,278.729492 269.709503,278.729492 269.709503,289.470703 273.25238,289.470703 
			273.25238,282.273407 283.114288,282.273407 283.114288,289.470703 297.731903,289.470703 297.731903,278.729492 		"/>
	</g>
	<g>
		<rect x="336.821289" y="271.418915" fill="#FFFFFF" width="39.094707" height="3.543"/>
		<polygon fill="#FFFFFF" points="393.857391,271.420898 393.857391,285.927704 390.535187,285.927704 390.535187,271.420898 
			386.99118,271.420898 386.99118,285.927704 383.669891,285.927704 383.669891,271.420898 380.126007,271.420898 
			380.126007,278.729492 368.276398,278.729492 368.276398,289.470703 376.915009,289.470703 376.915009,285.927704 
			371.816376,285.927704 371.816376,282.273407 380.126007,282.273407 380.126007,289.470703 397.401398,289.470703 
			397.401398,271.420898 		"/>
		<rect x="343.524384" y="285.430695" fill="#FFFFFF" width="3.542" height="4.04"/>
		<polygon fill="#FFFFFF" points="356.537079,278.729492 356.537079,282.273407 361.301788,282.273407 361.301788,285.927704 
			353.767578,285.927704 353.767578,278.729492 336.821289,278.729492 336.821289,289.470703 340.36618,289.470703 
			340.36618,282.273407 350.227478,282.273407 350.227478,289.470703 364.841797,289.470703 364.841797,278.729492 		"/>
	</g>
	<g>
		<rect x="403.932587" y="271.418915" fill="#FFFFFF" width="39.0947" height="3.543"/>
		<polygon fill="#FFFFFF" points="460.968781,271.420898 460.968781,285.927704 457.646484,285.927704 457.646484,271.420898 
			454.102478,271.420898 454.102478,285.927704 450.781281,285.927704 450.781281,271.420898 447.237274,271.420898 
			447.237274,278.729492 435.387695,278.729492 435.387695,289.470703 444.026398,289.470703 444.026398,285.927704 
			438.927704,285.927704 438.927704,282.273407 447.237274,282.273407 447.237274,289.470703 464.512695,289.470703 
			464.512695,271.420898 		"/>
		<rect x="410.637695" y="285.430695" fill="#FFFFFF" width="3.54" height="4.04"/>
		<polygon fill="#FFFFFF" points="423.650391,278.729492 423.650391,282.273407 428.413086,282.273407 428.413086,285.927704 
			420.878876,285.927704 420.878876,278.729492 403.932587,278.729492 403.932587,289.470703 407.477478,289.470703 
			407.477478,282.273407 417.338898,282.273407 417.338898,289.470703 431.953094,289.470703 431.953094,278.729492 		"/>
	</g>
	<g>
		<rect x="471.045898" y="271.418915" fill="#FFFFFF" width="39.0947" height="3.543"/>
		<polygon fill="#FFFFFF" points="528.08197,271.420898 528.08197,285.927704 524.759766,285.927704 524.759766,271.420898 
			521.215759,271.420898 521.215759,285.927704 517.89447,285.927704 517.89447,271.420898 514.350586,271.420898 
			514.350586,278.729492 502.501007,278.729492 502.501007,289.470703 511.139587,289.470703 511.139587,285.927704 
			506.040985,285.927704 506.040985,282.273407 514.350586,282.273407 514.350586,289.470703 531.627014,289.470703 
			531.627014,271.420898 		"/>
		<rect x="477.751007" y="285.430695" fill="#FFFFFF" width="3.54" height="4.04"/>
		<polygon fill="#FFFFFF" points="490.763702,278.729492 490.763702,282.273407 495.526398,282.273407 495.526398,285.927704 
			487.992188,285.927704 487.992188,278.729492 471.045898,278.729492 471.045898,289.470703 474.59079,289.470703 
			474.59079,282.273407 484.452087,282.273407 484.452087,289.470703 499.066376,289.470703 499.066376,278.729492 		"/>
	</g>
	<g>
		<rect x="538.157166" y="271.418915" fill="#FFFFFF" width="39.094814" height="3.543"/>
		<polygon fill="#FFFFFF" points="595.193359,271.420898 595.193359,285.927704 591.872986,285.927704 591.872986,271.420898 
			588.327087,271.420898 588.327087,285.927704 585.005859,285.927704 585.005859,271.420898 581.461914,271.420898 
			581.461914,278.729492 569.612305,278.729492 569.612305,289.470703 578.250977,289.470703 578.250977,285.927704 
			573.152283,285.927704 573.152283,282.273407 581.461914,282.273407 581.461914,289.470703 598.737305,289.470703 
			598.737305,271.420898 		"/>
		<rect x="544.862305" y="285.430695" fill="#FFFFFF" width="3.54" height="4.04"/>
		<polygon fill="#FFFFFF" points="557.872986,278.729492 557.872986,282.273407 562.637695,282.273407 562.637695,285.927704 
			555.103516,285.927704 555.103516,278.729492 538.157166,278.729492 538.157166,289.470703 541.702087,289.470703 
			541.702087,282.273407 551.563477,282.273407 551.563477,289.470703 566.177673,289.470703 566.177673,278.729492 		"/>
	</g>
	<path fill="#D60018" d="M319.788086,164.629913c0,0,24.156219,11.214294,24.156219,36.342789
		c0,25.128906-18.348602,30.304596-18.348602,30.304596s11.667999-11.403305,11.667999-30.304596
		C337.263702,182.071808,319.788086,164.629913,319.788086,164.629913z"/>
	<path fill="#D60018" d="M297.009796,158.188995c0,0-1.098206,3.296417-6.041992,3.296417
		c-4.944916,0-5.859924-6.5923-5.859924-6.5923s2.379913,3.662094,5.859924,3.662094
		c3.480377,0,6.041992-4.028305,6.041992-4.028305s2.561005,4.028305,6.040985,4.028305
		c3.480499,0,5.860321-3.662094,5.860321-3.662094s-0.915009,6.5923-5.860321,6.5923
		C298.107391,161.485413,297.009796,158.188995,297.009796,158.188995z"/>
	<path fill="#D60018" d="M297.009796,245.537109l-2.38089-2.379898l-0.16452-4.653305
		c-1.791992,1.065399-6.175781,2.693405-16.708496,3.356491c0,0,9.362305-1.014694,12.940399-4.430695
		c-5.150391-2.859406-23.055695-14.405304-23.055695-36.741699c0-20.230499,13.823303-36.05809,13.823303-36.05809
		s-9.260315,12.658691-9.260315,35.802185c0,14.465408,10.0737,24.684113,16.628418,30.314011
		c1.937988,1.664093,3.899902,1.56839,5.394592,1.044891l-2.343811-66.094193l5.127014-3.296402l5.125885,3.296402
		L299.79248,231.791c1.494598,0.523499,3.456512,0.619202,5.394012-1.044891
		c6.555695-5.629898,16.628906-15.848602,16.628906-30.314011c0-23.143494-9.259705-35.802185-9.259705-35.802185
		s13.823212,15.827591,13.823212,36.05809c0,22.336395-17.905304,33.882294-23.055725,36.741699
		c3.578217,3.416,12.940521,4.430695,12.940521,4.430695c-10.533203-0.663086-14.917023-2.291092-16.709015-3.356491
		l-0.164581,4.653305L297.009796,245.537109z"/>
	<path fill="#D60018" d="M274.231384,164.629913c0,0-24.156189,11.214294-24.156189,36.342789
		c0,25.128906,18.348602,30.304596,18.348602,30.304596s-11.667908-11.403305-11.667908-30.304596
		C256.75589,182.071808,274.231384,164.629913,274.231384,164.629913z"/>
</g>
</svg>
