<svg class="svgOrigin" xmlns="http://www.w3.org/2000/svg" width="600" height="400" x="0px" y="0px" viewBox="0 0 600 400" enable-background="new 0 0 600 400">
<rect fill="#FFFFFF" width="600" height="400"/>
<rect y="266.664093" fill="#9CBD18" width="600" height="133.335892"/>
<rect fill="#18B5E7" width="600" height="133.332993"/>
<rect y="255.684601" fill="#D60029" width="600" height="10.9795"/>
<rect y="133.332993" fill="#D60029" width="600" height="10.982407"/>
<path fill="#FFFFFF" d="M60.539101,67.027306c0-24.829998,20.128899-44.958496,44.958496-44.958496
	c6.410599,0,12.5019,1.3501,18.019997,3.768101c-9.152397-7.468201-20.835999-11.9512-33.569397-11.9512
	c-29.349098,0-53.141998,23.792498-53.141998,53.141594c0,29.348694,23.7929,53.142601,53.141998,53.142601
	c12.733398,0,24.417-4.483398,33.569397-11.951202c-5.518097,2.417503-11.609398,3.768105-18.019997,3.768105
	C80.667999,111.986809,60.539101,91.856911,60.539101,67.027306z"/>
<polygon fill="#FFFFFF" points="219.929199,21.34231 222.056198,27.88871 228.939499,27.88871 223.37059,31.93511 
	225.498489,38.481411 219.929199,34.435509 214.359894,38.481411 216.487793,31.93511 210.918488,27.88871 217.8022,27.88871 "/>
<polygon fill="#FFFFFF" points="253.791489,21.34231 255.917999,27.88871 262.801788,27.88871 257.23288,31.93511 
	259.360382,38.481411 253.791489,34.435509 248.222198,38.481411 250.350098,31.93511 244.781296,27.88871 251.664597,27.88871 "/>
<polygon fill="#FFFFFF" points="287.653778,21.34231 289.780792,27.88871 296.664581,27.88871 291.095184,31.93511 
	293.223083,38.481411 287.653778,34.435509 282.084503,38.481411 284.212402,31.93511 278.643097,27.88871 285.526886,27.88871 "/>
<polygon fill="#FFFFFF" points="219.929199,59.048809 222.056198,65.594711 228.939499,65.594711 223.37059,69.641609 
	225.498489,76.187508 219.929199,72.141609 214.359894,76.187508 216.487793,69.641609 210.918488,65.594711 217.8022,65.594711 "/>
<polygon fill="#FFFFFF" points="253.791489,59.048809 255.917999,65.594711 262.801788,65.594711 257.23288,69.641609 
	259.360382,76.187508 253.791489,72.141609 248.222198,76.187508 250.350098,69.641609 244.781296,65.594711 251.664597,65.594711 
	"/>
<polygon fill="#FFFFFF" points="186.066895,59.048809 188.19339,65.594711 195.077103,65.594711 189.508301,69.641609 
	191.635696,76.187508 186.066895,72.141609 180.497589,76.187508 182.625488,69.641609 177.056198,65.594711 183.939896,65.594711 
	"/>
<polygon fill="#FFFFFF" points="287.653778,59.048809 289.780792,65.594711 296.664581,65.594711 291.095184,69.641609 
	293.223083,76.187508 287.653778,72.141609 282.084503,76.187508 284.212402,69.641609 278.643097,65.594711 285.526886,65.594711 
	"/>
<polygon fill="#FFFFFF" points="219.929199,96.754906 222.056198,103.300804 228.939499,103.300804 223.37059,107.34771 
	225.498489,113.893608 219.929199,109.84771 214.359894,113.893608 216.487793,107.34771 210.918488,103.300804 
	217.8022,103.300804 "/>
<polygon fill="#FFFFFF" points="253.791489,96.754906 255.917999,103.300804 262.801788,103.300804 257.23288,107.34771 
	259.360382,113.893608 253.791489,109.84771 248.222198,113.893608 250.350098,107.34771 244.781296,103.300804 
	251.664597,103.300804 "/>
<polygon fill="#FFFFFF" points="287.653778,96.754906 289.780792,103.300804 296.664581,103.300804 291.095184,107.34771 
	293.223083,113.893608 287.653778,109.84771 282.084503,113.893608 284.212402,107.34771 278.643097,103.300804 
	285.526886,103.300804 "/>
<polygon fill="#FFFFFF" points="152.204102,96.754906 154.3311,103.300804 161.214798,103.300804 155.645493,107.34771 
	157.773392,113.893608 152.204102,109.84771 146.6353,113.893608 148.763199,107.34771 143.193802,103.300804 
	150.078094,103.300804 "/>
<polygon fill="#FFFFFF" points="186.066895,96.754906 188.19339,103.300804 195.077103,103.300804 189.508301,107.34771 
	191.635696,113.893608 186.066895,109.84771 180.497589,113.893608 182.625488,107.34771 177.056198,103.300804 
	183.939896,103.300804 "/>
</svg>
