<svg class="svgOrigin" xmlns="http://www.w3.org/2000/svg" width="600" height="400" x="0px" y="0px" viewBox="0 0 600 400" enable-background="new 0 0 600 400">
<g>
	<rect fill="#0049B2" width="600" height="400"/>
	<polygon fill="#FBD411" points="574.953064,108.822304 538.425781,98.543907 538.425781,98.543907 538.425781,98.543907 
		538.425781,98.543907 574.955078,88.277306 537.013672,87.803711 537.013672,87.802711 569.640564,68.43161 532.867188,77.794907 
		559.36908,50.637711 526.273376,69.200211 544.841797,36.109409 517.679688,62.605507 517.679688,62.607407 517.677673,62.606407 
		517.679688,62.605507 527.048767,25.835909 507.671875,58.459999 507.203094,20.51861 496.941376,57.010708 486.697296,20.511709 
		486.210876,58.454109 486.214783,58.458 486.209015,58.459 486.210876,58.454109 466.849579,25.819309 476.201202,62.594707 
		476.205078,62.59671 476.201202,62.59771 476.201202,62.594707 449.050781,36.084 467.603485,69.185509 467.607391,69.186508 
		467.605499,69.189507 467.603485,69.185509 434.515594,50.606407 461.00589,77.777306 461.007782,77.777306 461.00589,77.778305 
		461.00589,77.777306 424.236298,68.395508 456.855499,87.78421 456.857391,87.783211 456.857391,87.78611 456.855499,87.78421 
		418.912079,88.239311 455.4375,98.523407 455.4375,98.523407 455.4375,98.523407 455.4375,98.523407 418.904297,108.78521 
		456.847687,109.26371 456.847687,109.26371 424.214783,128.632813 460.986298,119.274406 460.988281,119.275406 
		434.482391,146.428711 467.582001,127.871109 467.582001,127.871109 449.00589,160.960907 476.171875,134.468704 
		476.173798,134.468704 466.796875,171.238312 486.179688,138.620102 486.18158,138.621109 486.640594,176.560501 
		496.921875,140.037109 496.923798,140.037109 507.185486,176.565399 507.662079,138.625 507.664093,138.625 527.031311,171.251999 
		517.671875,134.4814 517.673767,134.480499 544.826172,160.983398 526.26947,127.887711 526.26947,127.886703 
		559.357361,146.457993 532.865173,119.293907 532.867188,119.292999 569.632813,128.667007 537.011658,109.28521 
		537.011658,109.28421 	"/>
	<rect y="300" fill="#119033" width="600" height="100"/>
	<rect y="200" fill="#F7DF13" width="600" height="100"/>
	<path fill="#019BC4" d="M527.570313,98.542c0,16.920906-13.716797,30.637703-30.638733,30.637703
		c-16.919891,0-30.636688-13.716797-30.636688-30.637703s13.716797-30.637688,30.636688-30.637688
		C513.853516,67.904312,527.570313,81.621109,527.570313,98.542z"/>
	<circle fill="#FBD411" cx="496.93161" cy="98.542" r="28.083961"/>
</g>
</svg>
