<svg class="svgOrigin" xmlns="http://www.w3.org/2000/svg" width="600" height="400" x="0px" y="0px" viewBox="0 0 600 400" enable-background="new 0 0 600 400">
<g>
	<rect x="0.000488" y="-0.00049" fill="#FF0000" width="599.999512" height="400.000488"/>
	<path fill="#FFC600" d="M388.336884,214.626999c-4.218689-0.669006-6.065399-2.676788-10.236298-5.957092
		c-4.173798-3.2724-8.930695-3.214798-8.930695-3.214798l-0.001892,0.001892v-0.001892h0.001892
		c0,0,2.6026-2.317398,6.896484-2.317398c4.301819,0,6.063507,3.429688,12.608429,3.429688
		c6.540985,0.001907,9.260681-7.048401,9.260681-7.048401s-4.127899,1.106003-8.3974,1.108902
		c-4.271484-0.0009-6.40921-1.695297-11.041992-4.283188c-4.635712-2.579605-9.324188-1.778305-9.324188-1.778305
		l-0.002014,0.001999v-0.003006l0.002014,0.001007c0,0,2.20697-2.697296,6.449188-3.368607
		c4.247101-0.670898,6.524384,2.440399,12.990204,1.415512c6.460999-1.019608,8.042999-8.410202,8.042999-8.410202
		s-3.90329,1.738297-8.121094,2.409698c-4.217804,0.667496-6.594727-0.672409-11.576202-2.503403
		c-4.972595-1.819794-9.469696-0.303696-9.485321-0.298904v-0.002899c0.011719-0.018997,1.769501-3.008789,5.841797-4.332001
		c4.089813-1.326691,6.826111,1.389099,13.049805-0.633789c6.223602-2.0186,6.628906-9.564499,6.628906-9.564499
		s-3.582001,2.327194-7.643585,3.649887c-4.061523,1.318909-6.61911,0.367706-11.825226-0.661087
		c-5.20108-1.021011-9.406189,1.184586-9.413971,1.188492l-0.003021-0.000992
		c0.006897-0.011703,1.273499-3.248505,5.092804-5.195313c3.832092-1.950195,6.960999,0.304703,12.791016-2.667496
		c5.830078-2.966812,5.050781-10.483902,5.050781-10.483902s-3.174805,2.859909-6.978485,4.8013
		c-3.80661,1.9375-6.479492,1.398407-11.78421,1.1978c-5.288086-0.195801-9.093689,2.633698-9.112305,2.645996V163.75v-0.001007
		c0.00592-0.027786,0.752899-3.409592,4.21582-5.925781c3.480499-2.525299,6.922882-0.78801,12.214874-4.635208
		c5.294922-3.842804,3.348602-11.145004,3.348602-11.145004s-2.6875,3.321304-6.141602,5.833511
		c-3.455994,2.509689-6.179688,2.394485-11.450195,3.025803c-5.266602,0.636292-8.588898,4.041992-8.588898,4.041992
		s0.200195-3.4785,3.239319-6.517105c3.039978-3.039001,6.712891-1.862289,11.337891-6.489197
		c4.628906-4.624008,1.564484-11.531799,1.564484-11.531799s-2.133789,3.701202-5.153381,6.722702
		c-3.020508,3.018997-5.729523,3.331497-10.835907,4.780304c-5.100586,1.451202-7.849609,5.3349-7.849609,5.3349v0.000992v-0.000992
		c0,0-0.347687-3.466309,2.177704-6.943298c2.529297-3.4776,6.338928-2.889206,10.182617-8.182602
		c3.850586-5.292503-0.257813-11.635803-0.257813-11.635803s-1.52829,3.989799-4.037109,7.447304
		c-2.511688,3.454597-5.138702,4.186501-9.955994,6.416496c-4.808594,2.230499-6.916107,6.491699-6.919006,6.496094
		c-0.001892-0.006393-0.882782-3.371597,1.065399-7.1978c1.954102-3.82959,5.809601-3.844696,8.778412-9.674797
		c2.973602-5.829597-2.075195-11.451599-2.075195-11.451599s-0.885803,4.179703-2.823303,7.986305
		c-1.940399,3.805199-4.418915,4.938995-8.829102,7.895004c-4.3974,2.952698-5.811493,7.483887-5.817413,7.498093
		l-0.001892-0.001007c-0.00589-0.01709-1.394501-3.196793-0.072296-7.273499
		c1.331085-4.088791,5.136688-4.707001,7.156311-10.929596c2.024384-6.222198-3.841797-10.985405-3.841797-10.985405
		s-0.219818,4.266609-1.538116,8.329109c-1.320313,4.061996-3.592804,5.569298-7.484406,9.178696
		c-3.883789,3.606003-4.571289,8.305191-4.573181,8.315903h-0.002014c-0.007782-0.011703-1.877899-2.936996-1.208984-7.173302
		c0.673889-4.245598,4.335999-5.452202,5.358398-11.914597c1.025391-6.461899-5.513611-10.248001-5.513611-10.248001
		s0.451111,4.247597-0.215912,8.4673c-0.668884,4.218201-2.677673,6.0625-5.955994,10.235802
		c-3.276398,4.173897-3.216797,8.930695-3.216797,8.930695s-2.317383-2.599106-2.317383-6.897499
		c0-4.298798,3.42868-6.062996,3.42868-12.605896c0-6.542999-7.049805-9.2593-7.049805-9.2593s1.111816,4.125,1.111816,8.3965
		s-1.697205,6.407196-4.281219,11.042c-2.526367,4.532196-1.81839,9.084404-1.785187,9.286095
		c-0.208984-0.175797-2.687988-2.349091-3.32959-6.414993c-0.672302-4.246605,2.441406-6.524902,1.414581-12.985405
		c-1.012695-6.462898-8.399902-8.049301-8.399902-8.049301s1.735809,3.898903,2.405304,8.123505
		c0.662109,4.212395-0.673401,6.593796-2.512299,11.574692c-1.822205,4.9795-0.294891,9.484901-0.294891,9.484901l0.002991,0.001999
		l-0.003998,0.0009l0.001007-0.002899c0,0-3.010712-1.758301-4.335388-5.843697
		c-1.328613-4.089897,1.390594-6.827209-0.634308-13.047401c-2.011688-6.224594-9.556213-6.635803-9.556213-6.635803
		s2.324799,3.579109,3.646515,7.646507c1.313507,4.057198,0.366699,6.618202-0.67041,11.825699
		c-1.020996,5.203606,1.192902,9.414101,1.192902,9.414101l0.004913,0.001892l-0.004913,0.002014v-0.003906
		c0,0-3.248505-1.265594-5.196808-5.093796c-1.951599-3.830513,0.305695-6.959404-2.666992-12.787102
		c-2.960907-5.833-10.477005-5.059105-10.477005-5.059105s2.855911,3.171906,4.797806,6.982002
		c1.93219,3.801689,1.397522,6.478996,1.187988,11.785606c-0.193787,5.298386,2.650909,9.111298,2.650909,9.111298
		l0.009308,0.001999l-0.008301,0.003891l-0.001007-0.00589c0,0-3.407196-0.742111-5.929688-4.218704
		c-2.527313-3.477997-0.787109-6.921402-4.634811-12.211899c-3.837402-5.298401-11.139603-3.357399-11.139603-3.357399
		s3.317902,2.684998,5.831009,6.144501c2.503494,3.453102,2.394592,6.181099,3.016602,11.454597
		c0.638687,5.263596,4.044998,8.5849,4.044998,8.5849h0.001892l-0.001892,0.000992v-0.000992
		c0,0-3.482498-0.200607-6.517105-3.239212c-3.0401-3.040085-1.859894-6.712891-6.488297-11.336395
		c-4.619095-4.632889-11.527802-1.573288-11.527802-1.573288s3.697205,2.132797,6.721207,5.156799
		c3.012695,3.018494,3.330994,5.730881,4.770996,10.841293c1.454102,5.098602,5.338303,7.846588,5.338303,7.846588h0.001999
		l-0.001007,0.001007l-0.000992-0.001007c0,0-3.470703,0.34671-6.943802-2.180588
		c-3.4785-2.526413-2.887207-6.339401-8.181702-10.181198c-5.287109-3.852997-11.632309,0.25-11.632309,0.25
		s3.985413,1.528305,7.444809,4.041504c3.448303,2.510284,4.1875,5.138702,6.408203,9.961502
		c2.234894,4.80809,6.500488,6.914993,6.500488,6.914993l0.007813-0.002502l-0.004807,0.007401l-0.003006-0.004898
		c0,0-3.373489,0.885696-7.199692-1.066895c-3.830109-1.952209-3.842697-5.810104-9.672806-8.776901
		c-5.825699-2.978012-11.450699,2.066895-11.450699,2.066895s4.175308,0.885803,7.985306,2.826691
		c3.799393,1.939911,4.94101,4.42041,7.888702,8.836914c2.959,4.399399,7.501495,5.812988,7.501495,5.812988l0.003906-0.001999
		l-0.002014,0.004013l-0.001892-0.002014c0,0-3.192902,1.402313-7.277405,0.071808
		c-4.088791-1.328598-4.705002-5.136703-10.926697-7.155304c-6.2202-2.030304-10.987305,3.832504-10.987305,3.832504
		s4.263611,0.222198,8.330109,1.543503c4.055603,1.321793,5.571198,3.593201,9.173294,7.493103
		c3.611298,3.882889,8.318405,4.56839,8.318405,4.56839l0.002899-0.001999l-0.001007,0.003006l-0.001892-0.001007
		c0,0-2.934097,1.884796-7.1763,1.209503c-4.245605-0.673401-5.450699-4.337402-11.911606-5.358398
		c-6.461502-1.031799-10.252502,5.505295-10.252502,5.505295s4.245605-0.4487,8.469299,0.22081
		c4.212402,0.671295,6.064407,2.6772,10.233414,5.96579c4.173294,3.270508,8.929596,3.210403,8.929596,3.210403l0.002991-0.001907
		l-0.000992,0.003906l-0.001999-0.001999c0,0-2.602493,2.320801-6.898895,2.317902
		c-4.298309-0.001007-6.061508-3.431595-12.602509-3.428696c-6.543503-0.008804-9.264694,7.040482-9.264694,7.040482
		s4.123093-1.106384,8.399399-1.106384c4.265701,0.003891,6.408203,1.696304,11.040604,4.291
		c4.633789,2.577103,9.321686,1.774399,9.321686,1.774399l0.002014-0.002014v0.002014h-0.002014
		c0,0-2.207489,2.699203-6.45108,3.368195c-4.246613,0.671799-6.523911-2.441498-12.984406-1.414093
		c-6.463913,1.014603-8.048309,8.40329-8.048309,8.40329s3.898895-1.738297,8.122498-2.408188
		c4.213409-0.663101,6.594711,0.673782,11.575699,2.511688c4.980011,1.820313,9.484909,0.294006,9.484909,0.294006
		s-1.757797,3.010696-5.844803,4.336899c-4.089798,1.327103-6.825592-1.390594-13.045395,0.633804
		c-6.225998,2.013596-6.634705,9.559494-6.634705,9.559494s3.579102-2.327103,7.645004-3.650299
		c4.058594-1.314499,6.620102-0.365295,11.826187,0.669907c5.203613,1.018494,9.414505-1.193405,9.414505-1.193405
		s-1.265091,3.248993-5.093704,5.199203c-3.832092,1.949295-6.959991-0.305603-12.786697,2.6651
		c-5.833893,2.964798-5.056595,10.480392-5.056595,10.480392s3.170395-2.858398,6.979492-4.80069
		c3.803207-1.933609,6.4814-1.396515,11.785614-1.188507c5.298386,0.191406,9.111389-2.651398,9.111389-2.651398l0.0009-0.003906
		l0.001999,0.003906h-0.002899c0,0-0.741302,3.406296-4.2173,5.931702c-3.479492,2.525391-6.92189,0.787094-12.212387,4.632797
		c-5.298416,3.840805-3.354507,11.142609-3.354507,11.142609s2.684097-3.320404,6.142593-5.834015
		c3.453598-2.504898,6.182602-2.3936,11.454102-3.0186c5.263107-0.639587,8.5849-4.0439,8.5849-4.0439V245.041l0.001999,0.001999
		h-0.001999c0,0-0.199692,3.480408-3.237793,6.519501c-3.041504,3.039108-6.713806,1.859406-11.336899,6.487305
		c-4.632309,4.621094-1.570297,11.529297-1.570297,11.529297s2.13179-3.700195,5.154297-6.722687
		c3.018997-3.014618,5.732391-3.333008,10.84079-4.775299c5.098709-1.454102,7.84671-5.336014,7.84671-5.336014v-0.003891
		l0.002899,0.001999l-0.002899,0.001892c0,0,0.346695,3.468796-2.178711,6.944412
		c-2.52829,3.478485-6.339401,2.889587-10.182098,8.18158c-3.852097,5.288116,0.252411,11.63382,0.252411,11.63382
		s1.527298-3.988312,4.039993-7.44632c2.5103-3.450195,5.140701-4.1875,9.959518-6.413086
		c4.80368-2.231415,6.910675-6.487305,6.914581-6.495117h0.001892c0.002899,0.013702,0.880402,3.376007-1.065887,7.198212
		c-1.953583,3.830109-5.809601,3.843811-8.777298,9.673889c-2.977112,5.826111,2.069794,11.450226,2.069794,11.450226
		s0.884689-4.177826,2.824692-7.985413c1.939911-3.802704,4.422302-4.941406,8.834015-7.894501
		c4.398895-2.958008,5.8125-7.496094,5.813385-7.498108c0.001007,0.002014,1.401917,3.19342,0.075195,7.27829
		c-1.330475,4.087921-5.136688,4.705109-7.156677,10.928802c-2.028809,6.219727,3.835876,10.984314,3.835876,10.984314
		s0.221222-4.265594,1.541504-8.329102c1.320801-4.059509,3.594299-5.572205,7.489319-9.178711
		c3.883789-3.611298,4.570282-8.314392,4.570282-8.314392s1.882813,2.930603,1.211395,7.17572
		c-0.674286,4.246094-4.337372,5.450195-5.358398,11.914093c-1.03067,6.460907,5.507416,10.248993,5.507416,10.248993
		s-0.449707-4.248016,0.219696-8.466797c0.669403-4.217712,2.678192-6.066406,5.960907-10.237305
		c3.270508-4.17569,3.212402-8.928711,3.212402-8.928711l-0.002899-0.003906h0.004883l-0.001984,0.003906
		c0,0,2.318909,2.600616,2.319885,6.898499c-0.000977,4.299805-3.431702,6.061523-3.428802,12.604523
		c-0.006805,6.542877,7.042511,9.262604,7.042511,9.262604s-1.107391-4.125916-1.106415-8.3974
		c0.001007-4.271515,1.69632-6.411102,4.285126-11.044006c2.577179-4.635712,1.776398-9.320313,1.776398-9.320313
		l-0.003906-0.003906h0.00589l-0.001984,0.003906c0,0,2.697296,2.205109,3.370087,6.449188
		c0.671906,4.247131-2.441406,6.525421-1.414001,12.98642c1.016602,6.462891,8.405212,8.046783,8.405212,8.046783
		s-1.740204-3.901276-2.408203-8.120972c-0.666992-4.219818,0.673889-6.59671,2.50589-11.578217
		c1.818298-4.978485,0.299805-9.473602,0.295898-9.481384h0.001892c0.009827,0.005798,3.00882,1.761688,4.335022,5.839783
		c1.329102,4.091797-1.390594,6.827209,0.635681,13.047913c2.015717,6.223602,9.559601,6.633789,9.559601,6.633789
		s-2.327087-3.583008-3.648407-7.644592c-1.31839-4.063416-0.365295-6.621094,0.664001-11.827118
		c1.016602-5.197296-1.180573-9.396484-1.189392-9.412079h0.001923c0.024475,0.007782,3.250977,1.276306,5.195374,5.09079
		c1.951111,3.831116-0.305695,6.958008,2.666901,12.788116c2.964905,5.830078,10.480499,5.054688,10.480499,5.054688
		s-2.858398-3.174805-4.798767-6.978516c-1.937531-3.808594-1.398529-6.483398-1.194427-11.786194
		c0.191498-5.28421-2.626892-9.082001-2.645508-9.108398l0.003906-0.001892c0.045898,0.010712,3.413116,0.763611,5.921906,4.21579
		c2.527405,3.478516,0.787109,6.920898,4.634796,12.212921c3.842804,5.294891,11.144501,3.352478,11.144501,3.352478
		s-3.320282-2.688477-5.832001-6.141602c-2.510803-3.457977-2.395508-6.185486-3.024384-11.453094
		c-0.639709-5.266602-4.042023-8.584991-4.042023-8.584991h-0.007782l0.005798-0.006805l0.001984,0.006805
		c0,0,3.478516,0.197296,6.517609,3.236389c3.037994,3.041016,1.859314,6.712921,6.487305,11.337921
		c4.622986,4.628876,11.531189,1.568268,11.531189,1.568268s-3.700195-2.137695-6.720703-5.154297
		c-3.020477-3.023376-3.332001-5.734375-4.779297-10.838791c-1.454102-5.1026-5.333984-7.847687-5.333984-7.847687h-0.005798
		l0.003906-0.003906l0.001892,0.003906c0,0,3.465881-0.349609,6.942383,2.177689
		c3.476624,2.527405,2.887726,6.338898,8.181732,10.183594c5.289978,3.847717,11.635681-0.255798,11.635681-0.255798
		s-3.990204-1.532288-7.44632-4.040085c-3.455994-2.511703-4.1875-5.14061-6.414978-9.957001
		c-2.2276-4.797897-6.466797-6.903305-6.493195-6.915009l0.003876-0.003998c0.040009-0.009705,3.386719-0.873001,7.190399,1.066498
		c3.830109,1.954102,3.843811,5.810501,9.67392,8.779297c5.828094,2.972595,11.452087-2.074295,11.452087-2.074295
		s-4.179688-0.888596-7.985291-2.825195c-3.806702-1.939407-4.941406-4.420914-7.894592-8.830002
		c-2.950226-4.389694-7.471588-5.808594-7.496124-5.814499l0.002014-0.003906c0.03421-0.015594,3.207001-1.392593,7.270508-0.071289
		c4.089783,1.330093,4.705078,5.135788,10.92868,7.158188c6.22171,2.023499,10.986328-3.839798,10.986328-3.839798
		s-4.267517-0.226608-8.329132-1.542999c-4.061493-1.320297-5.572174-3.591797-9.17868-7.485397
		c-3.603516-3.8759-8.294891-4.567307-8.3125-4.571198v-0.002014c0.023499-0.016586,2.944397-1.88089,7.169891-1.209
		c4.248108,0.672913,5.452209,4.336914,11.916107,5.360413c6.460907,1.024399,10.248993-5.512695,10.248993-5.512695
		S392.554688,215.292999,388.336884,214.626999z M300.000488,258.025391c-32.046387,0-58.024887-25.978485-58.024887-58.025879
		c0-32.045898,25.9785-58.023407,58.024887-58.023407c32.044403,0,58.024902,25.977509,58.024902,58.023407
		C358.025391,232.046906,332.044891,258.025391,300.000488,258.025391z"/>
	<path fill="#FFC600" d="M282.441895,186.023407c-7.936493-4.756805-17.300812-8.318298-28.318405-9.840805
		c-2.760696,6.218811-4.307098,13.0952-4.307098,20.337906c0,8.682602,2.204605,16.847702,6.082504,23.970703
		C260.600098,211.568405,269.18988,197.859909,282.441895,186.023407z"/>
	<path fill="#FFC600" d="M290.314484,191.445801c-1.914581-1.509293-3.938477-2.944794-6.062469-4.302689
		c-12.758331,11.26709-21.215424,24.377396-26.010834,33.279785c-0.405273,0.753906-0.782684,1.474609-1.135681,2.162109
		c1.799286,2.957001,3.903809,5.704102,6.256287,8.216797C266.900391,222.051804,275.036591,205.535202,290.314484,191.445801z"/>
	<path fill="#FFC600" d="M291.898895,192.74411c-12.748505,11.691391-20.468201,25.145493-24.674805,34.261795
		c-0.949188,2.0625-1.697205,3.862305-2.299805,5.396393c3.145996,3.077209,6.693909,5.740311,10.558105,7.908203
		c2.338409-7.784103,8.917511-25.892502,23.1026-41.330505C296.515106,196.822311,294.290497,194.734406,291.898895,192.74411z"/>
	<path fill="#FFC600" d="M315.94339,184.606903c8.122009-4.959,17.721619-8.710907,29.025391-10.363205
		c-0.796875-1.604095-1.677795-3.157288-2.63678-4.658691c-12.564423,1.603989-23.297821,5.325195-32.408203,10.26799
		C312.021484,181.3862,314.033203,182.970703,315.94339,184.606903z"/>
	<path fill="#FFC600" d="M307.845703,210.309601c-2.304718-3.324203-4.916016-6.644608-7.849121-9.847198
		c-10.531281,11.509308-16.784698,24.550308-20.188995,33.498505c-1.138702,3.002991-1.938904,5.494202-2.481384,7.332092
		c6.811981,3.455994,14.511688,5.417908,22.674286,5.417908c8.161591,0,15.858917-1.958908,22.67041-5.417908
		c-0.541992-1.835999-1.338898-4.329102-2.479492-7.334C317.75,227.523407,313.807587,218.922897,307.845703,210.309601z"/>
	<path fill="#FFC600" d="M308.097687,178.525406c9.250916-5.148407,20.161102-9.080597,32.9599-10.844696
		c-0.685486-0.973709-1.399384-1.925797-2.148407-2.845703c-14.224579,0.538986-26.459991,4.317307-36.838898,9.860306
		C304.150391,175.916,306.171906,177.184601,308.097687,178.525406z"/>
	<path fill="#FFC600" d="M337.212891,162.854004c-9.18161-10.1436-22.452209-16.516602-37.212402-16.516602
		c-14.760284,0-28.030304,6.373001-37.212891,16.516602c14.400909,0.816895,26.75,4.870605,37.208984,10.639694
		C310.459015,167.723602,322.808594,163.669907,337.212891,162.854004z"/>
	<path fill="#FFC600" d="M297.926788,174.693405c-10.374084-5.538101-22.6026-9.312103-36.836487-9.857498
		c-0.75,0.919998-1.462402,1.871094-2.146515,2.843796c12.797394,1.765106,23.706116,5.696304,32.956116,10.843704
		C293.827087,177.183609,295.84668,175.914108,297.926788,174.693405z"/>
	<path fill="#FFC600" d="M290.079102,179.848099c-9.104523-4.942795-19.838409-8.658188-32.411102-10.263092
		c-0.957092,1.5-1.838913,3.052704-2.636307,4.656693c11.304214,1.652298,20.901901,5.404297,29.023514,10.363297
		C285.967285,182.967804,287.980011,181.381302,290.079102,179.848099z"/>
	<path fill="#FFC600" d="M292.009796,180.951706c-2.150909,1.543396-4.208496,3.148895-6.165588,4.805099
		c2.095673,1.361404,4.109894,2.786194,6.004883,4.290604c2.011688-1.776413,4.154297-3.497604,6.407196-5.161697
		C296.272491,183.5112,294.18158,182.203598,292.009796,180.951706z"/>
	<path fill="#FFC600" d="M293.428192,191.3647c2.344696,1.962906,4.533203,4.014709,6.572296,6.132904
		c2.035614-2.115295,4.221191-4.1651,6.563019-6.125992c-2.059601-1.810104-4.261719-3.560104-6.579102-5.246109
		C297.672882,187.808609,295.485382,189.559601,293.428192,191.3647z"/>
	<path fill="#FFC600" d="M301.732391,184.877411c2.25589,1.667496,4.40329,3.391586,6.416992,5.170898
		c1.894501-1.503403,3.908203-2.9272,6.002014-4.288498c-1.963898-1.662109-4.041992-3.265701-6.201202-4.814011
		C305.78418,182.193405,303.712891,183.508301,301.732391,184.877411z"/>
	<path fill="#FFC600" d="M318.311493,203.632813c-2.977478-3.683105-6.395508-7.361313-10.241211-10.8862
		c-2.385681,1.984787-4.601501,4.071289-6.666992,6.222092c14.190491,15.440506,20.773499,33.557693,23.111298,41.343796
		c3.866302-2.169891,7.412201-4.8311,10.558594-7.908203c-0.601501-1.534195-1.350494-3.334-2.301697-5.398392
		C329.848602,220.648407,325.196289,212.156204,318.311493,203.632813z"/>
	<path fill="#FFC600" d="M345.873993,176.175812c-11.012695,1.519501-20.384705,5.081497-28.326111,9.842789
		c13.257813,11.838303,21.848602,25.549805,26.551697,34.474609c3.877899-7.123108,6.084015-15.2901,6.084015-23.972702
		C350.183594,189.275909,348.637695,182.3965,345.873993,176.175812z"/>
	<path fill="#FFC600" d="M306.143585,179.6689c-1.97168-1.343201-4.033203-2.618088-6.166992-3.83049
		c-2.123108,1.208496-4.163605,2.489197-6.127502,3.826584c2.129395,1.256912,4.200195,2.554214,6.151398,3.925812
		C301.948181,182.2202,304.016602,180.923813,306.143585,179.6689z"/>
	<path fill="#FFC600" d="M326.161102,197.696304c-3.094696-3.583496-6.586914-7.152802-10.449219-10.561996
		c-2.118103,1.355392-4.123993,2.799805-6.033203,4.306595c15.281311,14.0923,23.419006,30.612808,26.957001,39.362808
		c2.353607-2.512711,4.457123-5.259811,6.257904-8.216812c-0.353577-0.689392-0.731506-1.410095-1.138702-2.166
		C338.419891,214.225601,333.292999,205.954102,326.161102,197.696304z"/>
</g>
</svg>
