<svg class="svgOrigin" xmlns="http://www.w3.org/2000/svg" width="600" height="400" x="0px" y="0px" viewBox="0 0 600 400" enable-background="new 0 0 600 400">
<g>
	<rect x="-0.000488" fill="#FFD700" width="599.857849" height="399.905273"/>
	<rect x="0.284668" fill="#008649" width="599.856934" height="133.3013"/>
	<rect x="-0.000488" fill="#008649" width="599.857849" height="133.3013"/>
	<rect x="-0.000488" y="266.604492" fill="#D60027" width="599.857849" height="133.300766"/>
	
		<ellipse transform="matrix(0.152324 -0.988331 0.988331 0.152324 56.622467 465.923309)" fill="#0087B9" cx="299.92807" cy="199.952759" rx="135.968155" ry="135.967667"/>
	<polygon fill="#FFD700" points="309.738281,170.106003 290.301788,170.106003 286.128906,182.9487 362.481384,182.9487 
		334.75589,203.092804 328.482391,183.784698 314.182587,183.786606 337.524384,255.625 356.245087,269.227509 
		338.850586,215.695297 401.599579,170.106003 324.038086,170.106003 307.170898,118.194809 300.022003,140.198212 	"/>
	<polygon fill="#FFD700" points="265.354492,203.188507 276.129395,211.020508 306.731384,116.841309 300.070801,96.341309 
		276.104004,170.106003 198.542007,170.106003 216.223587,182.951706 271.931183,182.9487 	"/>
	<polygon fill="#FFD700" points="309.997986,236.65921 326.572296,224.615204 322.477478,212.012711 299.277802,228.86911 
		237.224594,183.783707 217.371597,183.785599 261.290985,215.695297 237.322296,289.459015 254.759293,276.790009 
		272.067902,223.525406 289.350586,236.0811 262.534698,255.564499 255.909698,275.956116 300.070801,243.870102 
		362.817383,289.459015 356.682587,270.578094 	"/>
	<polygon fill="#FFD700" points="302.933594,310.866211 300.070801,310.866211 297.208008,310.866211 296.208496,256.048798 
		303.933594,256.048798 	"/>
	<polygon fill="#FFD700" points="404.790009,236.213898 403.782196,238.892609 402.773376,241.571304 351.117188,223.195297 
		353.838898,215.966812 	"/>
	<polygon fill="#FFD700" points="363.170898,108.786606 365.479492,110.480507 367.785187,112.176804 336.136688,156.946304 
		329.911102,152.372101 	"/>
	<polygon fill="#FFD700" points="195.351593,236.213898 196.35939,238.892609 197.368698,241.571304 249.024399,223.195297 
		246.3022,215.966812 	"/>
	<polygon fill="#FFD700" points="236.970688,108.786606 234.662598,110.480507 232.3564,112.176804 264.005402,156.946304 
		270.230499,152.372101 	"/>
</g>
</svg>
