<svg class="svgOrigin" xmlns="http://www.w3.org/2000/svg" width="600" height="400" x="0px" y="0px" viewBox="0 0 600 400" enable-background="new 0 0 600 400">
<g>
	<rect fill="#FFD600" width="600" height="400"/>
	<polygon fill="#00844A" points="467.109375,0 0,313.015594 0,0 	"/>
	<polygon fill="#D60029" points="132.890594,400 600,86.984406 600,400 	"/>
	<polygon points="600,62.77541 98.308601,400 0,400 0,337.224609 501.691376,0 600,0 	"/>
	<polygon fill="#FFFFFF" points="181.093796,336.419891 169.746094,301.502014 133.031296,301.502014 162.73439,279.917999 
		151.388702,245 181.093796,266.582001 210.79689,245 199.449188,279.917999 229.154297,301.502014 192.439499,301.502014 	"/>
	<polygon fill="#FFFFFF" points="421.363281,176.639206 410.017578,141.721207 373.302704,141.721207 403.00589,120.137207 
		391.660187,85.219711 421.363281,106.801308 451.06839,85.219711 439.722687,120.137207 469.425781,141.721207 
		432.710876,141.721207 	"/>
</g>
</svg>
