<svg class="svgOrigin" xmlns="http://www.w3.org/2000/svg" width="600" height="400" x="0px" y="0px" viewBox="0 0 600 400" enable-background="new 0 0 600 400">
<g>
	<rect x="0.000488" y="-0.00049" fill="#00844A" width="599.999512" height="400.000488"/>
	<rect x="0.000488" y="-0.00049" fill="#FFFFFF" width="159.372101" height="400.000488"/>
	<polygon fill="#FFFFFF" points="414.709991,108.835907 434.992188,132.577606 463.839783,120.625504 447.527283,147.250504 
		467.809601,170.992203 437.445282,163.707993 421.13089,190.334 418.679688,159.203613 388.315399,151.918503 
		417.163086,139.965805 	"/>
	<path fill="#FFFFFF" d="M402.574188,282.045898c-60.138702,0-108.889099-48.751999-108.889099-108.889694
		c0-36.281693,17.7612-68.397896,45.044403-88.185997c-52.229004,13.965302-90.704102,61.592796-90.704102,118.227104
		c0,67.596603,54.797791,122.392502,122.392609,122.392502c53.700195,0,99.288086-34.594696,115.776276-82.702103
		C466.22168,266.814514,436.180695,282.045898,402.574188,282.045898z"/>
</g>
</svg>
