<svg class="svgOrigin" xmlns="http://www.w3.org/2000/svg" width="600" height="400" x="0px" y="0px" viewBox="0 0 600 400" enable-background="new 0 0 600 400">
<g>
	<rect fill="#D60029" width="600" height="400"/>
	<polygon fill="#84AD21" points="600,200 0,0 600,0 	"/>
	<polygon fill="#00B5E7" points="600,200 0,400 600,400 	"/>
	<path fill="#FFB500" d="M264.667999,196.667007c0,0-7.667999,0.332993-14.334,7.666992
		c-2.705109,2.976501-4.796906,5.943298-6.337906,8.429703c0.304703-1.92189,0.558594-3.875,0.691406-5.894592
		c0.113297-1.775406,0.166-3.517502,0.166-5.226501c-0.009705-7.342804-1.017609-14.0625-2.6875-20.183609
		c2.251999-0.507797,7.3965-2.186493,12.167999-7.459c6.334-7,3.000015-21.332993,3.000015-21.332993
		S247.334,161.332993,245.334,166.332993c-1.408203,3.518616-2.976608,9.664108-3.785202,13.00592
		c-3.652298-11.988312-9.837906-21.54892-16.0215-28.732513c1.658203-0.539993,6.037201-2.7314,6.037201-10.836899
		c0-10-10-18.666992-10-18.666992s-4,7-3.334,13.666992c0.449188,4.497101,3.322189,10.197311,5.1465,13.438492
		c-6.125-6.610291-11.921906-10.872986-14.892609-12.858383c-1.605499-2.0215-4.08989-4.285095-7.816391-5.682602
		C192.667999,126.667,179.334,128,179.334,128s7.334,8.332993,12,11.332993c3.830093,2.462921,14.60939,1.109421,18.3535,0.544907
		c0.308594,0.230515,0.619095,0.461914,0.951187,0.718811c2.675812,2.064392,6.03511,4.932602,9.548813,8.601501
		C219.019501,148.773407,217.640594,148.364304,216,148c-9-2-23,0.332993-23,0.332993S208.334,158,214,158
		c3.966797,0,8.417999-2.284195,10.73439-3.656296c5.009705,6.151398,9.875,13.917999,13.132797,23.325195
		c-1.42189-1.677689-3.341797-3.810501-5.867188-6.335907c-6.334-6.334-16.666-8-16.666-8s4,12.334015,11,17
		c4.986298,3.324219,10.29689,2.588913,12.947296,1.891617c1.609299,5.892593,2.574203,12.360397,2.570297,19.417999
		c0,1.6465-0.050797,3.324203-0.156296,5.037094c-0.195297,3.269501-0.671906,6.388702-1.343704,9.390594
		c-0.240295-3.488297-0.867203-8.8125-2.519592-12.736298C235.164093,197,226.164093,190,226.164093,190
		s-1.998093,12.334,0.667908,19.334c2.183594,5.730499,9.941391,8.998001,12.6875,9.998001
		c-3.125,10.878906-9.218704,19.900406-16.7285,27.095703c0.986298-3.439407,4.822296-7.822205,7.419891-14.462906
		c3-7.667892-4.333893-17-4.333893-17s-7.666107,11-8.334,19.334c-0.525406,6.582108,2.890594,11.279312,4.3535,12.968811
		c-6.6465,6.152298-14.298798,10.915985-21.917999,14.333984c1.23439-2.119202,2.5625-4.621094,5.0215-6.935593
		c5.666-5.334,4.667999-15,4.667999-15s-13,4.667999-16.334,13c-2.119202,5.300797-1.542999,9.513718-0.841797,11.884811
		c-7.164108,2.423798-13.972702,3.622986-19.492203,3.613281c-0.222702,0-0.460907-0.013702-0.6875-0.017578
		c-0.089798-0.111298-0.191406-0.242218-0.308609-0.400421c-1.343689-1.800781-4.097595-6.277405-4.093689-12.710892
		c-0.003906-0.560593,0.017487-1.126999,0.0625-1.701202c0.240189-3.6875,2.652298-7.851593,5.472595-12.126999
		c0.351593,0.009796,0.773499,0.019608,1.298798,0.019608c2.439499-0.052811,6.408203-0.150406,9.853607-1.310608
		c11.386688,4.767609,18.355392-6.072296,18.355392-6.072296c-3.039001-1.900299-11.777298-0.568298-11.777298-0.568298
		c1.519501-3.609406-0.191406-9.308609-0.191406-9.308609c-7.953094,2.705109-9.10939,10.982407-9.27739,13.609406
		c-2.175705,0.449203-4.523407,0.638596-6.269501,0.6465c3.281296-4.9375,6.580093-9.964905,6.625-15.365295
		c0-0.308609-0.013702-0.605408-0.031204-0.886703c-0.222702-2.730499-1.238297-5.1035-2.601593-7.25
		c0.640594-0.554703,1.593689-1.335892,2.824188-2.197296c1.167999-0.814407,2.564499-1.681595,4.117203-2.458908
		c8.308594,13.195313,19.621094,11.621002,19.621094,11.621002c1.14061-7.220703-6.648392-15.005798-6.648392-15.005798
		c3.419907,0.380798,13.867096-4.179703,13.867096-4.179703c-14.894501-9.930695-23.160095-0.781296-26.191391,3.984406
		c-4.292908,1.7715-7.634705,4.326096-9.34761,5.794907c-1.078094-1.351608-2.23439-2.623108-3.351593-3.835907
		c-3.5-3.691406-6.4375-7.001999-6.351501-9.992203c0-0.098694,0-0.168991,0.003906-0.198303
		c0.171799-3.150391,1.11319-4.682587,2.066391-5.566391c1.755798,5.070297,10.308609,12.282196,10.308609,12.282196
		s1.898392-7.408203-0.76181-13.297806c2.281311,2.469711,14.058609,1.710007,14.058609,1.710007
		s-2.66011-9.498093-11.398407-9.878006c-5.648392-0.245087-9.220703,2.9151-11.050797,5.185608
		c-0.667999,0.183594-1.519501,0.517593-2.406204,1.141602c-0.701202,0.487289-1.390701,1.166992-1.988297,2.056595
		c-3.1875-3.529297-13.074203-14.6064-14.189499-17.3125c0,0-2.849594,4.559601-0.951096,10.448303
		c-4.558609-2.660202-8.738312-6.079102-8.738312-6.079102s-1.140594,11.778305,8.359406,14.057602
		c6.607407,1.5849,12.011703,0.965805,14.693298,0.440399c-0.541,1.250992-0.917999,2.766586-0.994095,4.614304
		c-0.013702,0.127899-0.013702,0.276291-0.013702,0.395493c0.035202,1.970703,0.693405,3.718704,1.666,5.3535
		c-1.486298-0.119202-3.296906-0.224594-5.160095-0.226593c-0.8125,0.019592-1.619202,0.041-2.412201,0.082092
		c-3.460907-1.54689-11.851501-3.67189-22.216705,5.109299c0,0,6.837799,4.9375,15.578094,1.328201
		c0,0-5.320297,10.068298-4.939499,12.917908c0,0,13.105499-0.570313,13.302811-16.435501c0.2285,0,0.457001-0.005905,0.6875,0
		c3.183594,0,6.324188,0.330093,7.546799,0.472595c0.992188,1.158203,2.060593,2.291,3.101593,3.435608
		c3.441406,3.669891,6.628906,7.406189,6.917999,11.689392c0.01561,0.218796,0.023407,0.453201,0.023407,0.679703
		c0.035202,3.2285-1.773407,6.898499-4.167999,10.720703c-1.718704-1.623001-4.992203-3.884705-9.980408-3.902298
		c-0.416092,0-0.843796,0.015594-1.283203,0.050797c-3.548889-1.302811-10.712891-2.154297-20.138687,5.828094
		c0,0,3.988297,3.419907,14.628891,0.759796c0,0-2.089798,3.796799-1.519501,6.837799c0,0,10.519501-4.662094,10.01561-10.328094
		c2.203094,0.306702,3.890594,1.138702,5.089798,2.001999c0.667999,0.480408,1.156296,0.947205,1.511795,1.324203
		c-0.222702,0.332001-0.441498,0.664093-0.667999,0.998001c-3.402405,5.117203-7.113297,10.335999-7.566406,15.959
		c-0.054688,0.65239-0.074188,1.300797-0.074188,1.927795c0.007797,5.876907,1.996094,10.283188,3.605392,12.898392
		c-4.548798-0.453094-9.679703-1.580078-15.007797-3.38089c0.701202-2.371094,1.277405-6.585907-0.841797-11.886703
		c-3.334-8.332001-16.334-13-16.334-13s-0.998001,9.666,4.667999,15c2.460892,2.316391,3.789093,4.818405,5.023392,6.937515
		c-7.621094-3.416016-15.275391-8.18161-21.921791-14.334015c1.460899-1.6875,4.88279-6.384689,4.3554-12.970703
		c-0.667908-8.334-8.334-19.334-8.334-19.334s-7.3339,9.332108-4.3339,17c2.599594,6.644608,6.4394,11.029312,7.421799,14.468811
		c-7.511703-7.195313-13.6054-16.218811-16.732399-27.101608c2.744194-0.998001,10.505898-4.265594,12.689499-9.998001
		c2.666-7,0.6679-19.334,0.6679-19.334s-9,7-11.6679,13.334c-1.652405,3.925812-2.281303,9.255798-2.5196,12.74411
		c-0.671799-3.003906-1.148399-6.126907-1.343704-9.398407c-0.109398-1.712891-0.162094-3.390594-0.162094-5.037094
		c0.0019-7.063507,0.970695-13.527405,2.580093-19.417007c2.650307,0.697311,7.957001,1.430603,12.943306-1.892609
		c7-4.665985,11-17,11-17s-10.332001,1.666-16.666,8c-2.517601,2.517609-4.433601,4.645508-5.855499,6.32132
		c3.255898-9.3965,8.107498-17.155319,13.121094-23.311508C123.582001,155.714813,128.031296,158,132,158
		c5.666,0,21-9.667007,21-9.667007S139,146,130,148c-1.642609,0.365204-3.023407,0.774399-4.193405,1.200211
		c3.517609-3.672897,6.882904-6.544006,9.552795-8.6035c0.332001-0.256897,0.642609-0.488297,0.95311-0.719711
		c3.742203,0.564407,14.5215,1.918915,18.3535-0.544006c4.666-3,12-11.332993,12-11.332993s-13.334-1.333-21.334,1.667007
		c-3.72261,1.3965-6.207001,3.655304-7.810501,5.675797c-2.966797,1.9814-8.763702,6.242203-14.892601,12.8535
		c1.824196-3.242203,4.691399-8.934601,5.140594-13.426804c0.666008-6.666992-3.334-13.666992-3.334-13.666992
		s-10,8.666992-10,18.666992c0,8.100601,4.3731,10.294006,6.035202,10.835999
		c-6.183601,7.18161-12.369095,16.740204-16.0215,28.726501c-0.808601-3.343689-2.3769-9.483398-3.783195-12.999008
		c-2-5-12-13.665985-12-13.665985S85.332001,167,91.666,174c4.767601,5.269501,9.912094,6.949203,12.164101,7.457993
		c-1.669907,6.122116-2.675804,12.840805-2.6856,20.184616c0,1.705093,0.050797,3.447189,0.164093,5.230392
		c0.136703,2.017609,0.386703,3.966797,0.693405,5.884796c-1.5411-2.48439-3.632896-5.449188-6.335999-8.423798
		c-6.666-7.334-14.334-7.666992-14.334-7.666992S77.667999,207.666,90,216.666
		c7.769501,5.669907,11.832001,5.121109,13.777298,3.939499c2.363297,7.9785,6.199303,14.980408,10.984398,21.01561
		c-2.138695-0.992203-4.710899-1.763702-7.761696-1.955109C96.332001,239,90.332001,241.334,90.332001,241.334
		S102,252.666,111,252.666c6.085899,0,9.269501-2.130798,10.695297-3.511703
		c7.267593,6.835907,15.722702,12.025421,24.107407,15.646515c-2.4785-0.072296-5.291-0.134827-7.470703-0.134827
		c-5,0-16.666,6.66803-16.666,6.66803s13.001999,7,21.334,3.665985c5.494095-2.197296,7.501999-5.835907,8.238297-8.064484
		c3.861298,1.369202,7.642593,2.402374,11.222595,3.101593c-1.355392,1.404297-2.261688,3.212891-2.882797,4.853485
		c-1.125,3.029297-0.796799,5.871094-0.804703,5.941406l2.027405,0.259796c-0.005905-0.003906,0.609406-2.535187,1.585907-5.150391
		c0.972687-2.638702,2.574188-4.898407,4.619186-5.179718c2.107407,0.25592,4.123001,0.400421,5.99411,0.404297
		c2.587891-0.003876,5.4375-0.265594,8.447296-0.755768c0.113205,0.048798,0.25,0.109283,0.443298,0.210876
		c1.447296,0.798798,4.355499,2.736298,4.390701,8.076202c0,1.275421-0.023499,2.695313-0.453201,4.421814l2.222702,0.521484
		c0,0,1.230499-3.394501,1.230499-4.943298c0-4.570282-1.847702-7.402405-3.675797-9.087891
		c2.957001-0.669891,6.031189-1.566406,9.156189-2.675812C195.498001,269.164093,197.50589,272.800812,203,275
		c8.332001,3.334015,21.334-3.665985,21.334-3.665985s-11.666-6.66803-16.666-6.66803
		c-2.179703,0-4.992203,0.064514-7.472702,0.134827c8.382797-3.621094,16.839905-8.810608,24.105499-15.648514
		C225.7285,250.533203,228.912094,252.666,235,252.666c9,0,20.667999-11.332001,20.667999-11.332001S249.667999,239,239,239.666
		c-3.054703,0.191406-5.628906,0.962906-7.769501,1.959c4.789001-6.037094,8.625-13.041,10.992188-21.0215
		c1.941406,1.183609,6.003906,1.736298,13.777313-3.9375C268.332001,207.666,264.667999,196.667007,264.667999,196.667007z"/>
</g>
</svg>
