<svg class="svgOrigin" xmlns="http://www.w3.org/2000/svg" width="600" height="400" x="0px" y="0px" viewBox="0 0 600 400" enable-background="new 0 0 600 400">
<g>
	<rect x="0.000977" fill="#FFAD00" width="599.999023" height="400"/>
	<rect x="0.000977" fill="#004A7B" width="199.999512" height="400"/>
	<rect x="400" fill="#004A7B" width="200" height="400"/>
	<path d="M360.054688,129.75441c-20.474609,10.617203-21.376984,17.037094-17.972687,20.441391
		c3.404297,3.404312,7.109406,6.910202,7.109406,6.910202s-19.537109,36.072205-24.478516,89.806107h-15.845703v-95.9897
		c10.091827-5.232498,17.238312-14.609406,17.238312-14.609406c-15.117218-12.775398-24.328217-50.332497-24.328217-50.332497
		s-9.210388,37.557098-24.327576,50.332497c0,0,7.146484,9.376907,17.238281,14.609406v95.9897h-15.845703
		c-4.941406-53.733902-24.478485-89.806107-24.478485-89.806107s3.704987-3.50589,7.109283-6.910202
		c3.404297-3.404297,2.502014-9.824188-17.972595-20.441391s-30.710892-8.341805-30.710892-8.341805
		c43.601486,39.052696,51.185501,139.528809,51.185501,139.528809h30.712891v54.976593h14.179199v-54.976593h30.712891
		c0,0,7.584015-100.476105,51.185516-139.528809C390.765594,121.412605,380.529297,119.137207,360.054688,129.75441z"/>
</g>
</svg>
