<svg class="svgOrigin" xmlns="http://www.w3.org/2000/svg" width="600" height="400" x="0px" y="0px" viewBox="0 0 600 400" enable-background="new 0 0 600 400">
<g>
	<rect x="0.000488" y="-0.00049" fill="#FFD600" width="599.999512" height="400.000488"/>
	<polygon points="0.000488,103.004906 600,296.99411 600,382.656189 0.000488,188.666504 	"/>
	<polygon fill="#FFFFFF" points="0.000488,17.343309 600,211.332993 600,296.99411 0.000488,103.004906 	"/>
	<polygon fill="#DE0029" stroke="#000000" stroke-width="1.02292" points="298.709991,118.865204 297.266083,118.865204 
		297.266083,144.774902 298.709991,144.774902 300.152283,144.774902 300.152283,118.865204 	"/>
	<path fill="#DE0029" stroke="#000000" stroke-width="1.02292" d="M298.709991,141.176804c0,0-8.309601-9.494202-20.966309-9.494202
		c-12.656281,0-34.018082,19.383804-44.698792,19.383804c-10.680603,0-11.867691-5.142593-11.867691-5.142593
		s0,13.053299,15.823807,13.053299c0,0-3.560608,7.911591,10.28508,7.911591c0,0-0.393494,5.142502,13.449692,5.142502
		c0,0-0.3974,3.955597,7.514221,3.955597c7.911591,0,15.823181-9.098099,15.823181-9.098099s-0.790985,7.516098,6.725098,5.933609
		v11.129395c0,0-4.139587-0.933105-6.38327-0.933105c3.498077,2.723099,9.152374,6.021393,9.152374,13.537598
		c0,7.516113-3.560577,9.098114-3.560577,12.6586c0,3.560608,0,11.076202,0,11.076202s-1.186523-1.186493-3.559998-1.186493
		c0,0,6.329071,6.722595,6.329071,13.052704c0,6.329086-6.724579,12.262695-6.724579,20.570297
		c0,8.306702,1.977997,9.493195,1.977997,9.493195s-8.703094-2.768585-10.681213-4.350586
		c0,0,8.703217,17.009796,21.361908,17.009796c12.658203,0,21.361298-17.009796,21.361298-17.009796
		c-1.977509,1.582001-10.680695,4.350586-10.680695,4.350586s1.9776-1.186493,1.9776-9.493195
		c0-8.307602-6.724609-14.241211-6.724609-20.570297c0-6.330109,6.329102-13.052704,6.329102-13.052704
		c-2.373108,0-3.559601,1.186493-3.559601,1.186493s0-7.515594,0-11.076202c0-3.560486-3.560608-5.142487-3.560608-12.6586
		c0-7.516205,5.654327-10.814499,9.152405-13.537598c-2.244202,0-6.383789,0.933105-6.383789,0.933105v-11.129395
		c7.516602,1.582489,6.725586-5.933609,6.725586-5.933609s7.911102,9.098099,15.823212,9.098099
		c7.911194,0,7.513702-3.955597,7.513702-3.955597c13.843689,0,13.450195-5.142502,13.450195-5.142502
		c13.845703,0,10.285095-7.911591,10.285095-7.911591c15.823303,0,15.823303-13.053299,15.823303-13.053299
		s-1.186493,5.142593-11.867188,5.142593s-32.042999-19.383804-44.699219-19.383804
		C307.019501,131.682602,298.709991,141.176804,298.709991,141.176804z"/>
	<path fill="#DE0029" stroke="#000000" stroke-width="1.02292" d="M414.444275,286.966797
		c-9.462891,0-18.210876-4.493195-19.207977-6.279297c-1.786102-3.202087,2.523499-3.75589,2.523499-3.75589
		s-1.835999-6.429596,3.406189-5.27832c0,0-2.429688-5.243073,2.173798-4.987305c0,0,1.278412-41.939377,1.278412-44.497086
		c0-2.556595-2.557709-5.114197-2.045898-9.717697c0.511719-4.6026,2.045898-7.160202,4.091797-8.438492
		c2.045898-1.279312,16.877899-11.763718,17.645508-13.298309c0.767487-1.534195,0.255798-6.137299,2.557587-7.160202
		c0,0-0.767609-8.183594-0.767609-10.484894c0-2.301697,2.557617-5.1147,5.370117-1.022903c0,0,0.25589-5.626495,4.347687-4.091797
		c0,0,2.813507-2.813004,4.858398-1.022995c0,0,4.603516-3.068802,4.603516,2.045898c0,5.114304,0,13.553696,0,16.110901
		c0,2.557098-2.8125,16.110794-10.229523,22.504395c-7.415985,6.393494-12.274384,10.996094-12.274384,13.809494
		c0,2.8125,2.301697,44.753006,2.301697,44.753006s4.858398,0,3.06839,5.114197c0,0,5.114319,0.25589,3.06842,5.370117
		c0,0,6.379883-0.078125,2.809479,4.539093C430.453094,285.795898,425.34079,286.966797,414.444275,286.966797z"/>
	<line fill="#DE0029" stroke="#000000" stroke-width="1.02292" x1="306.621094" y1="172.822311" x2="303.447296" y2="169.6465"/>
	<line fill="#DE0029" stroke="#000000" stroke-width="1.02292" x1="313.34668" y1="166.888702" x2="306.247986" y2="159.51561"/>
	<path fill="#DE0029" stroke="#000000" stroke-width="1.02292" d="M336.683594,172.031204c0,0-13.557587-9.1064-19.695313-13.965302
		"/>
	<path fill="#DE0029" stroke="#000000" stroke-width="1.02292" d="M350.133789,166.888702c0,0-7.400391-1.235901-20.272491-10.6978"
		/>
	<path fill="#DE0029" stroke="#000000" stroke-width="1.02292" d="M360.418884,158.977112c0,0-10.699188,0.2827-19.989197-7.218307"
		/>
	<path fill="#DE0029" stroke="#000000" stroke-width="1.02292" d="M403.339783,266.665985c0,0,3.53421,2.179718,10.902405,2.179718
		s10.8349-2.690399,10.8349-2.690399"/>
	<path fill="#DE0029" stroke="#000000" stroke-width="1.02292" d="M401.165985,271.65329c0,0,4.69339,2.953125,13.838898,2.953125
		c9.146515,0,13.140594-3.336914,13.140594-3.336914"/>
	<path fill="#DE0029" stroke="#000000" stroke-width="1.02292" d="M431.213898,276.639618c0,0-3.337891,3.470795-16.041016,3.470795
		c-12.702179,0-17.413086-3.178802-17.413086-3.178802"/>
	<path fill="#DE0029" stroke="#000000" stroke-width="1.02292" d="M424.309601,190.714401c0,0,5.200195-5.239288,6.842682-1.248596
		c1.642609,3.990707-14.319275,19.951202-14.319275,19.951202s12.087891-4.341797,16.313477-10.092804
		c4.225616-5.750992,4.225616-8.566895,4.225616-11.618591c0-3.051804,4.225586-8.91951,4.225586-8.91951"/>
	<path fill="#DE0029" stroke="#000000" stroke-width="1.02292" d="M440.675781,166.93161c0,0-1.80368,3.253494-1.261688,15.299789"
		/>
	<path fill="#DE0029" stroke="#000000" stroke-width="1.02292" d="M435.817383,167.954605c0,0-0.90918,2.1465-0.90918,14.704605
		c0,2.347092-1.05661,9.388702-1.05661,9.388702"/>
	<path fill="#DE0029" stroke="#000000" stroke-width="1.02292" d="M431.469696,172.046402c0,0,0,12.843201,0,14.133804
		c0,1.290497-0.317413,3.285599-0.317413,3.285599"/>
	<path fill="#DE0029" stroke="#000000" stroke-width="1.02292" d="M182.975601,286.966797
		c9.462402,0,18.210892-4.493195,19.207993-6.279297c1.786102-3.202087-2.523392-3.75589-2.523392-3.75589
		s1.835892-6.429596-3.406311-5.27832c0,0,2.429199-5.243073-2.173798-4.987305c0,0-1.278793-41.939377-1.278793-44.497086
		c0-2.556595,2.557602-5.114197,2.045898-9.717697c-0.511307-4.6026-2.045898-7.160202-4.091797-8.438492
		c-2.045914-1.279312-16.878006-11.763718-17.645508-13.298309c-0.767105-1.534195-0.255402-6.137299-2.557205-7.160202
		c0,0,0.767105-8.183594,0.767105-10.484894c0-2.301697-2.557098-5.1147-5.370102-1.022903c0,0-0.25589-5.626495-4.347595-4.091797
		c0,0-2.813004-2.813004-4.858902-1.022995c0,0-4.603104-3.068802-4.603104,2.045898c0,5.114304,0,13.553696,0,16.110901
		c0,2.557098,2.813004,16.110794,10.229507,22.504395c7.416,6.393494,12.274902,10.996094,12.274902,13.809494
		c0,2.8125-2.301712,44.753006-2.301712,44.753006s-4.858887,0-3.068893,5.114197c0,0-5.114197,0.25589-3.068298,5.370117
		c0,0-6.379395-0.078125-2.809097,4.539093C166.966797,285.795898,172.079102,286.966797,182.975601,286.966797z"/>
	<path fill="#DE0029" stroke="#000000" stroke-width="1.02292" d="M298.709991,103.126999
		c-18.632385,0-18.959991,6.77681-18.959991,6.77681c0,9.2061-4.219696,18.028801-4.219696,18.028801l7.671783-6.776802
		l4.731018,7.927704l7.160675-7.927704l3.616211,7.0327l3.616211-7.0327l7.160095,7.927704l4.731506-7.927704l7.671783,6.776802
		c0,0-4.219696-8.822701-4.219696-18.028801C317.669891,109.903809,317.341797,103.126999,298.709991,103.126999z"/>
	<path fill="none" stroke="#000000" stroke-width="1.02292" d="M290.006805,220.291c0,0,4.339386,2.414108,4.599182,4.599609
		c0,0,2.593201-6.45311,4.104004-6.45311c1.510193,0,4.103516,6.45311,4.103516,6.45311
		c0.259674-2.185501,4.599579-4.599609,4.599579-4.599609"/>
	<path fill="none" stroke="#000000" stroke-width="1.02292" d="M288.029297,262.220703c0,0,3.3862,1.560486,4.165497,3.252899
		c0,0,3.226593-10.059494,6.515198-11.593704c3.287994,1.53421,6.514587,11.593704,6.514587,11.593704
		c0.779327-1.692413,4.166016-3.252899,4.166016-3.252899"/>
	<path fill="none" stroke="#000000" stroke-width="1.02292" d="M290.798279,183.951706c0,0,2.930725,1.221603,3.697815,3.693802
		c0,0,1.948212-5.710907,4.213898-7.245102c2.265594,1.534195,4.213806,7.245102,4.213806,7.245102
		c0.766602-2.472198,3.697296-3.693802,3.697296-3.693802"/>
	<line fill="#DE0029" stroke="#000000" stroke-width="1.02292" x1="290.798279" y1="172.822311" x2="293.972687" y2="169.6465"/>
	<line fill="#DE0029" stroke="#000000" stroke-width="1.02292" x1="284.073181" y1="166.888702" x2="291.171906" y2="159.51561"/>
	<path fill="#DE0029" stroke="#000000" stroke-width="1.02292" d="M260.735779,172.031204c0,0,13.557709-9.1064,19.695404-13.965302
		"/>
	<path fill="#DE0029" stroke="#000000" stroke-width="1.02292" d="M247.286087,166.888702c0,0,7.399918-1.235901,20.272507-10.6978"
		/>
	<path fill="#DE0029" stroke="#000000" stroke-width="1.02292" d="M237.001007,158.977112c0,0,10.698685,0.2827,19.988678-7.218307"
		/>
	<path fill="none" stroke="#000000" stroke-width="1.02292" d="M279.75,109.903809
		c0,6.648895,18.959991,5.370102,18.959991,5.370102s18.9599,1.278793,18.9599-5.370102"/>
	<path fill="#DE0029" stroke="#000000" stroke-width="1.02292" d="M194.080093,266.665985c0,0-3.534195,2.179718-10.902405,2.179718
		c-7.368591,0-10.8349-2.690399-10.8349-2.690399"/>
	<path fill="#DE0029" stroke="#000000" stroke-width="1.02292" d="M196.253891,271.65329c0,0-4.69339,2.953125-13.839798,2.953125
		c-9.145996,0-13.140198-3.336914-13.140198-3.336914"/>
	<path fill="#DE0029" stroke="#000000" stroke-width="1.02292" d="M166.205597,276.639618c0,0,3.338303,3.470795,16.041,3.470795
		c12.702591,0,17.413605-3.178802,17.413605-3.178802"/>
	<path fill="#DE0029" stroke="#000000" stroke-width="1.02292" d="M173.109894,190.714401c0,0-5.200195-5.239288-6.842804-1.248596
		c-1.64209,3.990707,14.319305,19.951202,14.319305,19.951202s-12.087402-4.341797-16.313004-10.092804
		c-4.225494-5.750992-4.225494-8.566895-4.225494-11.618591c0-3.051804-4.225601-8.91951-4.225601-8.91951"/>
	<path fill="#DE0029" stroke="#000000" stroke-width="1.02292" d="M156.743195,166.93161c0,0,1.804199,3.253494,1.262695,15.299789"
		/>
	<path fill="#DE0029" stroke="#000000" stroke-width="1.02292" d="M161.602097,167.954605c0,0,0.909103,2.1465,0.909103,14.704605
		c0,2.347092,1.05719,9.388702,1.05719,9.388702"/>
	<path fill="#DE0029" stroke="#000000" stroke-width="1.02292" d="M165.949692,172.046402c0,0,0,12.843201,0,14.133804
		c0,1.290497,0.317398,3.285599,0.317398,3.285599"/>
	<g>
		<path fill="#DE0029" stroke="#000000" stroke-width="1.02292" d="M297.266083,109.867706
			c0,0.372498,0.646515,0.675293,1.443909,0.675293c0.796814,0,1.442291-0.302795,1.442291-0.675293V65.917999
			c0-0.353493-0.645477-0.639191-1.442291-0.639191c-0.797394,0-1.443909,0.285698-1.443909,0.639191V109.867706z"/>
		<path fill="none" stroke="#000000" stroke-width="1.02292" d="M300.152283,65.917999
			c0,0.354004-0.645477,0.63961-1.442291,0.63961c-0.797394,0-1.443909-0.285606-1.443909-0.63961"/>
	</g>
	<path fill="#DE0029" stroke="#000000" stroke-width="1.02292" d="M298.709991,91.107407l19.599609,12.786591l-11.507813-18.540489
		h11.890594c-6.904297-6.9048-19.982391-14.716301-19.982391-14.716301V91.107407z"/>
	<path fill="none" d="M353.208008,288.639618c-0.451202,0.317383-0.998993,0.791077-1.519531,1.308594
		c-1.000977,0.954102-1.957977,2.241302-2.056671,2.546906c-0.007813,0.301788-0.042023,0.754883-0.075226,1.3125
		c1.585999-1.125,3.110413-2.267609,4.54892-3.423828c-0.328217-0.574188-0.593811-1.189484-0.689514-1.886688
		C353.350586,288.539093,353.280304,288.586914,353.208008,288.639618z"/>
	<path fill="none" d="M215.931198,289.194305c0.459396,0.69339,1.031693,1.166992,1.9189,1.169006
		c0.381302,0.009674,0.762192,0.057587,1.142593,0.114197c-0.128891-0.228516-0.274399-0.461914-0.383301-0.679596
		C217.707001,289.623993,216.797897,289.448212,215.931198,289.194305z"/>
	<path fill="none" d="M220.938995,256.163116c0.170395,0.370087,0.485306,0.865173,0.927704,1.388702
		c-0.422409-0.84671-0.827103-1.704117-1.221695-2.569412c0.029785,0.324203,0.055191,0.517593,0.057083,0.536194
		C220.718796,255.513702,220.735794,255.72171,220.938995,256.163116z"/>
	<path fill="#DE0029" stroke="#000000" stroke-width="1.02292" d="M365.493195,165.476105
		c5.356384,10.341293,8.401306,22.0737,8.401306,34.523407c0,41.522995-33.660095,75.186005-75.184509,75.186005
		c-41.524506,0-75.186096-33.66301-75.186096-75.186005c0-12.4487,3.044006-24.179199,8.399399-34.520508
		c-11.894501,14.729507-19.031204,33.461899-19.031204,53.869598c0,47.395508,38.421906,85.817383,85.817902,85.817383
		c47.395508,0,85.817291-38.421875,85.817291-85.817383C384.527283,198.939911,377.390594,180.205612,365.493195,165.476105z"/>
	<path fill="#DE0029" stroke="#000000" stroke-width="1.02292" d="M298.709991,309.117188
		c-30.212402,0-47.857895-11.763672-60.132904-22.759796c-12.274887-10.996094-14.320786-9.205994-17.389587-6.648376
		c-3.068802,2.55658-7.160599,6.904297,2.045898,16.110291c0,0-4.347702-2.55661-10.229507-2.301697
		c-5.88179,0.255798-10.996094,5.115204-10.484894,8.695282c0.511795,3.580109,3.324799,5.626007,3.324799,5.626007
		s-9.973694,0.255798-11.252502,6.137695c-1.27829,5.881805,3.580597,3.324219,4.6035,2.557617
		c1.022995-0.767609,4.091309-3.069397,12.274902-3.069397s21.992691,10.741272,26.340393,12.787201
		c4.347107,2.044891,12.530701,3.068298,12.274918-7.927826c0,0,16.438889,13.808624,48.624985,13.808624
		c32.185486,0,48.625-13.808624,48.625-13.808624c-0.25589,10.996124,7.927704,9.972717,12.274414,7.927826
		c4.347595-2.045929,18.157196-12.787201,26.34079-12.787201c8.182587,0,11.251892,2.301788,12.274384,3.069397
		c1.023407,0.766602,5.881805,3.324188,4.603516-2.557617c-1.27829-5.881897-11.251892-6.137695-11.251892-6.137695
		s2.8125-2.045898,3.324188-5.626007c0.511688-3.580078-4.603516-8.439484-10.484406-8.695282
		c-5.881805-0.254913-10.229492,2.301697-10.229492,2.301697c9.206085-9.205994,5.114288-13.553711,2.045898-16.110291
		c-3.069305-2.557617-5.115204-4.347717-17.389587,6.648376C346.567383,297.353516,328.921906,309.117188,298.709991,309.117188z"/>
	<path fill="#FDD114" stroke="#CF1126" stroke-width="0.162389" d="M313.983398,315.357391
		c2.737305,0.468811,5.230499,2.652405,4.227509,4.894623c-1.116211,2.674774-5.23822,3.32608-6.794922,3.130798
		c-1.675781-0.775421-0.672791-1.898407,4.467804-2.332001c3.350616-0.947327,0.299805-2.697327-2.235382-3.538116
		C312.273407,317.057587,312.699188,315.134796,313.983398,315.357391z"/>
	<path fill="#FDD114" stroke="#CF1126" stroke-width="0.162389" d="M305.498993,314.665985
		c1.272491-1.11908,2.305695,2.309601,2.586914,4.684601c0.369171,2.32132,0.40918,5.184601-0.798828,5.326202
		c-0.74118,0.096619-0.12207-2.6651-0.885681-5.196289C305.407196,316.547913,304.979492,315.157196,305.498993,314.665985z"/>
	<path fill="#FDD114" stroke="#CB4F46" stroke-width="0.162389" d="M302.578094,318.895508
		c3.194397,2.393585-2.218201,9.320282-14.055603,6.298798c-0.671387-0.948212,4.699188-0.007813,8.486298-0.517517
		C304.213898,323.797913,301.122986,317.834015,302.578094,318.895508z"/>
	<path fill="#FDD114" stroke="#CF1126" stroke-width="0.162389" d="M296.786591,314.148407
		c1.272003-1.11911,0.531799,2.420898,0.796417,4.800781c0.259796,2.235413-0.063995,4.955109-1.436523,4.601624
		c-0.743195-0.27832,0.473602-2.785217-0.288605-5.147522C295.040497,315.440399,295.819794,314.897491,296.786591,314.148407z"/>
	<path fill="#FDD114" stroke="#CF1126" stroke-width="0.162389" d="M288.658203,313.199188
		c2.257782-0.011688,1.652283,0.479523,1.492676,5.140625c-0.175781,5.226593-5.887695,5.809601-7.245575,4.375
		c-1.138702-1.122009-0.723206-1.4599-5.824707-1.083923c-1.141602-0.444397-1.098694-1.390686-4.826691-1.149475
		c-0.965302,0.137695-0.933105-1.274414-2.671417-2.117126c-3.031708-1.403381-4.040985,1.032227-9.8237-1.542999
		c-0.360382-0.155304-2.706085-1.304688-2.27829-3.578094c0.446289-2.867188-2.940903,0.353516-6.662109-0.899506
		c-0.720291-0.248993-2.901901-0.950104-4.826202-2.256775c-2.71579-1.804718,0.127899-2.167999,3.799301-0.328125
		c2.26561,1.109406,5.594711-1.444275,5.685104-4.001984c0.202606-2.707001-1.539597-3.417908,1.160614-3.352509
		c1.505402,0.036102,1.149872,4.731415-1.411621,6.807617c-3.423386,2.860382-1.112793,2.309601,0.108902,2.1651
		c1.27681-0.247101,7.077591-5.801819,8.045395-5.326202c1.50882,0.790985-4.522003,4.343689-3.172394,7.705994
		c0.64502,1.498108,4.241211,2.936584,7.198303,3.169006c3.480408,0.445282,3.490204-3.205109,4.900787-2.515625
		c1.950714,0.991211-3.728973,2.852509,2.234924,4.213806c1.316376,0.302795,2.077576-2.286102,2.856903-2.175781
		c1.874084,0.237274-1.221619,3.028381,2.124481,3.47168c2.332611,0.299805,1.694397-2.607391,3.139709-2.42868
		c1.673309-0.085907,0.104004,4.648376,4.742188,4.164978C289.360779,321.460907,286.301788,313.209015,288.658203,313.199188z"/>
	<path fill="#FDD114" stroke="#CF1126" stroke-width="0.162389" d="M246.605499,307.053711
		c1.344696-0.22171,3.6474-1.184601,3.743088-2.743225c0.19191-1.704071-2.878891-2.297791-6.524887-1.853485
		c-1.9189,0.223694-5.178696-0.739197-7.098602-2c-1.919907-1.856384-1.919907-3.929688-4.22171-3.041016
		c-1.72699,0.593811,2.398514,4.002014,4.41362,4.81842c2.014587,0.817383,5.277283,0.74118,5.468292,1.92868
		C242.577087,305.349609,241.618195,307.203094,246.605499,307.053711z"/>
	<path fill="#FDD114" stroke="#CF1126" stroke-width="0.162389" d="M328.256805,315.015594
		c-0.743103,0.275391-1.346619,5.458008,2.844788,5.572296c5.258789,0.143524,7.901306-1.917999,9.220703-2.651398
		c2.183594-1.285095,6.128906-3.852478,4.304718-6.067383c-0.914124-0.805603-1.420013,1.479492-2.468811,2.814484
		c-1.434601,1.959991-6.341797,4.285095-10.099609,3.967804C327.459991,318.435486,329.191406,314.832001,328.256805,315.015594z"/>
	<path fill="#FDD114" stroke="#CF1126" stroke-width="0.162389" d="M339.065399,312.616211
		c-1.07132-0.626007,2.376984-1.650421,2.733398-2.617218c0.359406-0.967804-1.5224-1.877899-0.479492-2.939392
		c1.098694-1.394592,1.158173,2.633789,2.552795,2.747009c3.862305,0.311584,1.105377,2.238281-0.353516,1.864288
		C341.872101,311.292999,339.707001,313.084991,339.065399,312.616211z"/>
	<path fill="#FDD114" stroke="#CF1126" stroke-width="0.162389" d="M336.072296,306.516602
		c-0.247101,1.342804,0.811493,1.677704,1.122986,0.911102C337.566406,305.987305,336.507782,305.313507,336.072296,306.516602z"/>
	<path fill="#FDD114" stroke="#CF1126" stroke-width="0.162389" d="M338.867188,305.123993
		c-0.621094,0.038116-0.703094,1.706116,0.108398,1.75c0.86911,0.053711,0.467804,1.192413,1.198212,1.176819
		c0.871094-0.017609,0.939484-1.908203-0.047791-1.925812C339.210876,306.106415,339.424805,305.131805,338.867188,305.123993z"/>
	<path fill="#FDD114" stroke="#CF1126" stroke-width="0.162389" d="M345.852478,304.803711
		c-0.735291,0.72168-2.139587-2.782196,2.577209-3.28421c2.243195,0.152405,4.155304,3.006897,3.958008,5.757813
		c-0.074219,1.017578-0.127899,3.310577-0.855499,4.433594c-0.599609,1.070282-2.769501,4.584991-3.824188,4.279297
		c-1.05661-0.305603,0.273376-1.776306,2.044006-3.822205c1.42868-1.671906,1.973572-6.317413,1.254791-7.131897
		c-0.727509-0.817413-1.458923,2.035187-2.970703,2.649384c-1.25882,0.50882-2.573212-0.96579-2.765625-1.67868
		c-0.157196-0.844696,0.835022-1.364197,1.510803-0.359314c0.539001,0.754822,2.197205-0.743195,2.157196-1.814484
		C348.982391,302.100586,347.497986,303.473602,345.852478,304.803711z"/>
	<path fill="#FDD114" stroke="#CF1126" stroke-width="0.162389" d="M356.017578,296.984406
		c-0.595673,0.663086-2.639679,2.139587-3.039093,2.751007c-0.393494,0.61319-0.458984,1.682587,0.200195,2.703094
		c0.661102,1.016602,2.044006,2.6474,1.780334,4.126007c-0.259827,1.476471-1.581116,4.535095-0.85553,4.279175
		c0.725616-0.255798,2.502899-3.262604,2.107391-5.55368c-0.393494-2.293915-1.782196-3.566406-1.511688-4.332001
		c0.259827-0.762695,1.907196-2.189392,2.235413-3.158203c0.333984-0.969696-0.194397-3.566406-0.657318-3.770508
		c-0.4599-0.203094-2.108398,0.25592-1.578094,1.121094C355.222687,296.017609,356.342804,295.50589,356.017578,296.984406z"/>
	<path fill="#FDD114" stroke="#CF1126" stroke-width="0.15287" d="M358.732391,298.172913
		c-0.743103,0.521393-0.372986,3.360291,0.641602,2.345673C360.298798,299.531189,359.320282,297.709991,358.732391,298.172913z"/>
	<path fill="#FDD114" stroke="#CF1126" stroke-width="0.18465" d="M339.348602,319.248993
		c-0.345703,1.242218,1.237274,1.63382,1.672882,0.924805C341.540985,318.843689,339.954102,318.139587,339.348602,319.248993z"/>
	<path fill="#FDD114" stroke="#CF1126" stroke-width="0.203619" d="M341.774384,318.196289
		c-0.517578,1.018524,1.782196,1.108398,2.425812,0.525421C344.968781,317.628906,342.673798,317.287109,341.774384,318.196289z"/>
	<path fill="#CF1126" stroke="#CF1126" stroke-width="0.162389" d="M246.319794,303.497101
		c-1.227493-0.426788-1.152786,1.482391-0.576096,2.001892C246.319794,306.014587,249.665497,304.686493,246.319794,303.497101z"/>
	<path fill="#FDD114" stroke="#CF1126" stroke-width="0.27649" d="M233.101089,243.552704
		c-0.825195,0.890701-1.53569-1.452103-4.365692,0.191406c-1.595306,1.055695-2.235397,2.667999-2.224701,6.045883
		c0.011307,2.863312,2.142105,4.773514,3.377502,4.581116c1.895996-0.189499,0.906189-3.691406,2.962891-4.327209
		c2.966812-1.080994,7.165512,0.573303,7.906708,2.672897c0.741196,2.099609-1.399399,4.393616-3.705109,4.137695
		c-1.317291-0.383789,0.741211-1.845688,0.905304-2.483383c0.164597-0.634811,0.411102-2.737305-1.564392-3.308609
		c-1.975113-0.573196-1.647507,1.528305-1.729507,2.100601c-0.082596,0.573196-1.482498,2.355499-3.046402,2.291
		c-1.563492-0.063492-4.050797-0.057602-6.505402-2.099594c-1.301788-1.048798-2.88179-3.881805-1.482391-7.448303
		c1.400391-3.564407,3.789001-3.879807,5.105499-3.943298C230.054199,241.8965,233.429688,242.53421,233.101089,243.552704z"/>
	<path fill="#FDD114" stroke="#CF1126" stroke-width="0.27649" d="M229.723587,258.38089
		c-1.373489-0.567383,0.516113-2.634781-3.045898-1.910187c-1.433594,0.307587,2.139709,3.501007,3.704102,3.628906
		C232.111801,259.97171,231.629395,259.104492,229.723587,258.38089z"/>
	<path fill="#FDD114" stroke="#CF1126" stroke-width="0.27649" d="M233.511688,260.099609
		c0.741211,2.609406,1.442413,2.388702,1.565002,3.689484c0.059998,1.665009-3.6241,0.955017-4.118698,1.720703
		c-0.494095,0.762695-1.150406,2.735321,1.234909,2.86319c2.388596,0.127014,5.815887-0.583893,6.506287,0.69931
		c1.858902,3.607422,5.824707,3.085907,7.673813,2.5224c2.091797-0.644501,7.014694-4.073181,8.136292-4.36908
		c1.670395-0.47171-1.563492-1.398499-3.457092-0.126007c-0.493607,0.381805-4.612305,3.628906-6.752899,3.690399
		c-1.563507,0.135803-3.986801-2.928711-3.870102-4.007813c0.162598-0.762695,3.766098-0.133789,4.280289-1.717682
		c0.384705-1.132904,0.412613-2.355499-0.740295-2.420013c-1.152298-0.063385-6.587906,0.509796-6.752396-0.127899
		c-0.988297-1.845703,0.987793-2.607391,0.247604-3.116211C236.641098,259.146515,233.594193,258.764618,233.511688,260.099609z"/>
	<path fill="#FDD114" stroke="#CF1126" stroke-width="0.27649" d="M251.820297,270.220703
		c-1.742203,1.410187-6.330597,3.667999-6.330597,5.260712c0,0.904297,1.2798,2.321289,2.33989,2.65918
		c1.579102,0.481506,4.003403,0.36142,5.84761-0.745087c2.083099-1.309601,3.022995-2.635712,2.133804-2.86911
		c-3.154709-0.697296-3.234818,2.661102-4.748001,2.764587c-1.446304,0.091827-3.647003-1.702087-0.757309-3.935486
		c2.889099-2.233398,6.879791-4.463898,6.743103-5.104492C256.909698,267.613312,253.070801,269.247986,251.820297,270.220703z"/>
	<path fill="#FDD114" stroke="#CF1126" stroke-width="0.27649" d="M244.320297,279.577118
		c-0.128906,0.898499,2.959503,0.902374,3.509293,0.105499C248.241196,279.099609,244.459,278.671906,244.320297,279.577118z"/>
	<path fill="#FDD114" stroke="#CF1126" stroke-width="0.27649" d="M254.719193,280.165985
		c-1.743103,1.408203,0.204605,3.012726,1.535202,4.325226c0.737305,0.703094,2.429688,1.386688,3.488312,1.724579
		c1.580475,0.479523,4.72998,0.313507,6.574188-0.790985c2.083984-1.308594,2.250488-3.608398,0.98291-3.618195
		c-3.272522-0.030212-0.992706,3.364288-2.507324,3.463898c-1.446289,0.091797-5.500977-0.613312-7.473175-3.841797
		c-1.127899-1.902313,2.076691-2.265594,1.597198-3.09082C258.428192,277.449188,255.967789,279.189514,254.719193,280.165985z"/>
	<path fill="#FDD114" stroke="#CF1126" stroke-width="0.27649" d="M263.215302,280.041992
		c0.677277,0.733398,2.985901-0.850586,2.707092-1.727478C265.728485,277.665009,262.538086,279.294891,263.215302,280.041992z"/>
	<path fill="#FDD114" stroke="#CF1126" stroke-width="0.27649" d="M267.826202,286.752899
		c-0.092804,1.035217,0.30368,2.429718-1.271515,2.479492c-1.571289,0.045898-3.569305-1.589783-5.142609-1.543884
		c-1.572296,0.045898-2.237793,0.980408-2.057587,1.496094c0.18161,0.513611,2.904816,1.123016,7.562988,0.886688
		c4.661102-0.231476,3.631805,1.963928,6.900421,1.77832c3.268494-0.1875,3.750885-1.02832,3.508301-1.589813
		c-0.239807-0.561584-3.023499-0.188507-4.053711-0.326202c-1.028809-0.141602-2.842804-1.402405-3.086487-2.479492
		c-0.239716-1.074188-0.239716-2.930695,0.968781-2.946289c2.240723-0.030304,1.20462,1.572296,1.28952,2.135803
		c0.077179,0.496979,0.810089,1.014587,1.796387,0.109283c1.3125-1.200195,0.605011-3.086914-0.666504-3.742188
		C272.30368,282.355499,268.062988,284.233398,267.826202,286.752899z"/>
	<path fill="#FDD114" stroke="#CF1126" stroke-width="0.27649" d="M279.3862,286.941406
		c-0.239716,1.853485-1.955994,1.987305-1.756317,2.665009c0.248016,0.777374,0.870117,1.020599,1.270996,2.944397
		c0.225616,0.951202,1.753906,1.352478,3.690918,1.264587c1.583496-0.036102,2.664093-1.692413,3.690887-1.637695
		c1.452698,0.061584,0.244202,2.598694,3.631409,2.571289c2.723114-0.018494,3.389587-1.824188,4.357391-1.868103
		c0.967804-0.047882,0.846222,2.103516,3.085907,2.103516c2.239288,0,3.21051-1.96579,4.237305-2.011688
		c1.086884,0.045898,1.086884,2.105377,4.413086,1.961884c3.331116-0.137695,5.810608-0.513702,6.599609-1.025391
		c0.789093-0.514709,1.146515-2.199219,2.237305-2.291016c1.086884-0.095703,2.785187,1.587921,4.299805,1.587921
		c1.507782,0,4.657288-2.94632,5.624084-2.992218c0.968719-0.045898,1.757813,1.82132,3.935516,1.82132
		c3.388702-0.044006,3.782196-3.448303,5.360382-3.609406c2.846619-0.21582,2.958893-1.111298,3.106415-1.344696
		c0.30368-0.655304-0.019501-3.726624-0.666992-5.128998c-0.309601-0.739227-3.93161-6.984314-5.559601-7.125916
		c-1.636719-0.138702-1.15332,1.683594-0.182617,2.760712c0.964905,1.075195,5.929718,6.079071,5.262695,7.530304
		c-0.664978,1.450195-4.175781-0.609406-6.960907-0.609406c-3.867188,0-6.224579,6.051788-8.954071,6.264679
		c-1.197327,0.100494-2.479523-0.792999-2.055725-1.448303c0.787109-0.93457,1.692413-3.17868-1.332977-2.852478
		c-3.02832,0.327087-6.111298,1.404297-5.627899,2.666992c0.485291,1.262695,2.30368,2.523407,0.30368,3.039001
		c-1.996094,0.515686-5.448303,0.655304-7.140594,0.233398c-1.694397-0.419891-0.6651-3.366211-1.694397-3.366211
		c-1.150391,0-1.210907,3.460022-2.844696,3.553711c-1.633301,0.094788-3.085907-0.420898-3.448212-1.402313
		c-0.364807-0.982391,0.604004-2.199188-0.484894-2.338898c-1.089905-0.140594-2.17868,3.881897-3.812012,3.787109
		c-1.634277-0.093689-1.694794-0.375-2.663086-1.167908c-0.967804-0.795898,0.846191-3.506897-0.786102-3.742188
		c-1.634308-0.234406-3.268585,4.021484-4.356506,3.975586c-1.09079-0.047882-2.723083-0.091797-3.208496-0.9375
		c-0.241699-0.418976-0.174805-3.050781-0.120087-4.119202C280.808594,286.149414,279.264191,286.36911,279.3862,286.941406z"/>
	<path fill="#FDD114" stroke="#CF1126" stroke-width="0.27649" d="M334.390594,275.481415
		c2.980499,3.490295,5.669891,8.207092,7.324188,8.464874c1.098694,0.124023-3.453094-6.311493-4.962769-7.763672
		C335.483398,274.6875,331.827087,272.440399,334.390594,275.481415z"/>
	<path fill="#FDD114" stroke="#CF1126" stroke-width="0.27649" d="M279.107391,283.978516
		c-0.442383,0.84668-0.283691,1.664093,0.476624,1.541992c0.763184-0.120117,1.748993-1.541992,1.496582-1.816406
		C280.824707,283.434601,279.713898,283.19339,279.107391,283.978516z"/>
	<path fill="#FDD114" stroke="#CF1126" stroke-width="0.27649" d="M343.151398,277.029297
		c-0.010803,1.892609,1.723602,4.032196,4.946289,3.898407c3.226501-0.136719,6.764618-2.895508,7.026306-5.724609
		c0.259796-2.829102-4.260712-4.906189-5.393494-4.298798c-1.128906,0.604492,0.42868,2.716797,3.322205,2.84671
		c1.240295,0.057587,0.834991,1.93161-1.542908,3.412109c-2.487305,1.5224-6.172913,1.492188-7.07431,0.443298
		C343.738281,276.123993,343.105499,276.114288,343.151398,277.029297z"/>
	<path fill="#FDD114" stroke="#CF1126" stroke-width="0.27649" d="M345.09668,271.293915
		c-0.473694,0.750977,0.507813,2.476593,1.574219,2.401398C347.753906,273.613312,345.438477,270.799805,345.09668,271.293915z"/>
	<path fill="#FDD114" stroke="#CF1126" stroke-width="0.27649" d="M354.5625,269.959015
		c0.627899,1.121094,1.375,2.830994,2.701202,2.830994c1.325195,0,2.393494,0.275391,2.393494,1.142609
		c0,0.863281-3.454102,3.744171-3.565399,4.720673c-0.192413,1.660217,1.373993,1.572327,2.139587,0.667999
		c0.760803-0.905304,2.829102-5.161072,3.253998-6.335876c0.188416-0.926819,1.672821-2.672913,1.736298-4.485413
		c-0.097687-2.045898,2.337921-0.393585,3.512726-0.315399c1.070282,0.038116,2.237274-1.494202,2.393494-2.594788
		c0.151398-1.101501-1.121094-1.296814-1.121094-2.282196c0-0.550812,1.360382-2.32132,1.422882-3.503906
		c0.15332-1.041016-2.645508-4.051712-3.816406-4.009811c-0.970703,0.036209-0.15329,1.138718,0.407196,1.610397
		c0.557617,0.473602,1.986328,1.458008,1.474609,2.32132c-0.916992,1.694275-5.394501,2.125977-5.595703,3.9375
		c-0.205994,1.296875,0.201202,5.388672-1.176697,5.388672c-1.373108,0-2.5-2.555695-4.63089-2.557678
		C353.702087,266.446289,354.065399,269.101593,354.5625,269.959015z"/>
	<path fill="#FDD114" stroke="#CF1126" stroke-width="0.27649" d="M358.075195,254.414993
		c0.06839,0.729507,2.038086,3.894608,3.208984,3.894608c1.677704,0-0.765594-1.493195-0.609375-2.044006
		c0.15329-0.553696,2.558594-1.382797,1.578094-1.574188C360.493195,254.275406,357.989288,253.452103,358.075195,254.414993z"/>
	<path fill="#FDD114" stroke="#CF1126" stroke-width="0.27649" d="M357.923798,250.323196
		c0.357483,1.023514,5.801788,2.55571,8.145508,3.071304c2.344788,0.509796,5.192383,2.672913,6.260773,1.963898
		c1.07132-0.707001-7.175781-3.224594-8.396484-3.580093C362.708008,251.424805,357.669891,249.300797,357.923798,250.323196z"/>
	<path fill="#FDD114" stroke="#CF1126" stroke-width="0.27649" d="M374.368195,256.932617
		c2.038086,0.0401,0.916992-3.068314,0.407196-3.813507c-0.510803-0.75-1.274384,1.414093-1.170898,2.042999
		C373.705078,255.7939,373.758789,256.894501,374.368195,256.932617z"/>
	<path fill="#FDD114" stroke="#CF1126" stroke-width="0.27649" d="M362.504883,241.468704
		c-0.016602,0.705093,5.626007,0.2061,8.247131,0.7491c1.130768,0.244095,4.98819,1.848602,5.702087,1.455093
		c0.817383-0.825195-5.242218-2.595795-8.707001-2.595795C366.629883,241.088898,362.52829,240.641602,362.504883,241.468704z"/>
	<path fill="#FDD114" stroke="#CF1126" stroke-width="0.27649" d="M361.030304,243.4785
		c-1.012726,0.835007,3.404297,1.770493,7.328094,1.884796c3.914093,0.11911,6.449188,1.935501,6.113281,3.26561
		c-0.556671,2.244095-5.452179,0.789993-4.84079,2.008804c0.357391,0.94429,2.507813,0.596695,2.750916,1.614288
		c0.167999,1.0224,1.548889,1.202103,1.476593-0.060593c-0.007813-1.002899,3.031189-2.657196,2.953094-3.126907
		c-0.154297-0.944397-1.984406-4.2491-6.670898-4.6026C365.459991,244.108398,362.321289,242.362305,361.030304,243.4785z"/>
	<path fill="#DE0029" d="M235.839798,265.541992c-0.626907-0.27829-2.866699,1.274414-2.0625,1.622101
		C235.300797,267.831116,236.795898,265.955109,235.839798,265.541992z"/>
	<path fill="#DE0029" d="M240.648895,263.695313c-1.086899-0.103516-1.611298,1.67868-0.703094,1.78418
		C242.257294,265.725616,242.712891,263.889618,240.648895,263.695313z"/>
	<path fill="#DE0029" d="M327.393585,287.176788c-1.098694,1.872009-0.153381,3.704102,1.596619,3.350525
		c1.75-0.351501,3.5-2.939423,2.205078-3.761719C329.90329,285.942413,328.11908,285.93161,327.393585,287.176788z"/>
</g>
</svg>
